<svg width="210" height="130" viewBox="0 0 210 130" fill="none" xmlns="http://www.w3.org/2000/svg">
<g clip-path="url(#clip0_377_4724)">
<path fill-rule="evenodd" clip-rule="evenodd" d="M127.131 56.4491H121.934V70.3991C124.443 70.3991 126.862 71.3891 128.654 73.1891C130.446 74.9891 131.432 77.4191 131.432 79.9391V80.1191C131.432 85.4291 127.131 89.8391 121.845 89.9291H112.078L105 96.3191L97.9216 89.9291H88.1551C82.7791 89.9291 78.4783 85.6091 78.4783 80.2091C78.4783 80.1191 78.4783 80.2091 78.4783 79.9391C78.4783 79.2191 78.5679 78.4991 78.7471 77.7791C78.9263 77.0591 79.1951 76.4291 79.4639 75.7991C80.3599 74.0891 81.7039 72.6491 83.4063 71.6591V51.5891H88.3343V70.4891H92.4559C92.5455 70.4891 92.6351 70.4891 92.8143 70.4891V51.5891H97.7423V74.8991C98.6383 76.8791 99.1759 79.1291 99.3551 81.2891C96.7567 78.4091 92.8143 75.1691 89.9471 75.1691H88.2448C86.3632 75.1691 84.6608 76.2491 83.7648 77.8691C83.5856 78.2291 83.4959 78.4991 83.4063 78.8591C83.3167 79.2191 83.2271 79.5791 83.2271 79.9391V80.1191C83.2271 82.9091 85.4672 85.0691 88.2448 85.0691H97.3839L102.222 80.7491V46.9991H88.3343V41.3291H103.746C102.312 41.0591 101.058 40.4291 99.9823 39.3491C98.6383 37.9991 97.9216 36.1991 97.9216 34.3091C97.9216 30.4391 101.058 27.2891 104.91 27.2891C108.763 27.2891 111.899 30.4391 111.989 34.3091C111.989 36.1991 111.272 37.9991 109.928 39.3491C108.942 40.3391 107.688 41.0591 106.254 41.2391H121.666V46.9991H107.778V80.7491L112.616 85.0691H121.755C124.443 85.0691 126.683 82.8191 126.773 80.1191V80.0291C126.773 78.7691 126.235 77.5091 125.339 76.6091C124.443 75.7091 123.278 75.1691 122.024 75.1691H121.845H117.096H117.006V56.4491H111.81V51.4991H127.131V56.4491ZM55.4511 63.0191C56.7951 63.0191 57.8703 64.0991 57.8703 65.4491C57.8703 66.7991 56.7951 67.8791 55.4511 67.8791C54.1071 67.8791 53.0319 66.7991 53.0319 65.4491C52.9423 64.0991 54.1071 63.0191 55.4511 63.0191ZM154.549 63.0191C155.893 63.0191 156.968 64.0991 156.968 65.4491C156.968 66.7991 155.893 67.8791 154.549 67.8791C153.205 67.8791 152.13 66.7991 152.13 65.4491C152.13 64.0991 153.205 63.0191 154.549 63.0191ZM105.09 32.1491C104.462 32.1491 103.925 32.4191 103.477 32.8691C103.029 33.3191 102.85 33.8591 102.85 34.4891C102.85 35.1191 103.118 35.6591 103.566 36.1091C104.014 36.5591 104.552 36.7391 105.179 36.7391C106.434 36.7391 107.419 35.6591 107.419 34.3991C107.419 33.7691 107.15 33.2291 106.792 32.7791C106.254 32.3291 105.627 32.1491 105.09 32.1491Z" fill="#345DAB"/>
<path d="M68.1743 34.0409L68.9807 33.4109C69.2495 33.7709 69.5183 34.2209 69.5183 34.6709C69.5183 35.1209 69.3391 35.5709 69.0703 35.9309C68.7119 36.4709 68.1743 36.7409 67.6367 36.8309C67.0095 36.9209 66.2927 36.7409 65.7551 36.2909C65.2175 35.9309 64.7695 35.3909 64.5903 34.6709C64.4111 33.5009 65.1279 32.4209 66.2927 32.1509C66.6511 32.0609 67.0095 32.1509 67.2783 32.2409L66.9199 33.1409C66.7407 33.0509 66.4719 33.0509 66.2031 33.0509C66.0239 33.1409 65.8447 33.2309 65.7551 33.4109C65.5759 33.6809 65.4863 34.0409 65.5759 34.3109C65.7551 34.7609 66.0239 35.1209 66.3823 35.3009C66.7407 35.5709 67.1887 35.7509 67.6367 35.8409C68.1743 35.7509 68.6223 35.3009 68.6223 34.6709C68.5327 34.4909 68.3535 34.2209 68.1743 34.0409ZM66.7407 30.9809L67.4575 30.1709L70.0559 30.9809L68.8015 28.6409L69.4287 27.9209L71.1311 31.5209C71.3103 31.8809 71.3999 32.1509 71.4895 32.5109C71.4895 32.7809 71.3999 33.0509 71.2207 33.2309C71.0415 33.4109 70.9519 33.5909 70.7727 33.6809L70.2351 33.2309L70.5039 32.9609C70.5935 32.8709 70.6831 32.6909 70.6831 32.5109C70.6831 32.3309 70.5935 32.1509 70.5039 31.9709L66.7407 30.9809ZM70.2351 27.0209L72.6543 24.7709L75.3423 27.7409L75.6111 27.4709L76.8655 28.8209L76.2383 29.3609L75.5215 28.5509L73.2815 30.6209L73.9983 31.3409L73.4607 31.8809L72.2063 30.5309L72.4751 30.2609C72.2959 29.8109 72.1167 29.3609 71.7583 28.9109C71.3999 28.4609 70.9519 28.0109 70.4143 27.3809L70.2351 27.0209ZM71.3999 27.0209C72.2063 27.7409 72.8335 28.6409 73.2815 29.6309L74.6255 28.3709L72.4751 26.0309L71.3999 27.0209ZM75.0735 25.8509C74.8047 25.4909 74.6255 25.1309 74.5359 24.7709C74.4463 24.5009 74.4463 24.2309 74.4463 23.9609C74.4463 23.6909 74.5359 23.4209 74.6255 23.2409C74.8047 22.9709 75.0735 22.7009 75.3423 22.4309C75.7903 21.9809 76.5071 21.8009 77.1343 21.8909C77.8511 21.9809 78.3887 22.3409 78.8367 22.8809C79.2847 23.3309 79.5535 24.0509 79.4639 24.6809C79.3743 25.3109 79.0159 25.8509 78.5679 26.2109C78.1199 26.6609 77.4927 26.8409 76.7759 26.7509C76.1487 26.7509 75.5215 26.3909 75.0735 25.8509ZM75.8799 25.2209C76.1487 25.5809 76.5071 25.8509 76.9551 26.0309C77.6719 26.1209 78.2991 25.6709 78.4783 24.9509V24.8609C78.4783 24.4109 78.2991 23.9609 78.0303 23.6009C77.7615 23.2409 77.4031 22.9709 76.9551 22.8809C76.5967 22.7909 76.2383 22.9709 75.9695 23.1509C75.7007 23.3309 75.4319 23.6909 75.4319 24.0509C75.4319 24.5009 75.6111 24.9509 75.8799 25.2209ZM80.2703 24.8609L80.4495 21.8909L78.0303 20.6309L79.0159 20.0909L80.6287 20.9909L80.7183 19.1909L81.7039 18.6509L81.5247 21.4409L84.1231 22.7909L83.1375 23.3309L81.4351 22.4309L81.3455 24.4109L80.2703 24.8609ZM83.3167 20.3609C83.1375 20.0009 83.0479 19.5509 83.0479 19.1009C83.0479 18.8309 83.1375 18.5609 83.2271 18.2909C83.3167 18.0209 83.4063 17.8409 83.5855 17.6609C83.8543 17.3909 84.1231 17.2109 84.4815 17.0309C85.0191 16.7609 85.7359 16.6709 86.3631 16.9409C86.9903 17.2109 87.4383 17.7509 87.7071 18.3809C87.9759 19.0109 88.0655 19.6409 87.8863 20.2709C87.6175 20.9009 87.1695 21.3509 86.6319 21.5309C86.0943 21.8009 85.3775 21.8909 84.7503 21.6209C84.0335 21.4409 83.4959 20.9909 83.3167 20.3609ZM84.2127 19.9109C84.3919 20.3609 84.6607 20.6309 85.1087 20.8109C85.4671 20.9909 85.8255 20.9909 86.1839 20.8109C86.5423 20.7209 86.8111 20.3609 86.9007 20.0009C86.9903 19.5509 86.9007 19.1009 86.7215 18.7409C86.5423 18.3809 86.2735 18.0209 85.9151 17.8409C85.5567 17.6609 85.1983 17.6609 84.8399 17.8409C84.4815 18.0209 84.2127 18.2909 84.1231 18.6509C83.9439 19.0109 84.0335 19.4609 84.2127 19.9109ZM88.0655 15.6809L91.2015 14.6909L92.4559 18.4709L92.9039 18.3809L93.4415 20.1809L92.7247 20.4509L92.3663 19.4609L89.4991 20.3609L89.8575 21.3509L89.0511 21.6209L88.5135 19.8209L88.8719 19.7309C88.9615 19.1909 88.8719 18.7409 88.7823 18.2009C88.6031 17.4809 88.4239 16.8509 88.2447 16.2209L88.0655 15.6809ZM89.1407 16.1309C89.4991 17.1209 89.7679 18.2009 89.7679 19.2809L91.4703 18.7409L90.4847 15.6809L89.1407 16.1309ZM93.7103 18.9209L92.6351 14.2409L93.5311 14.0609L93.9791 15.9509L95.8607 15.5009L95.4127 13.6109L96.3087 13.4309L97.3839 18.1109L96.4879 18.2909L96.0399 16.3109L94.1583 16.7609L94.6063 18.8309L93.7103 18.9209ZM102.76 17.5709L101.685 17.6609L101.147 16.5809L99.2655 16.6709L98.9071 17.7509L97.9215 17.8409L99.4447 12.8909H100.43L102.76 17.5709ZM100.878 15.8609L100.072 14.1509L99.5343 16.0409L100.878 15.8609ZM106.165 17.5709V15.5909H105.986C105.806 15.5909 105.538 15.5909 105.358 15.6809C105.09 15.9509 104.91 16.2209 104.731 16.4909L104.014 17.4809H102.85L103.477 16.5809C103.656 16.3109 103.835 16.0409 104.014 15.7709C104.194 15.5909 104.373 15.5009 104.552 15.4109C104.194 15.3209 103.835 15.2309 103.656 14.9609C103.477 14.6909 103.387 14.4209 103.387 14.0609C103.387 13.7909 103.477 13.5209 103.656 13.2509C103.746 13.0709 104.014 12.8909 104.194 12.8009C104.552 12.7109 104.91 12.7109 105.269 12.7109H107.33L107.24 17.5709H106.165ZM106.254 13.6109H105.538C105.269 13.6109 105 13.6109 104.731 13.6109C104.642 13.6109 104.462 13.7009 104.373 13.7909C104.283 13.8809 104.194 14.0609 104.194 14.1509C104.194 14.3309 104.194 14.4209 104.283 14.5109C104.373 14.6009 104.462 14.6909 104.642 14.6909C104.91 14.6909 105.179 14.6909 105.448 14.6909H106.165L106.254 13.6109ZM110.466 13.0709L111.362 13.1609L111.093 15.2309C111.272 15.2309 111.451 15.2309 111.541 15.1409C111.72 14.9609 111.899 14.6909 111.989 14.4209C112.168 14.0609 112.347 13.7009 112.706 13.5209C113.064 13.4309 113.333 13.4309 113.691 13.4309H113.87L113.781 14.1509H113.602C113.422 14.1509 113.333 14.1509 113.154 14.1509C113.064 14.1509 112.974 14.2409 112.885 14.3309C112.795 14.5109 112.616 14.6909 112.526 14.8709C112.437 15.0509 112.347 15.1409 112.258 15.2309C112.347 15.4109 112.168 15.5009 111.989 15.5009C112.168 15.5909 112.347 15.7709 112.526 15.9509C112.706 16.2209 112.795 16.4909 112.885 16.7609L113.333 18.1109L112.258 18.0209L111.81 16.6709C111.81 16.6709 111.81 16.5809 111.72 16.5809C111.72 16.5809 111.72 16.4909 111.63 16.3109C111.541 16.1309 111.451 15.9509 111.362 15.8609C111.272 15.7709 111.093 15.6809 111.003 15.6809L110.734 17.7509L109.838 17.6609L110.466 13.0709ZM114.408 16.0409C114.498 15.5909 114.677 15.2309 114.946 14.8709C115.125 14.6909 115.304 14.5109 115.573 14.3309C115.752 14.1509 116.021 14.1509 116.29 14.0609C116.648 14.0609 117.006 14.0609 117.365 14.1509C117.992 14.3309 118.53 14.6909 118.888 15.2309C119.157 15.8609 119.246 16.4909 119.067 17.2109C118.888 17.8409 118.53 18.4709 117.992 18.8309C117.454 19.1909 116.827 19.1909 116.2 19.0109C115.573 18.9209 115.035 18.4709 114.677 17.9309C114.229 17.3909 114.229 16.6709 114.408 16.0409ZM115.304 16.3109C115.214 16.7609 115.214 17.2109 115.394 17.5709C115.573 17.9309 115.842 18.1109 116.2 18.2009C116.558 18.2909 116.917 18.2009 117.186 18.0209C117.544 17.7509 117.813 17.3009 117.902 16.9409C118.082 16.5809 118.082 16.1309 117.902 15.6809C117.723 15.3209 117.454 15.1409 117.096 15.0509C116.738 14.9609 116.379 14.9609 116.021 15.2309C115.662 15.5009 115.483 15.8609 115.304 16.3109ZM118.888 19.8209L120.68 15.3209L122.024 15.8609L121.666 19.2809L123.637 16.4909L124.981 17.0309L123.278 21.5309L122.472 21.1709L123.816 17.6609L121.576 20.8109L120.68 20.4509L121.128 16.5809L119.784 20.0909L118.888 19.8209ZM126.325 17.6609L129.73 19.3709L127.579 23.6909L126.683 23.2409L128.475 19.6409L126.773 18.8309L124.981 22.4309L124.085 21.9809L126.325 17.6609ZM131.88 26.7509L130.984 26.1209L131.253 24.9509L129.73 23.8709L128.834 24.5009L128.027 23.9609L132.328 21.0809L133.134 21.7109L131.88 26.7509ZM131.522 24.2309L131.97 22.3409L130.446 23.4209L131.522 24.2309ZM132.328 27.1109L135.374 23.4209L136.181 24.0509L134.926 25.4909L136.36 26.7509L137.614 25.3109L138.331 25.9409L135.195 29.6309L134.478 29.0009L135.822 27.3809L134.389 26.1209L133.045 27.7409L132.328 27.1109ZM139.406 27.0209L140.034 27.6509L137.704 29.9009L141.378 29.0909L142.184 29.7209L138.69 33.0509L138.062 32.4209L140.302 30.2609L136.718 31.0709L136.091 30.3509L139.406 27.0209ZM140.93 36.2009L142.542 35.0309L142.453 34.8509C142.363 34.6709 142.184 34.4909 141.915 34.4009C141.557 34.3109 141.198 34.3109 140.84 34.4009L139.586 34.4909L138.869 33.5909L140.034 33.5009C140.302 33.5009 140.661 33.5009 140.93 33.5009C141.109 33.5009 141.378 33.5909 141.557 33.6809C141.378 33.3209 141.288 32.9609 141.378 32.6009C141.467 32.3309 141.646 32.0609 141.915 31.8809C142.094 31.7009 142.363 31.6109 142.632 31.6109C142.901 31.6109 143.17 31.7009 143.349 31.7909C143.618 32.0609 143.886 32.3309 144.066 32.6009L145.32 34.2209L141.467 37.0109L140.93 36.2009ZM144.155 33.8609L143.707 33.2309C143.528 33.0509 143.438 32.7809 143.259 32.6009C143.17 32.5109 143.08 32.4209 142.901 32.4209C142.722 32.4209 142.632 32.4209 142.542 32.5109C142.453 32.6009 142.363 32.6909 142.274 32.8709C142.274 32.9609 142.274 33.1409 142.363 33.2309C142.453 33.5009 142.632 33.6809 142.811 33.8609L143.259 34.4009L144.155 33.8609Z" fill="#345DAB"/>
<path fill-rule="evenodd" clip-rule="evenodd" d="M51.7776 75.8894H51.8672C51.9568 76.1594 52.2256 76.3394 52.4048 76.4294C52.584 76.5194 52.8528 76.5194 53.032 76.4294C53.3904 76.3394 53.6592 76.2494 53.928 76.1594L59.9312 74.0894C60.2 73.9994 60.4688 73.9094 60.7376 73.7294C60.9168 73.6394 61.096 73.4594 61.1856 73.2794C61.2752 73.0094 61.3648 72.7394 61.2752 72.5594L61.4544 72.4694L62.7088 76.0694H62.6192C62.5296 75.7094 62.1712 75.4394 61.8128 75.4394C61.3648 75.4394 60.9168 75.5294 60.4688 75.7094L54.6448 77.6894C54.376 77.7794 54.1072 77.8694 53.8384 78.0494C53.6592 78.1394 53.5696 78.3194 53.5696 78.5894C53.5696 78.9494 53.6592 79.2194 53.7488 79.4894L54.2864 81.1094C54.376 81.4694 54.5552 81.7394 54.7344 82.0094C54.824 82.1894 55.0032 82.2794 55.272 82.2794C55.5408 82.2794 55.8096 82.1894 56.0784 82.0994L61.9024 80.1194C62.3504 80.0294 62.7984 79.7594 63.1568 79.4894C63.4256 79.2194 63.5152 78.8594 63.336 78.5894H63.4256L64.5904 82.0994H64.68C64.5904 81.7394 64.232 81.4694 63.8736 81.4694C63.4256 81.4694 63.0672 81.5594 62.6192 81.7394L56.616 83.8094C56.3472 83.8994 55.9888 84.0794 55.8096 84.2594C55.6304 84.3494 55.5408 84.5294 55.4512 84.7094C55.3616 84.7994 55.3616 84.9794 55.4512 85.0694C55.4512 85.1594 55.5408 85.2494 55.6304 85.2494L52.9424 86.9594L52.8528 86.8694C53.3008 86.5094 53.6592 86.1494 53.928 85.6094C54.1968 85.1594 54.2864 84.6194 54.376 84.1694C54.376 83.6294 54.376 82.9994 54.1968 82.4594L51.7776 75.8894ZM67.2784 91.0994L67.1888 91.0094C67.4576 90.5594 67.6368 90.1094 67.7264 89.5694C67.816 89.0294 67.7264 88.4894 67.6368 87.9494C67.4576 87.4094 67.2784 86.9594 67.0096 86.4194C66.6512 85.8794 66.3824 85.6094 66.2032 85.6094C65.9344 85.5194 65.576 85.6094 65.128 85.9694L64.4112 86.5094L65.0384 87.4994L65.2176 87.7694C65.3072 87.9494 65.4864 88.1294 65.6656 88.3094C65.8448 88.4894 65.9344 88.5794 66.2032 88.5794C66.3824 88.5794 66.6512 88.5794 66.8304 88.3994L66.92 88.4894L64.3216 90.9194L64.232 90.8294C64.5904 90.4694 64.7696 90.0194 64.9488 89.5694C65.0384 89.2094 64.9488 88.8494 64.8592 88.4894C64.5904 88.0394 64.4112 87.5894 64.0528 87.1394L63.8736 86.7794L60.3792 89.0294C60.1104 89.2094 59.752 89.3894 59.5728 89.6594C59.3936 89.8394 59.304 90.0194 59.3936 90.2894C59.4832 90.6494 59.6624 91.0094 59.8416 91.2794C60.9168 92.9894 62.888 93.9794 64.9488 93.6194V93.7994L60.9168 94.7894C60.9168 94.6994 60.9168 94.6094 60.9168 94.4294C60.8272 94.2494 60.8272 94.1594 60.7376 94.0694L56.7952 88.0394L56.8848 87.9494C57.064 88.1294 57.3328 88.3094 57.512 88.3994C57.6912 88.3994 57.96 88.3994 58.1392 88.3094C58.408 88.1294 58.6768 88.0394 58.9456 87.8594L64.232 84.4394C64.5904 84.1694 64.9488 83.8994 65.2176 83.5394C65.3968 83.2694 65.3968 82.8194 65.2176 82.5494L65.3072 82.4594L68.9808 88.0394C69.16 88.3094 69.3392 88.4894 69.608 88.6694L67.2784 91.0994ZM74.4464 97.1294C74.1776 97.3994 73.9088 97.5794 73.5504 97.5794C73.192 97.6694 72.744 97.5794 72.3856 97.4894C71.9376 97.3994 71.5792 97.2194 71.2208 97.0394C71.7584 97.7594 72.1168 98.5694 72.2064 99.3794C72.296 100.099 72.0272 100.909 71.4896 101.449C71.0416 101.899 70.504 102.259 69.8768 102.349C69.16 102.439 68.4432 102.259 67.816 101.989C67.0096 101.539 66.2032 100.999 65.576 100.369C65.3072 100.099 65.0384 99.8294 64.8592 99.5594L64.1424 98.7494C64.0528 98.5694 63.8736 98.4794 63.6944 98.3894L65.128 95.5994H65.2176C65.0384 96.0494 64.9488 96.4994 64.9488 96.9494C64.9488 97.3994 65.0384 97.9394 65.2176 98.3894C65.3072 98.8394 65.576 99.2894 65.9344 99.6494C66.5616 100.279 67.368 100.819 68.264 100.999C68.9808 101.089 69.6976 100.819 70.2352 100.279C70.5936 99.9194 70.8624 99.4694 70.8624 98.9294C70.7728 98.3894 70.5936 97.7594 70.2352 97.3094C69.6976 96.5894 69.16 95.9594 68.5328 95.3294L69.0704 94.7894C69.5184 95.2394 70.056 95.5994 70.5936 95.8694C71.0416 96.1394 71.5792 96.3194 72.1168 96.3194C72.5648 96.3194 72.9232 96.2294 73.2816 95.8694C73.64 95.5994 73.7296 95.1494 73.7296 94.6994C73.64 94.1594 73.2816 93.7994 72.9232 93.4394C72.4752 92.8994 71.848 92.5394 71.2208 92.3594C70.504 92.2694 69.7872 92.3594 69.16 92.5394L69.0704 92.3594L71.848 91.0094C71.848 91.2794 71.9376 91.4594 72.1168 91.6394C72.296 91.8194 72.4752 91.9994 72.6544 92.0894C72.9232 92.2694 73.192 92.5394 73.4608 92.8094C73.9984 93.3494 74.4464 93.8894 74.8048 94.5194C75.0736 94.9694 75.1632 95.4194 75.1632 95.9594C74.984 96.4094 74.8048 96.7694 74.4464 97.1294ZM74.1776 104.779C73.9088 105.049 73.64 105.319 73.3712 105.589C73.2816 105.769 73.192 106.039 73.2816 106.219C73.3712 106.399 73.4608 106.669 73.64 106.759L73.5504 106.849L70.8624 105.139L70.952 105.049C71.1312 105.139 71.3104 105.139 71.4896 105.139C71.6688 105.139 71.7584 105.049 71.9376 105.049C72.3856 104.779 72.9232 104.509 73.2816 104.149L78.9264 99.8294C79.1952 99.6494 79.3744 99.4694 79.6432 99.1994C79.8224 98.9294 79.7328 98.6594 79.464 98.4794L79.5536 98.3894L82.5104 100.279L82.4208 100.369C82.152 100.279 81.8832 100.369 81.7936 100.639C81.704 100.819 81.6144 100.999 81.6144 101.269L79.7328 109.279C79.6432 109.549 79.6432 109.909 79.6432 110.179C79.6432 110.359 79.7328 110.629 79.912 110.719L79.8224 110.809L76.776 108.919L76.8656 108.829C77.3136 109.009 77.8512 108.739 78.12 108.289C78.3888 107.839 78.4784 107.299 78.4784 106.759C78.4784 106.039 78.2096 105.409 77.8512 104.779C77.4928 104.149 76.9552 103.609 76.328 103.159L74.1776 104.779ZM80.0912 100.189L76.8656 102.619C77.4032 102.889 77.8512 103.339 78.2096 103.789C78.568 104.239 78.8368 104.779 78.9264 105.319L80.0912 100.189ZM91.3808 104.419C91.7392 104.599 92.1872 104.779 92.5456 105.049C92.8144 105.229 93.0832 105.499 93.1728 105.859C93.2624 106.219 93.2624 106.669 93.0832 107.029C92.8144 107.659 92.1872 108.109 91.56 108.289C90.7536 108.559 89.9472 108.649 89.1408 108.649C88.2448 108.649 87.4384 108.559 86.632 108.469L85.5568 110.989C85.3776 111.439 85.288 111.889 85.1984 112.339C85.1984 112.699 85.4672 113.059 85.8256 113.149V113.239L82.3312 111.799V111.619C82.6896 111.799 83.048 111.709 83.3168 111.439C83.5856 111.079 83.8544 110.719 83.944 110.359L86.2736 104.509C86.3632 104.239 86.4528 103.879 86.5424 103.609C86.632 103.339 86.632 103.159 86.5424 102.889C86.4528 102.619 86.2736 102.439 86.0048 102.349L86.0944 102.259L91.3808 104.419ZM86.7216 107.749C89.32 107.929 90.8432 107.569 91.2016 106.579C91.3808 106.219 91.2912 105.769 91.0224 105.409C90.5744 104.959 90.1264 104.689 89.5888 104.509C89.2304 104.329 88.9616 104.239 88.6032 104.239C88.424 104.239 88.2448 104.329 88.0656 104.509C87.8864 104.779 87.7968 105.049 87.6176 105.319L86.7216 107.749ZM95.6816 114.139C95.592 114.409 95.592 114.589 95.592 114.859C95.592 115.039 95.6816 115.219 95.8608 115.309C96.1296 115.489 96.3984 115.579 96.6672 115.579C97.1152 115.669 97.6528 115.669 98.1008 115.579C98.5488 115.489 98.9072 115.309 99.176 114.949C99.4448 114.679 99.624 114.229 99.7136 113.869C99.8032 113.509 99.8032 113.059 99.624 112.699C99.5344 112.339 99.2656 111.889 98.9968 111.619C98.6384 111.259 98.28 110.899 97.9216 110.719C97.4736 110.449 96.936 110.269 96.3984 110.089L95.6816 114.139ZM101.506 114.229C101.416 114.769 101.147 115.309 100.699 115.759C100.251 116.119 99.7136 116.389 99.0864 116.479C98.28 116.569 97.4736 116.569 96.7568 116.389L92.6352 115.579V115.399C92.9936 115.489 93.352 115.309 93.5312 115.039C93.7104 114.679 93.8896 114.229 93.9792 113.779L95.144 107.569C95.2336 107.119 95.2336 106.669 95.2336 106.219C95.144 105.859 94.8752 105.589 94.5168 105.499V105.319L98.28 106.039V106.219C98.0112 106.219 97.6528 106.309 97.4736 106.399C97.2944 106.489 97.1152 106.759 97.0256 106.939C96.936 107.209 96.8464 107.569 96.7568 107.839L96.488 109.369C97.4736 109.639 98.3696 109.999 99.2656 110.449C99.9824 110.899 100.61 111.439 101.058 112.159C101.506 112.789 101.595 113.509 101.506 114.229ZM114.05 114.049C114.139 114.499 114.229 114.769 114.318 114.949C114.408 115.129 114.498 115.399 114.677 115.489C114.856 115.669 115.125 115.669 115.394 115.669V115.849L111.63 116.569V116.479C111.899 116.479 112.078 116.299 112.258 116.119C112.347 115.939 112.437 115.669 112.437 115.489C112.437 115.219 112.347 114.859 112.347 114.589L110.914 107.119C110.107 107.209 109.39 107.569 108.674 108.019C108.136 108.469 107.778 109.189 107.688 109.909H107.509L107.688 106.669C107.778 106.759 107.867 106.759 108.046 106.759C108.226 106.759 108.494 106.759 108.674 106.669L114.587 105.499C114.766 105.499 115.035 105.409 115.214 105.319C115.304 105.319 115.394 105.229 115.483 105.139L116.827 108.019L116.738 108.109C116.379 107.479 115.842 107.029 115.125 106.759C114.318 106.579 113.512 106.579 112.706 106.759L114.05 114.049ZM122.024 102.979C122.382 102.799 122.83 102.709 123.278 102.619C123.637 102.529 123.995 102.619 124.264 102.799C124.622 102.979 124.891 103.339 124.981 103.699C125.25 104.329 125.16 105.139 124.712 105.679C124.264 106.399 123.816 107.029 123.189 107.569C122.562 108.109 121.934 108.739 121.218 109.189L122.203 111.709C122.382 112.159 122.562 112.519 122.83 112.879C123.099 113.149 123.458 113.239 123.816 113.059L123.906 113.149L120.411 114.499L120.322 114.409C120.68 114.319 120.859 113.959 120.949 113.599C120.949 113.149 120.859 112.789 120.68 112.339L118.44 106.399C118.35 106.129 118.171 105.769 118.082 105.499C117.992 105.319 117.813 105.139 117.634 104.959C117.365 104.869 117.096 104.779 116.827 104.869L116.738 104.689L122.024 102.979ZM120.949 108.649C123.01 107.029 123.816 105.679 123.458 104.689C123.368 104.239 122.92 103.969 122.562 103.969C122.024 103.969 121.397 104.059 120.859 104.329C120.501 104.419 120.232 104.599 119.963 104.869C119.784 104.959 119.784 105.229 119.784 105.409C119.784 105.769 119.874 106.039 120.053 106.309L120.949 108.649ZM133.762 101.449C133.314 100.909 132.686 100.549 132.059 100.279C131.522 100.009 130.894 99.8294 130.267 99.9194C129.64 99.9194 129.013 100.189 128.475 100.549C128.117 100.819 127.758 101.089 127.49 101.449C127.221 101.809 127.042 102.169 126.952 102.619C126.862 103.069 126.862 103.609 126.862 104.059H126.683L125.877 100.999C126.146 101.089 126.325 100.999 126.594 100.909C126.683 100.909 126.773 100.729 127.131 100.459C127.49 100.189 127.758 100.009 128.027 99.7394C128.654 99.2894 129.461 99.0194 130.267 98.8394C130.984 98.6594 131.79 98.6594 132.507 98.8394C133.224 99.0194 133.941 99.2894 134.478 99.7394C135.106 100.189 135.643 100.819 136.091 101.449C136.539 102.079 136.808 102.709 136.898 103.519C136.987 104.239 136.898 104.869 136.629 105.499C136.36 106.219 136.002 106.849 135.554 107.389C135.016 108.019 134.389 108.559 133.762 109.009C133.672 109.099 133.493 109.189 133.224 109.369L132.686 109.729C132.507 109.819 132.418 109.909 132.238 109.999C132.059 110.089 131.97 110.179 131.88 110.269C131.701 110.359 131.611 110.449 131.432 110.629L129.013 108.559L129.102 108.469C129.371 108.649 129.73 108.829 130.088 108.919C130.446 109.009 130.805 109.099 131.163 109.009C131.522 109.009 131.88 108.919 132.238 108.829C132.597 108.739 132.866 108.559 133.134 108.379C133.762 107.929 134.299 107.389 134.658 106.669C135.016 106.039 135.106 105.319 135.016 104.509C134.926 103.699 134.568 102.889 134.12 102.169L130.088 104.869L129.64 104.149L133.762 101.449ZM137.704 91.9994C138.152 91.5494 138.6 91.1894 139.138 90.8294C139.586 90.5594 140.123 90.6494 140.392 91.0094C140.661 91.2794 140.84 91.5494 140.84 91.9094C140.93 92.2694 140.93 92.6294 140.84 92.9894C140.75 93.3494 140.661 93.7094 140.482 94.3394C140.93 94.0694 141.288 93.8894 141.736 93.7994C142.184 93.6194 142.542 93.5294 142.99 93.5294C143.438 93.5294 143.886 93.5294 144.245 93.6194C144.693 93.7094 145.051 93.9794 145.32 94.2494C146.216 95.0594 146.485 96.3194 146.037 97.3994C145.858 97.7594 145.678 98.1194 145.499 98.3894C145.32 98.7494 145.051 99.0194 144.782 99.2894C144.514 99.5594 144.245 99.9194 143.886 100.279L141.198 103.069L141.109 102.979C141.378 102.709 141.378 102.349 141.288 102.079C141.109 101.719 140.84 101.359 140.482 101.089L135.822 96.7694C135.464 96.4094 135.106 96.2294 134.747 95.9594C134.389 95.8694 134.03 95.9594 133.762 96.2294L133.672 96.1394L137.704 91.9994ZM138.69 96.9494C138.958 96.4994 139.138 95.9594 139.406 95.4194C139.586 94.8794 139.765 94.3394 139.765 93.7994C139.854 93.3494 139.675 92.8994 139.406 92.5394C139.227 92.3594 138.958 92.2694 138.779 92.3594C138.51 92.4494 138.331 92.5394 138.062 92.7194C137.794 92.8994 137.614 93.1694 137.435 93.3494C136.808 93.9794 136.539 94.4294 136.629 94.6994C136.718 94.9694 136.987 95.3294 137.256 95.5094L138.69 96.9494ZM141.826 99.9194C142.005 100.099 142.274 100.279 142.453 100.369C142.632 100.459 142.811 100.459 142.901 100.369C143.17 100.189 143.349 100.009 143.528 99.8294C144.155 99.1994 144.603 98.4794 144.872 97.6694C144.962 97.3994 144.962 97.1294 144.872 96.8594C144.782 96.5894 144.693 96.3194 144.603 96.0494C144.514 95.7794 144.334 95.5994 144.066 95.4194C143.707 95.1494 143.349 94.8794 142.901 94.7894C142.453 94.6994 142.005 94.6994 141.557 94.6994C141.109 94.7894 140.661 94.8794 140.213 95.0594L139.317 97.3994L141.826 99.9194ZM147.65 83.1794V83.2694C147.112 83.1794 146.574 83.2694 146.126 83.3594C145.589 83.5394 145.141 83.8094 144.782 84.1694C144.334 84.5294 143.976 84.9794 143.707 85.4294C143.438 85.7894 143.349 86.1494 143.349 86.5094C143.349 86.7794 143.618 87.0494 144.066 87.3194L144.872 87.7694L145.499 86.7794L145.678 86.5094C145.768 86.3294 145.947 86.0594 146.037 85.8794C146.126 85.6994 146.126 85.5194 146.037 85.3394C145.947 85.1594 145.858 84.9794 145.678 84.8894V84.7094L148.994 86.0594V86.2394C148.546 86.0594 148.008 86.0594 147.56 86.1494C147.202 86.2394 146.843 86.4194 146.664 86.6894C146.306 87.0494 146.037 87.4994 145.768 87.9494L145.589 88.3094L149.173 90.5594C149.442 90.7394 149.8 90.9194 150.069 91.0994C150.248 91.1894 150.517 91.0994 150.696 91.0094C150.965 90.8294 151.234 90.4694 151.413 90.1094C152.578 88.3994 152.488 86.1494 151.323 84.5294L151.413 84.4394L154.011 87.6794C153.922 87.6794 153.832 87.7694 153.742 87.7694C153.653 87.8594 153.563 87.9494 153.474 88.1294L149.621 94.2494L149.531 94.1594C149.621 93.8894 149.71 93.6194 149.621 93.4394C149.531 93.2594 149.442 93.0794 149.262 92.8994C149.083 92.7194 148.814 92.6294 148.546 92.3594L143.17 89.0294C142.811 88.7594 142.363 88.5794 141.915 88.4894C141.557 88.3994 141.198 88.5794 141.019 88.9394L140.93 88.8494L144.514 83.1794C144.693 82.9094 144.782 82.6394 144.782 82.3694L147.65 83.1794ZM147.918 75.9794C147.65 76.6994 147.829 77.4194 148.187 77.9594C148.456 78.3194 148.814 78.6794 149.083 79.0394C149.531 79.4894 149.979 79.8494 150.427 80.2094C150.965 80.5694 151.502 80.9294 152.04 81.2894C152.578 81.5594 153.205 81.8294 153.832 82.0994C154.28 82.1894 154.728 82.2794 155.086 82.1894C155.534 82.0994 155.893 81.7394 155.982 81.3794H156.072L155.176 84.0794C154.818 83.9894 154.28 83.7194 153.653 83.4494C152.936 83.0894 152.309 82.7294 151.592 82.3694C150.786 81.9194 150.069 81.3794 149.352 80.7494C148.635 80.1194 148.008 79.4894 147.47 78.7694C147.291 78.5894 147.112 78.4094 146.933 78.4094C146.664 78.3194 146.395 78.4094 146.216 78.6794H146.037L148.187 72.1094L148.366 72.1994C148.277 72.5594 148.366 72.9194 148.635 73.0994C148.994 73.3694 149.442 73.5494 149.89 73.6394L155.893 75.6194C156.341 75.7994 156.699 75.7994 157.147 75.7994C157.506 75.7094 157.774 75.5294 157.954 75.1694H158.043L156.878 78.7694H156.968C157.058 78.4094 156.968 78.0494 156.699 77.7794C156.341 77.5094 155.893 77.3294 155.445 77.1494L149.621 75.2594C149.352 75.1694 149.083 75.0794 148.814 75.0794C148.635 75.0794 148.456 75.1694 148.277 75.2594C148.098 75.5294 148.008 75.7994 147.918 75.9794Z" fill="#345DAB"/>
</g>
<defs>
<clipPath id="clip0_377_4724">
<rect width="210" height="130" fill="white"/>
</clipPath>
</defs>
</svg>
