<svg width="210" height="130" viewBox="0 0 210 130" fill="none" xmlns="http://www.w3.org/2000/svg">
<g clip-path="url(#clip0_377_4696)">
<path d="M65.8928 57.3164V74.1847H68.1192V81.4347H65.2636V76.9881H52.5828V81.4347H49.7272V74.1847C51.1308 74.2331 52.244 73.0247 52.8732 71.5264C53.2604 70.5597 53.5992 69.0614 53.5992 66.3547V57.3164H65.8928ZM56.6 66.3547C56.6 69.3997 56.2612 70.8981 55.9224 71.8164C55.4868 72.9281 54.9544 73.6047 54.3736 74.1364H62.8436V60.1681H56.6V66.3547Z" fill="#333333"/>
<path d="M73.9272 65.0014H82.3488V57.3164H85.3496V76.9881H82.3488V67.8047H73.9272V76.9881H70.9264V57.3164H73.9272V65.0014Z" fill="#333333"/>
<path d="M100.934 60.1681H93.0936V64.8564H100.692V67.7081H93.0936V74.1847H100.934V77.0364H90.0928V57.3164H100.934V60.1681Z" fill="#333333"/>
<path d="M119.326 57.3164V76.9881H116.326V60.1681H107.904V76.9881H104.903V57.3164H119.326Z" fill="#333333"/>
<path d="M128.377 57.3164C129.587 57.3164 131.281 57.4131 132.685 58.3797C134.33 59.4914 135.153 61.3764 135.153 63.1647C135.153 64.3247 134.863 66.0647 133.217 67.4664C131.668 68.7714 129.829 69.0131 128.426 69.0131H127.07V76.9881H124.07V57.3164H128.377ZM127.07 66.2581H128.426C131.039 66.2581 132.249 65.0014 132.249 63.1647C132.249 62.0531 131.814 60.1197 128.377 60.1197H127.07V66.2581Z" fill="#333333"/>
<path d="M157.756 67.1749C157.756 72.9749 153.4 77.3732 147.495 77.3732C141.59 77.3732 137.234 72.9266 137.234 67.1749C137.234 61.4232 141.59 56.9766 147.495 56.9766C153.4 56.9766 157.756 61.4232 157.756 67.1749ZM154.755 67.1749C154.755 62.8249 151.754 59.7316 147.544 59.7316C143.333 59.7316 140.332 62.7766 140.332 67.1749C140.332 71.5249 143.333 74.6182 147.544 74.6182C151.754 74.6182 154.755 71.5249 154.755 67.1749Z" fill="#333333"/>
<path d="M161.531 57.3164H171.405V60.1681H164.532V65.2914H166.468C167.872 65.2914 169.904 65.5331 171.405 66.8381C172.518 67.8047 173.244 69.3514 173.244 71.1881C173.244 72.9764 172.47 74.8614 170.776 75.9731C169.372 76.9397 167.678 77.0364 166.468 77.0364H161.483V57.3164H161.531ZM164.532 74.1847H166.371C167.146 74.1847 170.34 74.1847 170.34 71.1881C170.34 69.7864 169.614 68.0947 166.42 68.0947H164.532V74.1847Z" fill="#333333"/>
<path d="M178.52 57.3164L183.698 67.5147L188.2 57.3164H191.346L182.44 76.9881H179.294L181.956 71.1397L174.841 57.3164H178.52Z" fill="#333333"/>
<path d="M193.911 57.3164H203.736V60.1681H196.863V76.9881H193.862V57.3164H193.911Z" fill="#333333"/>
<path d="M41.9832 79.6466C42.1768 79.7916 42.2736 79.9849 42.2736 80.1783C42.2736 80.3716 42.2252 80.5649 41.9832 80.6616C41.7896 80.7583 41.596 80.7583 41.4024 80.6133C41.2088 80.4683 41.0636 80.3716 40.9668 80.2749C40.7248 80.0816 40.4344 79.9849 40.0472 79.8883C39.66 79.7916 39.2728 79.8399 38.8856 79.8883C38.0144 80.0816 37.24 80.3716 36.5624 80.8066C35.8848 81.2416 35.062 81.5316 34.1908 81.7249C33.6584 81.8216 33.126 81.7733 32.642 81.6283C32.158 81.4833 31.7224 81.3383 31.3836 81.1933C30.706 80.9033 30.0284 80.6133 29.4476 80.2749C28.8184 79.9366 28.0924 79.6949 27.318 79.5983H26.7372C26.1564 79.5983 25.6724 79.6949 25.3336 79.8883C24.9948 80.0816 24.656 80.2749 24.2688 80.5166C24.0752 80.6133 23.8332 80.7099 23.5912 80.8066C23.3492 80.9033 23.0588 80.9516 22.7684 80.9999C22.4296 81.0483 22.0424 80.9999 21.5584 80.8549C21.1228 80.6616 20.8324 80.5166 20.6388 80.3716C20.3 79.9849 19.9128 79.7433 19.5256 79.5016C19.1384 79.2599 18.606 79.1149 17.9768 79.0666C17.638 79.0183 17.2508 79.0666 16.8636 79.2116C16.4764 79.3566 16.186 79.5016 15.944 79.6466L14.3468 80.5166C14.1048 80.6616 13.9112 80.8066 13.6208 80.9516C13.3788 81.0966 13.0884 81.1933 12.8464 81.2899C12.4108 81.3866 11.9752 81.3866 11.5396 81.2899C11.104 81.1933 10.7168 81.0483 10.4264 80.9516C9.70038 80.7099 9.02278 80.4199 8.34518 80.1299C7.71598 79.8399 6.98998 79.5983 6.21558 79.4049C5.92518 79.3083 5.63478 79.3083 5.29598 79.3566C4.95718 79.4049 4.71518 79.5016 4.52158 79.5983C4.42478 79.6466 4.32798 79.7433 4.23118 79.7916C4.13438 79.8883 4.03758 79.9366 3.94078 79.9849C3.79558 80.0333 3.65038 79.9849 3.50518 79.8883C3.35998 79.7433 3.31158 79.5983 3.31158 79.4533C3.40838 79.0183 3.79558 78.7283 4.52158 78.4866C5.24758 78.2449 5.92518 78.2449 6.50598 78.3416C7.47398 78.5833 8.34518 78.8733 9.11958 79.2599C9.89398 79.6466 10.7652 79.9849 11.6848 80.1783C12.1204 80.2749 12.4592 80.2749 12.798 80.1299C13.1368 79.9849 13.4272 79.8399 13.6692 79.6949C13.766 79.6466 13.8628 79.5983 13.9596 79.5499C14.0564 79.5016 14.1532 79.4533 14.1532 79.3566C14.1532 79.3083 14.1532 79.1633 14.0564 78.9699C13.9596 78.7766 13.9112 78.6799 13.9112 78.5833C13.766 78.2449 13.6208 77.8583 13.4272 77.5199C13.282 77.1816 13.1368 76.7949 12.9916 76.4566C12.5076 75.4416 12.072 74.3783 11.588 73.3633C11.104 72.3483 10.5716 71.3816 9.99078 70.5116C9.94238 70.4149 9.84558 70.3183 9.79718 70.2699C9.70038 70.1733 9.65198 70.1249 9.55518 70.0283C9.36158 69.8833 9.11958 69.7383 8.82918 69.5933C8.53878 69.4483 8.49038 69.1583 8.68398 68.7716C8.87758 68.3366 9.36158 68.0466 10.0392 67.9016C10.7652 67.7566 11.3944 67.6116 11.9268 67.4666C12.072 67.4666 12.2172 67.4183 12.4108 67.4666C12.556 67.4666 12.7012 67.4666 12.8464 67.4183C12.8948 67.2733 12.9432 66.9349 12.8948 66.4033C12.8948 65.8716 12.8464 65.4849 12.8464 65.1949V60.0716C12.8464 59.7333 12.8464 59.2983 12.8464 58.7183C12.8464 58.1383 12.8948 57.7999 13.04 57.6066C13.1368 57.4133 13.3304 57.3649 13.6692 57.4133C13.9596 57.4616 14.2016 57.4616 14.3952 57.4133C14.4436 57.3649 14.4436 57.2199 14.4436 57.1233C14.4436 56.9783 14.4436 56.8333 14.4436 56.6883V56.1566C14.4436 56.0599 14.3468 55.9633 14.25 55.8666C14.1048 55.7699 14.008 55.6733 13.9596 55.6249L13.282 54.9483C13.1368 54.8033 13.04 54.6583 12.9916 54.4649C12.9432 54.2716 12.9916 54.1266 13.1852 53.9333C13.3304 53.8849 13.524 53.8366 13.8144 53.8366C14.1048 53.8366 14.2984 53.8366 14.492 53.8366H17.7348C17.88 53.8366 18.122 53.8366 18.5576 53.8366C18.9448 53.8366 19.1868 53.8366 19.1868 53.7399C19.2352 53.6916 19.2352 53.5466 19.2352 53.4499C19.2352 53.3049 19.2352 53.2083 19.2352 53.1116V51.4683L19.2836 50.7916C19.2836 50.7433 19.332 50.6466 19.4288 50.5983C19.4772 50.5499 19.574 50.5016 19.6708 50.5016C20.2516 50.4049 20.4936 50.8399 20.3484 51.8066C20.2032 52.7733 20.2032 53.4499 20.3484 53.8366C20.4452 53.8849 20.6872 53.8849 21.026 53.8849C21.3648 53.8849 21.6068 53.8849 21.752 53.8366C21.8004 53.7883 21.8488 53.5466 21.8488 53.2083C21.8488 52.8216 21.8488 52.5799 21.8488 52.4349V49.4383C21.8488 49.1966 21.8488 48.9066 21.8488 48.6166C21.8488 48.3266 21.8972 48.1333 22.0908 48.0366L22.3328 47.9883C22.6716 47.9883 22.8168 48.1333 22.8652 48.3749C22.8652 48.6166 22.9136 48.9066 22.9136 49.1966V52.4833C22.9136 52.6283 22.9136 52.8699 22.9136 53.2083C22.9136 53.5949 22.9136 53.7883 22.962 53.8366C23.0588 53.8849 23.3008 53.8849 23.7848 53.8849C24.2204 53.8849 24.5592 53.8849 24.7044 53.8849H29.012C29.3992 53.8849 29.7864 53.8849 30.222 53.8366C30.6576 53.8366 30.948 53.9333 31.0448 54.2233C31.0932 54.4166 31.0932 54.6099 30.948 54.7066C30.8028 54.8516 30.706 54.9483 30.6092 55.0449C30.5124 55.1416 30.3188 55.3349 30.0284 55.6249C29.738 55.8666 29.5928 56.0599 29.5444 56.2049V57.2683C29.5928 57.3649 29.738 57.4133 30.0284 57.3649C30.3188 57.3166 30.5124 57.3166 30.6576 57.3649C30.7544 57.3649 30.8512 57.4133 30.948 57.5099C31.0448 57.6066 31.0932 57.6549 31.0932 57.7516L31.1416 62.7783V66.3066C31.1416 66.4516 31.1416 66.6449 31.1416 66.9833C31.1416 67.2733 31.1416 67.4666 31.2384 67.4666C31.3836 67.5149 31.5772 67.5633 31.8192 67.5633C32.0612 67.5633 32.3032 67.5633 32.4484 67.6116C32.9324 67.7083 33.5132 67.8533 34.094 67.9983C34.6748 68.1433 35.062 68.4333 35.304 68.8199C35.3524 68.8683 35.3524 68.9166 35.4008 69.0133C35.4008 69.1099 35.4008 69.2066 35.4008 69.2549C35.3524 69.5449 35.2556 69.6899 35.062 69.7866C34.8684 69.8349 34.6748 69.9316 34.4812 70.0766C34.336 70.1733 34.2392 70.2699 34.1424 70.4149C34.0456 70.5599 33.9488 70.6566 33.9004 70.8016C33.5616 71.2849 33.2712 71.8166 33.0292 72.2999C32.7872 72.7833 32.4968 73.3633 32.2548 73.8949C32.0128 74.4266 31.7708 74.9583 31.4804 75.4899C31.19 76.0216 30.9964 76.5533 30.7544 77.1333C30.6576 77.3749 30.5608 77.6649 30.464 77.9066C30.3188 78.1483 30.222 78.4383 30.1252 78.6799C30.1252 78.7283 30.0768 78.8249 30.0284 78.9216C29.98 79.0183 29.98 79.1149 29.98 79.2116C30.0284 79.2599 30.0768 79.3083 30.1736 79.3083C30.2704 79.3083 30.3672 79.3566 30.4156 79.4049C30.6092 79.5016 30.8028 79.5983 30.9964 79.6949C31.19 79.7916 31.3836 79.8883 31.5772 79.9366C31.8192 80.0333 32.0612 80.1783 32.3516 80.2749C32.5936 80.4199 32.884 80.4683 33.1744 80.5649C33.6584 80.6616 34.094 80.6133 34.5296 80.4683C34.9652 80.3233 35.304 80.1783 35.5944 80.0816C36.2236 79.8399 36.8528 79.5499 37.4336 79.3083C38.0144 79.0666 38.692 78.8249 39.4664 78.7283C39.9504 78.6799 40.4344 78.7283 40.9668 78.9699C41.354 79.2599 41.7412 79.5016 41.9832 79.6466ZM21.4616 67.0799C21.4616 66.9349 21.4616 66.7416 21.4616 66.4999C21.4616 66.2583 21.4616 66.1133 21.3648 66.0166H21.268C21.1712 66.0649 21.0744 66.1133 20.9776 66.1616C20.8808 66.2099 20.7356 66.2099 20.6388 66.2583C20.3968 66.3549 20.2032 66.4516 19.9612 66.4999C19.7192 66.5966 19.5256 66.6933 19.2836 66.7416C18.364 67.0799 17.4928 67.3699 16.6216 67.6599C15.7504 67.9499 14.8308 68.1916 13.766 68.4333L12.3624 68.4816C11.9268 68.5299 11.4912 68.6266 11.0556 68.6266C10.62 68.6749 10.2328 68.7716 9.94238 69.0133L9.89398 69.0616C9.94238 69.2066 10.0392 69.3033 10.136 69.3516C10.2328 69.3999 10.3296 69.4966 10.378 69.5933C11.0072 70.3666 11.4428 71.0433 11.7816 71.5749C12.072 72.1549 11.9752 71.9616 11.3944 70.9949C11.8784 71.7683 12.314 72.6383 12.7496 73.5083C13.1852 74.3783 13.5724 75.2966 13.9596 76.1666C14.1048 76.4566 14.2016 76.7949 14.3468 77.0849C14.492 77.4233 14.5888 77.7133 14.734 78.0516C14.7824 78.1483 14.8308 78.2449 14.8308 78.4383C14.8792 78.5833 14.9276 78.6799 15.0244 78.7283C15.1212 78.7766 15.218 78.7283 15.3632 78.6316C15.5084 78.5349 15.6052 78.4866 15.702 78.4383C15.9924 78.2933 16.2828 78.1483 16.5732 78.0999C16.8636 78.0033 17.2024 77.9549 17.5896 77.9066C18.2672 77.8099 18.9448 77.9549 19.6708 78.3416C20.3968 78.7283 20.9292 79.0666 21.2196 79.3566H21.268H21.3164L21.3648 69.4966V67.0799H21.4616ZM21.8972 64.6633C22.0908 64.6149 22.3812 64.7116 22.7684 64.9049C23.1556 65.0983 23.446 65.2433 23.5912 65.2916C23.8332 65.3883 24.0752 65.4849 24.3172 65.5816C24.5592 65.6783 24.8496 65.7749 25.0916 65.8233C25.14 65.8233 25.2368 65.8716 25.3336 65.9683C25.4304 66.0166 25.5272 66.0649 25.5756 66.1133C25.8176 66.2099 26.0596 66.3066 26.3016 66.3549C26.5436 66.4516 26.7856 66.5483 27.0276 66.6449L27.2696 66.6933L27.4148 66.7899L27.6568 66.8383C27.8988 66.9349 28.1892 67.0316 28.4796 67.1283C28.77 67.2249 29.1088 67.2733 29.3508 67.3216C29.3992 67.3699 29.496 67.3699 29.6412 67.3699C29.7864 67.3699 29.8832 67.3699 29.8832 67.3216V58.5249L29.98 58.4766H14.008H13.9596L13.9112 58.5249L13.8628 65.2916V66.7899C13.8628 66.8866 13.8628 66.9833 13.8628 67.0799C13.8628 67.2249 13.8628 67.2733 13.9112 67.3216C14.008 67.3216 14.1532 67.3216 14.2984 67.2733C14.4436 67.2249 14.5404 67.1766 14.6372 67.1766L15.0244 67.1283C15.218 67.0799 15.4116 67.0316 15.6052 66.9833C15.7988 66.9349 15.9924 66.8383 16.186 66.7899H16.428L16.6216 66.6449L16.8636 66.5966L17.0088 66.4999L17.2508 66.4516C17.4444 66.4033 17.638 66.3066 17.8316 66.2583C18.0252 66.2099 18.2188 66.1133 18.4124 66.0649L18.5576 65.9683H18.848L18.8964 65.9199L18.9448 65.8716H19.1384C19.4288 65.7266 19.7676 65.5816 20.1064 65.4366C20.4452 65.2916 20.784 65.1466 21.1228 65.0016C21.268 64.9533 21.3648 64.9049 21.51 64.8083C21.6068 64.7599 21.752 64.7116 21.8972 64.6633ZM17.6864 58.9116C17.7832 58.9599 17.88 59.0566 17.9284 59.2016C18.0252 59.3466 18.0252 59.4916 17.9284 59.6366C17.8316 59.8783 17.4928 60.0233 16.912 60.0233C16.3312 60.0233 15.8472 59.9749 15.5084 59.9749C15.4116 59.9749 15.2664 59.9749 15.0728 60.0233C14.8792 60.0233 14.7824 60.0233 14.6856 59.9749C14.3952 59.8299 14.2984 59.6366 14.2984 59.3949C14.3468 59.1533 14.492 59.0083 14.7824 58.9116H16.8152C16.912 58.9116 17.0572 58.9116 17.2508 58.9116C17.4928 58.8633 17.5896 58.8633 17.6864 58.9116ZM14.9276 54.8516L14.8792 54.8999C14.8792 54.8999 14.8308 54.9483 14.8308 54.9966C14.8792 55.0449 14.9276 55.0933 14.976 55.1416C15.0244 55.1899 15.0728 55.2383 15.1696 55.2383L18.0252 55.2866H28.1408C28.2376 55.2866 28.3828 55.2866 28.5764 55.2866C28.7216 55.2866 28.8668 55.2866 28.9152 55.2383L29.254 54.8999V54.8516H29.1572H14.9276ZM28.528 57.2683C28.528 57.2199 28.5764 57.0749 28.5764 56.8333C28.5764 56.6399 28.5764 56.4949 28.528 56.4466C28.4796 56.3983 28.3344 56.3983 28.1408 56.3983C27.9472 56.3983 27.802 56.3983 27.7052 56.3983H15.5568L15.46 56.4466L15.3632 56.4949C15.3632 56.5916 15.3632 56.7366 15.3632 56.9299C15.3632 57.1233 15.3632 57.2683 15.46 57.2683C15.5568 57.3166 15.702 57.3649 15.8956 57.3649C16.0892 57.3649 16.2344 57.3649 16.3796 57.3649H27.4148C27.6084 57.3649 27.7536 57.3649 27.9472 57.3649C28.1408 57.3649 28.286 57.3649 28.4796 57.3166L28.528 57.2683ZM25.0916 59.5399C25.0432 59.7816 24.8496 59.9266 24.6076 59.9266C24.3656 59.9266 24.0752 59.9749 23.7848 59.9749H20.542H19.2352C18.9448 59.8299 18.848 59.6366 18.848 59.3949C18.8964 59.1533 19.0416 58.9599 19.332 58.8633H23.7364C24.0268 58.8633 24.2688 58.8633 24.4624 58.8633C24.656 58.8633 24.8496 58.9599 24.9464 59.1533C24.9464 59.2016 24.9948 59.2499 24.9948 59.2983C25.0432 59.3949 25.0916 59.4433 25.0916 59.5399ZM28.9152 78.8733C29.012 78.5349 29.1572 78.1966 29.3024 77.8583C29.4476 77.5199 29.5928 77.1816 29.738 76.8433C29.8348 76.6499 29.9316 76.4566 29.98 76.2633C30.0284 76.0699 30.1252 75.8766 30.1736 75.6833C30.5608 74.8616 30.948 74.0399 31.3352 73.2183C31.7224 72.3966 32.1096 71.6233 32.5936 70.8983C32.7388 70.6566 32.884 70.4149 33.0292 70.2216C33.1744 70.0283 33.368 69.7866 33.5616 69.5933L34.0456 69.2066L33.9972 69.1583C33.6584 68.9649 33.2712 68.8683 32.8356 68.7716C32.4 68.6749 31.9644 68.6266 31.4804 68.5783L30.2704 68.5299C30.0284 68.4816 29.8348 68.4333 29.5928 68.4333C29.3508 68.3849 29.1572 68.3366 28.9152 68.2883C28.8184 68.2883 28.6732 68.2399 28.528 68.1916C28.3828 68.1433 28.286 68.0949 28.1408 68.0466C27.4632 67.8533 26.834 67.6599 26.2532 67.4666C25.624 67.2733 25.0432 67.0316 24.3656 66.7899C24.172 66.6933 23.93 66.5966 23.688 66.5483C23.446 66.4516 23.204 66.3549 23.0104 66.3066C22.962 66.2583 22.8652 66.2099 22.7684 66.1616C22.6716 66.1133 22.5748 66.0649 22.5264 66.0649L22.478 66.1133V78.8249C22.478 78.9699 22.478 79.1633 22.4296 79.4049C22.4296 79.6466 22.4296 79.7916 22.478 79.9366C22.72 79.9849 22.9136 79.9849 23.1556 79.8883C23.3976 79.7916 23.5428 79.7433 23.688 79.6949C23.9784 79.5499 24.2688 79.3566 24.5592 79.1633C24.8496 78.9699 25.14 78.8249 25.4788 78.7283C25.8176 78.6316 26.2532 78.5833 26.7372 78.5833C27.2212 78.5833 27.6568 78.6316 28.044 78.7283C28.1408 78.7766 28.2376 78.8249 28.3344 78.8733C28.4796 78.9216 28.5764 78.9699 28.6732 78.9699L28.9152 78.8733ZM26.3016 59.9266C26.108 59.7816 26.0112 59.6366 26.0112 59.3949C26.0112 59.1533 26.108 59.0083 26.3016 58.9116L26.4468 58.8633H28.4796L29.3024 58.9116C29.3508 58.9599 29.4476 59.0566 29.5444 59.1533C29.6412 59.2983 29.6412 59.3949 29.5928 59.4916C29.5928 59.5883 29.5444 59.6849 29.4476 59.7333C29.3992 59.8299 29.3024 59.8783 29.2056 59.9266H27.1728C27.0276 59.9266 26.8824 59.9266 26.6888 59.9266C26.5436 59.9749 26.3984 59.9749 26.3016 59.9266Z" fill="#2A5EBC"/>
</g>
<defs>
<clipPath id="clip0_377_4696">
<rect width="210" height="130" fill="white"/>
</clipPath>
</defs>
</svg>
