<svg width="210" height="130" viewBox="0 0 210 130" fill="none" xmlns="http://www.w3.org/2000/svg">
<g clip-path="url(#clip0_377_4718)">
<path d="M228 35H-18V94H228V35Z" fill="#339967"/>
<path d="M100.228 58.3181H87.4061V79.9957H79.234V51.2627H100.228V58.3181ZM183.794 75.2462H174.175L172.827 79.9957H164.168L174.5 51.2726H183.759L194.052 79.9957H185.196L183.794 75.2462ZM182.032 69.0316L179.002 58.7066L176.001 69.0316H182.032ZM115.952 75.2462H106.333L105 79.9957H96.3261L106.658 51.2726H115.918L126.25 79.9957H117.344L115.952 75.2462ZM114.191 69.0365L111.16 58.7115L108.159 69.0365H114.191ZM129.059 51.2627H140.759L145.27 68.7415L149.772 51.2578H161.462V79.9957H154.156V58.0821L148.547 80.0006H141.954L136.345 58.0821V79.9957H129.064V51.2627H129.059Z" fill="white"/>
<path d="M63.1111 72.206C63.6353 70.7971 64.0321 69.3442 64.2968 67.8646C64.9216 64.595 64.2574 60.7895 63.5539 58.3016C61.212 50.0515 53.6794 44.004 43.254 43.8516L41.3253 43.9597C39.7509 44.1882 38.2011 44.5618 36.6956 45.0758C31.318 47.1359 26.28 51.7182 24.4497 57.2642C23.9922 58.6507 23.7363 60.0225 23.3821 61.5368L23.328 62.9823C22.8802 65.244 23.5838 68.3415 24.0414 70.1016C25.5616 76.1147 30.216 81.4591 35.746 83.4848C37.9994 84.3157 40.4348 85.1565 43.5344 85.1171L44.9071 85.1909C46.6045 84.9402 48.297 84.8369 49.8271 84.3747C55.8 82.59 60.9512 77.8159 63.1111 72.206ZM55.6524 75.9525C55.3894 75.7568 55.1949 75.4832 55.0964 75.1707L54.7422 74.9101L54.6684 74.4676C54.4765 74.2808 54.1764 74.2513 53.955 74.0596L53.9894 73.8727C54.4071 73.8282 54.8291 73.8925 55.2145 74.0596H55.4015C55.6228 73.7596 54.7126 72.8648 54.6585 72.5846C54.5503 72.0093 54.8996 71.3259 54.6241 70.9129C54.4273 70.6179 53.9992 70.7506 53.6401 70.6179C53.4688 70.5222 53.3417 70.3634 53.2858 70.1754C53.3744 69.6837 54.7619 69.5461 55.1407 69.2511H55.367C55.5967 69.8674 55.7101 70.5208 55.7016 71.1784L55.2096 71.5324V72.5157C55.2757 72.6141 55.364 72.6957 55.4674 72.7537C55.5708 72.8118 55.6864 72.8448 55.8049 72.8501C56.0509 73.2778 56.0263 74.9544 56.0263 75.6673L55.6524 75.9525ZM55.308 60.7501C56.6861 59.9986 57.8885 58.9629 58.8356 57.7116L58.9832 57.7461V57.8591C58.8998 57.9366 58.8224 58.0205 58.752 58.1099C58.8105 59.0322 59.1544 59.9136 59.736 60.6321C59.7409 60.7334 59.7101 60.8331 59.649 60.914C59.5878 60.9949 59.5002 61.0517 59.4014 61.0746H59.2145L58.8799 60.5191C58.7665 60.4399 58.6378 60.3856 58.502 60.3595C58.3662 60.3335 58.2264 60.3363 58.0918 60.3678C57.9572 60.3994 57.8307 60.4589 57.7206 60.5426C57.6106 60.6263 57.5194 60.7322 57.4531 60.8534L57.4186 60.9271V60.9616L58.132 60.996C58.319 61.3205 58.1862 61.8662 58.3928 62.2202L59.2833 63.1446C59.8147 64.5704 58.1812 67.2795 57.4678 67.6679L56.9758 67.5253C56.9414 68.2136 56.2083 68.5922 55.677 68.7496C55.4014 68.4644 55.244 66.8468 55.121 66.3404L54.2305 63.4494C54.0189 62.8791 53.6056 62.2891 53.6007 61.5614L55.308 60.7501ZM53.3793 61.3451C52.6216 59.8701 52.0755 58.3951 51.3031 57.0036L50.5208 55.7056C51.0107 55.3915 51.5183 55.1058 52.0411 54.8501C53.0148 54.2353 53.7984 53.362 54.3043 52.3279C54.8258 52.382 55.121 52.8196 55.4556 53.0703C56.4396 53.8226 58.8996 55.6073 58.9438 57.1118C57.7949 58.7423 56.2304 60.0359 54.4125 60.8583C54.1091 61.0941 53.7584 61.2618 53.3842 61.35L53.3793 61.3451ZM60.0607 66.7534H60.3952C60.5379 67.3483 60.3952 67.5597 60.7495 67.9383V68.0465L60.4149 68.3071L60.1197 68.3415L59.859 68.0465C59.8274 67.6065 59.8999 67.1652 60.0705 66.7583L60.0607 66.7534ZM59.9869 60.7747L60.0951 60.6666H60.2821L60.474 61.0599L60.3657 61.2074L60.0312 61.0599L59.9869 60.7747ZM60.5084 72.6042L60.0656 73.0959L60.0312 73.1696L60.3657 73.3171V73.4646C60.3118 73.5482 60.2394 73.6182 60.1541 73.6694C60.0688 73.7205 59.9729 73.7514 59.8737 73.7596H59.8393C59.7409 73.5138 59.9082 73.4401 60.0262 73.2041C59.9306 73.1942 59.84 73.1566 59.7655 73.0959C59.8706 72.5446 60.128 72.0337 60.5084 71.6209L60.7692 71.7684C60.7058 71.9655 60.5818 72.1375 60.4149 72.2601L60.5084 72.6042ZM57.5023 75.6427L58.1714 75.2002L58.4322 75.2346L58.5404 75.2691C58.4617 75.8541 57.271 76.1639 56.6856 75.982V75.7263C56.907 75.4411 57.1284 75.7656 57.5023 75.6575V75.6427ZM56.8381 74.4185L56.907 74.3005L56.9808 74.3742L56.9463 74.4824H56.907L56.8381 74.4185ZM58.1714 74.4185L57.6794 74.3447L57.458 74.0104C57.453 73.8693 57.4805 73.7289 57.5386 73.6002C57.5966 73.4714 57.6835 73.3577 57.7926 73.268C58.2035 72.9719 58.5639 72.6117 58.8602 72.2011C59.1308 71.7487 59.2144 71.2177 59.6031 70.8686L59.8639 70.9768C60.0754 71.3308 59.795 71.3308 59.7163 71.6061L59.8048 72.3682C59.6969 72.807 59.4949 73.217 59.2129 73.5702C58.9309 73.9233 58.5756 74.2111 58.1714 74.4136V74.4185ZM60.1788 74.4529V74.4873C60.1341 74.5503 60.0688 74.5956 59.9942 74.6154C59.9196 74.6351 59.8404 74.6281 59.7704 74.5955L59.736 74.4922L59.8098 74.3841L60.1788 74.4529ZM60.4395 69.1134L60.474 68.7594H60.5822L60.72 68.9266V69.0347L60.533 69.2216H60.4986L60.4395 69.1134ZM59.918 69.7083L59.9918 69.8165L59.9574 69.8902L59.6966 69.964L59.6228 69.9296C59.6094 69.8862 59.6056 69.8405 59.6115 69.7955C59.6174 69.7505 59.633 69.7074 59.6572 69.669H59.8442L59.918 69.7083ZM59.7606 65.4849L59.6523 65.5193L59.5047 65.4456C59.4576 65.3298 59.4397 65.2042 59.4525 65.0799C59.4654 64.9556 59.5087 64.8363 59.5785 64.7326H59.6868C59.7621 64.8414 59.8085 64.9676 59.8214 65.0992C59.8343 65.2308 59.8134 65.3636 59.7606 65.4849ZM57.7188 68.1202V68.5283C57.629 68.5796 57.5269 68.6051 57.4236 68.6021L57.276 68.253L57.4629 68.0317H57.6351L57.7188 68.1202ZM56.3904 68.6119H56.5773C56.8184 68.8725 57.2415 68.9659 57.4678 69.2412C58.1812 70.0918 57.3153 71.4488 56.6856 71.7635C56.4277 71.7467 56.1801 71.6563 55.9722 71.5029L55.5638 69.0937L56.3904 68.6119ZM55.982 73.6908V73.4696H56.169L56.4297 73.8432V73.9661C56.3391 73.9677 56.2497 73.9442 56.1716 73.8982C56.0934 73.8522 56.0295 73.7856 55.9869 73.7056L55.982 73.6908ZM56.292 74.7282H56.4789L56.7741 75.0232V75.2838L56.4396 75.5444H56.292C56.1993 75.2802 56.1993 74.9924 56.292 74.7282ZM56.292 75.8394L56.2182 75.7656C56.2368 75.7723 56.2539 75.7827 56.2683 75.7962C56.2827 75.8097 56.2941 75.8261 56.3018 75.8443L56.292 75.8394ZM56.9217 79.7727C56.78 80.0187 56.5575 80.208 56.292 80.3087C56.3033 80.1868 56.3387 80.0685 56.3961 79.9605C56.4535 79.8524 56.5319 79.7569 56.6265 79.6793H56.9266L56.9611 79.7137V79.7432L56.9217 79.7727ZM62.0385 72.8894L62.2648 72.1765C62.3006 72.1853 62.3332 72.2037 62.3592 72.2297C62.3852 72.2557 62.4036 72.2883 62.4124 72.324L62.4469 72.5501C62.3553 72.7095 62.2134 72.834 62.0434 72.9041L62.0385 72.8894ZM63.18 69.3199C63.2172 69.3229 63.2533 69.3341 63.2857 69.3528C63.318 69.3716 63.3458 69.3973 63.3669 69.4281C63.2989 69.6013 63.2114 69.7662 63.1062 69.9197H62.9192C62.9016 69.8083 62.9175 69.6942 62.9648 69.5918C63.0121 69.4895 63.0887 69.4034 63.1849 69.3445L63.18 69.3199ZM62.8454 70.1016C62.8225 70.0998 62.8005 70.092 62.7816 70.079C62.7626 70.0661 62.7473 70.0485 62.7372 70.0279L62.8454 70.1016ZM62.9192 70.5441L62.9536 70.2836C63.0002 70.2891 63.0448 70.3053 63.084 70.3309C63.1233 70.3565 63.1561 70.3908 63.18 70.4311L62.9291 71.0948C62.8553 71.2079 62.9291 71.1735 62.7421 71.203C62.6865 71.1662 62.6406 71.1166 62.608 71.0585C62.5755 71.0003 62.5574 70.9352 62.5551 70.8686C62.5842 70.7925 62.6319 70.7247 62.6937 70.6715C62.7555 70.6183 62.8297 70.5813 62.9094 70.5638V70.5441H62.9192ZM62.2894 70.2491L62.437 70.2836L62.5108 70.6179C62.3822 70.6987 62.2891 70.8252 62.2501 70.9719L62.0287 71.0456L61.9204 70.7851L62.2894 70.2491ZM61.7975 73.1401C61.9106 73.8531 61.394 74.4332 61.084 74.8856C60.2679 76.218 59.2969 77.4492 58.1911 78.5534C57.8615 78.8582 57.0742 79.0451 56.9316 79.4777C56.8588 79.4855 56.7855 79.4676 56.7245 79.4272C56.6634 79.3869 56.6183 79.3265 56.597 79.2565C57.1329 78.6515 57.7428 78.1162 58.4125 77.6635C59.2095 77.0194 59.6228 76.1442 60.1935 75.2543C60.6412 74.5414 61.2612 73.976 61.64 73.1401H61.7975ZM61.3055 68.7938V69.7771L61.271 69.8509L60.779 69.8853L60.7446 69.7771L61.1529 68.7938H61.2956H61.3055ZM60.72 58.8277C60.8107 59.3086 60.7854 59.8041 60.6462 60.2732C60.6211 60.3271 60.5849 60.3751 60.5399 60.4141C60.495 60.4531 60.4423 60.4821 60.3854 60.4994C60.3113 60.5307 60.228 60.5329 60.1523 60.5055C60.0766 60.4782 60.0141 60.4233 59.9771 60.3519C60.2326 59.7827 60.3473 59.1605 60.3116 58.5376L60.4592 58.5721C60.5185 58.592 60.5727 58.6248 60.6178 58.6682C60.6629 58.7115 60.6978 58.7643 60.72 58.8228V58.8277ZM60.0066 57.1561L60.2673 57.2642L60.4149 57.5248V57.751H60.3067C60.2475 57.7317 60.1928 57.7006 60.1459 57.6597C60.099 57.6188 60.0609 57.5688 60.0338 57.5128C60.0067 57.4568 59.9912 57.3959 59.9882 57.3338C59.9852 57.2716 59.9948 57.2095 60.0164 57.1511L60.0066 57.1561ZM59.2932 55.8581C59.4726 55.9222 59.625 56.045 59.7259 56.2065C59.8268 56.368 59.8702 56.5588 59.8491 56.748L59.6622 56.8561L59.4752 56.7824C59.4353 56.5976 59.4472 56.4053 59.5096 56.2268L59.2145 56.0056L59.2932 55.8581ZM58.998 55.3025V55.5286C58.9083 55.5802 58.8061 55.6057 58.7028 55.6024C58.5851 55.3109 58.3935 55.055 58.1468 54.86H57.7926L57.3006 54.2651C57.2987 54.1831 57.3186 54.1021 57.3584 54.0304C57.3982 53.9587 57.4563 53.8988 57.5269 53.857C58.1763 54.1077 58.4518 54.9239 59.0029 55.2976L58.998 55.3025ZM54.7225 48.5126C55.2932 48.6994 55.5786 49.4467 55.9082 49.8843L58.0976 51.9985L58.1517 52.2099C57.7002 52.0709 57.2857 51.8321 56.9391 51.5112C56.5924 51.1903 56.3225 50.7956 56.1493 50.3563L56.041 50.3219C55.8935 50.8627 56.1739 50.9365 56.3018 51.3052C56.3018 51.3052 56.2674 52.9769 56.228 53.0851V53.1588C55.677 53.09 54.934 52.3672 54.5946 52.0083L54.9488 50.7349C55.1308 49.8401 54.5847 49.1222 54.7225 48.5076V48.5126ZM54.4617 48.0701H54.6487L54.6831 48.3306L54.6093 48.3651H54.4027C54.3881 48.3156 54.3846 48.2636 54.3922 48.2127C54.3999 48.1617 54.4186 48.1131 54.447 48.0701H54.4617ZM52.848 47.1801L52.9956 47.072L54.0632 47.9275L54.0288 48.1143C53.6874 48.1237 53.3492 48.0477 53.0448 47.8931C52.9602 47.797 52.8992 47.6825 52.8668 47.5587C52.8343 47.435 52.8312 47.3053 52.8578 47.1801H52.848ZM53.0349 49.4811L53.463 48.3208C55.1505 48.3208 54.6782 50.5874 54.447 51.733C53.7975 51.8559 53.1186 50.8775 52.4445 50.6956C52.3855 49.8499 52.7053 49.9286 53.0349 49.4811ZM52.2822 50.9561C53.0419 51.1163 53.7152 51.5525 54.1714 52.1804C53.5967 53.2487 52.7476 54.1447 51.7115 54.7764C51.2701 54.9563 50.8481 55.1803 50.4519 55.4451H50.2945C49.7238 54.2926 48.9861 53.2306 48.1051 52.2935C48.1789 51.9788 48.4101 51.9395 48.5135 51.6297C48.8316 51.4607 49.1989 51.4085 49.5516 51.4822L49.8123 52.1116C50.1666 52.0526 50.0682 51.8559 50.3043 51.7576L50.7471 51.6838C51.2391 51.4871 51.3179 51.2266 52.1198 51.2413L52.2822 50.9561ZM51.0965 49.7516L51.2834 49.6041H51.5737L51.6819 49.7516L51.6081 50.0121L51.4212 50.0466C51.2903 49.9745 51.1776 49.8736 51.0915 49.7516H51.0965ZM48.0461 44.7071C49.3794 44.7071 50.9292 45.6904 52.0509 46.1329V46.3394C50.4372 46.5803 49.5565 44.9922 48.0067 45.007C47.928 44.8349 47.928 44.8644 48.0461 44.7316V44.7071ZM47.7115 51.2315H48.0461L48.0805 51.497C48.0056 51.5024 47.9309 51.4839 47.8673 51.4441C47.8036 51.4043 47.7542 51.3454 47.7262 51.2757V51.2659L47.7115 51.2315ZM44.1494 44.4071L44.7447 44.2596L45.4089 44.3826C45.6328 44.2836 45.8791 44.2462 46.1223 44.2744L46.5307 44.535L47.5688 44.5006L47.6475 44.6038V44.7415C46.4815 45.0119 45.2564 44.122 44.2035 44.594L44.1691 44.5596V44.4366L44.1494 44.4071ZM47.1014 51.2315V51.4576C47.0129 51.5806 47.062 51.556 46.9144 51.5314C46.8985 51.4827 46.8933 51.431 46.8992 51.3801C46.9052 51.3292 46.9221 51.2801 46.9489 51.2364H47.0965L47.1014 51.2315ZM39.436 61.7482C39.3008 61.8705 39.1978 62.0242 39.136 62.1957C39.0742 62.3672 39.0556 62.5512 39.0818 62.7316C37.9797 63.0856 36.735 62.2399 36.302 61.6204C36.3228 61.5438 36.3619 61.4734 36.4159 61.4152C36.4699 61.357 36.5371 61.3127 36.612 61.2861V61.0599C36.3 60.9953 35.9756 61.0332 35.687 61.1681L35.6526 61.2418L35.8789 61.5761L35.8444 61.6843L35.5492 61.7581C35.131 61.5171 35.4508 60.9763 35.0277 60.7747C35.0277 59.7914 36.9957 56.6693 37.5517 55.8581C38.0026 55.9466 38.4395 56.0954 38.8506 56.3006C40.409 56.7884 42.0406 57.0013 43.6722 56.9299L43.741 56.9643C43.8427 57.6015 43.8675 58.2486 43.8148 58.8916V63.1249L43.7804 63.1986C42.4813 63.3399 41.1685 63.2902 39.8838 63.0511C39.2294 62.8102 39.7116 62.1514 40.1101 62.0137L40.297 61.7925L39.436 61.7482ZM35.9478 54.5945C35.5689 54.5011 35.4558 54.2159 35.0917 54.0733C35.018 54.0151 34.9595 53.9401 34.9209 53.8545C34.8824 53.7689 34.865 53.6753 34.8703 53.5816C35.4066 53.1883 36.4742 53.3211 37.0597 52.9867C37.9158 52.9523 38.3635 53.2473 38.5062 53.8766C38.1004 54.3392 37.7685 54.8616 37.5222 55.4254L37.3746 55.4598C36.9911 55.2427 36.6199 55.0047 36.2626 54.7469C36.2864 54.6179 36.3521 54.5004 36.4496 54.4126V54.3929C36.3561 54.37 36.2577 54.3771 36.1685 54.4133C36.0793 54.4495 36.0038 54.5129 35.9527 54.5945H35.9478ZM33.3106 55.0861C33.2418 54.8256 33.045 54.8108 33.045 54.4126L33.7584 53.6603C34.644 53.6603 34.9146 54.2356 35.4312 54.6436V54.7469L35.0769 54.8551C34.8654 55.0173 34.9884 55.3811 34.8555 55.6368C34.7227 55.8925 33.8715 56.5267 33.5222 56.453C32.735 56.2858 33.4484 55.5778 33.3156 55.0812L33.3106 55.0861ZM38.2306 51.2216L38.1175 51.1676L38.0437 50.9807C38.1853 50.7145 38.3896 50.4867 38.639 50.317L38.8998 50.3907C38.9889 50.4693 39.0538 50.5716 39.0867 50.6857L39.4951 50.7595L39.6033 50.8086L39.5689 50.9561L39.5345 51.0643C39.1015 51.1479 38.6734 51.143 38.2503 51.2266L38.2306 51.2216ZM39.564 54.9288C39.131 55.1353 38.7177 54.8846 38.3782 54.7813C38.3094 54.4273 38.6046 54.2896 38.7128 53.9651L38.8555 54.0143L39.5197 54.7272L39.564 54.9288ZM37.9305 48.7338C37.5517 48.9846 37.0252 48.6945 36.5037 48.842C35.8346 49.0436 34.6095 49.6631 33.906 49.6581C33.6698 49.4074 33.6501 49.0288 33.3844 48.8026C33.6108 48.0504 36.8629 48.1487 37.8124 47.8193H38.0732C38.0993 48.1355 38.0522 48.4535 37.9354 48.7486L37.9305 48.7338ZM42.1962 56.6349C40.6699 56.5568 39.1701 56.2054 37.7682 55.5975C37.759 55.5189 37.7716 55.4393 37.8046 55.3673C37.8375 55.2954 37.8896 55.2338 37.9551 55.1894C37.9791 55.1644 38.0083 55.1448 38.0406 55.1321C38.0728 55.1194 38.1075 55.1138 38.1421 55.1156L38.2159 55.3762C38.4963 55.5139 39.4508 55.2976 39.81 55.155C39.8716 55.1042 39.92 55.0391 39.9509 54.9655C39.9817 54.8918 39.9942 54.8117 39.9871 54.7321L40.1347 54.6977L40.543 54.9927C41.3756 54.9474 42.2005 54.8106 43.003 54.5846C43.2588 54.5878 43.5101 54.6519 43.7361 54.7715C43.8837 55.2631 43.7361 56.0941 43.8444 56.6251C43.4901 57.0282 42.6242 56.689 42.1765 56.6251L42.1962 56.6349ZM43.8296 52.7802C42.9981 53.3211 42.6439 53.0998 42.4569 54.2552L42.4225 54.329C42.2013 54.25 42.0081 54.1081 41.8665 53.9209C42.019 52.9867 42.9096 52.854 43.6476 52.4951L43.8345 52.5295V52.7704L43.8296 52.7802ZM41.4828 44.4219C41.7663 44.4203 42.0475 44.3704 42.3142 44.2744C42.7614 44.2198 43.215 44.2566 43.6476 44.3826H43.7361C43.5098 44.8742 42.4225 44.3826 41.9551 44.5301L41.6943 44.7169L41.5074 44.5694V44.4219H41.4778H41.4828ZM41.3352 45.1004C41.4582 45.184 41.4434 45.1938 41.4434 45.3954C41.3908 45.4275 41.3316 45.4472 41.2702 45.4532C41.2089 45.4592 41.147 45.4512 41.0892 45.4298L40.9809 45.3561V45.2528L41.2466 45.066L41.3352 45.1004ZM40.1495 44.6087C40.2327 44.5644 40.32 44.5282 40.4102 44.5006L40.9662 44.5743L41.04 44.712V44.8988C40.7276 44.916 40.4174 44.8389 40.1495 44.6776V44.6382V44.6087ZM39.1113 44.7808L39.5148 44.8349C39.6574 44.948 39.5837 44.9726 39.5492 45.1889L39.7362 44.9283H40.056C40.198 45.1642 40.4223 45.3393 40.6857 45.42L40.7202 45.6461C40.345 45.8829 39.9299 46.0495 39.4951 46.1378L39.2737 45.8428C39.4293 45.6686 39.5213 45.4467 39.5345 45.2135C38.9342 45.4101 38.2602 45.7592 37.6452 45.6216L37.596 45.4741C38.1541 45.4089 38.6791 45.1757 39.1015 44.8054L39.1113 44.7808ZM35.8444 45.9313L36.8284 45.597L37.3844 45.7051C37.2762 45.9461 35.9576 46.3296 35.6772 46.5606L35.5689 46.5164L35.4656 46.3099C35.5923 46.2009 35.7108 46.0826 35.8198 45.9559L35.8444 45.9313ZM35.254 47.19C36.3217 46.7819 37.6845 46.3492 38.5898 45.715L38.7768 45.7494L38.8801 45.8182C38.9145 46.1329 38.8801 46.3935 38.9145 46.7426L38.3192 47.5587C36.8088 47.7554 35.013 47.6964 33.8322 48.3749C33.4779 48.134 34.1077 47.3916 34.4619 47.2244H35.2442L35.254 47.19ZM34.029 46.7475H34.2553L34.2799 46.8016L34.2455 46.9097L33.8026 47.2441L33.6944 47.2096L33.6206 47.1752C33.7283 47.0181 33.8632 46.8816 34.0191 46.7721L34.029 46.7475ZM32.5087 48.3405C32.8489 48.233 33.1568 48.042 33.4041 47.7849H33.4779L33.5517 48.1192L32.9958 48.5617L32.5874 48.5961L32.5136 48.5224V48.3749L32.5087 48.3405ZM32.6563 50.3465H32.7645L32.8383 50.494V51.143C32.7486 51.1943 32.6465 51.2198 32.5431 51.2167L32.3955 50.9955C32.3996 50.7574 32.4926 50.5294 32.6563 50.3563V50.3465ZM31.7658 53.6111H31.9527L31.9872 53.8668C31.815 54.1176 31.5542 54.3044 31.3918 54.5355C31.1114 54.9288 31.1606 55.6024 30.7276 55.8335L30.0634 55.9072L29.8765 55.7696V55.5975L30.9933 54.6141L31.7658 53.6111ZM30.6538 53.8324H30.8408L30.9195 54.1274C30.8108 54.2881 30.6641 54.4197 30.4926 54.5106C30.321 54.6015 30.1297 54.6489 29.9355 54.6486L29.8666 54.5355C29.9355 54.1569 30.4669 54.1274 30.6686 53.8226L30.6538 53.8324ZM29.6698 56.0941C29.7747 56.081 29.8811 56.097 29.9774 56.1404C30.0738 56.1838 30.1563 56.2528 30.216 56.3399C30.5165 56.2697 30.7962 56.1299 31.0327 55.9318C31.3181 55.7991 31.81 56.0203 32.1003 56.0793C32.4152 55.8826 32.5923 55.6171 32.8826 55.4156L32.9564 55.4893C32.8432 55.7646 32.8875 56.0154 32.6022 56.158C32.6366 56.5759 33.6403 57.1069 34.1962 56.9741C34.4226 56.8758 34.4127 56.5906 34.6046 56.4825C34.9982 56.2809 35.2688 56.5464 35.4607 56.04C35.6526 55.5336 35.2098 55.4696 35.6083 54.9731C36.2971 54.9731 36.5923 55.3664 37.1286 55.568L37.2762 55.863L35.9674 57.8886C35.3672 58.9556 35.0474 60.4797 34.1126 61.2221L34.0044 61.2566C33.1286 60.7649 31.5444 60.3076 31.2246 59.2899C30.3685 59.2456 29.3845 58.0607 29.0352 57.3626C29.1286 57.22 29.5911 56.1875 29.6797 56.1137L29.6698 56.0941ZM32.5284 61.7482L32.4546 61.7826C32.3892 62.198 32.2905 62.6074 32.1594 63.0069H31.8346C31.5788 62.6234 31.8986 62.1416 31.7264 61.5811C31.6274 61.4432 31.551 61.2906 31.5001 61.1287L31.7953 60.9812C31.7973 60.8017 31.7603 60.6239 31.687 60.4601L31.7608 60.3863C32.5431 60.4896 33.163 61.1926 33.9502 61.4237C34.0016 61.5134 34.0271 61.6155 34.024 61.7187L33.9158 61.7925C33.7879 62.0334 33.8814 62.0039 34.0634 62.2006C34.0634 62.6136 33.7338 63.6264 33.35 63.6756L33.168 63.4346C32.9712 62.943 33.3106 62.3677 33.4287 62.0629V62.0432C33.1512 61.8978 32.8494 61.8045 32.5382 61.7679L32.5284 61.7482ZM32.3365 68.7201C31.6231 68.784 30.8162 68.0366 30.2947 67.7367C28.3885 66.683 26.7453 65.2123 25.4878 63.4346C25.7092 62.0088 26.4718 60.6616 27.0819 59.5013H27.2295L27.3771 59.9094L28.0069 60.0176C28.4054 60.2585 28.612 60.7059 29.1188 60.8731C29.473 61.3647 29.1188 61.8072 29.2664 62.5054C29.3353 62.8299 29.5764 62.7758 29.7092 62.9971C30.0634 63.5477 29.965 64.0345 30.5259 64.3688C30.6794 64.1433 30.8996 63.9714 31.1557 63.8771C31.6972 64.4581 32.3224 64.9553 33.0105 65.3521C32.8137 66.4289 32.2282 67.5401 32.3365 68.725V68.7201ZM29.4189 60.0471L29.6452 59.7865L29.7535 59.8209V60.2634L29.6059 60.3371L29.4189 60.0471ZM30.216 59.2309C30.8506 59.3243 31.3672 60.2683 31.3672 60.9763C31.1114 61.3303 30.6538 61.4434 30.4423 61.7925H30.2947C30.1445 61.6537 30.0413 61.4715 29.9995 61.2713V61.232C30.1004 61.2117 30.2045 61.2144 30.3042 61.24C30.4038 61.2655 30.4965 61.3132 30.5751 61.3795L30.8014 61.0845C30.9835 60.5682 30.216 59.7078 30.216 59.2309ZM28.6219 57.3036C29.0312 57.7238 29.4001 58.1814 29.724 58.6704L29.6895 58.7441C28.9072 58.5376 28.3808 59.0096 27.8347 59.4571H27.6034L27.3525 59.1916C27.5739 58.4786 28.243 58.0755 28.4202 57.3036H28.6071H28.6219ZM28.1299 56.7824L28.248 56.8168L28.3562 57.0774C27.9667 57.5431 27.6362 58.055 27.3722 58.6016L27.264 58.636H27.0819C26.9638 57.8886 27.6822 57.1266 28.12 56.7824H28.1299ZM24.8532 60.5682C25.0942 60.2585 25.5666 60.3126 25.8913 60.0766L26.4128 59.4472H26.5998C26.2609 60.6324 25.8518 61.7965 25.3747 62.9331L25.3402 63.0266H25.1533L24.371 61.7679C24.5048 61.3577 24.6659 60.9569 24.8532 60.5682ZM24.3612 67.9432C23.9823 66.4682 23.6182 63.7247 24.1742 62.2694H24.312C24.6994 62.6594 25.0084 63.1201 25.2222 63.6264C24.6859 64.7572 24.6465 66.4732 24.6268 67.899C24.5911 67.9249 24.55 67.9424 24.5065 67.9501C24.463 67.9578 24.4184 67.9554 24.3759 67.9432H24.3612ZM27.0327 72.4666C26.7572 71.9749 27.1557 71.2472 26.8113 70.7211C26.7424 70.613 25.8273 69.3346 25.8273 69.2953C25.419 68.9856 24.9958 68.9413 24.8433 68.4054C24.5727 67.5499 25.1238 64.3147 25.3993 63.8821C25.8519 64.005 26.6194 65.244 26.9589 65.6275C27.9556 66.6494 29.1205 67.4925 30.4029 68.1202C30.7572 68.312 32.0511 68.8331 32.2184 69.1036C32.3119 69.3936 31.9478 71.0161 31.8642 71.4046L31.6378 75.3821L31.5296 75.4903C30.8014 75.4215 27.3476 72.9779 27.0475 72.4666H27.0327ZM29.8519 78.4698C29.6403 78.1945 28.6268 77.2259 28.553 77.044C28.2627 76.3802 28.6612 75.9279 28.4792 75.2986C28.1645 74.6637 27.818 74.0451 27.4411 73.445L27.5149 73.1844C28.4103 73.7105 29.3353 74.6102 30.2947 75.1855C30.6096 75.3772 31.4017 75.5936 31.5542 75.9279C31.7904 76.4196 31.7608 78.7992 31.7805 79.5957C31.0524 79.9251 30.1864 78.8828 29.8519 78.4649V78.4698ZM31.7412 80.4758C31.4441 80.3036 31.2032 80.0492 31.0474 79.7432C31.363 79.7659 31.6567 79.9127 31.8642 80.1513L31.8986 80.3775L31.7412 80.4758ZM34.521 81.4247C34.467 81.5083 34.3946 81.5783 34.3093 81.6295C34.224 81.6806 34.1281 81.7115 34.029 81.7197C33.3894 81.4444 32.553 81.1641 32.1397 80.6528V80.3922L32.2479 80.2841L34.5111 81.2674V81.41L34.521 81.4247ZM35.7067 79.5711C35.5712 79.707 35.409 79.8134 35.2303 79.8836C35.0517 79.9539 34.8604 79.9864 34.6686 79.9792C34.5794 80.2678 34.5675 80.5746 34.6341 80.8691L34.5603 80.9429C33.5763 80.8446 33.045 80.1562 32.184 79.9596C31.9429 79.6056 31.692 76.5621 31.9626 75.9918C33.0559 76.3897 34.1169 76.8713 35.136 77.4324L35.3918 78.2682C35.5394 78.5583 35.933 79.2516 35.7264 79.6056L35.7067 79.5711ZM38.821 80.8691C38.6046 81.2231 38.3881 81.0658 38.3782 81.7591L37.3942 81.7246C37.1447 81.5729 36.9301 81.3702 36.7645 81.1297C36.806 80.9696 36.8973 80.8267 37.0252 80.7216L36.8776 80.4266C36.9698 80.2506 37.1131 80.1066 37.2888 80.0136C37.4644 79.9205 37.6641 79.8829 37.8616 79.9055L38.2159 79.3106H38.4766C38.6784 79.6449 39.1408 80.3578 38.8309 80.8839L38.821 80.8691ZM43.8296 68.9266C42.8161 69.5756 42.0141 68.8331 41.1236 68.7397C41.1876 69.3002 41.9059 69.5706 41.837 70.1656C41.4556 70.7358 40.9932 71.2476 40.4643 71.6848C40.1642 71.8077 39.8788 71.5816 39.6082 71.6504L38.7177 72.1421L37.901 72.1765C37.3844 72.337 36.8478 72.4247 36.3069 72.4371V72.7911C37.0498 73.2827 38.4422 72.5944 38.944 73.3466C38.944 73.4007 37.9207 75.1265 37.8764 75.1609C37.5653 75.3213 37.2345 75.4403 36.8924 75.5149L36.238 76.1442L35.5246 76.4441L34.9687 76.9653C33.8492 76.6356 32.7725 76.1752 31.7608 75.5936C31.7727 75.1461 31.8221 74.7004 31.9084 74.2611L31.9822 71.7389C32.1961 70.9646 32.3151 70.1671 32.3365 69.3641C32.6415 69.2019 32.8285 69.3986 33.1188 69.5116C33.5173 69.6591 34.3045 69.7624 34.5652 70.0672C35.008 70.5589 35.2442 71.439 35.8641 71.7733L35.9379 71.7389L35.874 70.6179V70.5392C37.2614 70.5884 39.0474 71.6061 40.5873 71.2521H40.6611L40.7349 71.144C39.3868 70.9031 38.2749 70.9817 37.0252 70.6228L36.4102 70.318L35.6968 70.1705C34.8555 69.6346 34.762 68.2038 34.5111 67.1664L33.965 66.8321C33.7977 66.8665 33.8568 66.8321 33.778 66.9402C34.1716 67.5646 33.9798 68.6021 34.703 68.9069L34.8063 69.2068C34.6974 69.3163 34.6311 69.461 34.6194 69.6149C34.2651 69.7624 34.1569 69.5166 33.8764 69.4281C33.4976 69.3101 32.5579 69.2019 32.43 68.8725C32.302 68.5431 33.1434 65.6176 33.3205 65.3472L34.088 65.5685C34.3533 65.4798 34.5796 65.302 34.7285 65.0653C34.8774 64.8287 34.9397 64.5478 34.9047 64.2705L33.8666 63.9165L33.7338 63.7149C33.9945 63.3363 34.088 62.2891 34.5505 62.1219C35.1064 61.999 35.751 62.6136 36.2233 62.7906C36.6956 62.9676 36.9121 62.6185 37.2073 62.6824C37.7829 62.8004 38.3291 63.0069 38.9883 63.0905C39.0554 63.2466 39.1562 63.386 39.2835 63.4986C39.1212 63.9263 38.9293 64.4327 39.3918 64.7966C39.5637 64.8514 39.7501 64.8391 39.9133 64.7621C39.9473 64.75 39.9754 64.7254 39.992 64.6933C40.1642 64.2705 39.8887 63.6264 39.7706 63.3216L39.805 63.2478C40.2065 63.2611 40.6047 63.3239 40.9908 63.4346L43.5885 63.4691H43.623C43.9772 63.9607 43.7853 67.9236 43.7706 68.9413L43.8296 68.9266ZM44.4446 53.7783L44.5184 53.6554H44.7447C44.8332 53.8048 44.8839 53.9736 44.8923 54.1471L45.1186 54.2552L45.3056 53.8471C45.5172 53.7341 46.0436 53.9406 46.2896 53.8127C46.5356 53.6849 46.5159 53.149 46.698 52.8884C46.88 52.6278 47.2392 52.6229 47.4802 52.146H47.6721C48.2478 52.5786 49.9698 54.8108 50.1321 55.5581C48.971 56.2121 45.7533 57.0823 44.0756 56.7431C43.7607 56.0646 44.1888 54.2601 44.4446 53.7783ZM44.11 57.0036L45.6697 56.9692C47.1457 56.6644 48.8775 56.6152 49.9747 55.9023L50.2699 55.9367C50.8603 56.2907 52.1149 59.1424 52.4937 59.9389C52.6462 60.2683 53.2071 61.0402 53.1235 61.3844C52.8972 61.8761 51.7459 62.0678 51.1555 62.2399C50.1321 62.5349 48.9366 62.8791 47.8197 63.0954C47.1358 63.2232 46.4766 63.0954 45.8517 63.1691C45.263 63.2683 44.6628 63.2799 44.0707 63.2036L43.992 57.0774L44.11 57.0036ZM45.6697 70.5736C45.1777 70.3671 44.7595 69.6149 44.0362 69.2756V63.5182L46.7422 63.4101C48.7102 63.0266 51.8344 62.7316 53.1382 61.7384C53.5712 61.9646 53.6696 62.8692 53.8516 63.3707C54.2551 64.536 54.6142 65.7111 54.9685 67.0779C55.0964 67.5696 55.4605 68.2874 55.3227 68.8577C54.6184 69.2973 53.8371 69.5992 53.0202 69.7476C51.6327 68.4349 51.1948 70.2393 50.3486 70.6376C49.5024 71.0358 47.7016 70.9916 46.5651 71.1587C46.201 70.613 46.2699 70.8244 45.6697 70.5736ZM49.3056 74.6889L49.0842 74.9151H48.9366C48.6856 74.4775 48.5085 74.0792 48.9366 73.6908L49.2711 73.8776C49.363 74.142 49.375 74.4276 49.3056 74.6987V74.6889ZM48.971 71.8126V72.7026C48.9207 73.0146 48.8076 73.3132 48.6385 73.5802C48.4693 73.8473 48.2477 74.0773 47.987 74.2562C47.734 74.1487 47.5052 73.9914 47.3141 73.7938C47.1231 73.5962 46.9738 73.3622 46.8751 73.1057L46.8406 72.5846C46.7472 72.4223 46.5258 72.4076 46.4323 72.2306V71.5226L46.5405 71.3357C47.4114 71.3947 48.7644 71.3357 49.4335 71.0014L49.6204 71.0358L49.7287 71.0997C49.5368 71.3849 49.1284 71.4586 48.971 71.8126ZM39.5443 68.371C39.1507 68.0956 39.19 67.2795 38.6193 67.1861L38.4717 67.2942H38.3881L39.4311 68.9266L40.2134 69.0741L40.4397 68.7201C40.1986 68.3513 39.8739 68.607 39.564 68.3906L39.5443 68.371ZM32.7793 75.1511C32.728 75.2407 32.7024 75.3428 32.7055 75.4461L32.9662 75.6329L33.1138 75.4461V75.3182L32.8531 75.1314L32.7793 75.1511Z" fill="white"/>
<path d="M28.4153 46.5823C29.0008 46.5134 30.0143 45.4367 30.4915 45.1073C31.7458 44.3013 33.047 43.5707 34.3882 42.9194C34.2455 41.8524 33.5714 40.7314 33.5321 39.694L33.5665 39.6596H33.66C34.1028 40.3725 34.703 42.0196 35.3328 42.4769C35.6329 42.6293 36.8088 41.9852 37.1876 41.8819C38.1716 41.582 40.7989 40.9232 41.8616 41.0658C42.1765 40.4905 42.5898 37.393 42.6095 36.5769C38.334 36.5769 33.35 38.2239 30.4964 39.8759L28.6072 41.0609C27.8938 41.4394 25.355 43.2193 25.0451 43.8388L25.0106 43.9469C25.9258 45.0286 27.5543 45.4711 28.4153 46.5823ZM48.0953 41.2772C49.2393 41.4967 50.3669 41.794 51.4704 42.1671C51.7436 42.3126 52.0303 42.4311 52.3265 42.5211C53.094 41.9065 53.5466 40.5544 54.0337 39.6744H54.142L54.2158 39.7727C54.1518 40.4069 53.2908 42.3736 53.3843 42.8653C53.645 43.293 54.6733 43.5536 55.1309 43.7896L57.9107 45.5694C58.2895 45.8595 58.6438 46.3856 59.1358 46.5528C59.6819 46.2381 62.4764 44.237 62.6978 43.8093C61.8418 42.7424 60.3904 41.9704 59.2538 41.1739C56.7496 39.4236 53.7976 38.2485 50.5012 37.2799L48.1199 36.8276L46.7866 36.7932C46.2316 36.6348 45.6564 36.5586 45.0793 36.567L45.6697 40.8986C46.3339 41.2772 47.2933 41.0707 48.1199 41.2772H48.0953ZM62.752 50.4517L64.7938 53.7164L65.4383 54.9996L67.5539 54.5079C67.9038 54.3173 68.2802 54.1797 68.6707 54.0999V54.208C68.2427 54.6997 66.0139 55.5847 65.8516 55.9534L66.2944 57.512C66.6925 58.6458 66.9905 59.8122 67.1849 60.9979C67.2833 61.5339 67.1258 62.2419 67.4112 62.5172C67.7654 62.7778 70.9979 63.1564 71.6867 63.2301H71.7211C71.9425 62.7384 71.3226 58.6035 71.1258 57.9988C69.8663 54.2228 68.7593 51.2974 66.6978 48.3867C66.2058 47.7082 65.1234 45.8939 64.3952 45.6088L61.7975 49.0504C61.704 49.3454 62.6142 50.2403 62.7766 50.4517H62.752ZM20.6614 60.4178C20.9049 58.9142 21.3278 57.4451 21.9209 56.0419C21.6847 55.5896 19.6331 54.5227 19.0722 54.2965V54.1736C19.6036 54.0458 21.6109 54.8865 22.2997 54.9898C22.9325 53.6951 23.6389 52.4377 24.4153 51.2236L25.8913 49.2569C25.7831 48.7653 23.6872 46.1299 23.2542 45.6973H23.1115L20.9959 48.3228C19.0628 51.2572 17.6003 54.4755 16.6614 57.8611C16.44 58.5986 16.3711 59.4836 16.2186 60.1916L16.1842 61.7109C16.0334 62.2035 15.9539 62.715 15.948 63.2301C17.5568 63.2301 18.7967 62.7384 20.3268 62.6745L20.6614 60.4178ZM71.6473 65.6393C70.7519 66.1703 68.3362 65.8163 67.4555 66.3522C67.1012 66.6275 67.239 67.8272 67.1209 68.3582L66.5354 70.9837C66.3632 71.5983 65.9008 72.3309 65.8712 73.0241C66.6807 73.7049 67.6009 74.2421 68.592 74.6122L68.6264 74.6859V74.7597C68.1344 74.8826 66.0434 74.1844 65.4727 73.9779C64.8872 74.4696 64.6609 75.6349 64.2476 76.2789L62.688 78.6193L61.8319 79.6567C61.768 80.0107 62.2845 80.3696 62.4617 80.64L64.3903 83.2754L64.5773 83.2409C65.3645 82.7935 66.5453 80.7482 67.1406 79.9419C68.5515 77.898 69.6585 75.6606 70.4272 73.2994C70.742 72.3161 70.8011 71.4901 71.0963 70.4084C71.53 68.8891 71.7535 67.3176 71.7605 65.7376L71.6473 65.6393ZM22.344 74.0222L22.1964 73.914C21.2192 74.3274 20.1996 74.6324 19.1558 74.8236L19.082 74.7154C19.9466 74.1116 20.8506 73.5663 21.788 73.0831C22.0045 72.675 21.4338 71.6573 21.2665 71.1951C20.7473 69.6695 20.4555 68.0758 20.4006 66.4653L20.2924 66.3915C19.8348 66.2391 19.3084 66.3375 18.6589 66.2047C17.772 65.9678 16.8641 65.8179 15.948 65.7573C15.948 71.5393 18.5605 77.2082 20.9959 80.6597L23.1312 83.295L23.328 83.2606C23.6626 83.0885 25.8667 80.1139 25.9258 79.7009C24.804 78.2653 22.836 75.9151 22.344 74.0222ZM59.244 82.4395L59.057 82.4051C58.4174 83.1869 54.5749 85.8468 53.4187 85.9304C53.2022 86.8252 54.3043 88.6788 54.201 89.2294V89.3032C53.8222 89.1704 52.6315 86.9186 52.3855 86.4564L49.1285 87.4742C48.0608 87.8282 46.8112 87.7446 45.7927 87.9659L45.1285 92.3909C45.4336 92.3909 45.9748 92.4794 46.0535 92.2434L47.9821 92.1352L51.3572 91.4714C55.57 90.2615 59.4471 88.0979 62.688 85.1486L62.6535 85.0011L59.244 82.4395ZM42.024 87.9659C39.8198 87.5774 37.2024 87.4742 35.4952 86.4466C35.2344 86.4958 33.7928 88.8754 33.7486 89.2639H33.601L33.5272 89.1164C33.5272 89.0672 34.2406 86.4269 34.3832 86.1664C34.2504 85.7583 33.2812 85.5321 32.9072 85.3502C31.3279 84.5881 30.1028 83.3442 28.681 82.4592H28.494C27.4123 83.3963 26.2718 84.2634 25.0795 85.0552C25.296 85.8222 27.4706 87.1153 28.1594 87.6069C30.7337 89.4531 33.6457 90.7761 36.7301 91.5009C38.088 91.8304 40.12 92.4351 41.591 92.1696C41.6594 92.2393 41.6981 92.3326 41.6993 92.4302H42.6242C42.6093 91.9169 42.535 91.4071 42.4028 90.9109C42.2011 89.8735 42.3094 88.8509 41.9994 87.9609L42.024 87.9659Z" fill="white"/>
</g>
<defs>
<clipPath id="clip0_377_4718">
<rect width="210" height="130" fill="white"/>
</clipPath>
</defs>
</svg>
