<svg width="210" height="130" viewBox="0 0 210 130" fill="none" xmlns="http://www.w3.org/2000/svg">
<g clip-path="url(#clip0_377_4710)">
<path fill-rule="evenodd" clip-rule="evenodd" d="M47.0908 78.1318C76.0618 62.3984 123.881 47.0651 157.114 41.0651V32.3984C128.276 36.2651 59.2786 66.7984 47.0908 78.1318Z" fill="#2A528A"/>
<path fill-rule="evenodd" clip-rule="evenodd" d="M143.061 32.732V26.332C120.551 29.3987 59.0122 64.9987 49.4218 73.7987C64.8064 63.2654 85.519 53.732 102.768 46.6654C112.492 42.732 122.349 38.9987 132.339 35.7987C135.935 34.732 139.465 33.6654 143.061 32.732Z" fill="#7493CB"/>
<path fill-rule="evenodd" clip-rule="evenodd" d="M33.3712 86.932C58.6792 80.9986 103.501 80.9986 147.857 81.332C154.184 64.932 165.106 50.3986 175.562 42.332C144.926 41.932 58.546 72.7986 33.3712 86.932Z" fill="#0A2A5F"/>
<path fill-rule="evenodd" clip-rule="evenodd" d="M33.3712 102.265H34.0372C34.5034 101.198 34.9696 100.132 35.3692 99.0651C35.902 97.7984 36.3016 96.7318 36.7012 95.8651C37.1008 94.8651 37.5004 93.7984 37.9666 92.5984C38.0332 92.5984 38.1664 92.5984 38.2996 92.6651C38.4328 92.6651 38.566 92.7318 38.6326 92.7318C38.6992 92.7318 38.8324 92.7318 38.9656 92.6651C39.0988 92.6651 39.232 92.5984 39.2986 92.5984C39.8314 94.0651 40.4308 95.7318 41.1634 97.4651C41.7628 98.9984 42.4288 100.598 43.0948 102.265H43.8274C43.8274 102.398 43.7608 102.598 43.7608 102.732C43.7608 102.865 43.7608 102.998 43.6942 103.132C43.6942 103.265 43.6942 103.398 43.6942 103.598C43.6942 103.798 43.7608 103.932 43.7608 103.998H43.4944C43.2946 103.798 42.9616 103.598 42.4954 103.532C42.0292 103.465 41.4964 103.398 40.897 103.398H36.235C35.5024 103.398 34.903 103.398 34.5034 103.465C34.0372 103.532 33.7708 103.665 33.571 103.932H33.3046C33.3046 103.798 33.3712 103.665 33.3712 103.532C33.3712 103.398 33.3712 103.265 33.3712 103.065C33.3712 102.865 33.3712 102.732 33.3712 102.598C33.4378 102.465 33.3712 102.332 33.3712 102.265ZM37.7668 102.332C38.1664 102.332 38.6326 102.332 39.0988 102.332C39.565 102.332 39.9646 102.332 40.3642 102.265C40.0312 101.198 39.6316 100.132 39.232 98.9984C38.8324 97.8651 38.3662 96.7318 37.9666 95.5984C37.5004 96.7984 37.0342 97.8651 36.6346 98.9318C36.1684 100.132 35.7688 101.265 35.3692 102.265C35.569 102.265 35.9686 102.265 36.5014 102.332C37.1008 102.332 37.5004 102.332 37.7668 102.332ZM56.4814 97.9984C56.4814 99.5984 55.9486 100.932 54.8164 101.998C53.6842 103.132 52.1524 103.665 50.221 103.665C48.4228 103.665 47.0242 103.198 45.9586 102.198C44.893 101.198 44.3602 99.7984 44.3602 98.0651C44.3602 96.4651 44.893 95.0651 45.9586 94.0651C47.0908 92.9318 48.6226 92.3984 50.554 92.3984C52.6186 92.3984 54.1504 92.9984 55.1494 94.2651C56.0818 95.2651 56.4814 96.5318 56.4814 97.9984ZM50.4874 93.2651C49.3552 93.2651 48.4894 93.6651 47.9566 94.5318C47.3572 95.3984 47.0242 96.7318 47.0242 98.4651C47.0242 99.5984 47.2906 100.598 47.7568 101.332C48.3562 102.198 49.222 102.665 50.2876 102.665C51.4198 102.665 52.3522 102.132 52.9516 101.132C53.551 100.198 53.8174 98.9984 53.8174 97.5984C53.8174 96.4651 53.551 95.4651 53.0848 94.6651C52.4854 93.7984 51.6196 93.2651 50.4874 93.2651ZM58.3462 103.465V92.5984C58.4794 92.5984 58.6792 92.5984 58.9456 92.6651C59.212 92.6651 59.4118 92.7318 59.545 92.7318C59.6782 92.7318 59.878 92.7318 60.1444 92.6651C60.4108 92.6651 60.6106 92.5984 60.7438 92.5984V96.8651C61.0768 96.8651 61.543 96.8651 62.1424 96.9318C62.7418 96.9318 63.0748 96.9984 63.208 96.9984C63.6076 96.9984 63.874 96.9984 64.1404 96.9984C65.0728 96.9318 65.539 96.9318 65.6722 96.9318V92.6651C65.8054 92.6651 66.0052 92.6651 66.2716 92.7318C66.538 92.7318 66.7378 92.7984 66.871 92.7984C67.0042 92.7984 67.204 92.7984 67.4704 92.7318C67.7368 92.7318 67.9366 92.6651 68.0698 92.6651V103.532C67.9366 103.532 67.7368 103.532 67.4704 103.465C67.204 103.465 67.0042 103.398 66.871 103.398C66.7378 103.398 66.538 103.398 66.2716 103.465C66.0052 103.465 65.8054 103.532 65.6722 103.532V98.2651C65.4058 98.2651 64.9396 98.2651 64.2736 98.2651C63.6076 98.2651 63.2746 98.2651 63.2746 98.2651C62.875 98.2651 62.4754 98.2651 62.0092 98.2651C61.543 98.2651 61.1434 98.2651 60.877 98.3318V103.598C60.7438 103.598 60.544 103.598 60.2776 103.532C60.0112 103.532 59.8114 103.465 59.6782 103.465C59.545 103.465 59.3452 103.465 59.0788 103.532C58.6792 103.465 58.4794 103.465 58.3462 103.465ZM70.6672 103.465V92.5984C70.8004 92.5984 71.0002 92.5984 71.2666 92.6651C71.533 92.7318 71.7328 92.7318 71.866 92.7318C71.9992 92.7318 72.199 92.7318 72.4654 92.6651C72.7318 92.5984 72.9316 92.5984 73.0648 92.5984V99.9984C73.9306 99.0651 74.9962 97.8651 76.195 96.3318C77.3272 94.8651 78.3262 93.6651 79.0588 92.5984C79.2586 92.5984 79.3918 92.5984 79.4584 92.5984C79.525 92.5984 79.6582 92.5984 79.858 92.5984C80.0578 92.5984 80.191 92.5984 80.2576 92.5984V103.465C80.1244 103.465 79.9246 103.465 79.6582 103.398C79.3918 103.398 79.192 103.332 79.0588 103.332C78.9256 103.332 78.7258 103.332 78.4594 103.398C78.193 103.398 77.9932 103.465 77.86 103.465V95.9984C76.9276 97.0651 75.9286 98.2651 74.7298 99.7318C73.5976 101.198 72.5986 102.398 71.7994 103.532C71.7328 103.532 71.6662 103.532 71.533 103.532C71.3998 103.532 71.3998 103.532 71.3332 103.532C71.2 103.532 71.0668 103.532 70.9336 103.532C70.867 103.465 70.8004 103.465 70.6672 103.465ZM82.9882 103.465V92.5984C83.1214 92.5984 83.3212 92.5984 83.5876 92.6651C83.854 92.6651 84.0538 92.7318 84.187 92.7318C84.3202 92.7318 84.52 92.7318 84.7864 92.6651C85.0528 92.6651 85.2526 92.5984 85.3858 92.5984V96.8651C85.7188 96.8651 86.185 96.8651 86.7844 96.9318C87.3838 96.9318 87.7168 96.9984 87.85 96.9984C88.2496 96.9984 88.516 96.9984 88.7824 96.9984C89.7148 96.9318 90.181 96.9318 90.3142 96.9318V92.6651C90.4474 92.6651 90.6472 92.6651 90.9136 92.7318C91.18 92.7318 91.3798 92.7984 91.513 92.7984C91.6462 92.7984 91.846 92.7984 92.1124 92.7318C92.3788 92.7318 92.5786 92.6651 92.7118 92.6651V103.532C92.5786 103.532 92.3788 103.532 92.1124 103.465C91.846 103.465 91.6462 103.398 91.513 103.398C91.3798 103.398 91.18 103.398 90.9136 103.465C90.6472 103.465 90.4474 103.532 90.3142 103.532V98.2651C90.0478 98.2651 89.5816 98.2651 88.9156 98.2651C88.2496 98.2651 87.9166 98.2651 87.9166 98.2651C87.517 98.2651 87.1174 98.2651 86.6512 98.2651C86.185 98.2651 85.7854 98.2651 85.519 98.3318V103.598C85.3858 103.598 85.186 103.598 84.9196 103.532C84.6532 103.532 84.4534 103.465 84.3202 103.465C84.187 103.465 83.9872 103.465 83.7208 103.532C83.3212 103.465 83.1214 103.465 82.9882 103.465ZM99.505 93.7318V103.465C99.3718 103.465 99.172 103.465 98.839 103.398C98.506 103.398 98.3728 103.332 98.3728 103.332C98.2396 103.332 98.0398 103.332 97.7734 103.398C97.507 103.398 97.3072 103.465 97.174 103.465V93.7318C96.6412 93.7318 96.1084 93.7318 95.7088 93.7984C95.3092 93.8651 94.7764 93.8651 94.2436 93.9318C94.2436 93.7984 94.3102 93.6651 94.3102 93.5318C94.3102 93.3984 94.3102 93.3318 94.3102 93.2651C94.3102 93.1318 94.3102 92.9984 94.3102 92.8651C94.3102 92.7318 94.2436 92.6651 94.2436 92.5984H102.369C102.369 92.7984 102.302 93.0651 102.302 93.2651C102.302 93.3984 102.302 93.4651 102.302 93.5984C102.302 93.7318 102.369 93.8651 102.369 93.9318C101.57 93.8651 101.103 93.7984 100.97 93.7984C100.504 93.7984 99.9712 93.7318 99.505 93.7318ZM106.232 103.465C106.431 103.132 106.698 102.598 107.097 101.732C107.231 101.465 107.43 101.065 107.63 100.598C107.297 99.9318 106.831 99.0651 106.232 98.0651C106.098 97.8651 105.499 96.9318 104.433 95.1984C103.701 94.0651 103.235 93.1984 102.902 92.6651C103.035 92.6651 103.301 92.6651 103.634 92.7318C103.967 92.7984 104.167 92.7984 104.367 92.7984C104.5 92.7984 104.766 92.7984 105.099 92.7318C105.432 92.7318 105.632 92.6651 105.832 92.6651C105.965 92.9318 106.232 93.4651 106.698 94.1984C106.764 94.3318 107.231 95.0651 107.963 96.3318C108.496 97.1984 108.762 97.7318 108.896 97.9984C109.162 97.5984 109.562 96.7984 110.161 95.4651C110.494 94.7984 110.894 93.8651 111.426 92.5984L112.226 92.6651L112.958 92.5984C112.625 93.1318 112.092 94.1984 111.293 95.7984C110.561 97.2651 109.828 98.7318 109.162 100.065C108.363 101.732 107.83 102.798 107.63 103.398C107.564 103.398 107.43 103.398 107.297 103.332C107.164 103.332 107.031 103.265 106.964 103.265L106.232 103.465ZM116.954 98.7318V103.465C116.821 103.465 116.621 103.465 116.355 103.398C116.088 103.398 115.889 103.332 115.755 103.332C115.622 103.332 115.422 103.332 115.156 103.398C114.89 103.398 114.69 103.465 114.557 103.465V92.5984H118.419C120.684 92.5984 121.816 93.4651 121.816 95.2651C121.816 96.5984 121.35 97.4651 120.417 98.0651C119.685 98.5318 118.553 98.7318 116.954 98.7318ZM116.954 93.5318V97.8651C117.354 97.8651 117.687 97.7984 118.02 97.7318C118.486 97.5984 118.886 97.3318 119.085 96.9318C119.285 96.5984 119.418 96.1318 119.418 95.5984C119.418 94.9984 119.285 94.4651 119.019 94.0651C118.752 93.6651 118.419 93.4651 117.953 93.4651H116.954V93.5318ZM127.877 103.465V102.332C126.212 102.332 124.946 101.998 124.014 101.265C123.081 100.532 122.549 99.4651 122.549 97.9984C122.549 96.7318 123.015 95.6651 123.881 94.8651C124.813 94.0651 126.145 93.6651 127.81 93.6651V92.5318C127.943 92.5318 128.143 92.5318 128.409 92.5984C128.676 92.5984 128.876 92.6651 129.009 92.6651C129.142 92.6651 129.342 92.6651 129.608 92.5984C129.875 92.5984 130.074 92.5318 130.208 92.5318V93.5984C132.072 93.5984 133.471 94.0651 134.337 94.9318C135.069 95.6651 135.469 96.6651 135.469 97.8651C135.469 99.1318 135.003 100.198 134.07 100.998C133.138 101.798 131.806 102.198 130.208 102.198V103.398C130.074 103.398 129.875 103.398 129.608 103.332C129.342 103.332 129.142 103.265 129.009 103.265C128.876 103.265 128.676 103.265 128.409 103.332C128.21 103.465 128.01 103.465 127.877 103.465ZM132.738 97.7318C132.738 96.8651 132.539 96.1318 132.072 95.5318C131.606 94.8651 130.94 94.5318 130.141 94.5318V101.465C130.874 101.465 131.54 101.065 132.006 100.332C132.539 99.5984 132.738 98.7318 132.738 97.7318ZM125.346 98.3318C125.346 99.1984 125.546 99.9318 126.012 100.532C126.478 101.198 127.144 101.532 127.877 101.532V94.5318C127.077 94.5318 126.478 94.8651 126.012 95.5984C125.546 96.3318 125.346 97.1984 125.346 98.3318ZM140.73 92.5984C140.797 92.5984 140.93 92.5984 141.063 92.6651C141.197 92.6651 141.33 92.7318 141.396 92.7318C141.463 92.7318 141.596 92.7318 141.729 92.6651C141.863 92.6651 141.996 92.5984 142.062 92.5984C142.529 93.7984 142.928 94.9984 143.394 96.2651C143.661 97.0651 144.194 98.2651 144.793 99.8651C145.193 100.932 145.725 102.132 146.258 103.465C146.125 103.465 145.859 103.465 145.592 103.398C145.259 103.398 145.059 103.332 144.926 103.332C144.793 103.332 144.527 103.332 144.26 103.398C143.927 103.398 143.727 103.465 143.594 103.465C143.261 102.398 142.795 101.065 142.262 99.5318C141.796 98.1984 141.263 96.9318 140.797 95.5984C140.531 96.2651 140.198 97.1318 139.731 98.1984C139.332 99.2651 138.999 100.132 138.732 100.798C138.399 101.798 138.066 102.665 137.8 103.398L137.067 103.332L136.335 103.398C136.868 102.198 137.334 100.998 137.867 99.7984C138.399 98.5984 138.866 97.3984 139.332 96.1984C139.865 94.9984 140.264 93.7984 140.73 92.5984ZM159.179 97.9984C159.179 99.5984 158.646 100.932 157.514 101.998C156.381 103.132 154.85 103.665 152.918 103.665C151.12 103.665 149.721 103.198 148.656 102.198C147.59 101.198 147.057 99.7984 147.057 98.0651C147.057 96.4651 147.59 95.0651 148.656 94.0651C149.788 92.9318 151.32 92.3984 153.251 92.3984C155.316 92.3984 156.848 92.9984 157.847 94.2651C158.779 95.2651 159.179 96.5318 159.179 97.9984ZM153.251 93.2651C152.119 93.2651 151.253 93.6651 150.72 94.5318C150.121 95.3984 149.788 96.7318 149.788 98.4651C149.788 99.5984 150.054 100.598 150.521 101.332C151.12 102.198 151.986 102.665 153.051 102.665C154.184 102.665 155.116 102.132 155.715 101.132C156.315 100.198 156.581 98.9984 156.581 97.5984C156.581 96.4651 156.315 95.4651 155.849 94.6651C155.249 93.7984 154.383 93.2651 153.251 93.2651ZM165.372 93.7318V103.465C165.239 103.465 165.039 103.465 164.706 103.398C164.373 103.398 164.24 103.332 164.24 103.332C164.107 103.332 163.907 103.332 163.641 103.398C163.374 103.398 163.175 103.465 163.041 103.465V93.7318C162.509 93.7318 161.976 93.7318 161.576 93.7984C161.177 93.8651 160.644 93.8651 160.111 93.9318C160.111 93.7984 160.178 93.6651 160.178 93.5318C160.178 93.3984 160.178 93.3318 160.178 93.2651C160.178 93.1318 160.178 92.9984 160.178 92.8651C160.178 92.7318 160.111 92.6651 160.111 92.5984H168.236C168.236 92.7984 168.17 93.0651 168.17 93.2651C168.17 93.3984 168.17 93.4651 168.17 93.5984C168.17 93.7318 168.236 93.8651 168.236 93.9318C167.437 93.8651 166.971 93.7984 166.838 93.7984C166.305 93.7984 165.839 93.7318 165.372 93.7318Z" fill="#0A2A5F"/>
</g>
<defs>
<clipPath id="clip0_377_4710">
<rect width="210" height="130" fill="white"/>
</clipPath>
</defs>
</svg>
