<svg width="210" height="130" viewBox="0 0 210 130" fill="none" xmlns="http://www.w3.org/2000/svg">
<g clip-path="url(#clip0_377_4680)">
<path fill-rule="evenodd" clip-rule="evenodd" d="M118.228 16.462C117.79 16.987 117.702 17.162 118.14 17.687C118.928 18.4745 119.629 19.087 120.768 19.6995C121.031 19.787 123.046 20.3995 123.308 20.312C123.396 20.312 123.484 20.2245 123.571 20.0495C123.659 19.787 123.571 19.6995 123.308 19.6995C123.046 19.6995 122.695 19.612 122.432 19.5245C121.819 19.262 121.031 18.912 120.418 18.387C119.892 17.9495 119.454 17.2495 119.279 16.7245C119.104 16.1995 118.49 15.937 118.228 16.462Z" fill="#EA4939"/>
<path fill-rule="evenodd" clip-rule="evenodd" d="M117.965 15.2383C118.228 15.4133 118.315 15.7633 118.14 16.1133C117.965 16.3758 117.614 16.4633 117.264 16.2883C116.388 15.6758 115.424 15.2383 114.548 15.0633C113.672 14.8008 112.709 14.7133 111.745 14.8008C110.694 14.8883 109.468 15.3258 108.416 16.0258C107.365 16.7258 106.402 17.6008 105.613 18.7383C104.562 20.4008 103.861 22.3258 103.686 24.5133C103.511 26.6133 103.861 28.8883 104.737 31.3383C105.088 32.4758 105.788 33.5258 106.577 34.5758C107.365 35.6258 108.416 36.7633 109.643 37.8133C109.906 38.0758 109.906 38.4258 109.73 38.6883C109.468 38.9508 109.117 38.9508 108.854 38.7758C107.628 37.6383 106.489 36.5008 105.613 35.3633C104.737 34.2258 104.036 33.0008 103.598 31.7758C102.635 29.1508 102.284 26.7008 102.46 24.4258C102.635 21.9758 103.423 19.8758 104.65 18.0383C105.526 16.7258 106.577 15.6758 107.803 14.9758C109.03 14.1883 110.431 13.6633 111.745 13.5758C112.884 13.4883 113.935 13.5758 114.986 13.8383C115.95 14.1008 117.001 14.5383 117.965 15.2383Z" fill="#728190"/>
<path fill-rule="evenodd" clip-rule="evenodd" d="M101.321 36.3236C101.321 36.6736 101.058 36.9361 100.708 36.9361C100.357 36.9361 100.094 36.6736 100.094 36.3236C100.094 35.0986 100.62 34.2236 101.321 33.1736C101.846 32.2986 102.547 31.2486 102.81 29.7611C102.898 29.3236 103.073 29.2361 103.336 29.1486H103.423C103.774 28.9736 104.124 29.1486 104.212 29.4111C104.387 29.6736 104.212 30.0236 103.949 30.1986C103.598 31.7736 102.898 32.8236 102.372 33.7861C101.759 34.6611 101.321 35.3611 101.321 36.3236Z" fill="#728190"/>
<path fill-rule="evenodd" clip-rule="evenodd" d="M97.8168 43.2367C98.0796 43.4117 98.2548 43.7617 98.0796 44.1117C97.9044 44.3742 97.554 44.5492 97.2036 44.3742C95.2764 43.3242 95.6268 41.8367 96.5904 40.0867C96.7656 39.7367 97.0284 39.3867 97.2912 38.9492C97.6416 38.4242 97.9044 37.8992 98.2548 37.3742C99.0432 35.8867 100.27 35.8867 100.883 35.8867C100.97 35.8867 100.97 35.8867 100.97 35.8867C101.321 35.8867 101.584 36.0617 101.671 36.4117C101.671 36.7617 101.496 37.0242 101.146 37.1117C101.058 37.1117 100.97 37.1117 100.883 37.1117C100.532 37.1117 99.744 37.1117 99.306 37.8992C98.9556 38.5117 98.6928 39.0367 98.3424 39.5617C98.0796 39.9117 97.9044 40.2617 97.7292 40.6992C97.0284 41.7492 96.7656 42.6242 97.8168 43.2367Z" fill="#728190"/>
<path fill-rule="evenodd" clip-rule="evenodd" d="M96.7656 43.5875C97.0284 43.325 97.3788 43.4125 97.6416 43.5875C97.9044 43.85 97.8168 44.2 97.6416 44.4625C97.554 44.55 97.4664 44.6375 97.3788 44.725C96.24 45.6875 95.6268 46.3 96.7656 51.375C96.9408 52.075 96.5904 52.5125 96.1524 53.125C95.6268 53.9125 94.8384 55.1375 94.926 57.675C94.926 57.9375 94.8384 58.375 94.6632 58.8125C94.5756 59.1625 94.3128 59.5125 94.1376 59.6875C93.8748 59.95 93.5244 59.95 93.2616 59.6875C92.9988 59.425 92.9988 59.075 93.2616 58.8125C93.3492 58.725 93.4368 58.55 93.5244 58.375C93.612 58.1125 93.6996 57.85 93.6996 57.675C93.612 54.7875 94.488 53.3875 95.1888 52.425C95.4516 52.075 95.6268 51.725 95.6268 51.55C94.3128 45.775 95.1888 44.9875 96.678 43.675C96.5904 43.7625 96.7656 43.675 96.7656 43.5875Z" fill="#728190"/>
<path fill-rule="evenodd" clip-rule="evenodd" d="M110.168 26.1752C109.818 23.9002 110.431 21.3627 112.796 20.8377C114.811 20.4002 116.213 20.6627 117.439 20.9252C119.279 21.3627 120.505 21.7127 122.345 21.1002C122.783 20.9252 122.783 21.0127 122.695 20.9252C122.608 20.7502 121.381 21.0127 120.418 20.9252C116.388 20.4002 112.621 17.7752 109.818 21.9752C108.416 24.1627 108.592 26.6127 109.555 28.8877C109.993 30.0252 112.446 33.3502 114.023 35.0127C114.373 35.4502 116.125 36.5002 116.651 36.0627C119.016 34.1377 118.841 32.3002 122.17 31.1627C126.637 29.6752 133.032 29.4127 138.2 28.2752C141.442 27.5752 142.405 27.3127 144.42 26.0877C146.435 24.8627 146.96 23.5502 147.398 22.8502C147.836 22.1502 149.326 19.0877 149.588 18.5627C150.464 16.9877 150.202 19.0877 150.202 19.4377C150.026 20.3127 149.851 21.0127 149.501 22.5877C149.15 24.1627 148.975 25.0377 149.238 25.9127C149.326 26.2627 150.552 27.3127 149.501 27.3127C148.8 27.3127 147.836 27.4877 147.311 27.7502C146.698 28.1002 146.26 28.4502 146.172 28.8002C146.084 29.1502 146.26 29.5002 146.61 29.6752C146.96 29.8502 147.749 30.0252 147.924 30.2877C148.712 30.8127 148.362 30.9877 147.486 30.9877C146.522 30.9877 145.822 30.9002 145.033 31.0752C144.42 31.1627 142.055 31.8627 143.281 32.6502C143.456 32.7377 145.822 34.1377 144.77 34.3127C144.245 34.4002 142.493 34.1377 142.318 34.3127C142.142 34.4877 142.58 34.6627 142.318 34.6627C141.88 34.8377 140.39 34.1377 140.566 35.1002C140.741 35.7127 140.828 35.7127 140.653 35.9752C140.478 36.2377 140.04 36.3252 139.777 36.2377C137.237 35.5377 136.361 35.8877 135.835 36.6752C135.397 37.2002 135.134 37.9002 134.258 38.3377C133.295 38.8627 132.506 38.6002 131.192 38.8627C124.447 40.1752 117.264 48.7502 113.059 54.2627C112.096 55.4877 109.468 59.3377 108.767 60.3877C108.066 61.4377 107.54 62.1377 107.102 62.4877C106.664 62.8377 106.752 63.1002 106.489 62.8377C106.226 62.4877 106.051 62.4002 106.139 61.0002C106.226 59.6002 106.402 58.3752 106.664 57.5002C107.19 56.0127 106.577 56.0127 105.964 57.1502C105 58.7252 104.474 62.2252 105.263 63.4502C106.664 65.8127 107.365 64.0627 109.38 61.7877C110.694 60.2127 113.935 55.4002 114.461 54.6127C116.563 51.5502 121.907 45.7752 124.798 43.5877C126.024 42.6252 127.513 41.5752 130.316 40.7877C131.368 40.4377 132.506 40.3502 133.908 40.0877C134.784 39.9127 135.222 39.4752 135.923 38.8627C136.624 38.2502 136.711 37.8127 137.412 37.5502C138.2 37.3752 139.076 37.5502 140.653 37.8127C144.683 38.5127 141.442 36.6752 142.318 35.9752C142.668 35.7127 143.894 35.4502 144.595 35.5377C145.296 35.6252 145.121 35.8002 145.296 35.9752C145.822 36.5002 146.347 35.0127 146.347 34.7502C146.347 34.2252 145.997 33.8752 145.822 33.2627C145.646 32.7377 145.296 32.3877 145.909 32.2127C146.61 31.9502 149.15 32.2127 149.326 32.2127C150.464 32.3877 150.377 30.8127 149.501 30.1127C148.625 29.4127 148.274 29.6752 148.362 29.4127C148.45 29.1502 149.238 28.9752 149.851 28.8877C150.289 28.8002 153.268 28.1877 152.742 27.4002C152.041 26.4377 150.902 26.9627 150.727 25.9127C150.464 24.5127 151.253 21.9752 151.34 20.0502C151.34 19.7002 151.866 15.1502 150.289 16.6377C149.764 17.1627 149.588 16.9877 148.187 19.4377C145.822 23.5502 145.208 25.5627 139.952 26.8752C133.645 28.4502 124.535 28.8002 121.118 30.2877C118.753 31.3377 116.563 35.0127 116.125 35.1002C115.512 35.1877 114.023 33.7002 112.709 31.7752C113.322 31.2502 115.074 29.5877 115.95 28.5377C117.176 27.1377 117.614 25.5627 117.877 23.7252C117.965 23.2002 117.965 22.7627 117.79 23.0252C117.439 23.8127 116.826 24.5127 116.125 25.2127C115.074 26.3502 112.096 27.9252 110.431 26.8752C110.168 26.3502 110.168 26.2627 110.168 26.1752ZM111.833 30.3752C111.482 29.7627 111.132 29.1502 110.869 28.6252C110.782 28.4502 110.694 28.1877 110.606 28.0127C112.096 27.8377 115.249 26.6127 116.476 25.3002C116.038 26.7002 113.234 29.7627 111.833 30.3752ZM115.95 37.7252C113.41 38.6002 111.482 40.1752 110.256 42.2752C108.504 45.1627 108.329 47.6127 107.978 50.7627C107.803 52.0752 107.803 53.3877 107.628 54.0002C107.54 54.2627 107.278 54.3502 106.927 54.3502C106.489 54.3502 106.314 54.1752 106.226 53.8252C105.613 51.9002 107.716 44.5502 108.854 42.5377C110.168 40.2627 112.183 38.2502 115.95 37.5502C116.476 37.4627 116.388 37.5502 115.95 37.7252Z" fill="#728190"/>
<path fill-rule="evenodd" clip-rule="evenodd" d="M78.1068 65.55C77.844 65.375 77.5812 65.375 77.7564 65.1125C77.9316 64.85 78.1944 65.025 78.4572 65.2C85.1148 69.3125 92.9112 67.825 96.9408 61C97.554 60.0375 97.8168 59.075 97.9044 58.4625V58.375C97.3788 58.725 96.4152 59.1625 95.5392 59.5125C94.8384 59.775 94.1376 59.95 93.612 59.95C93.2616 59.95 92.9988 59.6875 92.9988 59.3375C92.9988 58.9875 93.2616 58.725 93.612 58.725C93.9624 58.725 94.488 58.55 95.0136 58.375C95.802 58.025 96.678 57.5875 97.2036 57.325C97.554 57.15 97.9044 57.0625 98.1672 57.0625C98.5176 57.0625 98.7804 57.325 98.9556 57.675C99.0432 57.9375 99.1308 58.2 99.0432 58.55C99.0432 59.3375 98.6052 60.5625 97.9044 61.6125C93.612 69.05 85.3776 70.0125 78.1068 65.55Z" fill="#728190"/>
<path fill-rule="evenodd" clip-rule="evenodd" d="M121.907 46.4766C122.345 46.8266 122.257 47.1766 122.257 47.7016C122.257 53.6516 122.783 58.2016 118.14 62.5766C116.3 64.3266 113.497 66.6891 112.884 68.8766C112.796 69.3141 111.92 69.6641 111.92 70.1016C111.92 70.4516 111.745 70.7141 111.395 70.8016C111.044 70.8016 110.782 70.6266 110.694 70.2766C110.606 69.7516 109.818 70.2766 109.993 69.7516C110.344 67.5641 110.869 66.8641 112.534 65.2016C113.848 63.8891 115.249 62.9266 116.914 61.3516C121.118 57.4141 121.294 53.7391 121.644 48.0516C121.644 47.7891 121.556 46.4766 121.907 46.4766Z" fill="#728190"/>
<path fill-rule="evenodd" clip-rule="evenodd" d="M76.3548 67.3C79.596 71.5 83.8008 73.25 88.7064 74.825C83.1876 74.9125 78.282 72.375 74.4276 68.525C74.0772 68 74.2524 67.3 74.778 66.95C75.3036 66.6875 76.0044 66.775 76.3548 67.3ZM126.112 76.6625C125.849 76.4875 125.586 76.3125 125.323 76.1375C125.411 76.4875 125.411 76.925 125.411 77.275C125.323 78.325 124.622 79.375 123.484 79.725C122.432 80.075 121.294 79.6375 120.68 78.5875C120.242 77.8875 120.33 77.0125 120.856 76.3125C121.031 76.05 121.294 75.875 121.556 75.7C121.819 75.525 122.17 75.525 122.432 75.525C122.958 75.525 123.396 75.7875 123.746 76.225C123.834 76.3125 123.834 76.4 123.922 76.4875C124.009 76.75 124.097 77.1 124.009 77.45C123.922 77.8 123.746 78.2375 123.308 78.5C122.17 79.2875 121.907 77.7125 122.17 77.625C123.046 77.8 123.046 77.275 123.046 77.275C123.133 76.8375 122.87 76.4875 122.432 76.4875C121.644 76.4875 121.469 77.3625 121.644 78.0625C121.732 78.4125 122.082 78.675 122.432 78.85C122.695 78.9375 123.046 78.9375 123.308 78.85C124.009 78.675 124.447 77.8 124.535 77.1875C124.622 76.575 124.447 75.875 124.184 75.35C120.593 73.5125 116.738 73.1625 112.446 73.1625C117.702 71.4125 123.046 72.375 127.688 74.9125C128.126 75.2625 128.214 75.9625 127.776 76.4875C127.25 76.925 126.55 77.0125 126.112 76.6625ZM75.8292 62.3125C85.5528 72.9 94.488 73.075 102.985 71.325C107.453 70.3625 111.482 68.6125 115.775 68.2625C115.862 68.2625 116.038 68.2625 116.125 68.2625C120.418 64.5 134.959 63.3625 144.946 69.225C131.455 65.55 126.112 66.25 120.943 68.4375C125.411 69.05 129.966 70.975 131.718 74.2125C131.981 74.65 131.543 74.475 131.368 74.3875C125.236 71.0625 121.994 70.1 118.052 70.45C114.636 70.8 111.132 72.375 105.263 73.775C95.364 76.225 79.7712 72.55 75.8292 62.3125ZM140.478 72.375C136.273 69.1375 131.806 68.525 126.725 68.2625C131.981 66.775 137.324 67.9125 141.967 70.7125C142.405 71.15 142.493 71.85 142.055 72.2875C141.617 72.725 140.916 72.725 140.478 72.375Z" fill="#27B3D6"/>
<path fill-rule="evenodd" clip-rule="evenodd" d="M104.036 100.464C104.036 100.552 103.949 100.727 103.774 101.077C103.16 102.039 102.46 102.739 101.759 103.264C101.058 103.789 100.357 104.052 99.744 104.052C99.306 104.052 99.0432 103.877 98.868 103.614C98.6928 103.352 98.6052 103.002 98.6928 102.564C98.7804 102.214 98.868 101.777 99.1308 101.339C99.2184 101.077 99.3936 100.814 99.4812 100.552L101.846 95.2141L102.022 94.6891C102.022 94.6016 102.022 94.5141 101.934 94.4266C101.671 94.2516 101.671 94.3391 101.408 94.5141C101.233 94.6016 101.146 94.7766 100.97 95.0391C99.5688 97.8391 97.2036 101.514 94.8384 103.439C94.3128 103.877 93.6996 104.052 93.174 104.052C92.6484 104.052 92.298 103.964 92.0352 103.702C91.7724 103.439 91.6848 103.002 91.7724 102.477C91.86 102.039 92.0352 101.689 92.298 101.427C92.5608 101.164 92.9112 101.077 93.2616 101.077C93.612 101.077 93.8748 101.252 93.9624 101.514C94.05 101.689 94.05 101.952 94.05 102.214V102.652C94.05 102.914 93.8748 103.002 93.9624 103.002C95.1012 103.002 99.1308 97.4016 99.744 95.7391C99.9192 95.3016 100.007 94.9516 100.007 94.7766C100.007 94.6016 100.007 94.5141 100.007 94.4266C99.9192 94.2516 99.744 94.1641 99.3936 94.1641H98.9556C98.6928 94.1641 98.6052 94.0766 98.6052 93.8141C98.6928 93.5516 98.7804 93.4641 99.0432 93.4641H103.774C104.474 93.4641 104.825 93.7266 104.65 94.3391C104.65 94.5141 104.562 94.6891 104.562 94.7766C104.562 94.8641 104.474 95.0391 104.299 95.4766L101.934 100.902C101.846 100.989 101.846 101.164 101.759 101.339C101.671 101.514 101.671 101.689 101.584 101.777C101.584 102.039 101.584 102.127 101.671 102.127C101.846 102.127 102.022 102.039 102.284 101.777C102.547 101.514 102.81 101.252 103.073 100.902L103.423 100.464C103.598 100.202 103.686 100.114 103.861 100.114C104.036 100.202 104.124 100.289 104.036 100.464ZM114.811 95.6516C114.636 96.7016 113.848 97.5766 112.621 98.3641C111.307 99.1516 109.73 99.5016 107.891 99.5016L107.716 100.289C107.54 100.989 107.628 101.602 107.803 101.952C108.066 102.302 108.416 102.564 108.942 102.564C109.643 102.564 110.344 102.302 111.044 101.777C111.22 101.602 111.658 101.339 112.096 100.814L112.271 100.639C112.358 100.552 112.358 100.552 112.446 100.552C112.621 100.552 112.709 100.639 112.621 100.814C112.621 100.902 112.534 100.989 112.446 101.077C112.358 101.164 112.271 101.252 112.183 101.427C111.395 102.302 110.694 102.914 110.081 103.264C109.292 103.789 108.329 103.964 107.453 103.964C106.226 103.964 105.438 103.527 105 102.652C104.65 101.952 104.562 101.164 104.737 100.202C105.088 98.2766 106.051 96.7016 107.716 95.3016C109.38 93.9016 110.957 93.2016 112.621 93.2016C113.497 93.2016 114.198 93.4641 114.548 93.9891C114.811 94.4266 114.899 95.0391 114.811 95.6516ZM112.271 94.9516C112.358 94.6016 112.358 94.3391 112.271 94.2516C112.183 94.0766 112.008 93.9891 111.833 93.9891C111.307 93.9891 110.606 94.5141 109.818 95.4766C109.03 96.4391 108.416 97.5766 108.066 98.8016C109.03 98.8016 109.906 98.4516 110.694 97.7516C111.57 96.9641 112.096 96.0016 112.271 94.9516ZM128.302 89.2641C127.951 89.9641 127.513 90.4891 126.9 90.8391C126.462 91.1016 125.849 91.2766 125.06 91.3641C124.272 91.4516 123.571 91.5391 122.87 91.6266C122.432 91.7141 121.907 91.8016 121.381 91.9766C120.418 92.3266 119.629 92.8516 118.928 93.5516C118.228 94.3391 117.614 95.4766 117.089 96.8766H117.176C117.79 95.9141 118.49 95.2141 119.454 94.6016C120.505 93.9891 121.556 93.6391 122.608 93.6391C123.659 93.6391 124.447 93.9016 124.885 94.5141C125.411 95.1266 125.498 95.9141 125.323 96.9641C124.973 98.7141 124.009 100.377 122.345 101.777C120.68 103.264 119.016 103.964 117.352 103.964C116.3 103.964 115.512 103.527 115.074 102.739C114.636 102.039 114.548 101.077 114.811 99.9391C115.074 98.7141 115.6 97.4016 116.388 95.8266C117.176 94.4266 118.052 93.2016 119.016 92.1516C120.155 90.8391 121.381 89.8766 122.695 89.3516C123.571 89.0016 124.622 88.7391 125.849 88.6516C126.637 88.6516 127.163 88.5641 127.426 88.5641C127.688 88.5641 127.864 88.4766 128.039 88.3891C128.214 88.3016 128.302 88.1266 128.477 88.0391C128.652 88.0391 128.74 88.2141 128.652 88.4766C128.477 88.8266 128.389 89.0016 128.302 89.2641ZM122.432 96.8766C122.783 95.2141 122.52 94.3391 121.732 94.3391C120.943 94.3391 120.242 94.8641 119.454 96.0016C118.578 97.2266 117.965 98.7141 117.614 100.552C117.439 101.689 117.352 102.389 117.439 102.739C117.527 103.089 117.79 103.264 118.052 103.264C118.753 103.264 119.542 102.652 120.418 101.514C121.469 100.289 122.082 98.7141 122.432 96.8766ZM135.66 95.6516C135.485 96.7016 134.696 97.5766 133.47 98.3641C132.156 99.1516 130.579 99.5016 128.74 99.5016L128.564 100.289C128.389 100.989 128.477 101.602 128.652 101.952C128.915 102.302 129.265 102.564 129.791 102.564C130.492 102.564 131.192 102.302 131.893 101.777C132.068 101.602 132.506 101.339 132.944 100.814L133.12 100.639C133.207 100.552 133.207 100.552 133.295 100.552C133.47 100.552 133.558 100.639 133.47 100.814C133.47 100.902 133.382 100.989 133.295 101.077C133.207 101.164 133.12 101.252 133.032 101.427C132.244 102.302 131.543 102.914 130.93 103.264C130.141 103.789 129.178 103.964 128.302 103.964C127.075 103.964 126.287 103.527 125.849 102.652C125.498 101.952 125.411 101.164 125.586 100.202C125.936 98.2766 126.9 96.7016 128.564 95.3016C130.229 93.9016 131.806 93.2016 133.47 93.2016C134.346 93.2016 135.047 93.4641 135.397 93.9891C135.748 94.4266 135.835 95.0391 135.66 95.6516ZM133.12 94.9516C133.207 94.6016 133.207 94.3391 133.12 94.2516C133.032 94.0766 132.857 93.9891 132.682 93.9891C132.156 93.9891 131.455 94.5141 130.667 95.4766C129.878 96.4391 129.265 97.5766 128.915 98.8016C129.878 98.8016 130.754 98.4516 131.543 97.7516C132.419 96.9641 132.944 96.0016 133.12 94.9516ZM155.282 100.027C155.107 100.989 154.494 101.952 153.443 102.739C152.304 103.614 150.99 104.052 149.413 104.052C148.274 104.052 147.486 103.877 146.96 103.527C146.347 103.089 146.084 102.389 146.26 101.427C146.347 101.077 146.435 100.814 146.522 100.464C146.61 100.202 146.873 99.6766 147.311 98.8891L148.8 96.0891C148.888 95.9141 148.975 95.7391 149.063 95.5641C149.15 95.3891 149.238 95.2141 149.238 95.1266C149.238 94.9516 149.238 94.8641 149.063 94.8641C148.888 94.8641 148.712 94.9516 148.45 95.1266C148.187 95.3016 147.836 95.6516 147.311 96.2641C147.223 96.4391 147.048 96.6141 146.785 96.6141C146.435 96.6141 146.61 96.2641 146.698 96.0891C147.136 95.3891 147.836 94.6891 148.712 94.0766C149.588 93.4641 150.464 93.2016 151.253 93.2016C151.603 93.2016 151.954 93.2891 152.041 93.5516C152.216 93.8141 152.216 94.0766 152.216 94.5141C152.216 94.6891 152.129 94.9516 152.041 95.1266C151.954 95.3891 151.866 95.6516 151.691 96.0016L150.727 97.8391C151.516 97.5766 152.304 97.4016 152.917 97.4016C153.881 97.4016 154.582 97.6641 154.932 98.2766C155.282 98.8016 155.37 99.3266 155.282 100.027ZM152.304 100.114C152.392 99.6766 152.392 99.4141 152.304 99.1516C152.216 98.6266 151.866 98.3641 151.34 98.3641C150.99 98.3641 150.727 98.4516 150.377 98.5391C150.114 98.9766 149.851 99.5891 149.588 100.289C149.326 100.989 149.063 101.602 148.975 102.039C148.888 102.564 148.888 102.914 148.975 103.089C149.063 103.264 149.326 103.352 149.676 103.352C150.289 103.352 150.902 103.002 151.428 102.214C151.866 101.602 152.129 100.902 152.304 100.114Z" fill="#27B3D6"/>
<path fill-rule="evenodd" clip-rule="evenodd" d="M74.34 74.6492C73.902 75.4367 73.3764 76.0492 72.6756 76.3992C72.15 76.6617 71.4492 76.8367 70.4856 76.9242C69.522 77.0117 68.646 77.0992 67.77 77.1867C67.2444 77.2742 66.6312 77.3617 66.018 77.5367C64.8792 77.8867 63.828 78.4117 63.1272 79.1992C62.2512 80.0742 61.5504 81.2992 60.9372 82.8742H61.0248C61.7256 81.9117 62.6892 81.0367 63.7404 80.4242C64.9668 79.7242 66.1932 79.3742 67.5948 79.3742C68.8212 79.3742 69.7848 79.7242 70.398 80.3367C71.0112 80.9492 71.1864 81.9117 70.9236 83.0492C70.5732 84.9742 69.3468 86.7242 67.332 88.2992C65.3172 89.8742 63.3024 90.6617 61.2876 90.6617C59.9736 90.6617 59.01 90.2242 58.4844 89.3492C57.9588 88.5617 57.8712 87.5117 58.134 86.3742C58.3968 85.0617 59.01 83.5742 60.0612 81.9117C61.0248 80.4242 61.9884 79.1117 63.2148 77.9742C64.6164 76.5742 66.1056 75.5242 67.5948 74.9117C68.646 74.4742 69.8724 74.2117 71.3616 74.1242C72.3252 74.1242 72.9384 74.0367 73.2012 74.0367C73.464 74.0367 73.7268 73.9492 73.902 73.8617C74.0772 73.7742 74.2524 73.5992 74.4276 73.5117C74.6028 73.5117 74.6904 73.6867 74.6028 73.9492C74.6028 74.2117 74.5152 74.3867 74.34 74.6492ZM67.4196 82.9617C67.77 81.1242 67.5072 80.2492 66.5436 80.2492C65.6676 80.2492 64.704 80.8617 63.7404 81.9992C62.6892 83.3117 61.9884 84.9742 61.5504 86.9867C61.2876 88.2117 61.2876 88.9992 61.3752 89.4367C61.4628 89.8742 61.7256 90.0492 62.1636 90.0492C62.952 90.0492 63.9156 89.4367 64.9668 88.1242C66.1932 86.6367 66.9816 84.8867 67.4196 82.9617ZM83.3628 81.6492C83.1 82.7867 82.224 83.7492 80.7348 84.5367C79.158 85.3242 77.3184 85.7617 75.0408 85.7617L74.778 86.6367C74.6028 87.4242 74.6904 88.0367 74.9532 88.4742C75.216 88.9117 75.654 89.0867 76.3548 89.0867C77.1432 89.0867 78.0192 88.8242 78.8952 88.2117C79.158 88.0367 79.596 87.6867 80.2092 87.1617L80.3844 86.9867C80.472 86.8992 80.5596 86.8992 80.6472 86.8992C80.8224 86.8992 80.91 86.9867 80.91 87.1617C80.91 87.2492 80.8224 87.4242 80.7348 87.5117C80.6472 87.5992 80.5596 87.7742 80.3844 87.8617C79.5084 88.7367 78.6324 89.4367 77.844 89.8742C76.8804 90.3992 75.8292 90.6617 74.6904 90.6617C73.2012 90.6617 72.2376 90.2242 71.712 89.2617C71.274 88.5617 71.1864 87.6867 71.4492 86.6367C71.8872 84.6242 73.026 82.7867 74.9532 81.2992C76.8804 79.8117 78.8952 79.0242 80.91 79.0242C81.9612 79.0242 82.7496 79.2867 83.2752 79.8117C83.3628 80.3367 83.538 80.9492 83.3628 81.6492ZM80.2968 80.8617C80.3844 80.5117 80.3844 80.2492 80.2092 80.0742C80.1216 79.8992 79.9464 79.8117 79.6836 79.8117C79.0704 79.8117 78.282 80.3367 77.3184 81.3867C76.3548 82.4367 75.654 83.6617 75.216 84.9742C76.3548 84.9742 77.406 84.6242 78.4572 83.8367C79.4208 83.0492 80.034 81.9992 80.2968 80.8617ZM94.4004 86.8992C94.4004 86.9867 94.2252 87.2492 94.05 87.5117C93.3492 88.5617 92.5608 89.3492 91.6848 89.8742C90.8088 90.4867 90.0204 90.7492 89.232 90.7492C88.7064 90.7492 88.356 90.5742 88.1808 90.3117C87.918 90.0492 87.918 89.6117 88.0056 89.1742C88.0932 88.8242 88.2684 88.3867 88.5312 87.8617C88.7064 87.5992 88.794 87.2492 88.9692 86.9867L91.7724 81.2117L92.0352 80.5992C92.0352 80.4242 92.0352 80.3367 91.9476 80.3367C91.9476 80.3367 91.422 80.1617 90.8964 80.4242C90.7212 80.5117 90.4584 80.6867 90.2832 81.0367C89.3196 82.7867 88.4436 84.4492 87.3924 86.1992C86.2536 88.0367 84.1512 90.8367 81.6108 90.8367C80.9976 90.8367 80.5596 90.7492 80.2968 90.4867C79.9464 90.2242 79.8588 89.7867 79.9464 89.1742C80.034 88.6492 80.2968 88.2992 80.6472 88.0367C80.9976 87.7742 81.348 87.6867 81.786 87.6867C82.224 87.6867 82.4868 87.8617 82.5744 88.2117C82.662 88.3867 82.662 88.6492 82.662 88.9992V89.4367C82.662 89.6992 82.7496 89.7867 82.9248 89.7867C85.0272 89.7867 88.0932 83.9242 88.8816 81.9117C89.0568 81.4742 89.232 81.1242 89.232 80.8617C89.232 80.6867 89.232 80.5992 89.232 80.5117C89.1444 80.3367 88.8816 80.2492 88.5312 80.2492H88.0056C87.7428 80.2492 87.5676 80.1617 87.6552 79.8992C87.7428 79.6367 87.918 79.4617 88.1808 79.4617H94.3128C95.1888 79.4617 95.5392 79.8117 95.364 80.4242C95.364 80.5992 95.2764 80.7742 95.2764 80.8617C95.2764 80.9492 95.1012 81.2117 94.926 81.5617L92.1228 87.4242C92.0352 87.5117 91.9476 87.6867 91.86 87.8617C91.7724 88.0367 91.6848 88.2117 91.6848 88.2992C91.5972 88.5617 91.6848 88.6492 91.86 88.6492C92.0352 88.6492 92.298 88.5617 92.5608 88.2992C92.8236 88.0367 93.174 87.7742 93.5244 87.3367L93.9624 86.8992C94.1376 86.6367 94.3128 86.5492 94.4004 86.5492C94.4004 86.5492 94.4004 86.6367 94.4004 86.8992ZM112.358 86.8992C112.358 87.0742 112.183 87.3367 111.833 87.7742C111.482 88.2117 111.22 88.4742 111.044 88.7367C110.431 89.4367 109.73 89.9617 109.03 90.3117C108.329 90.6617 107.716 90.8367 107.102 90.8367C106.664 90.8367 106.314 90.7492 106.051 90.4867C105.788 90.2242 105.701 89.7867 105.788 89.2617C105.788 89.0867 105.876 88.8242 106.051 88.6492C106.139 88.3867 106.226 88.2117 106.314 88.0367L110.081 80.1617C110.168 79.9867 110.256 79.8117 110.344 79.7242C110.519 79.5492 110.694 79.4617 110.869 79.4617H112.972C113.147 79.4617 113.234 79.4617 113.322 79.5492C113.41 79.6367 113.41 79.7242 113.41 79.8992C113.41 79.9867 113.322 80.0742 113.322 80.1617L109.818 87.5117C109.73 87.5992 109.643 87.7742 109.555 87.9492C109.468 88.1242 109.38 88.2992 109.38 88.3867C109.292 88.6492 109.38 88.7367 109.555 88.7367C109.818 88.7367 110.168 88.4742 110.694 88.0367C111.132 87.6867 111.395 87.3367 111.658 86.9867C111.745 86.8992 111.833 86.8117 111.833 86.7242C111.92 86.6367 112.008 86.6367 112.096 86.6367C112.358 86.5492 112.446 86.6367 112.358 86.8992ZM106.051 86.3742C105.788 87.5992 105 88.6492 103.686 89.5242C102.372 90.3117 100.795 90.7492 99.1308 90.7492C97.8168 90.7492 96.8532 90.5742 96.24 90.1367C95.4516 89.6992 95.1888 88.9117 95.364 87.9492C95.4516 87.5117 95.6268 87.0742 95.802 86.6367C95.8896 86.4617 95.9772 86.2867 96.0648 86.1992C96.1524 86.1117 96.3276 85.7617 96.5904 85.3242L98.43 82.3492C98.5176 82.2617 98.6052 82.0867 98.6928 81.8242C98.7804 81.5617 98.868 81.3867 98.868 81.2992C98.868 81.1242 98.868 81.0367 98.6928 81.0367C98.5176 81.0367 98.2548 81.1242 97.9044 81.3867C97.554 81.6492 97.116 81.9992 96.5904 82.5242C96.3276 82.7867 96.1524 82.8742 95.9772 82.8742C95.802 82.8742 95.7144 82.7867 95.7144 82.6117L95.802 82.3492C96.1524 81.7367 96.8532 81.0367 97.9044 80.3367C99.1308 79.5492 100.27 79.1117 101.233 79.1117C101.671 79.1117 102.022 79.1992 102.197 79.4617C102.372 79.7242 102.46 80.0742 102.372 80.5117C102.284 80.7742 102.197 81.1242 102.109 81.3867C102.022 81.6492 101.846 81.9117 101.671 82.1742L100.532 84.0992C101.496 83.8367 102.372 83.6617 103.16 83.6617C104.299 83.6617 105.088 83.9242 105.526 84.4492C106.139 84.8867 106.226 85.5867 106.051 86.3742ZM102.547 86.4617C102.635 85.8492 102.635 85.4117 102.46 85.0617C102.284 84.7117 101.934 84.5367 101.408 84.5367C101.233 84.5367 101.058 84.5367 100.883 84.6242C100.708 84.6242 100.445 84.7117 100.27 84.7992C99.9192 85.4992 99.5688 86.1117 99.2184 86.8117C98.868 87.5117 98.6928 88.1242 98.6052 88.6492C98.5176 89.1742 98.5176 89.6117 98.7804 89.7867C98.9556 89.9617 99.1308 90.0492 99.4812 90.0492C100.182 90.0492 100.883 89.6992 101.496 88.9117C102.022 88.1242 102.372 87.3367 102.547 86.4617ZM120.33 88.6492C120.418 88.2992 120.593 87.9492 120.68 87.5117C120.768 87.3367 120.943 86.8992 121.294 86.1992L121.819 85.1492C120.505 86.8992 119.191 88.2117 117.79 89.1742C116.388 90.1367 115.249 90.6617 114.286 90.6617C113.848 90.6617 113.497 90.5742 113.234 90.3117C112.884 89.9617 112.796 89.4367 112.972 88.7367C113.059 88.3867 113.147 88.0367 113.234 87.6867C113.41 87.3367 113.585 86.8992 113.935 86.3742L114.636 85.1492L116.476 81.9992C116.651 81.7367 116.738 81.5617 116.826 81.3867C116.914 81.2992 116.914 81.2117 116.914 81.1242V80.9492V80.7742C116.914 80.6867 116.826 80.5992 116.651 80.5992C116.3 80.5992 115.95 80.7742 115.775 81.2117C115.249 82.0867 114.724 82.5242 113.935 82.5242C113.76 82.5242 113.672 82.4367 113.672 82.2617C113.672 82.1742 113.76 82.1742 113.76 82.0867C113.935 81.7367 114.286 81.3867 114.899 80.8617C115.687 80.1617 116.476 79.6367 117.264 79.2867C118.052 78.9367 118.753 78.7617 119.366 78.7617C119.804 78.7617 120.067 78.9367 120.242 79.1992C120.418 79.4617 120.505 79.8117 120.418 80.2492C120.33 80.5992 120.242 80.8617 120.155 81.1242C120.067 81.3867 119.892 81.6492 119.804 81.9117L117.176 86.6367C117.089 86.8117 116.914 86.9867 116.914 87.1617C116.738 87.4242 116.738 87.5992 116.651 87.7742C116.563 88.0367 116.651 88.2117 116.914 88.2117C117.089 88.2117 117.352 88.1242 117.614 87.9492C117.877 87.7742 118.315 87.4242 118.928 86.9867C120.067 86.0242 121.118 84.8867 121.994 83.6617C122.783 82.6117 123.396 81.4742 123.922 80.3367L124.184 79.8117C124.272 79.6367 124.36 79.5492 124.535 79.3742C124.71 79.2867 124.885 79.1992 125.236 79.1992H127.513C127.688 79.1992 127.688 79.2867 127.601 79.5492L124.885 85.2367C124.535 85.8492 124.272 86.4617 124.097 86.9867C124.009 87.0742 124.009 87.1617 124.009 87.2492C123.133 87.3367 122.17 87.5992 121.381 87.9492C121.031 88.2992 120.68 88.4742 120.33 88.6492Z" fill="#728190"/>
<path fill-rule="evenodd" clip-rule="evenodd" d="M139.514 87.5108C138.463 87.7733 137.412 88.7358 137.85 89.8733C138.2 91.0108 140.916 90.9233 139.339 88.9108C138.551 87.9483 140.128 87.9482 141.179 87.8607C142.142 87.9482 142.843 88.4733 143.369 89.3483C143.982 90.3983 143.807 93.2858 143.456 94.9483H143.369C143.194 94.4233 142.931 94.0733 142.493 93.8108C142.23 93.7233 141.967 93.6358 141.529 93.6358C139.952 93.6358 138.376 94.3357 136.974 95.7357C135.748 97.0482 134.959 98.3608 134.609 99.9358C134.434 100.898 134.521 101.773 134.872 102.473C135.397 103.436 136.273 103.873 137.587 103.873C139.339 103.873 141.004 102.998 142.668 101.161C144.157 99.4983 145.121 97.6607 145.471 95.7357C145.909 93.5482 145.997 90.2233 145.121 88.9983C144.07 87.3358 141.529 86.9858 139.514 87.5108ZM142.493 97.1358C142.668 96.2608 142.668 95.5608 142.58 95.1233C142.493 94.6858 142.23 94.5108 141.88 94.5108C141.179 94.5108 140.39 95.1233 139.514 96.2608C138.551 97.5733 137.938 98.9733 137.587 100.636C137.412 101.598 137.412 102.298 137.587 102.736C137.762 103.086 138.025 103.261 138.288 103.261C138.989 103.261 139.69 102.648 140.566 101.511C141.529 100.286 142.142 98.7983 142.493 97.1358Z" fill="#27B3D6"/>
<path fill-rule="evenodd" clip-rule="evenodd" d="M61.5504 114.024C61.5504 114.112 61.5504 114.112 61.5504 114.199V114.287V114.374C61.5504 114.374 61.5504 114.462 61.4628 114.462C61.4628 114.462 61.3752 114.549 61.2876 114.637C61.2 114.724 61.1124 114.724 61.0248 114.812C60.9372 114.899 60.762 114.899 60.6744 114.899C60.4992 114.899 60.4116 114.899 60.2364 114.899C59.9736 114.899 59.7108 114.812 59.448 114.724C59.1852 114.637 59.01 114.462 58.9224 114.287C58.7472 114.112 58.6596 113.849 58.572 113.587C58.4844 113.324 58.4844 112.974 58.4844 112.624C58.4844 112.187 58.572 111.837 58.6596 111.574C58.7472 111.312 58.9224 111.049 59.0976 110.874C59.2728 110.699 59.448 110.524 59.7108 110.437C59.9736 110.349 60.1488 110.262 60.4992 110.262C60.5868 110.262 60.762 110.262 60.8496 110.262C60.9372 110.262 61.1124 110.349 61.2 110.349C61.2876 110.349 61.3752 110.437 61.4628 110.524C61.5504 110.612 61.638 110.612 61.638 110.612L61.7256 110.699V110.787V110.874C61.7256 110.874 61.7256 110.962 61.7256 111.049C61.7256 111.137 61.7256 111.224 61.7256 111.312C61.7256 111.399 61.638 111.399 61.638 111.399C61.5504 111.399 61.5504 111.399 61.4628 111.312C61.3752 111.224 61.2876 111.224 61.2 111.137C61.1124 111.049 61.0248 111.049 60.8496 110.962C60.762 110.874 60.5868 110.874 60.4116 110.874C60.0612 110.874 59.7984 111.049 59.6232 111.312C59.448 111.574 59.3604 112.012 59.3604 112.537C59.3604 112.799 59.3604 113.062 59.448 113.237C59.5356 113.412 59.5356 113.587 59.6232 113.762C59.7108 113.937 59.7984 114.024 59.9736 114.024C60.1488 114.112 60.2364 114.112 60.4992 114.112C60.6744 114.112 60.8496 114.112 60.9372 114.024C61.0248 113.937 61.2 113.937 61.2876 113.849C61.3752 113.762 61.4628 113.762 61.5504 113.674C61.638 113.587 61.638 113.587 61.7256 113.587C61.7256 113.587 61.7256 113.587 61.8132 113.587C61.8132 113.587 61.8132 113.587 61.8132 113.674V113.762C61.5504 113.937 61.5504 113.937 61.5504 114.024ZM65.142 114.812L64.6164 116.299C64.6164 116.387 64.5288 116.387 64.4412 116.387C64.3536 116.387 64.266 116.387 64.0908 116.387C64.0032 116.387 63.9156 116.387 63.9156 116.387C63.828 116.387 63.828 116.387 63.828 116.387C63.828 116.387 63.828 116.387 63.828 116.299V116.212L64.3536 114.812C64.3536 114.812 64.266 114.812 64.266 114.724C64.266 114.724 64.266 114.637 64.1784 114.637L62.6892 110.787C62.6892 110.699 62.6892 110.699 62.6892 110.612V110.524H62.7768C62.8644 110.524 62.8644 110.524 62.952 110.524C63.0396 110.524 63.1272 110.524 63.1272 110.524C63.2148 110.524 63.2148 110.524 63.2148 110.524C63.2148 110.524 63.3024 110.524 63.3024 110.612V110.699L64.4412 113.937L65.58 110.699C65.58 110.612 65.58 110.612 65.6676 110.612H65.7552C65.8428 110.612 65.8428 110.612 66.018 110.612C66.1056 110.612 66.1932 110.612 66.1932 110.612C66.2808 110.612 66.2808 110.612 66.2808 110.612V110.699C66.2808 110.699 66.2808 110.787 66.2808 110.874L65.142 114.812ZM67.8576 116.124C67.8576 116.124 67.8576 116.212 67.8576 116.124C67.8576 116.212 67.8576 116.212 67.8576 116.124C67.77 116.212 67.77 116.212 67.6824 116.212C67.6824 116.212 67.5948 116.212 67.5072 116.212C67.4196 116.212 67.4196 116.212 67.332 116.212H67.2444H67.1568C67.1568 116.212 67.1568 116.212 67.1568 116.124V114.287C67.1568 114.199 67.1568 114.199 67.1568 114.112C67.1568 114.112 67.2444 114.112 67.332 114.112H67.5948C67.6824 113.937 67.77 113.849 67.9452 113.674C68.0328 113.499 68.1204 113.324 68.208 112.974C68.2956 112.712 68.3832 112.362 68.4708 112.012C68.5584 111.662 68.646 111.224 68.646 110.699V110.612V110.524C68.646 110.524 68.646 110.524 68.7336 110.437H68.8212H71.0988C71.1864 110.437 71.1864 110.437 71.274 110.524C71.274 110.524 71.3616 110.612 71.3616 110.699V114.112H71.8872C71.9748 114.112 71.9748 114.112 72.0624 114.112C72.0624 114.112 72.0624 114.199 72.0624 114.287V116.124C72.0624 116.124 72.0624 116.124 72.0624 116.212C72.0624 116.212 72.0624 116.212 71.9748 116.212H71.8872C71.8872 116.212 71.7996 116.212 71.712 116.212C71.6244 116.212 71.6244 116.212 71.5368 116.212H71.4492C71.4492 116.212 71.4492 116.212 71.3616 116.212C71.3616 116.212 71.3616 116.212 71.3616 116.124V114.724H67.6824V116.124H67.8576ZM70.6608 111.049H69.3468C69.2592 111.574 69.2592 111.924 69.1716 112.274C69.084 112.624 68.9964 112.887 68.9964 113.149C68.9088 113.412 68.8212 113.587 68.7336 113.674C68.646 113.849 68.5584 113.937 68.4708 114.024H70.6608V111.049ZM77.406 112.537C77.406 112.887 77.406 113.149 77.3184 113.412C77.2308 113.674 77.1432 113.937 76.968 114.112C76.7928 114.287 76.6176 114.462 76.3548 114.549C76.092 114.637 75.8292 114.724 75.4788 114.724C75.1284 114.724 74.8656 114.637 74.6028 114.549C74.34 114.462 74.1648 114.287 73.9896 114.112C73.8144 113.937 73.7268 113.674 73.6392 113.412C73.5516 113.149 73.5516 112.799 73.5516 112.449C73.5516 112.099 73.5516 111.837 73.6392 111.574C73.7268 111.312 73.8144 111.049 73.9896 110.874C74.1648 110.699 74.34 110.524 74.6028 110.437C74.8656 110.349 75.1284 110.262 75.4788 110.262C75.8292 110.262 76.092 110.349 76.3548 110.437C76.6176 110.524 76.7928 110.699 76.968 110.874C77.1432 111.049 77.2308 111.312 77.3184 111.574C77.3184 111.924 77.406 112.274 77.406 112.537ZM76.6176 112.624C76.6176 112.362 76.6176 112.187 76.53 112.012C76.53 111.837 76.4424 111.662 76.3548 111.487C76.2672 111.312 76.092 111.224 76.0044 111.137C75.8292 111.049 75.654 111.049 75.3912 111.049C75.1284 111.049 74.9532 111.049 74.8656 111.137C74.6904 111.224 74.6028 111.312 74.5152 111.487C74.4276 111.662 74.34 111.837 74.2524 112.012C74.1648 112.187 74.1648 112.449 74.1648 112.624C74.1648 112.887 74.1648 113.062 74.2524 113.237C74.2524 113.412 74.34 113.587 74.4276 113.762C74.5152 113.937 74.6904 114.024 74.778 114.112C74.9532 114.199 75.1284 114.199 75.3912 114.199C75.5664 114.199 75.8292 114.199 75.9168 114.112C76.092 114.024 76.1796 113.937 76.2672 113.762C76.3548 113.587 76.4424 113.412 76.53 113.237C76.6176 113.062 76.6176 112.887 76.6176 112.624ZM82.1364 114.549V114.637V114.724H82.0488C81.9612 114.724 81.8736 114.724 81.786 114.724C81.6984 114.724 81.6108 114.724 81.6108 114.724C81.5232 114.724 81.5232 114.724 81.5232 114.724H81.4356C81.4356 114.724 81.4356 114.724 81.348 114.637L80.3844 113.062L79.4208 114.637C79.4208 114.637 79.4208 114.637 79.4208 114.724C79.4208 114.724 79.4208 114.724 79.3332 114.724H79.2456C79.158 114.724 79.158 114.724 79.0704 114.724C78.9828 114.724 78.8952 114.724 78.8952 114.724C78.8076 114.724 78.8076 114.724 78.8076 114.724C78.8076 114.724 78.8076 114.724 78.8076 114.637V114.549L80.034 112.537L78.8076 110.612V110.524V110.437H78.8952C78.9828 110.437 79.0704 110.437 79.158 110.437C79.2456 110.437 79.3332 110.437 79.3332 110.437C79.4208 110.437 79.4208 110.437 79.4208 110.437H79.5084C79.5084 110.437 79.5084 110.437 79.5084 110.524L80.472 112.012L81.4356 110.524C81.4356 110.524 81.4356 110.524 81.4356 110.437C81.4356 110.349 81.4356 110.437 81.5232 110.437H81.6108C81.6984 110.437 81.6984 110.437 81.786 110.437C81.8736 110.437 81.9612 110.437 81.9612 110.437C82.0488 110.437 82.0488 110.437 82.0488 110.437C82.0488 110.437 82.0488 110.437 82.0488 110.524C82.0488 110.524 82.0488 110.612 81.9612 110.612L80.7348 112.537L82.1364 114.549ZM87.48 112.537C87.48 112.887 87.48 113.149 87.3048 113.412C87.2172 113.674 87.1296 113.937 86.9544 114.112C86.7792 114.287 86.604 114.462 86.3412 114.549C86.0784 114.637 85.8156 114.724 85.4652 114.724C85.1148 114.724 84.852 114.637 84.5892 114.549C84.3264 114.462 84.1512 114.287 83.976 114.112C83.8008 113.937 83.7132 113.674 83.6256 113.412C83.538 113.149 83.538 112.799 83.538 112.449C83.538 112.099 83.538 111.837 83.6256 111.574C83.7132 111.312 83.8008 111.049 83.976 110.874C84.1512 110.699 84.3264 110.524 84.5892 110.437C84.852 110.349 85.1148 110.262 85.4652 110.262C85.8156 110.262 86.0784 110.349 86.3412 110.437C86.604 110.524 86.7792 110.699 86.9544 110.874C87.1296 111.049 87.2172 111.312 87.3048 111.574C87.3924 111.924 87.48 112.274 87.48 112.537ZM86.6916 112.624C86.6916 112.362 86.6916 112.187 86.604 112.012C86.604 111.837 86.5164 111.662 86.4288 111.487C86.3412 111.312 86.166 111.224 86.0784 111.137C85.9032 111.049 85.728 111.049 85.4652 111.049C85.2024 111.049 85.0272 111.049 84.9396 111.137C84.7644 111.224 84.6768 111.312 84.5892 111.487C84.5016 111.662 84.414 111.837 84.3264 112.012C84.2388 112.187 84.2388 112.449 84.2388 112.624C84.2388 112.887 84.2388 113.062 84.3264 113.237C84.3264 113.412 84.414 113.587 84.5016 113.762C84.5892 113.937 84.7644 114.024 84.852 114.112C85.0272 114.199 85.2024 114.199 85.4652 114.199C85.6404 114.199 85.9032 114.199 85.9908 114.112C86.166 114.024 86.2536 113.937 86.3412 113.762C86.4288 113.587 86.5164 113.412 86.604 113.237C86.604 113.062 86.6916 112.887 86.6916 112.624ZM89.0568 116.124C89.0568 116.124 89.0568 116.212 89.0568 116.124C89.0568 116.212 88.9692 116.212 89.0568 116.124C88.9692 116.212 88.9692 116.212 88.8816 116.212C88.8816 116.212 88.794 116.212 88.7064 116.212C88.6188 116.212 88.6188 116.212 88.5312 116.212H88.4436H88.356C88.356 116.212 88.356 116.212 88.356 116.124V114.287C88.356 114.199 88.356 114.199 88.356 114.112C88.356 114.112 88.4436 114.112 88.5312 114.112H88.794C88.8816 113.937 88.9692 113.849 89.1444 113.674C89.232 113.499 89.3196 113.324 89.4072 112.974C89.4948 112.712 89.5824 112.362 89.67 112.012C89.7576 111.662 89.8452 111.224 89.8452 110.699V110.612V110.524C89.8452 110.524 89.8452 110.524 89.9328 110.437H90.0204H92.298C92.3856 110.437 92.3856 110.437 92.4732 110.524C92.4732 110.524 92.5608 110.612 92.5608 110.699V114.112H93.0864C93.174 114.112 93.174 114.112 93.2616 114.112C93.2616 114.112 93.2616 114.199 93.2616 114.287V116.124C93.2616 116.124 93.2616 116.124 93.2616 116.212C93.2616 116.212 93.2616 116.212 93.174 116.212H93.0864C93.0864 116.212 92.9988 116.212 92.9112 116.212C92.8236 116.212 92.8236 116.212 92.736 116.212H92.6484C92.6484 116.212 92.6484 116.212 92.5608 116.212C92.5608 116.212 92.5608 116.212 92.5608 116.124V114.724H88.8816V116.124H89.0568ZM91.86 111.049H90.546C90.4584 111.574 90.4584 111.924 90.3708 112.274C90.2832 112.624 90.1956 112.887 90.1956 113.149C90.108 113.412 90.0204 113.587 89.9328 113.674C89.8452 113.849 89.7576 113.937 89.67 114.024H91.86V111.049ZM98.43 114.637C98.43 114.724 98.43 114.724 98.43 114.637C98.43 114.724 98.3424 114.724 98.3424 114.724H98.2548C98.1672 114.724 98.1672 114.724 98.0796 114.724C97.992 114.724 97.9044 114.724 97.9044 114.724C97.8168 114.724 97.8168 114.724 97.8168 114.724H97.7292C97.7292 114.724 97.7292 114.724 97.7292 114.637V112.887H95.6268V114.637V114.724C95.6268 114.724 95.6268 114.724 95.5392 114.724H95.4516C95.364 114.724 95.364 114.724 95.2764 114.724C95.1888 114.724 95.1888 114.724 95.1012 114.724C95.0136 114.724 95.0136 114.724 95.0136 114.724H94.926C94.926 114.724 94.926 114.724 94.926 114.637V110.612V110.524C94.926 110.524 94.926 110.524 95.0136 110.437H95.1012C95.1888 110.437 95.1888 110.437 95.2764 110.437C95.364 110.437 95.4516 110.437 95.4516 110.437C95.5392 110.437 95.5392 110.437 95.5392 110.437C95.5392 110.437 95.6268 110.437 95.6268 110.524C95.6268 110.524 95.6268 110.524 95.6268 110.612V112.274H97.7292V110.612V110.524C97.7292 110.524 97.7292 110.524 97.8168 110.437H97.9044C97.992 110.437 97.992 110.437 98.0796 110.437C98.1672 110.437 98.1672 110.437 98.2548 110.437C98.3424 110.437 98.3424 110.437 98.3424 110.437C98.3424 110.437 98.43 110.437 98.43 110.524C98.43 110.524 98.43 110.524 98.43 110.612V114.637ZM103.598 114.637C103.598 114.724 103.598 114.724 103.598 114.637C103.511 114.724 103.511 114.724 103.423 114.724C103.423 114.724 103.336 114.724 103.248 114.724C103.16 114.724 103.073 114.724 103.073 114.724C102.985 114.724 102.985 114.724 102.985 114.724V114.637V114.199C102.81 114.374 102.635 114.549 102.372 114.637C102.197 114.724 101.934 114.812 101.671 114.812C101.496 114.812 101.233 114.812 101.058 114.724C100.883 114.637 100.708 114.549 100.62 114.462C100.532 114.374 100.445 114.199 100.357 114.112C100.27 113.937 100.27 113.762 100.27 113.587C100.27 113.324 100.357 113.149 100.445 112.974C100.532 112.799 100.708 112.624 100.883 112.537C101.058 112.449 101.233 112.362 101.496 112.274C101.759 112.187 102.022 112.187 102.372 112.187H102.898V111.837C102.898 111.662 102.898 111.574 102.81 111.399C102.81 111.312 102.722 111.137 102.635 111.137C102.547 111.049 102.46 110.962 102.372 110.962C102.284 110.962 102.109 110.874 101.934 110.874C101.759 110.874 101.584 110.874 101.408 110.962C101.233 111.049 101.146 111.049 101.058 111.137C100.97 111.224 100.883 111.224 100.795 111.312C100.708 111.312 100.708 111.399 100.62 111.399H100.532C100.532 111.399 100.532 111.399 100.445 111.312V111.224V111.137C100.445 111.049 100.445 110.962 100.445 110.962C100.445 110.962 100.445 110.874 100.532 110.874C100.532 110.874 100.62 110.787 100.708 110.699C100.795 110.612 100.883 110.612 101.058 110.524C101.146 110.437 101.321 110.437 101.496 110.437C101.671 110.437 101.846 110.437 101.934 110.437C102.197 110.437 102.46 110.437 102.635 110.524C102.81 110.612 102.985 110.699 103.16 110.787C103.248 110.874 103.423 111.049 103.423 111.224C103.511 111.399 103.511 111.662 103.511 111.924V114.637H103.598ZM102.81 112.799H102.197C102.022 112.799 101.846 112.799 101.671 112.887C101.496 112.887 101.408 112.974 101.321 113.062C101.233 113.149 101.146 113.237 101.058 113.324C100.97 113.412 100.97 113.499 100.97 113.674C100.97 113.849 101.058 114.024 101.146 114.199C101.321 114.287 101.496 114.374 101.671 114.374C101.846 114.374 102.022 114.287 102.197 114.199C102.372 114.112 102.547 113.937 102.722 113.762V112.799H102.81ZM108.679 114.637C108.679 114.724 108.679 114.724 108.679 114.637C108.679 114.724 108.592 114.724 108.592 114.724H108.504C108.416 114.724 108.416 114.724 108.329 114.724C108.241 114.724 108.154 114.724 108.154 114.724C108.066 114.724 108.066 114.724 108.066 114.724H107.978C107.978 114.724 107.978 114.724 107.978 114.637V112.887H107.54C107.365 112.887 107.19 112.887 107.102 112.974C107.015 112.974 106.927 113.062 106.84 113.149C106.752 113.237 106.664 113.324 106.577 113.412C106.489 113.499 106.489 113.674 106.402 113.849L106.051 114.637C106.051 114.637 106.051 114.724 105.964 114.724C105.964 114.724 105.876 114.724 105.876 114.812H105.788C105.701 114.812 105.701 114.812 105.613 114.812C105.526 114.812 105.526 114.812 105.438 114.812H105.35H105.263C105.263 114.812 105.263 114.812 105.263 114.724V114.637C105.263 114.549 105.35 114.549 105.35 114.374L105.701 113.587C105.788 113.412 105.876 113.237 106.051 113.062C106.139 112.887 106.314 112.799 106.489 112.712C106.226 112.624 105.964 112.537 105.788 112.362C105.613 112.187 105.526 111.924 105.526 111.662C105.526 111.487 105.526 111.312 105.613 111.137C105.701 110.962 105.788 110.874 105.964 110.699C106.139 110.612 106.314 110.524 106.577 110.437C106.84 110.349 107.102 110.349 107.365 110.349C107.453 110.349 107.54 110.349 107.628 110.349C107.716 110.349 107.803 110.349 107.891 110.349C107.978 110.349 108.066 110.349 108.154 110.349C108.241 110.349 108.329 110.349 108.416 110.349C108.504 110.349 108.592 110.349 108.592 110.437C108.592 110.524 108.679 110.524 108.679 110.612V114.637ZM107.891 111.049C107.803 111.049 107.628 111.049 107.54 111.049C107.453 111.049 107.278 111.049 107.19 111.049C107.015 111.049 106.84 111.049 106.664 111.137C106.489 111.137 106.402 111.224 106.314 111.312C106.226 111.399 106.139 111.487 106.139 111.574C106.139 111.662 106.051 111.749 106.051 111.837C106.051 111.924 106.051 112.012 106.139 112.099C106.139 112.187 106.226 112.274 106.314 112.274C106.402 112.362 106.489 112.362 106.664 112.449C106.752 112.449 107.015 112.537 107.19 112.537H107.803V111.049H107.891ZM116.213 114.724C116.125 114.724 116.125 114.724 116.213 114.724C116.125 114.812 116.038 114.812 116.038 114.812C115.95 114.812 115.95 114.812 115.862 114.812C115.775 114.812 115.687 114.812 115.687 114.812C115.6 114.812 115.6 114.812 115.6 114.812H115.512C115.512 114.812 115.512 114.812 115.512 114.724L115.074 113.674C114.986 113.499 114.986 113.412 114.899 113.324C114.811 113.237 114.724 113.149 114.724 113.062C114.636 112.974 114.548 112.974 114.461 112.974C114.373 112.974 114.198 112.974 114.11 112.974H113.76V114.812C113.76 114.812 113.76 114.812 113.76 114.899C113.76 114.899 113.76 114.899 113.672 114.899H113.585C113.497 114.899 113.497 114.899 113.41 114.899C113.322 114.899 113.322 114.899 113.234 114.899C113.147 114.899 113.147 114.899 113.147 114.899H113.059C113.059 114.899 113.059 114.899 113.059 114.812V110.699C113.059 110.699 113.059 110.699 113.147 110.699H113.234C113.322 110.699 113.322 110.699 113.41 110.699C113.497 110.699 113.497 110.699 113.585 110.699C113.672 110.699 113.672 110.699 113.672 110.699H113.76V112.362H114.11C114.198 112.362 114.373 112.362 114.461 112.362C114.548 112.362 114.636 112.274 114.724 112.274C114.811 112.187 114.899 112.099 114.899 112.012C114.986 111.924 114.986 111.837 115.074 111.662L115.424 110.699V110.612C115.424 110.612 115.424 110.612 115.512 110.524H115.6C115.687 110.524 115.687 110.524 115.775 110.524C115.862 110.524 115.862 110.524 115.95 110.524C116.038 110.524 116.038 110.524 116.038 110.524C116.038 110.524 116.038 110.524 116.125 110.524V110.612V110.699L115.775 111.574C115.687 111.749 115.687 111.837 115.6 111.924C115.512 112.012 115.424 112.099 115.424 112.187C115.337 112.274 115.249 112.274 115.162 112.362C115.074 112.362 114.986 112.449 114.986 112.449C115.074 112.449 115.162 112.537 115.249 112.624C115.337 112.712 115.424 112.712 115.512 112.799C115.6 112.887 115.687 112.974 115.687 113.062C115.775 113.149 115.775 113.324 115.862 113.412L116.3 114.462C116.3 114.462 116.3 114.462 116.3 114.549C116.125 114.549 116.213 114.637 116.213 114.724C116.213 114.637 116.213 114.637 116.213 114.724C116.213 114.637 116.213 114.637 116.213 114.724ZM121.556 112.537C121.556 112.887 121.556 113.149 121.469 113.412C121.381 113.674 121.294 113.937 121.118 114.112C120.943 114.287 120.768 114.462 120.505 114.549C120.242 114.637 119.98 114.724 119.629 114.724C119.279 114.724 119.016 114.637 118.753 114.549C118.49 114.462 118.315 114.287 118.14 114.112C117.965 113.937 117.877 113.674 117.79 113.412C117.702 113.149 117.702 112.799 117.702 112.449C117.702 112.099 117.702 111.837 117.79 111.574C117.877 111.312 117.965 111.049 118.14 110.874C118.315 110.699 118.49 110.524 118.753 110.437C119.016 110.349 119.279 110.262 119.629 110.262C119.98 110.262 120.242 110.349 120.505 110.437C120.768 110.524 120.943 110.699 121.118 110.874C121.294 111.049 121.381 111.312 121.469 111.574C121.469 111.924 121.556 112.274 121.556 112.537ZM120.768 112.624C120.768 112.362 120.768 112.187 120.68 112.012C120.68 111.837 120.593 111.662 120.505 111.487C120.418 111.312 120.242 111.224 120.155 111.137C119.98 111.049 119.804 111.049 119.542 111.049C119.279 111.049 119.104 111.049 119.016 111.137C118.841 111.224 118.753 111.312 118.666 111.487C118.578 111.662 118.49 111.837 118.403 112.012C118.315 112.187 118.315 112.449 118.315 112.624C118.315 112.887 118.315 113.062 118.403 113.237C118.403 113.412 118.49 113.587 118.578 113.762C118.666 113.937 118.841 114.024 118.928 114.112C119.104 114.199 119.279 114.199 119.542 114.199C119.717 114.199 119.98 114.199 120.067 114.112C120.242 114.024 120.33 113.937 120.418 113.762C120.505 113.587 120.593 113.412 120.68 113.237C120.68 113.062 120.768 112.887 120.768 112.624Z" fill="#728190"/>
<path fill-rule="evenodd" clip-rule="evenodd" d="M128.477 114.637C128.477 114.724 128.477 114.724 128.389 114.812C128.302 114.812 128.214 114.812 128.126 114.812C128.039 114.812 127.951 114.812 127.951 114.812C127.864 114.812 127.864 114.812 127.864 114.812H127.776C127.776 114.812 127.776 114.812 127.776 114.724L127.513 112.362C127.513 112.274 127.513 112.187 127.513 112.099C127.513 112.012 127.513 111.924 127.513 111.837C127.513 111.749 127.513 111.662 127.513 111.574C127.513 111.487 127.513 111.399 127.513 111.312V111.224C127.513 111.312 127.426 111.399 127.426 111.487C127.426 111.574 127.338 111.662 127.338 111.749C127.338 111.837 127.25 111.924 127.25 112.012C127.25 112.099 127.163 112.187 127.163 112.274L126.287 114.724V114.812C126.287 114.812 126.287 114.812 126.199 114.899H126.112C126.024 114.899 126.024 114.899 125.936 114.899C125.849 114.899 125.849 114.899 125.761 114.899H125.674C125.674 114.899 125.586 114.899 125.586 114.812C125.586 114.812 125.586 114.724 125.498 114.724L124.71 112.274C124.71 112.187 124.622 112.099 124.622 112.012C124.622 111.924 124.535 111.837 124.535 111.749C124.535 111.662 124.447 111.574 124.447 111.487C124.447 111.399 124.36 111.312 124.36 111.224V111.312C124.36 111.399 124.36 111.487 124.36 111.574C124.36 111.662 124.36 111.749 124.36 111.837C124.36 111.924 124.36 112.012 124.36 112.099C124.36 112.187 124.36 112.274 124.36 112.362L124.097 114.724V114.812C124.097 114.812 124.097 114.812 124.009 114.899H123.922C123.834 114.899 123.834 114.899 123.746 114.899C123.659 114.899 123.571 114.899 123.571 114.899H123.484C123.484 114.899 123.484 114.899 123.484 114.812V114.724L123.922 110.874C123.922 110.787 124.009 110.699 124.009 110.699C124.097 110.612 124.184 110.612 124.272 110.612H124.622C124.71 110.612 124.798 110.612 124.885 110.612C124.973 110.612 124.973 110.612 125.06 110.699C125.06 110.699 125.148 110.787 125.148 110.874C125.148 110.962 125.236 110.962 125.236 111.049L125.849 112.799C125.849 112.887 125.936 112.974 125.936 113.149C125.936 113.237 126.024 113.324 126.024 113.499C126.024 113.587 126.112 113.674 126.112 113.849C126.112 113.937 126.199 114.024 126.199 114.112C126.199 114.024 126.287 113.937 126.287 113.849C126.287 113.762 126.374 113.674 126.374 113.499C126.374 113.412 126.462 113.324 126.462 113.149C126.462 113.062 126.55 112.974 126.55 112.887L127.163 111.137C127.163 111.049 127.25 110.962 127.25 110.962C127.25 110.874 127.338 110.874 127.338 110.787C127.338 110.787 127.426 110.699 127.513 110.699C127.601 110.699 127.601 110.699 127.688 110.699H128.039C128.126 110.699 128.214 110.699 128.302 110.787C128.389 110.787 128.389 110.874 128.389 110.962L128.477 114.637ZM133.733 114.637C133.733 114.724 133.733 114.724 133.733 114.637C133.733 114.724 133.645 114.724 133.645 114.724H133.558C133.47 114.724 133.47 114.724 133.382 114.724C133.295 114.724 133.207 114.724 133.207 114.724C133.12 114.724 133.12 114.724 133.12 114.724H133.032C133.032 114.724 133.032 114.724 133.032 114.637V111.049H131.105V114.637V114.724C131.105 114.724 131.105 114.724 131.017 114.724H130.93C130.842 114.724 130.842 114.724 130.754 114.724C130.667 114.724 130.667 114.724 130.579 114.724C130.492 114.724 130.492 114.724 130.492 114.724H130.404C130.404 114.724 130.404 114.724 130.404 114.637V110.699C130.404 110.612 130.404 110.524 130.492 110.524C130.492 110.437 130.579 110.437 130.667 110.437H133.645C133.733 110.437 133.733 110.437 133.82 110.524C133.82 110.524 133.908 110.612 133.908 110.699V114.637H133.733ZM138.901 114.637C138.901 114.724 138.901 114.724 138.901 114.637C138.814 114.724 138.814 114.724 138.726 114.724C138.726 114.724 138.638 114.724 138.551 114.724C138.463 114.724 138.376 114.724 138.376 114.724C138.288 114.724 138.288 114.724 138.288 114.724V114.637V114.199C138.113 114.374 137.938 114.549 137.675 114.637C137.5 114.724 137.237 114.812 136.974 114.812C136.799 114.812 136.536 114.812 136.361 114.724C136.186 114.637 136.01 114.549 135.923 114.462C135.835 114.374 135.748 114.199 135.66 114.112C135.572 113.937 135.572 113.762 135.572 113.587C135.572 113.324 135.66 113.149 135.748 112.974C135.835 112.799 136.01 112.624 136.186 112.537C136.361 112.449 136.536 112.362 136.799 112.274C137.062 112.187 137.324 112.187 137.675 112.187H138.2V111.837C138.2 111.662 138.2 111.574 138.113 111.399C138.113 111.312 138.025 111.137 137.938 111.137C137.85 111.049 137.762 110.962 137.675 110.962C137.587 110.962 137.412 110.874 137.237 110.874C137.062 110.874 136.886 110.874 136.711 110.962C136.536 111.049 136.448 111.049 136.361 111.137C136.273 111.224 136.186 111.224 136.098 111.312C136.01 111.312 136.01 111.399 135.923 111.399H135.835C135.835 111.399 135.835 111.399 135.748 111.312V111.224V111.137C135.748 111.049 135.748 110.962 135.748 110.962C135.748 110.962 135.748 110.874 135.835 110.874C135.835 110.874 135.923 110.787 136.01 110.699C136.098 110.612 136.186 110.612 136.361 110.524C136.448 110.437 136.624 110.437 136.799 110.437C136.974 110.437 137.149 110.437 137.237 110.437C137.5 110.437 137.762 110.437 138.025 110.524C138.2 110.612 138.376 110.699 138.551 110.787C138.638 110.874 138.814 111.049 138.814 111.224C138.901 111.399 138.901 111.662 138.901 111.924V114.637ZM138.113 112.799H137.5C137.324 112.799 137.149 112.799 136.974 112.887C136.799 112.887 136.711 112.974 136.624 113.062C136.536 113.149 136.448 113.237 136.361 113.324C136.273 113.412 136.273 113.499 136.273 113.674C136.273 113.849 136.361 114.024 136.448 114.199C136.624 114.287 136.799 114.374 136.974 114.374C137.149 114.374 137.324 114.287 137.5 114.199C137.675 114.112 137.85 113.937 138.025 113.762V112.799H138.113ZM144.508 114.637C144.508 114.724 144.508 114.724 144.508 114.637C144.508 114.724 144.42 114.724 144.42 114.724H144.332C144.245 114.724 144.245 114.724 144.157 114.724C144.07 114.724 143.982 114.724 143.982 114.724C143.894 114.724 143.894 114.724 143.894 114.724H143.807C143.807 114.724 143.807 114.724 143.807 114.637V112.887H141.704V114.637V114.724C141.704 114.724 141.704 114.724 141.617 114.724H141.529C141.442 114.724 141.442 114.724 141.354 114.724C141.266 114.724 141.266 114.724 141.179 114.724C141.091 114.724 141.091 114.724 141.091 114.724H141.004C141.004 114.724 141.004 114.724 141.004 114.637V110.612V110.524C141.004 110.524 141.004 110.524 141.091 110.437H141.179C141.266 110.437 141.266 110.437 141.354 110.437C141.442 110.437 141.529 110.437 141.529 110.437C141.617 110.437 141.617 110.437 141.617 110.437C141.617 110.437 141.704 110.437 141.704 110.524C141.704 110.524 141.704 110.524 141.704 110.612V112.274H143.807V110.612V110.524C143.807 110.524 143.807 110.524 143.894 110.437H143.982C144.07 110.437 144.07 110.437 144.157 110.437C144.245 110.437 144.332 110.437 144.332 110.437C144.42 110.437 144.42 110.437 144.42 110.437C144.42 110.437 144.508 110.437 144.508 110.524C144.508 110.524 144.508 110.524 144.508 110.612V114.637ZM150.202 114.637C150.202 114.724 150.202 114.724 150.202 114.637C150.202 114.724 150.114 114.724 150.114 114.724H150.026C149.939 114.724 149.939 114.724 149.851 114.724C149.764 114.724 149.676 114.724 149.676 114.724C149.588 114.724 149.588 114.724 149.588 114.724H149.501C149.501 114.724 149.501 114.724 149.501 114.637V112.274C149.501 112.187 149.501 112.012 149.501 111.924C149.501 111.837 149.501 111.662 149.501 111.574C149.413 111.662 149.326 111.837 149.238 111.924C149.15 112.012 149.063 112.187 148.975 112.274L147.223 114.637C147.223 114.637 147.223 114.724 147.136 114.724C147.136 114.724 147.136 114.724 147.048 114.724H146.96C146.96 114.724 146.873 114.724 146.785 114.724C146.698 114.724 146.698 114.724 146.61 114.724H146.522H146.435C146.435 114.724 146.435 114.724 146.435 114.637V110.524C146.435 110.524 146.435 110.524 146.435 110.437C146.435 110.437 146.435 110.437 146.522 110.349H146.61C146.698 110.349 146.698 110.349 146.785 110.349C146.96 110.349 147.048 110.349 147.048 110.349C147.136 110.349 147.136 110.437 147.136 110.437V112.799C147.136 112.887 147.136 113.062 147.136 113.149C147.136 113.237 147.136 113.412 147.136 113.499C147.223 113.412 147.311 113.237 147.311 113.149C147.398 113.062 147.486 112.974 147.574 112.799L149.326 110.437C149.326 110.437 149.326 110.437 149.413 110.349C149.413 110.349 149.501 110.349 149.501 110.262H149.588C149.588 110.262 149.676 110.262 149.764 110.262C149.851 110.262 149.851 110.262 149.939 110.262H150.026C150.026 110.262 150.026 110.262 150.114 110.349C150.114 110.349 150.114 110.349 150.114 110.437V114.637H150.202ZM155.37 114.637C155.37 114.724 155.37 114.724 155.37 114.637C155.37 114.724 155.37 114.724 155.282 114.724H155.195C155.107 114.724 155.107 114.724 155.02 114.724C154.932 114.724 154.844 114.724 154.844 114.724C154.757 114.724 154.757 114.724 154.757 114.724H154.669C154.669 114.724 154.669 114.724 154.669 114.637V112.887H154.231C154.056 112.887 153.881 112.887 153.793 112.974C153.706 112.974 153.618 113.062 153.53 113.149C153.443 113.237 153.355 113.324 153.268 113.412C153.18 113.499 153.18 113.674 153.092 113.849L152.742 114.637C152.742 114.637 152.742 114.724 152.654 114.724C152.654 114.724 152.567 114.724 152.567 114.812C152.567 114.812 152.479 114.812 152.392 114.812C152.304 114.812 152.304 114.812 152.216 114.812C152.129 114.812 152.129 114.812 152.041 114.812C151.954 114.812 151.954 114.812 151.954 114.812H151.866C151.866 114.812 151.866 114.812 151.866 114.724V114.637C151.866 114.549 151.954 114.549 151.954 114.374L152.304 113.587C152.392 113.412 152.479 113.237 152.654 113.062C152.742 112.887 152.917 112.799 153.092 112.712C152.83 112.624 152.567 112.537 152.392 112.362C152.216 112.187 152.129 111.924 152.129 111.662C152.129 111.487 152.129 111.312 152.216 111.137C152.304 110.962 152.392 110.874 152.567 110.699C152.742 110.612 152.917 110.524 153.18 110.437C153.443 110.349 153.706 110.349 153.968 110.349C154.056 110.349 154.144 110.349 154.231 110.349C154.319 110.349 154.406 110.349 154.494 110.349C154.582 110.349 154.669 110.349 154.757 110.349C154.844 110.349 154.932 110.349 155.02 110.349C155.107 110.349 155.195 110.349 155.195 110.437C155.282 110.524 155.282 110.524 155.282 110.612V114.637H155.37ZM154.582 111.049C154.494 111.049 154.319 111.049 154.231 111.049C154.144 111.049 153.968 111.049 153.881 111.049C153.706 111.049 153.53 111.049 153.355 111.137C153.18 111.137 153.092 111.224 153.005 111.312C152.917 111.399 152.83 111.487 152.83 111.574C152.83 111.662 152.742 111.749 152.742 111.837C152.742 111.924 152.742 112.012 152.83 112.099C152.83 112.187 152.917 112.274 153.005 112.274C153.092 112.362 153.18 112.362 153.355 112.449C153.443 112.449 153.706 112.537 153.881 112.537H154.494V111.049H154.582Z" fill="#728190"/>
</g>
<defs>
<clipPath id="clip0_377_4680">
<rect width="210" height="130" fill="white"/>
</clipPath>
</defs>
</svg>
