<svg width="18" height="18" viewBox="0 0 18 18" fill="none" xmlns="http://www.w3.org/2000/svg">
<path d="M16.2001 9.0001L9.29126 15.9089C8.33649 16.8637 7.04153 17.4001 5.69127 17.4001C2.87949 17.4001 0.600098 15.1207 0.600098 12.3089C0.600098 10.9587 1.13649 9.66371 2.09127 8.70893L9.20599 1.59421C9.84251 0.957689 10.7058 0.600098 11.606 0.600098C13.4805 0.600098 15.0001 2.11969 15.0001 3.99421C15.0001 4.89438 14.6425 5.75769 14.006 6.39421L7.09715 13.303C6.77889 13.6213 6.34724 13.8001 5.89715 13.8001C4.9599 13.8001 4.2001 13.0403 4.2001 12.103C4.2001 11.653 4.37889 11.2213 4.69715 10.903L11.4001 4.2001" stroke="#E74C3C"/>
</svg>
