<svg width="32" height="32" viewBox="0 0 32 32" fill="none" xmlns="http://www.w3.org/2000/svg">
<circle cx="16" cy="16" r="16" fill="white"/>
<path fill-rule="evenodd" clip-rule="evenodd" d="M5.31104 17.9627C10.705 15.0127 19.6082 12.1377 25.7958 11.0127V9.3877C20.4266 10.1127 7.58023 15.8377 5.31104 17.9627Z" fill="#2A528A"/>
<path fill-rule="evenodd" clip-rule="evenodd" d="M23.1795 9.45V8.25C18.9883 8.825 7.53072 15.5 5.74512 17.15C8.60952 15.175 12.4659 13.3875 15.6775 12.0625C17.4879 11.325 19.3231 10.625 21.1831 10.025C21.8527 9.825 22.5099 9.625 23.1795 9.45Z" fill="#7493CB"/>
<path fill-rule="evenodd" clip-rule="evenodd" d="M2.75684 19.6132C7.46884 18.5007 15.814 18.5007 24.0724 18.5632C25.2504 15.4882 27.284 12.7632 29.2308 11.2507C23.5268 11.1757 7.44404 16.9632 2.75684 19.6132Z" fill="#0A2A5F"/>
<path fill-rule="evenodd" clip-rule="evenodd" d="M2.75703 22.4877H2.88103C2.96783 22.2877 3.05463 22.0877 3.12903 21.8877C3.22823 21.6502 3.30263 21.4502 3.37703 21.2877C3.45143 21.1002 3.52583 20.9002 3.61263 20.6752C3.62503 20.6752 3.64983 20.6752 3.67463 20.6877C3.69943 20.6877 3.72423 20.7002 3.73663 20.7002C3.74903 20.7002 3.77383 20.7002 3.79863 20.6877C3.82343 20.6877 3.84823 20.6752 3.86063 20.6752C3.95983 20.9502 4.07143 21.2627 4.20783 21.5877C4.31943 21.8752 4.44343 22.1752 4.56743 22.4877H4.70383C4.70383 22.5127 4.69143 22.5502 4.69143 22.5752C4.69143 22.6002 4.69143 22.6252 4.67903 22.6502C4.67903 22.6752 4.67903 22.7002 4.67903 22.7377C4.67903 22.7752 4.69143 22.8002 4.69143 22.8127H4.64183C4.60463 22.7752 4.54263 22.7377 4.45583 22.7252C4.36903 22.7127 4.26983 22.7002 4.15823 22.7002H3.29023C3.15383 22.7002 3.04223 22.7002 2.96783 22.7127C2.88103 22.7252 2.83143 22.7502 2.79423 22.8002H2.74463C2.74463 22.7752 2.75703 22.7502 2.75703 22.7252C2.75703 22.7002 2.75703 22.6752 2.75703 22.6377C2.75703 22.6002 2.75703 22.5752 2.75703 22.5502C2.76943 22.5252 2.75703 22.5002 2.75703 22.4877ZM3.57543 22.5002C3.64983 22.5002 3.73663 22.5002 3.82343 22.5002C3.91023 22.5002 3.98463 22.5002 4.05903 22.4877C3.99703 22.2877 3.92263 22.0877 3.84823 21.8752C3.77383 21.6627 3.68703 21.4502 3.61263 21.2377C3.52583 21.4627 3.43903 21.6627 3.36463 21.8627C3.27783 22.0877 3.20343 22.3002 3.12903 22.4877C3.16623 22.4877 3.24063 22.4877 3.33983 22.5002C3.45143 22.5002 3.52583 22.5002 3.57543 22.5002ZM7.05983 21.6877C7.05983 21.9877 6.96063 22.2377 6.74983 22.4377C6.53903 22.6502 6.25383 22.7502 5.89423 22.7502C5.55943 22.7502 5.29903 22.6627 5.10063 22.4752C4.90223 22.2877 4.80303 22.0252 4.80303 21.7002C4.80303 21.4002 4.90223 21.1377 5.10063 20.9502C5.31143 20.7377 5.59663 20.6377 5.95623 20.6377C6.34063 20.6377 6.62583 20.7502 6.81183 20.9877C6.98543 21.1752 7.05983 21.4127 7.05983 21.6877ZM5.94383 20.8002C5.73303 20.8002 5.57183 20.8752 5.47263 21.0377C5.36103 21.2002 5.29903 21.4502 5.29903 21.7752C5.29903 21.9877 5.34863 22.1752 5.43543 22.3127C5.54703 22.4752 5.70823 22.5627 5.90663 22.5627C6.11743 22.5627 6.29103 22.4627 6.40263 22.2752C6.51423 22.1002 6.56383 21.8752 6.56383 21.6127C6.56383 21.4002 6.51423 21.2127 6.42743 21.0627C6.31583 20.9002 6.15463 20.8002 5.94383 20.8002ZM7.40703 22.7127V20.6752C7.43183 20.6752 7.46903 20.6752 7.51863 20.6877C7.56823 20.6877 7.60543 20.7002 7.63023 20.7002C7.65503 20.7002 7.69223 20.7002 7.74183 20.6877C7.79143 20.6877 7.82863 20.6752 7.85343 20.6752V21.4752C7.91543 21.4752 8.00223 21.4752 8.11383 21.4877C8.22543 21.4877 8.28743 21.5002 8.31223 21.5002C8.38663 21.5002 8.43623 21.5002 8.48583 21.5002C8.65943 21.4877 8.74623 21.4877 8.77103 21.4877V20.6877C8.79583 20.6877 8.83303 20.6877 8.88263 20.7002C8.93223 20.7002 8.96943 20.7127 8.99423 20.7127C9.01903 20.7127 9.05623 20.7127 9.10583 20.7002C9.15543 20.7002 9.19263 20.6877 9.21743 20.6877V22.7252C9.19263 22.7252 9.15543 22.7252 9.10583 22.7127C9.05623 22.7127 9.01903 22.7002 8.99423 22.7002C8.96943 22.7002 8.93223 22.7002 8.88263 22.7127C8.83303 22.7127 8.79583 22.7252 8.77103 22.7252V21.7377C8.72143 21.7377 8.63463 21.7377 8.51063 21.7377C8.38663 21.7377 8.32463 21.7377 8.32463 21.7377C8.25023 21.7377 8.17583 21.7377 8.08903 21.7377C8.00223 21.7377 7.92783 21.7377 7.87823 21.7502V22.7377C7.85343 22.7377 7.81623 22.7377 7.76663 22.7252C7.71703 22.7252 7.67983 22.7127 7.65503 22.7127C7.63023 22.7127 7.59303 22.7127 7.54343 22.7252C7.46903 22.7127 7.43183 22.7127 7.40703 22.7127ZM9.70103 22.7127V20.6752C9.72583 20.6752 9.76303 20.6752 9.81263 20.6877C9.86223 20.7002 9.89943 20.7002 9.92423 20.7002C9.94903 20.7002 9.98623 20.7002 10.0358 20.6877C10.0854 20.6752 10.1226 20.6752 10.1474 20.6752V22.0627C10.3086 21.8877 10.507 21.6627 10.7302 21.3752C10.941 21.1002 11.127 20.8752 11.2634 20.6752C11.3006 20.6752 11.3254 20.6752 11.3378 20.6752C11.3502 20.6752 11.375 20.6752 11.4122 20.6752C11.4494 20.6752 11.4742 20.6752 11.4866 20.6752V22.7127C11.4618 22.7127 11.4246 22.7127 11.375 22.7002C11.3254 22.7002 11.2882 22.6877 11.2634 22.6877C11.2386 22.6877 11.2014 22.6877 11.1518 22.7002C11.1022 22.7002 11.065 22.7127 11.0402 22.7127V21.3127C10.8666 21.5127 10.6806 21.7377 10.4574 22.0127C10.2466 22.2877 10.0606 22.5127 9.91183 22.7252C9.89943 22.7252 9.88703 22.7252 9.86223 22.7252C9.83743 22.7252 9.83743 22.7252 9.82503 22.7252C9.80023 22.7252 9.77543 22.7252 9.75063 22.7252C9.73823 22.7127 9.72583 22.7127 9.70103 22.7127ZM11.995 22.7127V20.6752C12.0198 20.6752 12.057 20.6752 12.1066 20.6877C12.1562 20.6877 12.1934 20.7002 12.2182 20.7002C12.243 20.7002 12.2802 20.7002 12.3298 20.6877C12.3794 20.6877 12.4166 20.6752 12.4414 20.6752V21.4752C12.5034 21.4752 12.5902 21.4752 12.7018 21.4877C12.8134 21.4877 12.8754 21.5002 12.9002 21.5002C12.9746 21.5002 13.0242 21.5002 13.0738 21.5002C13.2474 21.4877 13.3342 21.4877 13.359 21.4877V20.6877C13.3838 20.6877 13.421 20.6877 13.4706 20.7002C13.5202 20.7002 13.5574 20.7127 13.5822 20.7127C13.607 20.7127 13.6442 20.7127 13.6938 20.7002C13.7434 20.7002 13.7806 20.6877 13.8054 20.6877V22.7252C13.7806 22.7252 13.7434 22.7252 13.6938 22.7127C13.6442 22.7127 13.607 22.7002 13.5822 22.7002C13.5574 22.7002 13.5202 22.7002 13.4706 22.7127C13.421 22.7127 13.3838 22.7252 13.359 22.7252V21.7377C13.3094 21.7377 13.2226 21.7377 13.0986 21.7377C12.9746 21.7377 12.9126 21.7377 12.9126 21.7377C12.8382 21.7377 12.7638 21.7377 12.677 21.7377C12.5902 21.7377 12.5158 21.7377 12.4662 21.7502V22.7377C12.4414 22.7377 12.4042 22.7377 12.3546 22.7252C12.305 22.7252 12.2678 22.7127 12.243 22.7127C12.2182 22.7127 12.181 22.7127 12.1314 22.7252C12.057 22.7127 12.0198 22.7127 11.995 22.7127ZM15.0702 20.8877V22.7127C15.0454 22.7127 15.0082 22.7127 14.9462 22.7002C14.8842 22.7002 14.8594 22.6877 14.8594 22.6877C14.8346 22.6877 14.7974 22.6877 14.7478 22.7002C14.6982 22.7002 14.661 22.7127 14.6362 22.7127V20.8877C14.537 20.8877 14.4378 20.8877 14.3634 20.9002C14.289 20.9127 14.1898 20.9127 14.0906 20.9252C14.0906 20.9002 14.103 20.8752 14.103 20.8502C14.103 20.8252 14.103 20.8127 14.103 20.8002C14.103 20.7752 14.103 20.7502 14.103 20.7252C14.103 20.7002 14.0906 20.6877 14.0906 20.6752H15.6034C15.6034 20.7127 15.591 20.7627 15.591 20.8002C15.591 20.8252 15.591 20.8377 15.591 20.8627C15.591 20.8877 15.6034 20.9127 15.6034 20.9252C15.4546 20.9127 15.3678 20.9002 15.343 20.9002C15.2562 20.9002 15.157 20.8877 15.0702 20.8877ZM16.3226 22.7127C16.3598 22.6502 16.4094 22.5502 16.4838 22.3877C16.5086 22.3377 16.5458 22.2627 16.583 22.1752C16.521 22.0502 16.4342 21.8877 16.3226 21.7002C16.2978 21.6627 16.1862 21.4877 15.9878 21.1627C15.8514 20.9502 15.7646 20.7877 15.7026 20.6877C15.7274 20.6877 15.777 20.6877 15.839 20.7002C15.901 20.7127 15.9382 20.7127 15.9754 20.7127C16.0002 20.7127 16.0498 20.7127 16.1118 20.7002C16.1738 20.7002 16.211 20.6877 16.2482 20.6877C16.273 20.7377 16.3226 20.8377 16.4094 20.9752C16.4218 21.0002 16.5086 21.1377 16.645 21.3752C16.7442 21.5377 16.7938 21.6377 16.8186 21.6877C16.8682 21.6127 16.9426 21.4627 17.0542 21.2127C17.1162 21.0877 17.1906 20.9127 17.2898 20.6752L17.4386 20.6877L17.575 20.6752C17.513 20.7752 17.4138 20.9752 17.265 21.2752C17.1286 21.5502 16.9922 21.8252 16.8682 22.0752C16.7194 22.3877 16.6202 22.5877 16.583 22.7002C16.5706 22.7002 16.5458 22.7002 16.521 22.6877C16.4962 22.6877 16.4714 22.6752 16.459 22.6752L16.3226 22.7127ZM18.319 21.8252V22.7127C18.2942 22.7127 18.257 22.7127 18.2074 22.7002C18.1578 22.7002 18.1206 22.6877 18.0958 22.6877C18.071 22.6877 18.0338 22.6877 17.9842 22.7002C17.9346 22.7002 17.8974 22.7127 17.8726 22.7127V20.6752H18.5918C19.0134 20.6752 19.2242 20.8377 19.2242 21.1752C19.2242 21.4252 19.1374 21.5877 18.9638 21.7002C18.8274 21.7877 18.6166 21.8252 18.319 21.8252ZM18.319 20.8502V21.6627C18.3934 21.6627 18.4554 21.6502 18.5174 21.6377C18.6042 21.6127 18.6786 21.5627 18.7158 21.4877C18.753 21.4252 18.7778 21.3377 18.7778 21.2377C18.7778 21.1252 18.753 21.0252 18.7034 20.9502C18.6538 20.8752 18.5918 20.8377 18.505 20.8377H18.319V20.8502ZM20.3526 22.7127V22.5002C20.0426 22.5002 19.807 22.4377 19.6334 22.3002C19.4598 22.1627 19.3606 21.9627 19.3606 21.6877C19.3606 21.4502 19.4474 21.2502 19.6086 21.1002C19.7822 20.9502 20.0302 20.8752 20.3402 20.8752V20.6627C20.365 20.6627 20.4022 20.6627 20.4518 20.6752C20.5014 20.6752 20.5386 20.6877 20.5634 20.6877C20.5882 20.6877 20.6254 20.6877 20.675 20.6752C20.7246 20.6752 20.7618 20.6627 20.7866 20.6627V20.8627C21.1338 20.8627 21.3942 20.9502 21.5554 21.1127C21.6918 21.2502 21.7662 21.4377 21.7662 21.6627C21.7662 21.9002 21.6794 22.1002 21.5058 22.2502C21.3322 22.4002 21.0842 22.4752 20.7866 22.4752V22.7002C20.7618 22.7002 20.7246 22.7002 20.675 22.6877C20.6254 22.6877 20.5882 22.6752 20.5634 22.6752C20.5386 22.6752 20.5014 22.6752 20.4518 22.6877C20.4146 22.7127 20.3774 22.7127 20.3526 22.7127ZM21.2578 21.6377C21.2578 21.4752 21.2206 21.3377 21.1338 21.2252C21.047 21.1002 20.923 21.0377 20.7742 21.0377V22.3377C20.9106 22.3377 21.0346 22.2627 21.1214 22.1252C21.2206 21.9877 21.2578 21.8252 21.2578 21.6377ZM19.8814 21.7502C19.8814 21.9127 19.9186 22.0502 20.0054 22.1627C20.0922 22.2877 20.2162 22.3502 20.3526 22.3502V21.0377C20.2038 21.0377 20.0922 21.1002 20.0054 21.2377C19.9186 21.3752 19.8814 21.5377 19.8814 21.7502ZM22.7458 20.6752C22.7582 20.6752 22.783 20.6752 22.8078 20.6877C22.8326 20.6877 22.8574 20.7002 22.8698 20.7002C22.8822 20.7002 22.907 20.7002 22.9318 20.6877C22.9566 20.6877 22.9814 20.6752 22.9938 20.6752C23.0806 20.9002 23.155 21.1252 23.2418 21.3627C23.2914 21.5127 23.3906 21.7377 23.5022 22.0377C23.5766 22.2377 23.6758 22.4627 23.775 22.7127C23.7502 22.7127 23.7006 22.7127 23.651 22.7002C23.589 22.7002 23.5518 22.6877 23.527 22.6877C23.5022 22.6877 23.4526 22.6877 23.403 22.7002C23.341 22.7002 23.3038 22.7127 23.279 22.7127C23.217 22.5127 23.1302 22.2627 23.031 21.9752C22.9442 21.7252 22.845 21.4877 22.7582 21.2377C22.7086 21.3627 22.6466 21.5252 22.5598 21.7252C22.4854 21.9252 22.4234 22.0877 22.3738 22.2127C22.3118 22.4002 22.2498 22.5627 22.2002 22.7002L22.0638 22.6877L21.9274 22.7002C22.0266 22.4752 22.1134 22.2502 22.2126 22.0252C22.3118 21.8002 22.3986 21.5752 22.4854 21.3502C22.5846 21.1252 22.659 20.9002 22.7458 20.6752ZM26.1806 21.6877C26.1806 21.9877 26.0814 22.2377 25.8706 22.4377C25.6598 22.6502 25.3746 22.7502 25.015 22.7502C24.6802 22.7502 24.4198 22.6627 24.2214 22.4752C24.023 22.2877 23.9238 22.0252 23.9238 21.7002C23.9238 21.4002 24.023 21.1377 24.2214 20.9502C24.4322 20.7377 24.7174 20.6377 25.077 20.6377C25.4614 20.6377 25.7466 20.7502 25.9326 20.9877C26.1062 21.1752 26.1806 21.4127 26.1806 21.6877ZM25.077 20.8002C24.8662 20.8002 24.705 20.8752 24.6058 21.0377C24.4942 21.2002 24.4322 21.4502 24.4322 21.7752C24.4322 21.9877 24.4818 22.1752 24.5686 22.3127C24.6802 22.4752 24.8414 22.5627 25.0398 22.5627C25.2506 22.5627 25.4242 22.4627 25.5358 22.2752C25.6474 22.1002 25.697 21.8752 25.697 21.6127C25.697 21.4002 25.6474 21.2127 25.5606 21.0627C25.449 20.9002 25.2878 20.8002 25.077 20.8002ZM27.3338 20.8877V22.7127C27.309 22.7127 27.2718 22.7127 27.2098 22.7002C27.1478 22.7002 27.123 22.6877 27.123 22.6877C27.0982 22.6877 27.061 22.6877 27.0114 22.7002C26.9618 22.7002 26.9246 22.7127 26.8998 22.7127V20.8877C26.8006 20.8877 26.7014 20.8877 26.627 20.9002C26.5526 20.9127 26.4534 20.9127 26.3542 20.9252C26.3542 20.9002 26.3666 20.8752 26.3666 20.8502C26.3666 20.8252 26.3666 20.8127 26.3666 20.8002C26.3666 20.7752 26.3666 20.7502 26.3666 20.7252C26.3666 20.7002 26.3542 20.6877 26.3542 20.6752H27.867C27.867 20.7127 27.8546 20.7627 27.8546 20.8002C27.8546 20.8252 27.8546 20.8377 27.8546 20.8627C27.8546 20.8877 27.867 20.9127 27.867 20.9252C27.7182 20.9127 27.6314 20.9002 27.6066 20.9002C27.5074 20.9002 27.4206 20.8877 27.3338 20.8877Z" fill="#0A2A5F"/>
</svg>
