<svg width="60" height="60" viewBox="0 0 60 60" fill="none" xmlns="http://www.w3.org/2000/svg">
<mask id="mask0_119_6620" style="mask-type:alpha" maskUnits="userSpaceOnUse" x="0" y="0" width="60" height="60">
<rect width="60" height="60" fill="white"/>
</mask>
<g mask="url(#mask0_119_6620)">
<rect opacity="0.02" width="60" height="60" fill="#383F72"/>
<g opacity="0.06">
<path d="M0 0L60 60" stroke="#383F72"/>
<path d="M2.34375 -2.34375L62.3438 57.6562" stroke="#383F72"/>
<path d="M4.6875 -4.6875L64.6875 55.3125" stroke="#383F72"/>
<path d="M7.03125 -7.03125L67.0312 52.9688" stroke="#383F72"/>
<path d="M9.375 -9.375L69.375 50.625" stroke="#383F72"/>
<path d="M11.7188 -11.7188L71.7188 48.2812" stroke="#383F72"/>
<path d="M14.0625 -14.0625L74.0625 45.9375" stroke="#383F72"/>
<path d="M16.4062 -16.4062L76.4062 43.5938" stroke="#383F72"/>
<path d="M18.75 -18.75L78.75 41.25" stroke="#383F72"/>
<path d="M21.0938 -21.0938L81.0938 38.9062" stroke="#383F72"/>
<path d="M23.4375 -23.4375L83.4375 36.5625" stroke="#383F72"/>
<path d="M25.7812 -25.7812L85.7812 34.2188" stroke="#383F72"/>
<path d="M28.125 -28.125L88.125 31.875" stroke="#383F72"/>
<path d="M-2.34375 2.34375L57.6562 62.3438" stroke="#383F72"/>
<path d="M-4.6875 4.6875L55.3125 64.6875" stroke="#383F72"/>
<path d="M-7.03125 7.03125L52.9688 67.0312" stroke="#383F72"/>
<path d="M-9.375 9.375L50.625 69.375" stroke="#383F72"/>
<path d="M-11.7188 11.7188L48.2812 71.7188" stroke="#383F72"/>
<path d="M-14.0625 14.0625L45.9375 74.0625" stroke="#383F72"/>
<path d="M-16.4062 16.4062L43.5938 76.4062" stroke="#383F72"/>
<path d="M-18.75 18.75L41.25 78.75" stroke="#383F72"/>
<path d="M-21.0938 21.0938L38.9062 81.0938" stroke="#383F72"/>
<path d="M-23.4375 23.4375L36.5625 83.4375" stroke="#383F72"/>
<path d="M-25.7812 25.7812L34.2188 85.7812" stroke="#383F72"/>
<path d="M-28.125 28.125L31.875 88.125" stroke="#383F72"/>
<path d="M-30.4688 30.4688L29.5312 90.4688" stroke="#383F72"/>
</g>
<g opacity="0.06">
<path d="M1.17188 -1.17188L61.1719 58.8281" stroke="#383F72"/>
<path d="M3.51562 -3.51562L63.5156 56.4844" stroke="#383F72"/>
<path d="M5.85938 -5.85938L65.8594 54.1406" stroke="#383F72"/>
<path d="M8.20312 -8.20312L68.2031 51.7969" stroke="#383F72"/>
<path d="M10.5469 -10.5469L70.5469 49.4531" stroke="#383F72"/>
<path d="M12.8906 -12.8906L72.8906 47.1094" stroke="#383F72"/>
<path d="M15.2344 -15.2344L75.2344 44.7656" stroke="#383F72"/>
<path d="M17.5781 -17.5781L77.5781 42.4219" stroke="#383F72"/>
<path d="M19.9219 -19.9219L79.9219 40.0781" stroke="#383F72"/>
<path d="M22.2656 -22.2656L82.2656 37.7344" stroke="#383F72"/>
<path d="M24.6094 -24.6094L84.6094 35.3906" stroke="#383F72"/>
<path d="M26.9531 -26.9531L86.9531 33.0469" stroke="#383F72"/>
<path d="M29.2969 -29.2969L89.2969 30.7031" stroke="#383F72"/>
<path d="M-1.17188 1.17188L58.8281 61.1719" stroke="#383F72"/>
<path d="M-3.51562 3.51562L56.4844 63.5156" stroke="#383F72"/>
<path d="M-5.85938 5.85938L54.1406 65.8594" stroke="#383F72"/>
<path d="M-8.20312 8.20312L51.7969 68.2031" stroke="#383F72"/>
<path d="M-10.5469 10.5469L49.4531 70.5469" stroke="#383F72"/>
<path d="M-12.8906 12.8906L47.1094 72.8906" stroke="#383F72"/>
<path d="M-15.2344 15.2344L44.7656 75.2344" stroke="#383F72"/>
<path d="M-17.5781 17.5781L42.4219 77.5781" stroke="#383F72"/>
<path d="M-19.9219 19.9219L40.0781 79.9219" stroke="#383F72"/>
<path d="M-22.2656 22.2656L37.7344 82.2656" stroke="#383F72"/>
<path d="M-24.6094 24.6094L35.3906 84.6094" stroke="#383F72"/>
<path d="M-26.9531 26.9531L33.0469 86.9531" stroke="#383F72"/>
<path d="M-29.2969 29.2969L30.7031 89.2969" stroke="#383F72"/>
</g>
</g>
<g opacity="0.5">
<path d="M35.8333 22.5H24.1667C23.2462 22.5 22.5 23.2462 22.5 24.1667V35.8333C22.5 36.7538 23.2462 37.5 24.1667 37.5H35.8333C36.7538 37.5 37.5 36.7538 37.5 35.8333V24.1667C37.5 23.2462 36.7538 22.5 35.8333 22.5Z" stroke="#383F72" stroke-width="1.5" stroke-linecap="round" stroke-linejoin="round"/>
<path d="M27.084 28.334C27.7743 28.334 28.334 27.7743 28.334 27.084C28.334 26.3936 27.7743 25.834 27.084 25.834C26.3936 25.834 25.834 26.3936 25.834 27.084C25.834 27.7743 26.3936 28.334 27.084 28.334Z" stroke="#383F72" stroke-width="1.5" stroke-linecap="round" stroke-linejoin="round"/>
<path d="M37.4993 32.5007L33.3327 28.334L24.166 37.5007" stroke="#383F72" stroke-width="1.5" stroke-linecap="round" stroke-linejoin="round"/>
</g>
</svg>
