<svg width="15" height="16" viewBox="0 0 15 16" fill="none" xmlns="http://www.w3.org/2000/svg">
<path d="M14.8536 14.6464L10.8536 10.6464L10.1464 11.3536L14.1464 15.3536L14.8536 14.6464ZM6.5 12.5C3.46243 12.5 1 10.0376 1 7H0C0 10.5899 2.91015 13.5 6.5 13.5V12.5ZM12 7C12 10.0376 9.53757 12.5 6.5 12.5V13.5C10.0899 13.5 13 10.5899 13 7H12ZM6.5 1.5C9.53757 1.5 12 3.96243 12 7H13C13 3.41015 10.0899 0.5 6.5 0.5V1.5ZM6.5 0.5C2.91015 0.5 0 3.41015 0 7H1C1 3.96243 3.46243 1.5 6.5 1.5V0.5Z" fill="#001853"/>
</svg>
