<svg width="6" height="14" viewBox="0 0 6 14" fill="none" xmlns="http://www.w3.org/2000/svg">
<path d="M5.16294 9.91781C5.20649 9.85685 5.21231 9.77666 5.17803 9.71005C5.14375 9.64343 5.07511 9.60156 5.00019 9.60156H1.00019C0.925277 9.60156 0.856642 9.64343 0.822361 9.71005C0.78808 9.77666 0.793903 9.85685 0.837448 9.91781L2.83745 12.7178C2.87499 12.7704 2.9356 12.8016 3.00019 12.8016C3.06478 12.8016 3.1254 12.7704 3.16294 12.7178L5.16294 9.91781Z" fill="#001853"/>
<path d="M0.837059 4.08219C0.793514 4.14315 0.787691 4.22334 0.821972 4.28995C0.856253 4.35657 0.924888 4.39844 0.999805 4.39844H4.99981C5.07472 4.39844 5.14336 4.35657 5.17764 4.28995C5.21192 4.22334 5.2061 4.14315 5.16255 4.08219L3.16255 1.28219C3.12501 1.22963 3.0644 1.19844 2.99981 1.19844C2.93522 1.19844 2.8746 1.22963 2.83706 1.28219L0.837059 4.08219Z" fill="#001853"/>
</svg>
