<svg width="14" height="14" viewBox="0 0 14 14" fill="none" xmlns="http://www.w3.org/2000/svg">
<path fill-rule="evenodd" clip-rule="evenodd" d="M7.72954 0.0578282C6.55754 -0.0757356 5.68748 0.916895 5.68747 1.96792V2.40594C5.68747 3.56818 5.12159 4.26358 4.53466 4.69249C4.24746 4.90237 3.95688 5.04553 3.73093 5.13746C3.46575 4.6814 2.97181 4.37479 2.40625 4.37479H1.53125C0.685564 4.37479 0 5.06035 0 5.90604V12.4686C0 13.3143 0.685563 13.9998 1.53125 13.9998H2.40625C3.08411 13.9998 3.6591 13.5594 3.86061 12.949C4.31954 13.0145 4.79451 13.1491 5.37018 13.3121L5.37035 13.3122C5.50297 13.3497 5.64093 13.3888 5.78528 13.4289C6.795 13.7093 8.00852 13.9997 9.625 13.9997C11.1175 13.9997 12.2234 13.8664 12.8813 13.0029C13.1903 12.5975 13.3512 12.0911 13.4665 11.5398C13.5691 11.049 13.6483 10.4515 13.74 9.76045L13.7755 9.4927C13.9934 7.85786 14.0073 6.58949 13.6104 5.71638C13.3969 5.24684 13.0662 4.8916 12.616 4.66626C12.1835 4.44977 11.684 4.37468 11.1562 4.37468H9.91174L9.92486 4.27639V4.27638C9.98585 3.82293 10.0625 3.25315 10.0625 2.84344C10.0625 2.03709 9.93011 1.33964 9.48885 0.831436C9.04146 0.316059 8.39755 0.133955 7.72954 0.0578282ZM3.9375 11.6362C4.55466 11.7136 5.15423 11.8848 5.75059 12.055H5.7506C5.87935 12.0918 6.00796 12.1286 6.13657 12.1643C7.09559 12.4307 8.17893 12.6872 9.625 12.6872C11.1949 12.6872 11.6203 12.4924 11.8374 12.2075C11.9659 12.0387 12.0784 11.7657 12.1818 11.2711C12.2738 10.8315 12.3459 10.2875 12.4395 9.58239L12.4744 9.31919C12.6941 7.67276 12.6402 6.75364 12.4156 6.25956C12.3182 6.0455 12.1929 5.92223 12.0285 5.83995C11.8464 5.74882 11.573 5.68718 11.1562 5.68718H9.62465C9.0251 5.68718 8.49189 5.18234 8.57013 4.51826C8.58985 4.35083 8.61305 4.1779 8.63612 4.006C8.69347 3.5786 8.74997 3.15757 8.74997 2.84344C8.74997 2.13592 8.62366 1.83687 8.4978 1.6919C8.37816 1.5541 8.14656 1.42635 7.58093 1.36188C7.31257 1.3313 6.99997 1.56928 6.99997 1.96793V2.40594C6.99997 4.08744 6.144 5.14204 5.30906 5.75219C4.89776 6.05276 4.49015 6.24822 4.18671 6.36881C4.09397 6.40567 4.01002 6.43591 3.9375 6.46028V11.6362ZM2.40625 5.68729C2.52706 5.68729 2.625 5.78522 2.625 5.90604V12.2497V12.4686C2.625 12.5893 2.52706 12.6873 2.40625 12.6873H1.53125C1.41044 12.6873 1.3125 12.5893 1.3125 12.4686V5.90604C1.3125 5.78522 1.41044 5.68729 1.53125 5.68729H2.40625Z" fill="#1C1C1C" fill-opacity="0.5"/>
</svg>
