<svg width="51" height="30" viewBox="0 0 51 30" fill="none" xmlns="http://www.w3.org/2000/svg">
<path fill-rule="evenodd" clip-rule="evenodd" d="M5.32959 19.9234C15.5086 14.0234 32.3098 8.27344 43.9864 6.02344V2.77344C33.8542 4.22344 9.61179 15.6734 5.32959 19.9234Z" fill="#2A528A"/>
<path fill-rule="evenodd" clip-rule="evenodd" d="M39.0488 2.9V0.5C31.1396 1.65 9.51804 15 6.14844 18.3C11.5538 14.35 18.8312 10.775 24.8918 8.125C28.3082 6.65 31.7714 5.25 35.2814 4.05C36.545 3.65 37.7852 3.25 39.0488 2.9Z" fill="#7493CB"/>
<path fill-rule="evenodd" clip-rule="evenodd" d="M0.508789 23.2264C9.40079 21.0014 25.149 21.0014 40.7334 21.1264C42.9564 14.9764 46.794 9.52644 50.4678 6.50144C39.7038 6.35144 9.35399 17.9264 0.508789 23.2264Z" fill="#0A2A5F"/>
<path fill-rule="evenodd" clip-rule="evenodd" d="M0.508749 28.9734H0.742749C0.906549 28.5734 1.07035 28.1734 1.21075 27.7734C1.39795 27.2984 1.53835 26.8984 1.67875 26.5734C1.81915 26.1984 1.95955 25.7984 2.12335 25.3484C2.14675 25.3484 2.19355 25.3484 2.24035 25.3734C2.28715 25.3734 2.33395 25.3984 2.35735 25.3984C2.38075 25.3984 2.42755 25.3984 2.47435 25.3734C2.52115 25.3734 2.56795 25.3484 2.59135 25.3484C2.77855 25.8984 2.98915 26.5234 3.24655 27.1734C3.45715 27.7484 3.69115 28.3484 3.92515 28.9734H4.18255C4.18255 29.0234 4.15915 29.0984 4.15915 29.1484C4.15915 29.1984 4.15915 29.2484 4.13575 29.2984C4.13575 29.3484 4.13575 29.3984 4.13575 29.4734C4.13575 29.5484 4.15915 29.5984 4.15915 29.6234H4.06555C3.99535 29.5484 3.87835 29.4734 3.71455 29.4484C3.55075 29.4234 3.36355 29.3984 3.15295 29.3984H1.51495C1.25755 29.3984 1.04695 29.3984 0.906549 29.4234C0.742749 29.4484 0.64915 29.4984 0.57895 29.5984H0.485352C0.485352 29.5484 0.508749 29.4984 0.508749 29.4484C0.508749 29.3984 0.508749 29.3484 0.508749 29.2734C0.508749 29.1984 0.508749 29.1484 0.508749 29.0984C0.532149 29.0484 0.508749 28.9984 0.508749 28.9734ZM2.05315 28.9984C2.19355 28.9984 2.35735 28.9984 2.52115 28.9984C2.68495 28.9984 2.82535 28.9984 2.96575 28.9734C2.84875 28.5734 2.70835 28.1734 2.56795 27.7484C2.42755 27.3234 2.26375 26.8984 2.12335 26.4734C1.95955 26.9234 1.79575 27.3234 1.65535 27.7234C1.49155 28.1734 1.35115 28.5984 1.21075 28.9734C1.28095 28.9734 1.42135 28.9734 1.60855 28.9984C1.81915 28.9984 1.95955 28.9984 2.05315 28.9984ZM8.62855 27.3734C8.62855 27.9734 8.44135 28.4734 8.04355 28.8734C7.64575 29.2984 7.10755 29.4984 6.42895 29.4984C5.79715 29.4984 5.30575 29.3234 4.93135 28.9484C4.55695 28.5734 4.36975 28.0484 4.36975 27.3984C4.36975 26.7984 4.55695 26.2734 4.93135 25.8984C5.32915 25.4734 5.86735 25.2734 6.54595 25.2734C7.27135 25.2734 7.80955 25.4984 8.16055 25.9734C8.48815 26.3484 8.62855 26.8234 8.62855 27.3734ZM6.52255 25.5984C6.12475 25.5984 5.82055 25.7484 5.63335 26.0734C5.42275 26.3984 5.30575 26.8984 5.30575 27.5484C5.30575 27.9734 5.39935 28.3484 5.56315 28.6234C5.77375 28.9484 6.07795 29.1234 6.45235 29.1234C6.85015 29.1234 7.17775 28.9234 7.38835 28.5484C7.59895 28.1984 7.69255 27.7484 7.69255 27.2234C7.69255 26.7984 7.59895 26.4234 7.43515 26.1234C7.22455 25.7984 6.92035 25.5984 6.52255 25.5984ZM9.28375 29.4234V25.3484C9.33055 25.3484 9.40075 25.3484 9.49435 25.3734C9.58795 25.3734 9.65815 25.3984 9.70495 25.3984C9.75175 25.3984 9.82195 25.3984 9.91555 25.3734C10.0091 25.3734 10.0794 25.3484 10.1262 25.3484V26.9484C10.2432 26.9484 10.4069 26.9484 10.6175 26.9734C10.8281 26.9734 10.9452 26.9984 10.992 26.9984C11.1323 26.9984 11.2259 26.9984 11.3195 26.9984C11.6471 26.9734 11.8109 26.9734 11.8577 26.9734V25.3734C11.9045 25.3734 11.9748 25.3734 12.0684 25.3984C12.162 25.3984 12.2322 25.4234 12.2789 25.4234C12.3258 25.4234 12.3959 25.4234 12.4895 25.3984C12.5831 25.3984 12.6534 25.3734 12.7002 25.3734V29.4484C12.6534 29.4484 12.5831 29.4484 12.4895 29.4234C12.3959 29.4234 12.3258 29.3984 12.2789 29.3984C12.2322 29.3984 12.162 29.3984 12.0684 29.4234C11.9748 29.4234 11.9045 29.4484 11.8577 29.4484V27.4734C11.7641 27.4734 11.6004 27.4734 11.3664 27.4734C11.1324 27.4734 11.0154 27.4734 11.0154 27.4734C10.875 27.4734 10.7345 27.4734 10.5707 27.4734C10.4069 27.4734 10.2666 27.4734 10.1729 27.4984V29.4734C10.1262 29.4734 10.056 29.4734 9.96235 29.4484C9.86875 29.4484 9.79855 29.4234 9.75175 29.4234C9.70495 29.4234 9.63475 29.4234 9.54115 29.4484C9.40075 29.4234 9.33055 29.4234 9.28375 29.4234ZM13.6127 29.4234V25.3484C13.6595 25.3484 13.7298 25.3484 13.8234 25.3734C13.917 25.3984 13.9872 25.3984 14.0339 25.3984C14.0807 25.3984 14.1509 25.3984 14.2445 25.3734C14.3381 25.3484 14.4084 25.3484 14.4552 25.3484V28.1234C14.7594 27.7734 15.1337 27.3234 15.5549 26.7484C15.9528 26.1984 16.3038 25.7484 16.5612 25.3484C16.6314 25.3484 16.6781 25.3484 16.7015 25.3484C16.7249 25.3484 16.7717 25.3484 16.8419 25.3484C16.9121 25.3484 16.959 25.3484 16.9824 25.3484V29.4234C16.9356 29.4234 16.8653 29.4234 16.7717 29.3984C16.6782 29.3984 16.608 29.3734 16.5612 29.3734C16.5144 29.3734 16.4441 29.3734 16.3505 29.3984C16.2569 29.3984 16.1868 29.4234 16.1399 29.4234V26.6234C15.8124 27.0234 15.4614 27.4734 15.0402 28.0234C14.6424 28.5734 14.2913 29.0234 14.0105 29.4484C13.9871 29.4484 13.9637 29.4484 13.917 29.4484C13.8701 29.4484 13.8701 29.4484 13.8467 29.4484C13.7999 29.4484 13.7532 29.4484 13.7064 29.4484C13.683 29.4234 13.6595 29.4234 13.6127 29.4234ZM17.9417 29.4234V25.3484C17.9885 25.3484 18.0588 25.3484 18.1524 25.3734C18.246 25.3734 18.3162 25.3984 18.3629 25.3984C18.4097 25.3984 18.4799 25.3984 18.5735 25.3734C18.6671 25.3734 18.7374 25.3484 18.7842 25.3484V26.9484C18.9011 26.9484 19.0649 26.9484 19.2755 26.9734C19.4861 26.9734 19.6031 26.9984 19.65 26.9984C19.7903 26.9984 19.8839 26.9984 19.9775 26.9984C20.3051 26.9734 20.4689 26.9734 20.5157 26.9734V25.3734C20.5625 25.3734 20.6328 25.3734 20.7264 25.3984C20.82 25.3984 20.8902 25.4234 20.937 25.4234C20.9837 25.4234 21.0539 25.4234 21.1475 25.3984C21.2411 25.3984 21.3113 25.3734 21.3582 25.3734V29.4484C21.3113 29.4484 21.2411 29.4484 21.1475 29.4234C21.0539 29.4234 20.9837 29.3984 20.937 29.3984C20.8902 29.3984 20.82 29.3984 20.7264 29.4234C20.6328 29.4234 20.5625 29.4484 20.5157 29.4484V27.4734C20.4221 27.4734 20.2584 27.4734 20.0244 27.4734C19.7904 27.4734 19.6734 27.4734 19.6734 27.4734C19.533 27.4734 19.3925 27.4734 19.2287 27.4734C19.0649 27.4734 18.9245 27.4734 18.8309 27.4984V29.4734C18.7841 29.4734 18.714 29.4734 18.6204 29.4484C18.5268 29.4484 18.4565 29.4234 18.4097 29.4234C18.3629 29.4234 18.2928 29.4234 18.1992 29.4484C18.0588 29.4234 17.9885 29.4234 17.9417 29.4234ZM23.7449 25.7734V29.4234C23.6982 29.4234 23.628 29.4234 23.511 29.3984C23.3939 29.3984 23.3472 29.3734 23.3472 29.3734C23.3004 29.3734 23.2301 29.3734 23.1365 29.3984C23.0429 29.3984 22.9727 29.4234 22.9259 29.4234V25.7734C22.7388 25.7734 22.5515 25.7734 22.4111 25.7984C22.2708 25.8234 22.0836 25.8234 21.8964 25.8484C21.8964 25.7984 21.9197 25.7484 21.9197 25.6984C21.9197 25.6484 21.9197 25.6234 21.9197 25.5984C21.9197 25.5484 21.9197 25.4984 21.9197 25.4484C21.9197 25.3984 21.8964 25.3734 21.8964 25.3484H24.7512C24.7512 25.4234 24.7277 25.5234 24.7277 25.5984C24.7277 25.6484 24.7277 25.6734 24.7277 25.7234C24.7277 25.7734 24.7512 25.8234 24.7512 25.8484C24.4704 25.8234 24.3065 25.7984 24.2597 25.7984C24.0959 25.7984 23.9088 25.7734 23.7449 25.7734ZM26.1084 29.4234C26.1786 29.2984 26.2721 29.0984 26.4125 28.7734C26.4593 28.6734 26.5295 28.5234 26.5997 28.3484C26.4827 28.0984 26.319 27.7734 26.1084 27.3984C26.0616 27.3234 25.8509 26.9734 25.4765 26.3234C25.2191 25.8984 25.0554 25.5734 24.9384 25.3734C24.9852 25.3734 25.0787 25.3734 25.1957 25.3984C25.3127 25.4234 25.3829 25.4234 25.4531 25.4234C25.5 25.4234 25.5935 25.4234 25.7105 25.3984C25.8275 25.3984 25.8977 25.3734 25.9679 25.3734C26.0147 25.4734 26.1084 25.6734 26.2722 25.9484C26.2956 25.9984 26.4593 26.2734 26.7167 26.7484C26.9039 27.0734 26.9976 27.2734 27.0444 27.3734C27.138 27.2234 27.2783 26.9234 27.489 26.4234C27.6059 26.1734 27.7463 25.8234 27.9335 25.3484L28.2144 25.3734L28.4718 25.3484C28.3548 25.5484 28.1676 25.9484 27.8868 26.5484C27.6294 27.0984 27.372 27.6484 27.1379 28.1484C26.8571 28.7734 26.6699 29.1734 26.5997 29.3984C26.5763 29.3984 26.5295 29.3984 26.4827 29.3734C26.4359 29.3734 26.3891 29.3484 26.3657 29.3484L26.1084 29.4234ZM29.8758 27.6484V29.4234C29.829 29.4234 29.7587 29.4234 29.6651 29.3984C29.5715 29.3984 29.5013 29.3734 29.4545 29.3734C29.4077 29.3734 29.3375 29.3734 29.2439 29.3984C29.1504 29.3984 29.0802 29.4234 29.0334 29.4234V25.3484H30.3905C31.1861 25.3484 31.584 25.6734 31.584 26.3484C31.584 26.8484 31.4201 27.1734 31.0925 27.3984C30.8351 27.5734 30.4374 27.6484 29.8758 27.6484ZM29.8758 25.6984V27.3234C30.0162 27.3234 30.1331 27.2984 30.2501 27.2734C30.4139 27.2234 30.5543 27.1234 30.6245 26.9734C30.6947 26.8484 30.7415 26.6734 30.7415 26.4734C30.7415 26.2484 30.6947 26.0484 30.6011 25.8984C30.5075 25.7484 30.3906 25.6734 30.2268 25.6734H29.8758V25.6984ZM33.7134 29.4234V28.9984C33.1283 28.9984 32.6837 28.8734 32.3561 28.5984C32.0285 28.3234 31.8414 27.9234 31.8414 27.3734C31.8414 26.8984 32.0052 26.4984 32.3094 26.1984C32.637 25.8984 33.1049 25.7484 33.6899 25.7484V25.3234C33.7368 25.3234 33.8069 25.3234 33.9005 25.3484C33.9941 25.3484 34.0643 25.3734 34.1111 25.3734C34.1579 25.3734 34.2282 25.3734 34.3218 25.3484C34.4154 25.3484 34.4855 25.3234 34.5324 25.3234V25.7234C35.1875 25.7234 35.6789 25.8984 35.9831 26.2234C36.2405 26.4984 36.381 26.8734 36.381 27.3234C36.381 27.7984 36.2171 28.1984 35.8895 28.4984C35.5619 28.7984 35.094 28.9484 34.5324 28.9484V29.3984C34.4855 29.3984 34.4154 29.3984 34.3218 29.3734C34.2282 29.3734 34.1579 29.3484 34.1111 29.3484C34.0643 29.3484 33.9941 29.3484 33.9005 29.3734C33.8303 29.4234 33.7602 29.4234 33.7134 29.4234ZM35.4215 27.2734C35.4215 26.9484 35.3513 26.6734 35.1875 26.4484C35.0237 26.1984 34.7897 26.0734 34.5089 26.0734V28.6734C34.7663 28.6734 35.0003 28.5234 35.1641 28.2484C35.3513 27.9734 35.4215 27.6484 35.4215 27.2734ZM32.8241 27.4984C32.8241 27.8234 32.8943 28.0984 33.0581 28.3234C33.2219 28.5734 33.456 28.6984 33.7134 28.6984V26.0734C33.4326 26.0734 33.2219 26.1984 33.0581 26.4734C32.8943 26.7484 32.8241 27.0734 32.8241 27.4984ZM38.2295 25.3484C38.2529 25.3484 38.2997 25.3484 38.3465 25.3734C38.3933 25.3734 38.4401 25.3984 38.4635 25.3984C38.4869 25.3984 38.5337 25.3984 38.5805 25.3734C38.6273 25.3734 38.6741 25.3484 38.6975 25.3484C38.8613 25.7984 39.0017 26.2484 39.1655 26.7234C39.2591 27.0234 39.4464 27.4734 39.6569 28.0734C39.7973 28.4734 39.9846 28.9234 40.1718 29.4234C40.125 29.4234 40.0314 29.4234 39.9378 29.3984C39.8208 29.3984 39.7506 29.3734 39.7038 29.3734C39.657 29.3734 39.5634 29.3734 39.4698 29.3984C39.3528 29.3984 39.2826 29.4234 39.2358 29.4234C39.1188 29.0234 38.955 28.5234 38.7678 27.9484C38.604 27.4484 38.4167 26.9734 38.2529 26.4734C38.1594 26.7234 38.0423 27.0484 37.8785 27.4484C37.7381 27.8484 37.6211 28.1734 37.5275 28.4234C37.4105 28.7984 37.2935 29.1234 37.2 29.3984L36.9425 29.3734L36.6851 29.3984C36.8723 28.9484 37.0362 28.4984 37.2234 28.0484C37.4106 27.5984 37.5743 27.1484 37.7381 26.6984C37.9253 26.2484 38.0658 25.7984 38.2295 25.3484ZM44.7113 27.3734C44.7113 27.9734 44.5242 28.4734 44.1264 28.8734C43.7285 29.2984 43.1904 29.4984 42.5118 29.4984C41.88 29.4984 41.3885 29.3234 41.0141 28.9484C40.6397 28.5734 40.4525 28.0484 40.4525 27.3984C40.4525 26.7984 40.6397 26.2734 41.0141 25.8984C41.4119 25.4734 41.9502 25.2734 42.6288 25.2734C43.3542 25.2734 43.8923 25.4984 44.2434 25.9734C44.5709 26.3484 44.7113 26.8234 44.7113 27.3734ZM42.6288 25.5984C42.231 25.5984 41.9267 25.7484 41.7395 26.0734C41.5289 26.3984 41.4119 26.8984 41.4119 27.5484C41.4119 27.9734 41.5056 28.3484 41.6693 28.6234C41.88 28.9484 42.1841 29.1234 42.5585 29.1234C42.9563 29.1234 43.2839 28.9234 43.4945 28.5484C43.7051 28.1984 43.7988 27.7484 43.7988 27.2234C43.7988 26.7984 43.7052 26.4234 43.5414 26.1234C43.3307 25.7984 43.0266 25.5984 42.6288 25.5984ZM46.8875 25.7734V29.4234C46.8407 29.4234 46.7705 29.4234 46.6535 29.3984C46.5365 29.3984 46.4898 29.3734 46.4898 29.3734C46.443 29.3734 46.3727 29.3734 46.2791 29.3984C46.1855 29.3984 46.1153 29.4234 46.0685 29.4234V25.7734C45.8813 25.7734 45.6942 25.7734 45.5538 25.7984C45.4134 25.8234 45.2262 25.8234 45.0389 25.8484C45.0389 25.7984 45.0624 25.7484 45.0624 25.6984C45.0624 25.6484 45.0624 25.6234 45.0624 25.5984C45.0624 25.5484 45.0624 25.4984 45.0624 25.4484C45.0624 25.3984 45.0389 25.3734 45.0389 25.3484H47.8938C47.8938 25.4234 47.8703 25.5234 47.8703 25.5984C47.8703 25.6484 47.8703 25.6734 47.8703 25.7234C47.8703 25.7734 47.8938 25.8234 47.8938 25.8484C47.613 25.8234 47.4492 25.7984 47.4024 25.7984C47.2152 25.7984 47.0513 25.7734 46.8875 25.7734Z" fill="#0A2A5F"/>
</svg>
