<svg width="1231" height="939" viewBox="0 0 1231 939" fill="none" xmlns="http://www.w3.org/2000/svg">
<path opacity="0.54" d="M37.2839 681.921C29.9518 651.303 51.8901 622.828 80.8775 611.133C83.4591 610.091 86.105 609.163 88.7814 608.379C116.204 600.259 146.826 603.275 176.586 608.996C182.301 610.106 188.003 611.304 193.679 612.553C220.343 618.431 247.301 625.236 274.261 626.712C282.932 627.188 291.537 627.117 300.053 626.341C358.06 621.105 405.102 584.831 441.182 543.964C443.81 540.994 446.382 537.993 448.92 534.99C486.355 490.467 519.178 442.756 560.917 407.355C581.97 389.497 606.264 371.816 637.236 372.443C674.338 373.171 708.973 399.206 733.496 427.238C750.185 446.312 764.206 467.055 780.321 486.156C787.894 495.133 795.929 503.72 804.921 511.636C862.091 561.928 949.967 573.661 1020.6 553.164C1091.24 532.663 1146.97 485.187 1191.92 431.873" stroke="#EAE440" stroke-width="1.56225" stroke-miterlimit="10"/>
<path opacity="0.54" d="M37.0562 690.344C29.7108 659.751 51.3366 631.22 80.1867 619.211C82.7676 618.136 85.3856 617.193 88.068 616.365C115.395 607.953 146.003 610.593 175.826 615.996C181.546 617.029 187.255 618.183 192.944 619.374C219.65 624.971 246.659 631.547 273.604 632.887C282.26 633.323 290.857 633.2 299.359 632.416C357.348 626.979 404.181 590.591 439.895 549.432C442.495 546.446 445.039 543.431 447.542 540.392C484.494 495.529 516.159 446.987 557.195 410.278C578.23 391.45 602.925 373.025 634.466 373.43C672.256 373.888 707.485 400.627 732.176 429.454C748.985 449.073 763.005 470.456 779.2 490.144C786.805 499.395 794.902 508.271 803.974 516.439C861.715 568.383 951.385 580.57 1023.23 559.591C1095.07 538.612 1151.51 489.918 1197.07 435.508" stroke="#EAE440" stroke-width="1.56225" stroke-miterlimit="10"/>
<path opacity="0.54" d="M36.8138 698.766C29.4343 668.202 50.7891 639.606 79.4672 627.28C82.0268 626.177 84.6442 625.202 87.3054 624.346C114.523 615.636 145.124 617.92 175.011 623.005C180.744 623.98 186.472 625.064 192.152 626.203C218.902 631.519 245.969 637.855 272.876 639.062C281.524 639.446 290.114 639.303 298.601 638.479C356.573 632.84 403.189 596.352 438.531 554.88C441.096 551.859 443.612 548.829 446.093 545.763C482.561 500.559 513.049 451.19 553.396 413.182C574.406 393.396 599.515 374.202 631.613 374.378C670.082 374.578 705.912 402.009 730.77 431.631C747.687 451.788 761.712 473.797 777.98 494.086C785.619 503.61 793.762 512.767 802.929 521.194C861.248 574.778 952.705 587.431 1025.74 565.975C1098.79 544.507 1155.93 494.608 1202.09 439.1" stroke="#EAE440" stroke-width="1.56225" stroke-miterlimit="10"/>
<path opacity="0.54" d="M36.5865 707.184C29.1937 676.645 50.2361 647.993 78.7628 635.345C81.3151 634.223 83.9179 633.208 86.5578 632.324C113.673 623.335 144.26 625.243 174.217 629.998C179.962 630.915 185.689 631.935 191.389 633.004C218.182 638.04 245.286 644.139 272.177 645.209C280.81 645.553 289.4 645.378 297.886 644.522C355.84 638.681 402.233 602.073 437.21 560.308C439.746 557.272 442.241 554.214 444.68 551.126C480.665 505.581 509.94 455.383 549.64 416.066C570.596 395.307 596.155 375.378 628.809 375.326C667.965 375.255 704.396 403.379 729.422 433.827C746.453 454.541 760.475 477.158 776.832 498.054C784.51 507.872 792.707 517.298 801.969 525.984C860.865 581.208 954.102 594.339 1028.34 572.394C1102.58 550.449 1160.43 499.331 1207.21 442.727" stroke="#EAE440" stroke-width="1.56225" stroke-miterlimit="10"/>
<path opacity="0.54" d="M36.3518 715.628C28.925 685.119 49.6757 656.405 78.0583 643.456C80.5893 642.306 83.1849 641.271 85.8242 640.356C112.83 631.067 143.417 632.607 173.43 637.056C179.188 637.916 184.935 638.867 190.627 639.884C217.47 644.658 244.618 650.509 271.478 651.434C280.104 651.726 288.672 651.523 297.158 650.635C355.087 644.573 401.27 607.884 435.874 565.806C438.39 562.743 440.843 559.662 443.254 556.559C478.754 510.674 506.797 459.651 545.863 419.032C566.766 397.3 592.768 376.617 625.991 376.344C665.834 376.003 702.86 404.831 728.053 436.073C745.205 457.333 759.218 480.569 775.648 502.065C783.359 512.157 791.617 521.872 800.96 530.81C860.427 587.686 955.458 601.271 1030.89 578.849C1106.33 556.415 1164.89 504.091 1212.26 446.383" stroke="#EAE440" stroke-width="1.56225" stroke-miterlimit="10"/>
<path opacity="0.54" d="M36.1098 724.043C28.6696 693.559 49.1219 664.797 77.3391 651.518C79.8556 650.328 82.4438 649.273 85.0618 648.33C111.958 638.742 142.539 639.927 172.607 644.037C178.371 644.821 184.124 645.726 189.849 646.682C216.736 651.175 243.941 656.784 270.764 657.578C279.375 657.83 287.943 657.595 296.414 656.667C354.326 650.403 400.299 613.601 434.524 571.223C437.012 568.145 439.443 565.036 441.812 561.91C476.829 515.685 503.617 463.843 542.077 421.905C562.893 399.197 589.365 377.775 623.145 377.273C663.667 376.674 701.295 406.194 726.655 438.23C743.914 460.029 757.932 483.891 774.429 506C782.187 516.373 790.477 526.362 799.915 535.559C859.96 594.074 956.771 608.138 1033.41 585.227C1110.04 562.316 1169.31 508.774 1217.29 449.968" stroke="#EAE440" stroke-width="1.56225" stroke-miterlimit="10"/>
<path opacity="0.54" d="M35.8816 732.472C28.4213 702.025 48.5679 673.194 76.6478 659.601C79.1569 658.392 81.7166 657.289 84.3413 656.334C111.142 646.455 141.709 647.263 171.834 651.068C177.61 651.795 183.376 652.643 189.1 653.533C216.03 657.746 243.272 663.119 270.079 663.776C278.689 663.996 287.228 663.713 295.706 662.773C353.6 656.307 399.357 619.404 433.223 576.721C435.69 573.616 438.08 570.485 440.427 567.331C474.967 520.753 500.488 468.116 538.342 424.859C559.07 401.176 586.019 379.002 620.368 378.279C661.578 377.409 699.799 407.633 725.327 440.465C742.707 462.808 756.71 487.303 773.301 510.006C781.085 520.666 789.443 530.931 798.975 540.387C859.598 600.542 958.195 615.073 1036.03 591.684C1113.86 568.284 1173.85 513.543 1222.42 453.634" stroke="#EAE440" stroke-width="1.56225" stroke-miterlimit="10"/>
<path opacity="0.54" d="M35.6549 740.894C27.5002 707.751 51.7784 676.44 83.5943 664.315C115.403 652.203 152.7 655.148 188.331 660.35C223.962 665.551 260.165 672.838 294.985 668.831C357.058 661.671 404.959 619.616 438.994 572.702C473.05 525.783 497.276 472.336 534.558 427.763C555.185 403.096 582.632 380.199 617.537 379.247C659.434 378.107 698.25 409.035 723.952 442.681C749.654 476.326 767.85 514.765 797.96 545.183C859.154 606.99 959.538 621.986 1038.57 598.109C1117.6 574.231 1178.29 518.272 1227.48 457.266" stroke="#EAE440" stroke-width="1.56225" stroke-miterlimit="10"/>
<path d="M402.614 565H279.014V547.8C292.081 543.267 304.347 540.067 315.814 538.2V493H197.414V475L350.614 280.2H372.214V467H421.414V493H372.214V538.2C382.614 540.333 392.747 543.533 402.614 547.8V565ZM315.814 381.8L319.814 353.8H318.614L303.414 381.8L245.414 456.6L229.414 469.8L257.814 467H315.814V381.8Z" fill="#001853"/>
<path d="M513.614 423C513.614 399 516.147 378.067 521.214 360.2C526.547 342.067 533.747 327 542.814 315C552.147 302.733 563.081 293.533 575.614 287.4C588.414 281.267 602.281 278.2 617.214 278.2C649.214 278.2 674.547 290.333 693.214 314.6C711.881 338.6 721.214 374.733 721.214 423C721.214 447 718.547 468.067 713.214 486.2C708.147 504.067 700.814 519.133 691.214 531.4C681.881 543.4 670.681 552.467 657.614 558.6C644.547 564.733 630.281 567.8 614.814 567.8C598.547 567.8 584.147 564.6 571.614 558.2C559.081 551.533 548.414 542.067 539.614 529.8C531.081 517.267 524.547 502.067 520.014 484.2C515.747 466.333 513.614 445.933 513.614 423ZM573.614 423C573.614 442.2 574.147 459.4 575.214 474.6C576.547 489.8 578.814 502.733 582.014 513.4C585.214 523.8 589.347 531.8 594.414 537.4C599.747 543 606.414 545.8 614.414 545.8C623.747 545.8 631.347 543.533 637.214 539C643.347 534.467 648.147 527.267 651.614 517.4C655.347 507.533 657.881 494.867 659.214 479.4C660.547 463.933 661.214 445.133 661.214 423C661.214 403.8 660.681 386.6 659.614 371.4C658.547 356.2 656.414 343.4 653.214 333C650.281 322.333 645.881 314.2 640.014 308.6C634.414 303 626.814 300.2 617.214 300.2C608.681 300.2 601.614 302.467 596.014 307C590.414 311.533 585.881 318.733 582.414 328.6C579.214 338.467 576.947 351.267 575.614 367C574.281 382.467 573.614 401.133 573.614 423Z" fill="#001853"/>
<path d="M1016.61 565H893.014V547.8C906.081 543.267 918.347 540.067 929.814 538.2V493H811.414V475L964.614 280.2H986.214V467H1035.41V493H986.214V538.2C996.614 540.333 1006.75 543.533 1016.61 547.8V565ZM929.814 381.8L933.814 353.8H932.614L917.414 381.8L859.414 456.6L843.414 469.8L871.814 467H929.814V381.8Z" fill="#001853"/>
<defs>
</defs>
</svg>
