<svg width="56" height="56" viewBox="0 0 56 56" fill="none" xmlns="http://www.w3.org/2000/svg">
<path d="M47.6467 28.8626C49.6767 29.6793 50.9366 32.0826 50.47 34.206L49.5133 38.5459C47.8566 46.0126 42 51.3326 33.5533 51.3326H22.4466C14 51.3326 8.1433 46.0126 6.48664 38.5459L5.52996 34.206C5.06329 32.0826 6.32327 29.6793 8.35327 28.8626L11.6666 27.5326L24.5233 22.3759C26.7633 21.4893 29.2366 21.4893 31.4766 22.3759L44.3333 27.5326L47.6467 28.8626Z" fill="#001853" stroke="#001853" stroke-width="1.5" stroke-linecap="round" stroke-linejoin="round"/>
<path d="M28 51.332V23.332" stroke="white" stroke-width="1.5" stroke-linecap="round" stroke-linejoin="round"/>
<path opacity="0.5" d="M44.3334 18.668V27.5346L31.4767 22.378C29.2367 21.4913 26.7634 21.4913 24.5234 22.378L11.6667 27.5346V18.668C11.6667 14.818 14.8167 11.668 18.6667 11.668H37.3334C41.1834 11.668 44.3334 14.818 44.3334 18.668Z" fill="white" stroke="#001853" stroke-width="1.5" stroke-linecap="round" stroke-linejoin="round"/>
<path d="M33.8334 11.668H22.1667V7.0013C22.1667 5.71797 23.2167 4.66797 24.5 4.66797H31.5C32.7834 4.66797 33.8334 5.71797 33.8334 7.0013V11.668Z" fill="#EAE440" stroke="#001853" stroke-width="1.5" stroke-linecap="round" stroke-linejoin="round"/>
</svg>
