<svg width="48" height="48" viewBox="0 0 48 48" fill="none" xmlns="http://www.w3.org/2000/svg">
<path d="M5 10.1818C5 7.31998 7.31998 5 10.1818 5H29.7576C32.6194 5 34.9394 7.31998 34.9394 10.1818V28.0303H43V35.5152C43 39.6489 39.6489 43 35.5152 43H12.4848C8.35108 43 5 39.6489 5 35.5152V10.1818ZM34.9394 31.4848V39.5455H35.5152C37.741 39.5455 39.5455 37.741 39.5455 35.5152V31.4848H34.9394ZM31.4848 39.5455V10.1818C31.4848 9.22787 30.7115 8.45455 29.7576 8.45455H10.1818C9.22787 8.45455 8.45455 9.22787 8.45455 10.1818V35.5152C8.45455 37.741 10.259 39.5455 12.4848 39.5455H31.4848ZM11.9091 15.9394C11.9091 14.9855 12.6824 14.2121 13.6364 14.2121H26.3031C27.257 14.2121 28.0303 14.9855 28.0303 15.9394C28.0303 16.8933 27.257 17.6667 26.3031 17.6667H13.6364C12.6824 17.6667 11.9091 16.8933 11.9091 15.9394ZM11.9091 24C11.9091 23.0461 12.6824 22.2727 13.6364 22.2727H26.3031C27.257 22.2727 28.0303 23.0461 28.0303 24C28.0303 24.954 27.257 25.7273 26.3031 25.7273H13.6364C12.6824 25.7273 11.9091 24.954 11.9091 24ZM11.9091 32.0606C11.9091 31.1067 12.6824 30.3333 13.6364 30.3333H19.394C20.3479 30.3333 21.1212 31.1067 21.1212 32.0606C21.1212 33.0146 20.3479 33.7879 19.394 33.7879H16.5152H13.6364C12.6824 33.7879 11.9091 33.0146 11.9091 32.0606Z" fill="#EAE440"/>
</svg>
