<svg width="48" height="48" viewBox="0 0 48 48" fill="none" xmlns="http://www.w3.org/2000/svg">
<g clip-path="url(#clip0_1_2270)">
<path d="M24 0C19.2533 0 14.6131 1.40758 10.6663 4.04473C6.71954 6.68188 3.6434 10.4302 1.8269 14.8156C0.010399 19.201 -0.464881 24.0266 0.461164 28.6822C1.38721 33.3377 3.67299 37.6141 7.02945 40.9706C10.3859 44.327 14.6623 46.6128 19.3178 47.5388C23.9734 48.4649 28.799 47.9896 33.1844 46.1731C37.5698 44.3566 41.3181 41.2805 43.9553 37.3337C46.5924 33.3869 48 28.7467 48 24C47.9931 17.6369 45.4624 11.5364 40.963 7.03704C36.4636 2.53766 30.3631 0.00688216 24 0ZM44 24C44.0024 27.9194 42.8459 31.7521 40.676 35.016L38.292 32.63C38.1051 32.4426 38.0001 32.1887 38 31.924V30C38 28.4087 37.3679 26.8826 36.2426 25.7574C35.1174 24.6321 33.5913 24 32 24H26C25.4696 24 24.9609 23.7893 24.5858 23.4142C24.2107 23.0391 24 22.5304 24 22V21C24 20.7348 24.1054 20.4804 24.2929 20.2929C24.4804 20.1054 24.7348 20 25 20C26.3261 20 27.5979 19.4732 28.5355 18.5355C29.4732 17.5979 30 16.3261 30 15V13C30 12.7348 30.1054 12.4804 30.2929 12.2929C30.4804 12.1054 30.7348 12 31 12H33.758C35.0828 11.9962 36.3527 11.4702 37.292 10.536L38.046 9.782C39.9324 11.6382 41.4304 13.8513 42.4526 16.2923C43.4748 18.7334 44.0008 21.3535 44 24ZM4.09801 25.926L10.414 32.242C10.9698 32.8014 11.6312 33.2448 12.3597 33.5466C13.0882 33.8484 13.8694 34.0025 14.658 34H20C20.5304 34 21.0392 34.2107 21.4142 34.5858C21.7893 34.9609 22 35.4696 22 36V43.898C17.4004 43.4285 13.1048 41.3823 9.84187 38.1067C6.57893 34.831 4.54957 30.5274 4.09801 25.926ZM26 43.898V36C26 34.4087 25.3679 32.8826 24.2426 31.7574C23.1174 30.6321 21.5913 30 20 30H14.658C14.3951 30.0002 14.1346 29.9486 13.8917 29.848C13.6487 29.7474 13.4279 29.6 13.242 29.414L4.32601 20.498C4.89836 17.2444 6.26949 14.1838 8.31636 11.5908C10.3632 8.99773 13.0218 6.95342 16.0536 5.64123C19.0854 4.32904 22.3955 3.79003 25.6869 4.07256C28.9784 4.35509 32.1482 5.45033 34.912 7.26L34.464 7.708C34.2757 7.89366 34.0224 7.99844 33.758 8H31C29.6739 8 28.4022 8.52678 27.4645 9.46447C26.5268 10.4021 26 11.6739 26 13V15C26 15.2652 25.8947 15.5196 25.7071 15.7071C25.5196 15.8946 25.2652 16 25 16C23.6739 16 22.4022 16.5268 21.4645 17.4645C20.5268 18.4021 20 19.6739 20 21V22C20 23.5913 20.6322 25.1174 21.7574 26.2426C22.8826 27.3679 24.4087 28 26 28H32C32.5304 28 33.0392 28.2107 33.4142 28.5858C33.7893 28.9609 34 29.4696 34 30V31.924C34.0038 33.2488 34.5298 34.5186 35.464 35.458L38.138 38.132C34.8809 41.4004 30.5912 43.4381 26 43.898Z" fill="#EAE440"/>
</g>
<defs>
<clipPath id="clip0_1_2270">
<rect width="48" height="48" fill="white"/>
</clipPath>
</defs>
</svg>
