<svg width="40" height="48" viewBox="0 0 40 48" fill="none" xmlns="http://www.w3.org/2000/svg">
<path d="M33.162 4.28048L20.632 0.102482C20.2218 -0.0341605 19.7783 -0.0341605 19.368 0.102482L6.83601 4.28048C4.84419 4.94259 3.11164 6.21549 1.88448 7.91836C0.657318 9.62124 -0.00206214 11.6675 4.84475e-06 13.7665V24.0005C4.84475e-06 39.1265 18.4 47.4805 19.188 47.8285C19.4436 47.9421 19.7203 48.0007 20 48.0007C20.2797 48.0007 20.5564 47.9421 20.812 47.8285C21.6 47.4805 40 39.1265 40 24.0005V13.7665C40.0019 11.6673 39.3423 9.62081 38.1147 7.9179C36.8872 6.215 35.1542 4.94224 33.162 4.28048ZM36 24.0005C36 34.9105 23.362 42.0665 20 43.7785C16.634 42.0725 4 34.9385 4 24.0005V13.7665C3.99998 12.5073 4.39612 11.28 5.13232 10.2584C5.86853 9.23686 6.90747 8.47281 8.10201 8.07448L20 4.10848L31.896 8.07448C33.0909 8.47247 34.1303 9.23637 34.8669 10.258C35.6035 11.2796 35.9999 12.507 36 13.7665V24.0005Z" fill="#EAE440"/>
<path d="M17.539 13.9239C17.539 15.3683 16.3681 16.5393 14.9237 16.5393C13.4793 16.5393 12.3083 15.3683 12.3083 13.9239C12.3083 12.4795 13.4793 11.3086 14.9237 11.3086C16.3681 11.3086 17.539 12.4795 17.539 13.9239Z" fill="#001853"/>
<path d="M27.9997 29.6114C27.9997 31.0559 26.8288 32.2268 25.3844 32.2268C23.9399 32.2268 22.769 31.0559 22.769 29.6114C22.769 28.167 23.9399 26.9961 25.3844 26.9961C26.8288 26.9961 27.9997 28.167 27.9997 29.6114Z" fill="#001853"/>
<path fill-rule="evenodd" clip-rule="evenodd" d="M27.4025 10.21C28.009 10.6023 28.1824 11.4119 27.7901 12.0182L13.4057 34.2485C13.0134 34.855 12.2038 35.0284 11.5974 34.6361C10.9911 34.2438 10.8176 33.434 11.2099 32.8278L25.5942 10.5974C25.9865 9.99108 26.7962 9.81761 27.4025 10.21Z" fill="#001853"/>
</svg>
