<svg width="48" height="48" viewBox="0 0 48 48" fill="none" xmlns="http://www.w3.org/2000/svg">
<path d="M34.8333 37H9.16667C6.73641 36.9971 4.40652 36.0414 2.68807 34.3425C0.969617 32.6436 0.00291107 30.3401 0 27.9375L0 17.0625C0.00291107 14.6599 0.969617 12.3564 2.68807 10.6575C4.40652 8.9586 6.73641 8.00288 9.16667 8H34.8333C37.2636 8.00288 39.5935 8.9586 41.3119 10.6575C43.0304 12.3564 43.9971 14.6599 44 17.0625V27.9375C43.9971 30.3401 43.0304 32.6436 41.3119 34.3425C39.5935 36.0414 37.2636 36.9971 34.8333 37ZM9.16667 11.625C7.70798 11.625 6.30903 12.1979 5.27758 13.2176C4.24613 14.2373 3.66667 15.6204 3.66667 17.0625V27.9375C3.66667 29.3796 4.24613 30.7627 5.27758 31.7824C6.30903 32.8021 7.70798 33.375 9.16667 33.375H34.8333C36.292 33.375 37.691 32.8021 38.7224 31.7824C39.7539 30.7627 40.3333 29.3796 40.3333 27.9375V17.0625C40.3333 15.6204 39.7539 14.2373 38.7224 13.2176C37.691 12.1979 36.292 11.625 34.8333 11.625H9.16667ZM22 29.75C20.5496 29.75 19.1318 29.3248 17.9258 28.5282C16.7199 27.7315 15.7799 26.5992 15.2249 25.2745C14.6698 23.9497 14.5246 22.492 14.8076 21.0856C15.0905 19.6792 15.789 18.3874 16.8146 17.3735C17.8401 16.3595 19.1468 15.669 20.5693 15.3893C21.9919 15.1096 23.4664 15.2531 24.8063 15.8019C26.1463 16.3506 27.2916 17.2799 28.0974 18.4721C28.9032 19.6644 29.3333 21.0661 29.3333 22.5C29.3333 24.4228 28.5607 26.2669 27.1855 27.6265C25.8102 28.9862 23.9449 29.75 22 29.75ZM22 18.875C21.2748 18.875 20.5659 19.0876 19.9629 19.4859C19.3599 19.8842 18.89 20.4504 18.6124 21.1128C18.3349 21.7752 18.2623 22.504 18.4038 23.2072C18.5453 23.9104 18.8945 24.5563 19.4073 25.0633C19.9201 25.5702 20.5734 25.9155 21.2847 26.0553C21.9959 26.1952 22.7332 26.1234 23.4032 25.8491C24.0732 25.5747 24.6458 25.1101 25.0487 24.5139C25.4516 23.9178 25.6667 23.217 25.6667 22.5C25.6667 21.5386 25.2804 20.6166 24.5927 19.9367C23.9051 19.2569 22.9725 18.875 22 18.875ZM9.16667 15.25C8.80407 15.25 8.44961 15.3563 8.14812 15.5555C7.84663 15.7546 7.61165 16.0377 7.47289 16.3689C7.33413 16.7001 7.29782 17.0645 7.36856 17.4161C7.4393 17.7677 7.61391 18.0906 7.8703 18.3441C8.1267 18.5976 8.45337 18.7702 8.809 18.8402C9.16463 18.9101 9.53325 18.8742 9.86825 18.737C10.2033 18.5998 10.4896 18.3675 10.691 18.0695C10.8925 17.7714 11 17.421 11 17.0625C11 16.5818 10.8068 16.1208 10.463 15.7809C10.1192 15.441 9.6529 15.25 9.16667 15.25ZM33 17.0625C33 17.421 33.1075 17.7714 33.309 18.0695C33.5104 18.3675 33.7968 18.5998 34.1317 18.737C34.4667 18.8742 34.8354 18.9101 35.191 18.8402C35.5466 18.7702 35.8733 18.5976 36.1297 18.3441C36.3861 18.0906 36.5607 17.7677 36.6314 17.4161C36.7022 17.0645 36.6659 16.7001 36.5271 16.3689C36.3884 16.0377 36.1534 15.7546 35.8519 15.5555C35.5504 15.3563 35.1959 15.25 34.8333 15.25C34.3471 15.25 33.8808 15.441 33.537 15.7809C33.1932 16.1208 33 16.5818 33 17.0625ZM9.16667 26.125C8.80407 26.125 8.44961 26.2313 8.14812 26.4305C7.84663 26.6296 7.61165 26.9127 7.47289 27.2439C7.33413 27.5751 7.29782 27.9395 7.36856 28.2911C7.4393 28.6427 7.61391 28.9656 7.8703 29.2191C8.1267 29.4726 8.45337 29.6452 8.809 29.7152C9.16463 29.7851 9.53325 29.7492 9.86825 29.612C10.2033 29.4748 10.4896 29.2425 10.691 28.9445C10.8925 28.6464 11 28.296 11 27.9375C11 27.4568 10.8068 26.9958 10.463 26.6559C10.1192 26.316 9.6529 26.125 9.16667 26.125ZM33 27.9375C33 28.296 33.1075 28.6464 33.309 28.9445C33.5104 29.2425 33.7968 29.4748 34.1317 29.612C34.4667 29.7492 34.8354 29.7851 35.191 29.7152C35.5466 29.6452 35.8733 29.4726 36.1297 29.2191C36.3861 28.9656 36.5607 28.6427 36.6314 28.2911C36.7022 27.9395 36.6659 27.5751 36.5271 27.2439C36.3884 26.9127 36.1534 26.6296 35.8519 26.4305C35.5504 26.2313 35.1959 26.125 34.8333 26.125C34.3471 26.125 33.8808 26.316 33.537 26.6559C33.1932 26.9958 33 27.4568 33 27.9375Z" fill="#EAE440"/>
<path d="M44.7776 26.4268L40.7054 25.0342C40.5721 24.9886 40.4279 24.9886 40.2946 25.0342L36.2224 26.4268C35.5749 26.6474 35.0117 27.0716 34.6127 27.6393C34.2138 28.2069 33.9994 28.889 34 29.5888V33C34 38.042 39.98 40.8266 40.2361 40.9426C40.3192 40.9804 40.4091 41 40.5 41C40.5909 41 40.6808 40.9804 40.7639 40.9426C41.02 40.8266 47 38.042 47 33V29.5888C47.0006 28.889 46.7862 28.2069 46.3873 27.6393C45.9883 27.0716 45.4251 26.6474 44.7776 26.4268ZM45.7 33C45.7 36.6366 41.5926 39.0219 40.5 39.5926C39.4061 39.0239 35.3 36.646 35.3 33V29.5888C35.3 29.1689 35.4289 28.7598 35.6683 28.4193C35.9077 28.0787 36.2455 27.8241 36.6338 27.6915L40.5 26.3695L44.3662 27.6915C44.7545 27.8241 45.0923 28.0787 45.3317 28.4193C45.5711 28.7598 45.7 29.1689 45.7 29.5888V33Z" fill="#001853" stroke="#001853"/>
<path d="M42.7868 30.2242L39.8204 33.4356L38.231 31.6464C38.1672 31.5711 38.0901 31.5104 38.0042 31.4677C37.9184 31.4251 37.8254 31.4015 37.731 31.3982C37.6365 31.3949 37.5424 31.4121 37.4542 31.4487C37.366 31.4853 37.2854 31.5406 37.2173 31.6114C37.1492 31.6821 37.0949 31.7668 37.0575 31.8605C37.0202 31.9543 37.0007 32.0551 37 32.1572C36.9994 32.2592 37.0176 32.3603 37.0538 32.4546C37.0899 32.5489 37.1431 32.6344 37.2103 32.7062L38.8437 34.5412C38.9655 34.6833 39.1127 34.7971 39.2765 34.876C39.4402 34.9548 39.6171 34.997 39.7964 35H39.8197C39.9954 35.0006 40.1695 34.9636 40.3318 34.891C40.4941 34.8184 40.6415 34.7117 40.7653 34.5772L43.7912 31.3107C43.8573 31.2395 43.9098 31.155 43.9456 31.0619C43.9814 30.9688 43.9999 30.8691 44 30.7683C44.0001 30.6675 43.9818 30.5677 43.9462 30.4745C43.9105 30.3814 43.8582 30.2967 43.7923 30.2254C43.7263 30.154 43.648 30.0974 43.5618 30.0587C43.4756 30.0201 43.3832 30.0001 43.2898 30C43.1964 29.9999 43.104 30.0196 43.0177 30.0581C42.9314 30.0966 42.8529 30.153 42.7868 30.2242Z" fill="#001853" stroke="#001853"/>
</svg>
