<svg width="48" height="48" viewBox="0 0 48 48" fill="none" xmlns="http://www.w3.org/2000/svg">
<g clip-path="url(#clip0_34_8097)">
<path d="M34.0003 28C34.0003 28.5305 33.7896 29.0392 33.4145 29.4143C33.0394 29.7893 32.5307 30 32.0003 30H16.0003C15.4699 30 14.9612 29.7893 14.5861 29.4143C14.211 29.0392 14.0003 28.5305 14.0003 28C14.0003 27.4696 14.211 26.9609 14.5861 26.5858C14.9612 26.2108 15.4699 26 16.0003 26H32.0003C32.5307 26 33.0394 26.2108 33.4145 26.5858C33.7896 26.9609 34.0003 27.4696 34.0003 28ZM26.0003 34H16.0003C15.4699 34 14.9612 34.2108 14.5861 34.5858C14.211 34.9609 14.0003 35.4696 14.0003 36C14.0003 36.5305 14.211 37.0392 14.5861 37.4143C14.9612 37.7893 15.4699 38 16.0003 38H26.0003C26.5307 38 27.0394 37.7893 27.4145 37.4143C27.7896 37.0392 28.0003 36.5305 28.0003 36C28.0003 35.4696 27.7896 34.9609 27.4145 34.5858C27.0394 34.2108 26.5307 34 26.0003 34ZM44.0003 20.97V38C43.9971 40.6512 42.9425 43.1929 41.0679 45.0676C39.1932 46.9423 36.6515 47.9969 34.0003 48H14.0003C11.3491 47.9969 8.80742 46.9423 6.93274 45.0676C5.05807 43.1929 4.00348 40.6512 4.00031 38V10C4.00348 7.34886 5.05807 4.80716 6.93274 2.93249C8.80742 1.05781 11.3491 0.00322181 14.0003 4.60973e-05H23.0303C24.8695 -0.00468775 26.6915 0.355222 28.3908 1.05896C30.09 1.76271 31.633 2.79632 32.9303 4.10005L39.8983 11.072C41.2028 12.3685 42.237 13.911 42.9412 15.61C43.6453 17.309 44.0053 19.1309 44.0003 20.97ZM30.1023 6.92805C29.4729 6.31837 28.7662 5.79389 28.0003 5.36805V14C28.0003 14.5305 28.211 15.0392 28.5861 15.4143C28.9612 15.7893 29.4699 16 30.0003 16H38.6323C38.2062 15.2344 37.681 14.5283 37.0703 13.9L30.1023 6.92805ZM40.0003 20.97C40.0003 20.64 39.9363 20.324 39.9063 20H30.0003C28.409 20 26.8829 19.3679 25.7577 18.2427C24.6324 17.1175 24.0003 15.5913 24.0003 14V4.09405C23.6763 4.06405 23.3583 4.00005 23.0303 4.00005H14.0003C12.409 4.00005 10.8829 4.63219 9.75766 5.75741C8.63245 6.88262 8.00031 8.40875 8.00031 10V38C8.00031 39.5913 8.63245 41.1175 9.75766 42.2427C10.8829 43.3679 12.409 44 14.0003 44H34.0003C35.5916 44 37.1177 43.3679 38.2429 42.2427C39.3682 41.1175 40.0003 39.5913 40.0003 38V20.97Z" fill="#EAE440"/>
</g>
<defs>
<clipPath id="clip0_34_8097">
<rect width="48" height="48" fill="white"/>
</clipPath>
</defs>
</svg>
