<svg width="54" height="48" viewBox="0 0 54 48" fill="none" xmlns="http://www.w3.org/2000/svg">
<path d="M42.1538 26.0002H39.704C37.938 21.8443 35.2195 18.1617 31.7677 15.2497C30.1226 13.9048 28.0635 13.1691 25.9384 13.167H21.6695L20.3713 8.24457C20.1805 7.52111 19.849 6.8423 19.3957 6.24692C18.9425 5.65154 18.3764 5.15124 17.7298 4.77459C17.0832 4.39794 16.3687 4.1523 15.6271 4.05172C14.8856 3.95113 14.1314 3.99757 13.4078 4.18836C12.6842 4.37916 12.0053 4.71059 11.4098 5.16372C10.8142 5.61686 10.3138 6.18282 9.93711 6.8293C9.56038 7.47579 9.3147 8.19012 9.21409 8.93154C9.11349 9.67295 9.15993 10.4269 9.35077 11.1504L9.88987 13.167H7.3337C6.84737 13.167 6.38096 13.3602 6.03708 13.704C5.69319 14.0478 5.5 14.5141 5.5 15.0003C5.5 15.4866 5.69319 15.9529 6.03708 16.2967C6.38096 16.6405 6.84737 16.8337 7.3337 16.8337H25.9384C27.2179 16.837 28.457 17.2819 29.4463 18.0931C32.0395 20.2758 34.1534 22.971 35.6552 26.0094H34.1515C33.0494 26.0012 31.9696 26.3203 31.0489 26.926L27.4109 29.3497C27.1139 29.5524 26.7637 29.6627 26.4042 29.6669H7.3337C6.84737 29.6669 6.38096 29.86 6.03708 30.2038C5.69319 30.5476 5.5 31.0139 5.5 31.5002C5.5 31.9864 5.69319 32.4527 6.03708 32.7965C6.38096 33.1403 6.84737 33.3335 7.3337 33.3335H26.4042C27.4895 33.3364 28.5514 33.0174 29.4554 32.4168L33.0917 29.9932C33.4001 29.7797 33.7693 29.6716 34.1442 29.6852H42.1556C42.778 29.683 43.3907 29.8391 43.9361 30.139C44.4814 30.4389 44.9415 30.8726 45.2729 31.3993C45.6092 31.9147 45.8067 32.5082 45.8462 33.1224C45.8858 33.7365 45.766 34.3504 45.4985 34.9046C44.1529 37.7254 42.0363 40.1079 39.3932 41.7764C36.7502 43.4449 33.6888 44.3314 30.563 44.3334H7.3337C6.84737 44.3334 6.38096 44.5265 6.03708 44.8703C5.69319 45.2141 5.5 45.6805 5.5 46.1667C5.5 46.6529 5.69319 47.1192 6.03708 47.463C6.38096 47.8069 6.84737 48 7.3337 48H30.563C34.3839 47.9922 38.1245 46.9034 41.3525 44.8595C44.5806 42.8157 47.1641 39.9002 48.8046 36.4501C49.3299 35.3316 49.5639 34.0986 49.485 32.8654C49.4062 31.6323 49.0169 30.4391 48.3534 29.3966C47.6899 28.3542 46.7737 27.4962 45.6899 26.9024C44.606 26.3086 43.3897 25.9983 42.1538 26.0002ZM12.9026 10.2117C12.7829 9.69739 12.8683 9.15664 13.1409 8.70428C13.4134 8.25192 13.8516 7.9236 14.3623 7.78901C14.8731 7.65443 15.4162 7.72419 15.8764 7.98349C16.3365 8.24278 16.6774 8.67119 16.8268 9.17773L17.8775 13.167H13.682L12.9026 10.2117ZM5.5 22.3336C5.5 21.8474 5.69319 21.3811 6.03708 21.0372C6.38096 20.6934 6.84737 20.5003 7.3337 20.5003H23.837C24.3233 20.5003 24.7897 20.6934 25.1336 21.0372C25.4775 21.3811 25.6707 21.8474 25.6707 22.3336C25.6707 22.8198 25.4775 23.2861 25.1336 23.6299C24.7897 23.9738 24.3233 24.1669 23.837 24.1669H7.3337C6.84737 24.1669 6.38096 23.9738 6.03708 23.6299C5.69319 23.2861 5.5 22.8198 5.5 22.3336ZM12.8348 40.6667C12.4721 40.6667 12.1176 40.5592 11.816 40.3578C11.5145 40.1563 11.2795 39.87 11.1407 39.535C11.0019 39.2 10.9656 38.8314 11.0363 38.4758C11.1071 38.1201 11.2817 37.7935 11.5382 37.5371C11.7946 37.2807 12.1214 37.1061 12.4771 37.0353C12.8328 36.9646 13.2015 37.0009 13.5365 37.1397C13.8716 37.2784 14.158 37.5134 14.3595 37.8149C14.5609 38.1164 14.6685 38.4708 14.6685 38.8334C14.6685 39.3197 14.4753 39.786 14.1314 40.1298C13.7875 40.4736 13.3211 40.6667 12.8348 40.6667ZM20.1696 40.6667C19.8069 40.6667 19.4524 40.5592 19.1508 40.3578C18.8493 40.1563 18.6143 39.87 18.4755 39.535C18.3367 39.2 18.3004 38.8314 18.3711 38.4758C18.4419 38.1201 18.6165 37.7935 18.873 37.5371C19.1294 37.2807 19.4561 37.1061 19.8118 37.0353C20.1675 36.9646 20.5362 37.0009 20.8713 37.1397C21.2064 37.2784 21.4928 37.5134 21.6942 37.8149C21.8957 38.1164 22.0033 38.4708 22.0033 38.8334C22.0033 39.3197 21.8101 39.786 21.4662 40.1298C21.1223 40.4736 20.6559 40.6667 20.1696 40.6667ZM27.5044 40.6667C27.1417 40.6667 26.7872 40.5592 26.4856 40.3578C26.1841 40.1563 25.949 39.87 25.8103 39.535C25.6715 39.2 25.6352 38.8314 25.7059 38.4758C25.7767 38.1201 25.9513 37.7935 26.2078 37.5371C26.4642 37.2807 26.7909 37.1061 27.1466 37.0353C27.5023 36.9646 27.871 37.0009 28.2061 37.1397C28.5412 37.2784 28.8275 37.5134 29.029 37.8149C29.2305 38.1164 29.3381 38.4708 29.3381 38.8334C29.3381 39.3197 29.1449 39.786 28.801 40.1298C28.4571 40.4736 27.9907 40.6667 27.5044 40.6667Z" fill="#EAE440"/>
<path d="M42.1939 4.50169C42.524 3.83277 43.4779 3.83277 43.808 4.50169L45.3291 7.58374L48.7304 8.07797C49.4685 8.18524 49.7633 9.09241 49.2291 9.6131L46.768 12.0121L47.349 15.3996C47.4751 16.1349 46.7034 16.6955 46.0431 16.3484L43.001 14.749L39.9588 16.3484C39.2985 16.6955 38.5268 16.1349 38.6529 15.3996L39.2339 12.0121L36.7728 9.6131C36.2386 9.09242 36.5334 8.18524 37.2716 8.07797L40.6728 7.58374L42.1939 4.50169Z" fill="#001853"/>
</svg>
