<svg width="48" height="48" viewBox="0 0 48 48" fill="none" xmlns="http://www.w3.org/2000/svg">
<g clip-path="url(#clip0_34_5643)">
<path d="M38 6H10C7.34881 6.00318 4.80712 7.05776 2.93244 8.93244C1.05776 10.8071 0.00317572 13.3488 0 16L0 28C0.00317572 30.6512 1.05776 33.1929 2.93244 35.0676C4.80712 36.9422 7.34881 37.9968 10 38H22V40H16C15.4696 40 14.9609 40.2107 14.5858 40.5858C14.2107 40.9609 14 41.4696 14 42C14 42.5304 14.2107 43.0391 14.5858 43.4142C14.9609 43.7893 15.4696 44 16 44H32C32.5304 44 33.0391 43.7893 33.4142 43.4142C33.7893 43.0391 34 42.5304 34 42C34 41.4696 33.7893 40.9609 33.4142 40.5858C33.0391 40.2107 32.5304 40 32 40H26V38H38C40.6512 37.9968 43.1929 36.9422 45.0676 35.0676C46.9422 33.1929 47.9968 30.6512 48 28V16C47.9968 13.3488 46.9422 10.8071 45.0676 8.93244C43.1929 7.05776 40.6512 6.00318 38 6ZM44 28C44 29.5913 43.3679 31.1174 42.2426 32.2426C41.1174 33.3679 39.5913 34 38 34H10C8.4087 34 6.88258 33.3679 5.75736 32.2426C4.63214 31.1174 4 29.5913 4 28V16C4 14.4087 4.63214 12.8826 5.75736 11.7574C6.88258 10.6321 8.4087 10 10 10H38C39.5913 10 41.1174 10.6321 42.2426 11.7574C43.3679 12.8826 44 14.4087 44 16V28Z" fill="#EAE440"/>
</g>
<defs>
<clipPath id="clip0_34_5643">
<rect width="48" height="48" fill="white"/>
</clipPath>
</defs>
</svg>
