<svg width="48" height="48" viewBox="0 0 48 48" fill="none" xmlns="http://www.w3.org/2000/svg">
<g clip-path="url(#clip0_34_5811)">
<path d="M24.0002 12C22.4179 12 20.8712 12.4692 19.5556 13.3482C18.24 14.2273 17.2147 15.4767 16.6092 16.9385C16.0036 18.4003 15.8452 20.0089 16.1539 21.5607C16.4626 23.1126 17.2245 24.538 18.3433 25.6569C19.4622 26.7757 20.8876 27.5376 22.4395 27.8463C23.9913 28.155 25.5998 27.9965 27.0617 27.391C28.5235 26.7855 29.7729 25.7602 30.6519 24.4446C31.531 23.129 32.0002 21.5823 32.0002 20C32.0002 17.8783 31.1573 15.8434 29.657 14.3431C28.1568 12.8429 26.1219 12 24.0002 12ZM24.0002 24C23.2091 24 22.4357 23.7654 21.7779 23.3259C21.1201 22.8864 20.6074 22.2616 20.3047 21.5307C20.0019 20.7998 19.9227 19.9956 20.077 19.2196C20.2314 18.4437 20.6124 17.731 21.1718 17.1716C21.7312 16.6122 22.4439 16.2312 23.2198 16.0769C23.9958 15.9225 24.8 16.0017 25.5309 16.3045C26.2618 16.6072 26.8865 17.1199 27.3261 17.7777C27.7656 18.4355 28.0002 19.2089 28.0002 20C28.0002 21.0609 27.5788 22.0783 26.8286 22.8284C26.0785 23.5786 25.0611 24 24.0002 24Z" fill="#001853"/>
<path d="M23.9998 48.0001C22.3157 48.0087 20.6541 47.6137 19.154 46.8482C17.6539 46.0827 16.359 44.9689 15.3778 43.6001C7.75583 33.0861 3.88983 25.1821 3.88983 20.1061C3.88983 14.7726 6.00856 9.65753 9.77991 5.88618C13.5513 2.11482 18.6663 -0.00390625 23.9998 -0.00390625C29.3333 -0.00390625 34.4484 2.11482 38.2197 5.88618C41.9911 9.65753 44.1098 14.7726 44.1098 20.1061C44.1098 25.1821 40.2438 33.0861 32.6218 43.6001C31.6406 44.9689 30.3458 46.0827 28.8457 46.8482C27.3456 47.6137 25.6839 48.0087 23.9998 48.0001ZM23.9998 4.36209C19.8247 4.36686 15.8219 6.02755 12.8696 8.97984C9.91728 11.9321 8.2566 15.9349 8.25183 20.1101C8.25183 24.1301 12.0378 31.5641 18.9098 41.0421C19.4932 41.8457 20.2586 42.4997 21.1433 42.9506C22.0279 43.4016 23.0068 43.6367 23.9998 43.6367C24.9928 43.6367 25.9717 43.4016 26.8564 42.9506C27.7411 42.4997 28.5064 41.8457 29.0898 41.0421C35.9618 31.5641 39.7478 24.1301 39.7478 20.1101C39.7431 15.9349 38.0824 11.9321 35.1301 8.97984C32.1778 6.02755 28.175 4.36686 23.9998 4.36209Z" fill="#EAE440"/>
</g>
<defs>
<clipPath id="clip0_34_5811">
<rect width="48" height="48" fill="white"/>
</clipPath>
</defs>
</svg>
