<svg width="48" height="48" viewBox="0 0 48 48" fill="none" xmlns="http://www.w3.org/2000/svg">
<path d="M32.9992 29.8C32.0051 29.8 31.1992 30.6059 31.1992 31.6C31.1992 32.5941 32.0051 33.4 32.9992 33.4H35.9992H38.9992C39.9933 33.4 40.7992 32.5941 40.7992 31.6C40.7992 30.6059 39.9933 29.8 38.9992 29.8H35.9992H32.9992ZM5.5 7C2.46243 7 0 9.46243 0 12.5V35.5C0 38.5376 2.46243 41 5.5 41H42.5C45.5376 41 48 38.5376 48 35.5V12.5C48 9.46243 45.5376 7 42.5 7H5.5ZM3 35.5V20H45V35.5C45 36.8807 43.8807 38 42.5 38H5.5C4.11929 38 3 36.8807 3 35.5ZM3 17V12.5C3 11.1193 4.11929 10 5.5 10H42.5C43.8807 10 45 11.1193 45 12.5V17H3Z" fill="#EAE440"/>
</svg>
