<svg width="48" height="48" viewBox="0 0 48 48" fill="none" xmlns="http://www.w3.org/2000/svg">
<path d="M18.583 4C9.49903 4 2.13504 11.2738 2.13504 20.2464C2.13504 22.7004 2.68697 25.0311 3.676 27.1204C3.11889 29.2823 2.49646 31.6929 2.0877 33.2753C1.57667 35.2537 3.38031 37.0534 5.38551 36.5773C7.0308 36.1867 9.55944 35.5872 11.8128 35.0566C13.8793 35.9796 16.1725 36.4928 18.583 36.4928C27.6669 36.4928 35.0309 29.219 35.0309 20.2464C35.0309 11.2738 27.6669 4 18.583 4ZM5.42463 20.2464C5.42463 13.0683 11.3158 7.24928 18.583 7.24928C25.8501 7.24928 31.7413 13.0683 31.7413 20.2464C31.7413 27.4245 25.8501 33.2435 18.583 33.2435C16.476 33.2435 14.4892 32.7555 12.7276 31.8893L12.1938 31.6268L11.6137 31.7632C9.59007 32.2391 7.25213 32.7927 5.49995 33.2084C5.93582 31.5206 6.51297 29.2846 7.01335 27.3421L7.16727 26.7445L6.88104 26.1965C5.95069 24.4155 5.42463 22.394 5.42463 20.2464ZM29.5483 42.9914C25.2294 42.9914 21.2992 41.3472 18.3644 38.6578C18.4372 38.6586 18.5101 38.6591 18.5831 38.6591C20.1576 38.6591 21.6866 38.4662 23.1471 38.1032C25.0417 39.1472 27.2247 39.7421 29.5483 39.7421C31.6553 39.7421 33.6421 39.2542 35.4037 38.388L35.9375 38.1255L36.5177 38.2619C38.5387 38.7371 40.8272 39.2276 42.5248 39.5823C42.1411 37.9565 41.6176 35.7804 41.118 33.8407L40.964 33.2432L41.2503 32.6952C42.1806 30.9141 42.7067 28.8927 42.7067 26.745C42.7067 22.1642 40.3074 18.1369 36.6825 15.8222C36.2912 14.2555 35.697 12.7678 34.9288 11.3878C41.3705 13.5894 45.9963 19.6336 45.9963 26.745C45.9963 29.1996 45.4441 31.5308 44.4546 33.6206C45.0095 35.804 45.5714 38.1694 45.9278 39.693C46.3762 41.6099 44.667 43.3451 42.7097 42.941C41.115 42.6118 38.6095 42.0836 36.3204 41.5544C34.2534 42.4779 31.9596 42.9914 29.5483 42.9914Z" fill="#EAE440"/>
<path d="M19 10C16.243 10 14 12.1972 14 14.898C14 15.5742 14.5596 16.1224 15.25 16.1224C15.9404 16.1224 16.5 15.5742 16.5 14.898C16.5 13.5497 17.6237 12.449 19 12.449C20.3763 12.449 21.5 13.5497 21.5 14.898C21.5 15.9646 21.2975 16.5602 21.0774 16.9395C20.8485 17.334 20.5414 17.607 20.0748 17.9879L19.9896 18.0572C19.558 18.4079 18.9707 18.8851 18.5239 19.5902C18.0247 20.378 17.75 21.3532 17.75 22.6531V23.4694C17.75 24.1457 18.3096 24.6939 19 24.6939C19.6904 24.6939 20.25 24.1457 20.25 23.4694V22.6531C20.25 21.708 20.444 21.2036 20.648 20.8817C20.8742 20.5247 21.1746 20.2779 21.6752 19.8693C22.1461 19.4849 22.7765 18.9671 23.2508 18.1497C23.7338 17.3173 24 16.2803 24 14.898C24 12.1972 21.757 10 19 10ZM19 30C19.9205 30 20.6667 29.269 20.6667 28.3673C20.6667 27.4657 19.9205 26.7347 19 26.7347C18.0795 26.7347 17.3333 27.4657 17.3333 28.3673C17.3333 29.269 18.0795 30 19 30Z" fill="#001853"/>
</svg>
