<svg width="60" height="48" viewBox="0 0 60 48" fill="none" xmlns="http://www.w3.org/2000/svg">
<g clip-path="url(#clip0_34_9485)">
<path d="M22.68 43.9168C18.8181 43.5639 15.1421 42.0959 12.0995 39.6914C9.05684 37.2869 6.7789 34.0497 5.54295 30.374C4.30699 26.6982 4.16634 22.7424 5.13811 18.9881C6.10988 15.2338 8.15216 11.843 11.0163 9.22852C13.8805 6.61403 17.4429 4.88861 21.2701 4.26232C25.0972 3.63603 29.0238 4.13589 32.5719 5.70104C36.1201 7.26618 39.1366 9.82911 41.2544 13.0778C43.3722 16.3265 44.4998 20.1208 44.5 23.9988C44.5 24.6128 44.47 25.2208 44.418 25.8208C44.3935 26.083 44.4211 26.3475 44.4991 26.5991C44.5771 26.8506 44.704 27.0843 44.8726 27.2866C45.0411 27.489 45.248 27.6561 45.4813 27.7783C45.7145 27.9005 45.9697 27.9754 46.232 27.9988C46.4941 28.0252 46.7589 27.9989 47.0108 27.9216C47.2626 27.8442 47.4965 27.7173 47.6986 27.5483C47.9008 27.3793 48.0671 27.1717 48.1879 26.9375C48.3087 26.7034 48.3815 26.4475 48.402 26.1848C48.466 25.4588 48.5 24.7328 48.5 23.9988C48.4998 19.345 47.1465 14.7917 44.605 10.8932C42.0635 6.99467 38.4434 3.91917 34.1854 2.0411C29.9274 0.163039 25.2152 -0.43656 20.6226 0.315306C16.0299 1.06717 11.7549 3.13807 8.31808 6.27586C4.88124 9.41366 2.4308 13.483 1.2651 17.9884C0.0994062 22.4938 0.268744 27.241 1.7525 31.6519C3.23625 36.0628 5.97042 39.9472 9.6221 42.8321C13.2738 45.7171 17.6855 47.4781 22.32 47.9008H22.502C23.0324 47.9244 23.5505 47.7363 23.9423 47.3779C24.334 47.0196 24.5674 46.5202 24.591 45.9898C24.6146 45.4594 24.4265 44.9413 24.0681 44.5495C23.7098 44.1578 23.2104 43.9244 22.68 43.9008V43.9168Z" fill="#EAE440"/>
<path d="M22.5004 14V23.172L17.0864 28.586C16.8954 28.7705 16.743 28.9912 16.6382 29.2352C16.5334 29.4792 16.4782 29.7416 16.4759 30.0072C16.4736 30.2727 16.5242 30.5361 16.6248 30.7819C16.7253 31.0277 16.8738 31.251 17.0616 31.4388C17.2494 31.6265 17.4727 31.7751 17.7185 31.8756C17.9643 31.9762 18.2276 32.0268 18.4932 32.0245C18.7588 32.0222 19.0212 31.967 19.2652 31.8622C19.5092 31.7574 19.7299 31.605 19.9144 31.414L25.9144 25.414C26.2895 25.039 26.5003 24.5304 26.5004 24V14C26.5004 13.4696 26.2897 12.9609 25.9146 12.5858C25.5395 12.2107 25.0308 12 24.5004 12C23.97 12 23.4612 12.2107 23.0862 12.5858C22.7111 12.9609 22.5004 13.4696 22.5004 14Z" fill="#001853"/>
<path d="M28.756 36.352H28.212C28.148 36.192 28.0733 36.0053 27.988 35.792C27.9133 35.5787 27.8333 35.3547 27.748 35.12C27.6627 34.8853 27.5827 34.656 27.508 34.432C27.4333 34.1973 27.3747 33.984 27.332 33.792C27.7053 33.472 28.18 33.1947 28.756 32.96C29.3427 32.7253 30.052 32.608 30.884 32.608C31.4707 32.608 31.9773 32.6827 32.404 32.832C32.8307 32.9813 33.1827 33.1893 33.46 33.456C33.748 33.7227 33.956 34.032 34.084 34.384C34.2227 34.736 34.292 35.1147 34.292 35.52C34.292 36.1707 34.1427 36.7893 33.844 37.376C33.5453 37.952 33.1773 38.496 32.74 39.008C32.3027 39.5093 31.8333 39.9787 31.332 40.416C30.8307 40.8427 30.3773 41.232 29.972 41.584L29.14 42.144V42.208L30.116 42.112H32.868L33.652 40.32H34.196C34.228 40.576 34.26 40.8747 34.292 41.216C34.3347 41.5573 34.372 41.904 34.404 42.256C34.436 42.5973 34.4627 42.928 34.484 43.248C34.5053 43.5573 34.516 43.808 34.516 44H27.188V42.976C27.4653 42.7307 27.78 42.448 28.132 42.128C28.484 41.7973 28.8413 41.44 29.204 41.056C29.5667 40.6613 29.924 40.2453 30.276 39.808C30.628 39.3707 30.9427 38.928 31.22 38.48C31.4973 38.0213 31.716 37.5573 31.876 37.088C32.0467 36.6187 32.132 36.16 32.132 35.712C32.132 35.1253 31.972 34.6507 31.652 34.288C31.3427 33.9147 30.9 33.728 30.324 33.728C30.1427 33.728 29.9773 33.7387 29.828 33.76C29.6893 33.7813 29.5293 33.8187 29.348 33.872L28.756 36.352ZM43.7549 44H38.8109V43.312C39.3335 43.1307 39.8242 43.0027 40.2829 42.928V41.12H35.5469V40.4L41.6749 32.608H42.5389V40.08H44.5069V41.12H42.5389V42.928C42.9549 43.0133 43.3602 43.1413 43.7549 43.312V44ZM40.2829 36.672L40.4429 35.552H40.3949L39.7869 36.672L37.4669 39.664L36.8269 40.192L37.9629 40.08H40.2829V36.672ZM49.6818 32.544L50.6418 32.944L44.8018 46.128L43.8577 45.712L49.6818 32.544ZM51.9658 36.304H51.4218C51.3684 36.08 51.3151 35.808 51.2618 35.488C51.2084 35.1573 51.1551 34.8267 51.1018 34.496C51.0591 34.1653 51.0218 33.8507 50.9898 33.552C50.9578 33.2427 50.9418 32.992 50.9418 32.8H58.4298V33.552C57.8538 34.448 57.3684 35.2907 56.9738 36.08C56.5791 36.8693 56.2484 37.6693 55.9818 38.48C55.7151 39.2907 55.4911 40.1387 55.3098 41.024C55.1391 41.9093 54.9898 42.9013 54.8618 44H52.5898C52.9738 42.4533 53.4698 40.9813 54.0778 39.584C54.6858 38.1867 55.4058 36.7787 56.2378 35.36L56.8298 34.592L56.0298 34.672H52.5898L51.9658 36.304Z" fill="#001853"/>
</g>
<defs>
<clipPath id="clip0_34_9485">
<rect width="59" height="48" fill="white" transform="translate(0.5)"/>
</clipPath>
</defs>
</svg>
