<svg width="48" height="48" viewBox="0 0 48 48" fill="none" xmlns="http://www.w3.org/2000/svg">
<path d="M38 40H10C7.34881 39.9968 4.80712 38.9422 2.93244 37.0676C1.05776 35.1929 0.00317572 32.6512 0 30L0 18C0.00317572 15.3488 1.05776 12.8071 2.93244 10.9324C4.80712 9.05776 7.34881 8.00318 10 8H38C40.6512 8.00318 43.1929 9.05776 45.0676 10.9324C46.9422 12.8071 47.9968 15.3488 48 18V30C47.9968 32.6512 46.9422 35.1929 45.0676 37.0676C43.1929 38.9422 40.6512 39.9968 38 40ZM10 12C8.4087 12 6.88258 12.6321 5.75736 13.7574C4.63214 14.8826 4 16.4087 4 18V30C4 31.5913 4.63214 33.1174 5.75736 34.2426C6.88258 35.3679 8.4087 36 10 36H38C39.5913 36 41.1174 35.3679 42.2426 34.2426C43.3679 33.1174 44 31.5913 44 30V18C44 16.4087 43.3679 14.8826 42.2426 13.7574C41.1174 12.6321 39.5913 12 38 12H10ZM24 32C22.4177 32 20.871 31.5308 19.5554 30.6518C18.2398 29.7727 17.2145 28.5233 16.609 27.0615C16.0035 25.5997 15.845 23.9911 16.1537 22.4393C16.4624 20.8874 17.2243 19.462 18.3431 18.3431C19.462 17.2243 20.8874 16.4624 22.4393 16.1537C23.9911 15.845 25.5997 16.0035 27.0615 16.609C28.5233 17.2145 29.7727 18.2398 30.6518 19.5554C31.5308 20.871 32 22.4177 32 24C32 26.1217 31.1571 28.1566 29.6569 29.6569C28.1566 31.1571 26.1217 32 24 32ZM24 20C23.2089 20 22.4355 20.2346 21.7777 20.6741C21.1199 21.1136 20.6072 21.7384 20.3045 22.4693C20.0017 23.2002 19.9225 24.0044 20.0769 24.7804C20.2312 25.5563 20.6122 26.269 21.1716 26.8284C21.731 27.3878 22.4437 27.7688 23.2196 27.9231C23.9956 28.0775 24.7998 27.9983 25.5307 27.6955C26.2616 27.3928 26.8864 26.8801 27.3259 26.2223C27.7654 25.5645 28 24.7911 28 24C28 22.9391 27.5786 21.9217 26.8284 21.1716C26.0783 20.4214 25.0609 20 24 20ZM10 16C9.60444 16 9.21776 16.1173 8.88886 16.3371C8.55996 16.5568 8.30362 16.8692 8.15224 17.2346C8.00087 17.6001 7.96126 18.0022 8.03843 18.3902C8.1156 18.7781 8.30608 19.1345 8.58579 19.4142C8.86549 19.6939 9.22186 19.8844 9.60982 19.9616C9.99778 20.0387 10.3999 19.9991 10.7654 19.8478C11.1308 19.6964 11.4432 19.44 11.6629 19.1111C11.8827 18.7822 12 18.3956 12 18C12 17.4696 11.7893 16.9609 11.4142 16.5858C11.0391 16.2107 10.5304 16 10 16ZM36 18C36 18.3956 36.1173 18.7822 36.3371 19.1111C36.5568 19.44 36.8692 19.6964 37.2346 19.8478C37.6001 19.9991 38.0022 20.0387 38.3902 19.9616C38.7781 19.8844 39.1345 19.6939 39.4142 19.4142C39.6939 19.1345 39.8844 18.7781 39.9616 18.3902C40.0387 18.0022 39.9991 17.6001 39.8478 17.2346C39.6964 16.8692 39.44 16.5568 39.1111 16.3371C38.7822 16.1173 38.3956 16 38 16C37.4696 16 36.9609 16.2107 36.5858 16.5858C36.2107 16.9609 36 17.4696 36 18ZM10 28C9.60444 28 9.21776 28.1173 8.88886 28.3371C8.55996 28.5568 8.30362 28.8692 8.15224 29.2346C8.00087 29.6001 7.96126 30.0022 8.03843 30.3902C8.1156 30.7781 8.30608 31.1345 8.58579 31.4142C8.86549 31.6939 9.22186 31.8844 9.60982 31.9616C9.99778 32.0387 10.3999 31.9991 10.7654 31.8478C11.1308 31.6964 11.4432 31.44 11.6629 31.1111C11.8827 30.7822 12 30.3956 12 30C12 29.4696 11.7893 28.9609 11.4142 28.5858C11.0391 28.2107 10.5304 28 10 28ZM36 30C36 30.3956 36.1173 30.7822 36.3371 31.1111C36.5568 31.44 36.8692 31.6964 37.2346 31.8478C37.6001 31.9991 38.0022 32.0387 38.3902 31.9616C38.7781 31.8844 39.1345 31.6939 39.4142 31.4142C39.6939 31.1345 39.8844 30.7781 39.9616 30.3902C40.0387 30.0022 39.9991 29.6001 39.8478 29.2346C39.6964 28.8692 39.44 28.5568 39.1111 28.3371C38.7822 28.1173 38.3956 28 38 28C37.4696 28 36.9609 28.2107 36.5858 28.5858C36.2107 28.9609 36 29.4696 36 30Z" fill="#EAE440"/>
<path d="M44.8013 42.8006L40.5768 38.576C41.728 37.168 42.294 35.3714 42.1578 33.5577C42.0215 31.7441 41.1934 30.0522 39.8446 28.832C38.4959 27.6119 36.7298 26.9568 34.9117 27.0022C33.0935 27.0477 31.3623 27.7902 30.0763 29.0763C28.7902 30.3623 28.0477 32.0935 28.0022 33.9117C27.9568 35.7298 28.6119 37.4959 29.832 38.8446C31.0522 40.1934 32.7441 41.0215 34.5577 41.1578C36.3714 41.294 38.168 40.728 39.576 39.5768L43.8006 43.8013C43.934 43.9303 44.1128 44.0016 44.2984 44C44.484 43.9984 44.6615 43.9239 44.7927 43.7927C44.9239 43.6615 44.9984 43.484 45 43.2984C45.0016 43.1128 44.9303 42.934 44.8013 42.8006ZM35.1002 39.7622C33.9803 39.7622 32.8856 39.4301 31.9545 38.808C31.0234 38.1858 30.2977 37.3015 29.8692 36.2669C29.4406 35.2323 29.3285 34.0939 29.547 32.9956C29.7654 31.8972 30.3047 30.8884 31.0965 30.0965C31.8884 29.3047 32.8972 28.7654 33.9956 28.547C35.0939 28.3285 36.2323 28.4406 37.2669 28.8692C38.3015 29.2977 39.1858 30.0234 39.808 30.9545C40.4301 31.8856 40.7622 32.9803 40.7622 34.1002C40.7605 35.6013 40.1634 37.0405 39.102 38.102C38.0405 39.1634 36.6013 39.7605 35.1002 39.7622Z" fill="#001853" stroke="#001853"/>
</svg>
