<svg width="48" height="48" viewBox="0 0 48 48" fill="none" xmlns="http://www.w3.org/2000/svg">
<g clip-path="url(#clip0_1_9414)">
<path d="M32 0H31.74C30.8449 0.00850363 29.978 0.314026 29.2754 0.868599C28.5728 1.42317 28.0742 2.19539 27.858 3.064C27.6265 3.90968 27.1235 4.65585 26.4264 5.18771C25.7293 5.71957 24.8768 6.00767 24 6.00767C23.1232 6.00767 22.2707 5.71957 21.5736 5.18771C20.8765 4.65585 20.3735 3.90968 20.142 3.064C19.9258 2.19539 19.4272 1.42317 18.7246 0.868599C18.022 0.314026 17.1551 0.00850363 16.26 0L16 0C13.3488 0.00317572 10.8071 1.05776 8.93244 2.93244C7.05776 4.80712 6.00318 7.34881 6 10V42C6 43.5913 6.63214 45.1174 7.75736 46.2426C8.88258 47.3679 10.4087 48 12 48H16.26C17.1551 47.9915 18.022 47.686 18.7246 47.1314C19.4272 46.5768 19.9258 45.8046 20.142 44.936C20.3735 44.0903 20.8765 43.3442 21.5736 42.8123C22.2707 42.2804 23.1232 41.9923 24 41.9923C24.8768 41.9923 25.7293 42.2804 26.4264 42.8123C27.1235 43.3442 27.6265 44.0903 27.858 44.936C28.0742 45.8046 28.5728 46.5768 29.2754 47.1314C29.978 47.686 30.8449 47.9915 31.74 48H36C37.5913 48 39.1174 47.3679 40.2426 46.2426C41.3679 45.1174 42 43.5913 42 42V10C41.9968 7.34881 40.9422 4.80712 39.0676 2.93244C37.1929 1.05776 34.6512 0.00317572 32 0V0ZM36 44L31.714 43.874C31.2443 42.1768 30.2276 40.6821 28.8218 39.6215C27.416 38.561 25.6996 37.9939 23.9387 38.0083C22.1777 38.0227 20.4708 38.6176 19.0824 39.701C17.6941 40.7843 16.702 42.2954 16.26 44H12C11.4696 44 10.9609 43.7893 10.5858 43.4142C10.2107 43.0391 10 42.5304 10 42V34H14C14.5304 34 15.0391 33.7893 15.4142 33.4142C15.7893 33.0391 16 32.5304 16 32C16 31.4696 15.7893 30.9609 15.4142 30.5858C15.0391 30.2107 14.5304 30 14 30H10V10C10 8.4087 10.6321 6.88258 11.7574 5.75736C12.8826 4.63214 14.4087 4 16 4L16.286 4.126C16.7544 5.81285 17.762 7.30009 19.1548 8.3607C20.5477 9.42132 22.2493 9.99704 24 10C25.7743 9.9849 27.4951 9.3906 28.9006 8.30753C30.3061 7.22445 31.3193 5.71189 31.786 4H32C33.5913 4 35.1174 4.63214 36.2426 5.75736C37.3679 6.88258 38 8.4087 38 10V30H34C33.4696 30 32.9609 30.2107 32.5858 30.5858C32.2107 30.9609 32 31.4696 32 32C32 32.5304 32.2107 33.0391 32.5858 33.4142C32.9609 33.7893 33.4696 34 34 34H38V42C38 42.5304 37.7893 43.0391 37.4142 43.4142C37.0391 43.7893 36.5304 44 36 44Z" fill="#EAE440"/>
<path d="M26.0001 30H22.0001C21.4697 30 20.961 30.2107 20.5859 30.5858C20.2108 30.9609 20.0001 31.4696 20.0001 32C20.0001 32.5304 20.2108 33.0392 20.5859 33.4142C20.961 33.7893 21.4697 34 22.0001 34H26.0001C26.5305 34 27.0392 33.7893 27.4143 33.4142C27.7894 33.0392 28.0001 32.5304 28.0001 32C28.0001 31.4696 27.7894 30.9609 27.4143 30.5858C27.0392 30.2107 26.5305 30 26.0001 30Z" fill="#EAE440"/>
</g>
<path d="M22.69 13.9832C23.1023 12.6723 24.8977 12.6723 25.31 13.9832C25.4944 14.5694 26.0232 14.9663 26.62 14.9663C27.9543 14.9663 28.5091 16.7301 27.4296 17.5403C26.9468 17.9026 26.7448 18.5448 26.9292 19.131C27.3415 20.4419 25.8891 21.532 24.8096 20.7218C24.3269 20.3595 23.6731 20.3595 23.1904 20.7218C22.1109 21.532 20.6585 20.4419 21.0708 19.131C21.2552 18.5448 21.0532 17.9026 20.5704 17.5403C19.4909 16.7301 20.0457 14.9663 21.38 14.9663C21.9768 14.9663 22.5056 14.5694 22.69 13.9832Z" stroke="#2D264B" stroke-width="1.5"/>
<defs>
<clipPath id="clip0_1_9414">
<rect width="48" height="48" fill="white"/>
</clipPath>
</defs>
</svg>
