<svg width="48" height="48" viewBox="0 0 48 48" fill="none" xmlns="http://www.w3.org/2000/svg">
<g clip-path="url(#clip0_1_6989)">
<path d="M47.4136 32.6481C47.0386 32.2731 46.5299 32.0625 45.9996 32.0625C45.4693 32.0625 44.9607 32.2731 44.5856 32.6481L33.3316 43.9041L27.9556 38.5981C27.5843 38.2175 27.077 38 26.5454 37.9934C26.0137 37.9869 25.5012 38.1918 25.1206 38.5631C24.74 38.9344 24.5225 39.4417 24.516 39.9733C24.5094 40.505 24.7143 41.0175 25.0856 41.3981L30.5736 46.7981C30.9179 47.1692 31.3336 47.4669 31.7959 47.6731C32.2582 47.8793 32.7575 47.9899 33.2636 47.9981H33.3296C33.8257 47.9997 34.3172 47.9028 34.7756 47.7129C35.2339 47.5231 35.65 47.244 35.9996 46.8921L47.4136 35.4761C47.7886 35.101 47.9992 34.5924 47.9992 34.0621C47.9992 33.5317 47.7886 33.0231 47.4136 32.6481Z" fill="#001853"/>
<path d="M22.18 43.9168C18.3181 43.5639 14.6421 42.0959 11.5995 39.6914C8.55684 37.2869 6.2789 34.0497 5.04295 30.374C3.80699 26.6982 3.66634 22.7424 4.63811 18.9881C5.60988 15.2338 7.65216 11.843 10.5163 9.22852C13.3805 6.61403 16.9429 4.88861 20.7701 4.26232C24.5972 3.63603 28.5238 4.13589 32.0719 5.70104C35.6201 7.26618 38.6366 9.82911 40.7544 13.0778C42.8722 16.3265 43.9998 20.1208 44 23.9988C44 24.6128 43.97 25.2208 43.918 25.8208C43.8935 26.083 43.9211 26.3475 43.9991 26.5991C44.0771 26.8506 44.204 27.0843 44.3726 27.2866C44.5411 27.489 44.748 27.6561 44.9813 27.7783C45.2145 27.9005 45.4697 27.9754 45.732 27.9988C45.9941 28.0252 46.2589 27.9989 46.5108 27.9216C46.7626 27.8442 46.9965 27.7173 47.1986 27.5483C47.4008 27.3793 47.5671 27.1717 47.6879 26.9375C47.8087 26.7034 47.8815 26.4475 47.902 26.1848C47.966 25.4588 48 24.7328 48 23.9988C47.9998 19.345 46.6465 14.7917 44.105 10.8932C41.5635 6.99467 37.9434 3.91917 33.6854 2.0411C29.4274 0.163039 24.7152 -0.43656 20.1226 0.315306C15.5299 1.06717 11.2549 3.13807 7.81808 6.27586C4.38124 9.41366 1.9308 13.483 0.765102 17.9884C-0.400594 22.4938 -0.231256 27.241 1.2525 31.6519C2.73625 36.0628 5.47042 39.9472 9.1221 42.8321C12.7738 45.7171 17.1855 47.4781 21.82 47.9008H22.002C22.5324 47.9244 23.0505 47.7363 23.4423 47.3779C23.834 47.0196 24.0674 46.5202 24.091 45.9898C24.1146 45.4594 23.9265 44.9413 23.5681 44.5495C23.2098 44.1578 22.7104 43.9244 22.18 43.9008V43.9168Z" fill="#EAE440"/>
<path d="M22.0004 14V23.172L16.5864 28.586C16.3954 28.7705 16.243 28.9912 16.1382 29.2352C16.0334 29.4792 15.9782 29.7416 15.9759 30.0072C15.9736 30.2727 16.0242 30.5361 16.1248 30.7819C16.2253 31.0277 16.3738 31.251 16.5616 31.4388C16.7494 31.6265 16.9727 31.7751 17.2185 31.8756C17.4643 31.9762 17.7276 32.0268 17.9932 32.0245C18.2588 32.0222 18.5212 31.967 18.7652 31.8622C19.0092 31.7574 19.2299 31.605 19.4144 31.414L25.4144 25.414C25.7895 25.039 26.0003 24.5304 26.0004 24V14C26.0004 13.4696 25.7897 12.9609 25.4146 12.5858C25.0395 12.2107 24.5308 12 24.0004 12C23.47 12 22.9612 12.2107 22.5862 12.5858C22.2111 12.9609 22.0004 13.4696 22.0004 14Z" fill="#001853"/>
</g>
<defs>
<clipPath id="clip0_1_6989">
<rect width="48" height="48" fill="white"/>
</clipPath>
</defs>
</svg>
