<svg width="48" height="48" viewBox="0 0 48 48" fill="none" xmlns="http://www.w3.org/2000/svg">
<path d="M6 11.25C6 8.35051 8.3505 6 11.25 6H36.75C39.6495 6 42 8.3505 42 11.25V24.0436C41.2196 23.544 40.3823 23.1255 39.5 22.7999V11.25C39.5 9.73122 38.2688 8.5 36.75 8.5H11.25C9.73122 8.5 8.5 9.73122 8.5 11.25V36.75C8.5 38.2688 9.73122 39.5 11.25 39.5H22.7999C23.1255 40.3823 23.544 41.2196 24.0436 42H11.25C8.35051 42 6 39.6495 6 36.75V11.25ZM10 21.5C10 19.0147 12.0147 17 14.5 17C16.9853 17 19 19.0147 19 21.5C19 23.9853 16.9853 26 14.5 26C12.0147 26 10 23.9853 10 21.5ZM14.5 19.5C13.3954 19.5 12.5 20.3954 12.5 21.5C12.5 22.6046 13.3954 23.5 14.5 23.5C15.6046 23.5 16.5 22.6046 16.5 21.5C16.5 20.3954 15.6046 19.5 14.5 19.5ZM14.5 29C12.0147 29 10 31.0147 10 33.5C10 35.9853 12.0147 38 14.5 38C16.9853 38 19 35.9853 19 33.5C19 31.0147 16.9853 29 14.5 29ZM12.5 33.5C12.5 32.3954 13.3954 31.5 14.5 31.5C15.6046 31.5 16.5 32.3954 16.5 33.5C16.5 34.6046 15.6046 35.5 14.5 35.5C13.3954 35.5 12.5 34.6046 12.5 33.5ZM21.0012 20.25C21.0012 19.5596 21.5609 19 22.2512 19H36.75C37.4404 19 38 19.5596 38 20.25C38 20.9404 37.4404 21.5 36.75 21.5H22.2512C21.5609 21.5 21.0012 20.9404 21.0012 20.25ZM11.2632 11.0952C10.5728 11.0952 10.0132 11.6549 10.0132 12.3452C10.0132 13.0356 10.5728 13.5952 11.2632 13.5952H36.7298C37.4202 13.5952 37.9798 13.0356 37.9798 12.3452C37.9798 11.6549 37.4202 11.0952 36.7298 11.0952H11.2632Z" fill="#EAE440"/>
<path d="M22 32H31" stroke="#EAE440" stroke-width="2.5" stroke-linecap="round"/>
<path d="M41.2353 25.7653C40.7821 25.3128 40.1678 25.0586 39.5273 25.0586C38.8869 25.0586 38.2726 25.3128 37.8193 25.7653L26.9767 36.608C26.6662 36.9167 26.42 37.284 26.2523 37.6885C26.0847 38.093 25.9989 38.5268 26 38.9646V40.3333C26 40.5101 26.0702 40.6797 26.1953 40.8047C26.3203 40.9297 26.4899 41 26.6667 41H28.0353C28.4732 41.0012 28.9069 40.9156 29.3114 40.748C29.716 40.5805 30.0832 40.3344 30.392 40.024L41.2353 29.1806C41.6877 28.7274 41.9417 28.1133 41.9417 27.473C41.9417 26.8327 41.6877 26.2185 41.2353 25.7653ZM29.4493 39.0813C29.0733 39.4548 28.5653 39.6651 28.0353 39.6666H27.3333V38.9646C27.3327 38.7019 27.3841 38.4416 27.4847 38.1989C27.5853 37.9562 27.733 37.7359 27.9193 37.5506L36.148 29.322L37.6813 30.8553L29.4493 39.0813ZM40.292 28.238L38.6213 29.9093L37.088 28.3793L38.7593 26.708C38.86 26.6075 38.9795 26.5279 39.111 26.4736C39.2424 26.4193 39.3833 26.3914 39.5255 26.3916C39.6678 26.3917 39.8086 26.4199 39.9399 26.4745C40.0712 26.529 40.1905 26.609 40.291 26.7096C40.3915 26.8103 40.4711 26.9298 40.5254 27.0613C40.5797 27.1927 40.6076 27.3336 40.6074 27.4758C40.6072 27.618 40.5791 27.7588 40.5245 27.8902C40.4699 28.0215 40.39 28.1408 40.2893 28.2413L40.292 28.238Z" fill="#001853"/>
</svg>
