<svg width="48" height="48" viewBox="0 0 48 48" fill="none" xmlns="http://www.w3.org/2000/svg">
<g clip-path="url(#clip0_34_5745)">
<path d="M46 40C45.4696 40 44.9609 40.2107 44.5858 40.5858C44.2107 40.9609 44 41.4696 44 42C44 42.688 42.636 44 40.5 44C39.9 44.0211 39.3028 43.9084 38.7517 43.67C38.2007 43.4317 37.7095 43.0737 37.314 42.622C37.3921 42.4945 37.4776 42.3716 37.57 42.254C40.8316 38.8334 43.0252 34.5361 43.882 29.888C44.1357 28.4896 43.8847 27.0465 43.1737 25.8159C42.4628 24.5852 41.3381 23.6469 40 23.168V18C40 15.8783 39.1571 13.8434 37.6569 12.3431C36.1566 10.8429 34.1217 10 32 10V8C32 5.87827 31.1571 3.84344 29.6569 2.34315C28.1566 0.842855 26.1217 0 24 0C21.8783 0 19.8434 0.842855 18.3431 2.34315C16.8429 3.84344 16 5.87827 16 8V10C13.8783 10 11.8434 10.8429 10.3431 12.3431C8.84285 13.8434 8 15.8783 8 18V23.142C6.64519 23.61 5.50267 24.5475 4.77923 25.7849C4.05579 27.0223 3.79924 28.4778 4.056 29.888C4.93431 34.5417 7.1492 38.8387 10.43 42.254C10.526 42.3747 10.6148 42.5009 10.696 42.632C10.3001 43.0852 9.80721 43.4435 9.25395 43.6804C8.7007 43.9172 8.10123 44.0264 7.5 44C5.322 44 4 42.612 4 42C4 41.4696 3.78929 40.9609 3.41421 40.5858C3.03914 40.2107 2.53043 40 2 40C1.46957 40 0.960859 40.2107 0.585786 40.5858C0.210714 40.9609 0 41.4696 0 42C0 45.252 3.436 48 7.5 48C9.52236 48.0183 11.4838 47.3084 13.026 46C14.5642 47.2846 16.5032 47.991 18.5072 47.9969C20.5113 48.0027 22.4543 47.3076 24 46.032C25.5513 47.3064 27.4982 48.0003 29.5058 47.9945C31.5134 47.9887 33.4562 47.2834 35 46C36.533 47.3014 38.4812 48.0108 40.492 48C44.564 48 48 45.252 48 42C48 41.4696 47.7893 40.9609 47.4142 40.5858C47.0391 40.2107 46.5304 40 46 40ZM20 8C20 6.93913 20.4214 5.92172 21.1716 5.17157C21.9217 4.42143 22.9391 4 24 4C25.0609 4 26.0783 4.42143 26.8284 5.17157C27.5786 5.92172 28 6.93913 28 8V10H20V8ZM16 14H32C33.0609 14 34.0783 14.4214 34.8284 15.1716C35.5786 15.9217 36 16.9391 36 18V21.84L25.896 18.524C24.6677 18.12 23.3423 18.12 22.114 18.524L12 21.826V18C12 16.9391 12.4214 15.9217 13.1716 15.1716C13.9217 14.4214 14.9391 14 16 14ZM18.5 44C17.8315 44.0366 17.165 43.8994 16.5653 43.6019C15.9656 43.3043 15.4532 42.8565 15.078 42.302C14.6614 41.3034 14.0889 40.3772 13.382 39.558C10.6248 36.7035 8.75522 33.1102 8 29.214C7.90765 28.7347 7.99054 28.2383 8.23356 27.815C8.47658 27.3917 8.86356 27.0699 9.324 26.908L22 22.766V42C22 42.688 20.636 44 18.5 44ZM29.5 44C27.322 44 26 42.612 26 42V22.768L38.61 26.906C39.072 27.0675 39.4606 27.3896 39.7051 27.8136C39.9496 28.2376 40.0337 28.7352 39.942 29.216C39.2086 33.107 37.3587 36.7004 34.618 39.558C33.9065 40.3783 33.3337 41.3092 32.922 42.314C32.5467 42.8675 32.0339 43.314 31.434 43.6096C30.834 43.9051 30.1676 44.0397 29.5 44Z" fill="#EAE440"/>
</g>
<defs>
<clipPath id="clip0_34_5745">
<rect width="48" height="48" fill="white"/>
</clipPath>
</defs>
</svg>
