<svg width="64" height="48" viewBox="0 0 64 48" fill="none" xmlns="http://www.w3.org/2000/svg">
<path d="M4.28394 21.616H3.33194C3.21994 21.336 3.08927 21.0093 2.93994 20.636C2.80927 20.2627 2.66927 19.8707 2.51994 19.46C2.3706 19.0493 2.2306 18.648 2.09994 18.256C1.96927 17.8453 1.8666 17.472 1.79194 17.136C2.44527 16.576 3.27594 16.0907 4.28394 15.68C5.3106 15.2693 6.55194 15.064 8.00794 15.064C9.0346 15.064 9.92127 15.1947 10.6679 15.456C11.4146 15.7173 12.0306 16.0813 12.5159 16.548C13.0199 17.0147 13.3839 17.556 13.6079 18.172C13.8506 18.788 13.9719 19.4507 13.9719 20.16C13.9719 21.2987 13.7106 22.3813 13.1879 23.408C12.6653 24.416 12.0213 25.368 11.2559 26.264C10.4906 27.1413 9.66927 27.9627 8.79194 28.728C7.9146 29.4747 7.12127 30.156 6.41194 30.772L4.95594 31.752V31.864L6.66394 31.696H11.4799L12.8519 28.56H13.8039C13.8599 29.008 13.9159 29.5307 13.9719 30.128C14.0466 30.7253 14.1119 31.332 14.1679 31.948C14.2239 32.5453 14.2706 33.124 14.3079 33.684C14.3453 34.2253 14.3639 34.664 14.3639 35H1.53994V33.208C2.02527 32.7787 2.57594 32.284 3.19194 31.724C3.80794 31.1453 4.43327 30.52 5.06794 29.848C5.7026 29.1573 6.32794 28.4293 6.94394 27.664C7.55994 26.8987 8.1106 26.124 8.59594 25.34C9.08127 24.5373 9.46394 23.7253 9.74394 22.904C10.0426 22.0827 10.1919 21.28 10.1919 20.496C10.1919 19.4693 9.91194 18.6387 9.35194 18.004C8.8106 17.3507 8.03594 17.024 7.02794 17.024C6.7106 17.024 6.42127 17.0427 6.15994 17.08C5.91727 17.1173 5.63727 17.1827 5.31994 17.276L4.28394 21.616ZM16.812 25.2C16.812 23.52 16.9893 22.0547 17.344 20.804C17.7173 19.5347 18.2213 18.48 18.856 17.64C19.5093 16.7813 20.2746 16.1373 21.152 15.708C22.048 15.2787 23.0186 15.064 24.064 15.064C26.304 15.064 28.0773 15.9133 29.384 17.612C30.6906 19.292 31.344 21.8213 31.344 25.2C31.344 26.88 31.1573 28.3547 30.784 29.624C30.4293 30.8747 29.916 31.9293 29.244 32.788C28.5906 33.628 27.8066 34.2627 26.892 34.692C25.9773 35.1213 24.9786 35.336 23.896 35.336C22.7573 35.336 21.7493 35.112 20.872 34.664C19.9946 34.1973 19.248 33.5347 18.632 32.676C18.0346 31.7987 17.5773 30.7347 17.26 29.484C16.9613 28.2333 16.812 26.8053 16.812 25.2ZM21.012 25.2C21.012 26.544 21.0493 27.748 21.124 28.812C21.2173 29.876 21.376 30.7813 21.6 31.528C21.824 32.256 22.1133 32.816 22.468 33.208C22.8413 33.6 23.308 33.796 23.868 33.796C24.5213 33.796 25.0533 33.6373 25.464 33.32C25.8933 33.0027 26.2293 32.4987 26.472 31.808C26.7333 31.1173 26.9106 30.2307 27.004 29.148C27.0973 28.0653 27.144 26.7493 27.144 25.2C27.144 23.856 27.1066 22.652 27.032 21.588C26.9573 20.524 26.808 19.628 26.584 18.9C26.3786 18.1533 26.0706 17.584 25.66 17.192C25.268 16.8 24.736 16.604 24.064 16.604C23.4666 16.604 22.972 16.7627 22.58 17.08C22.188 17.3973 21.8706 17.9013 21.628 18.592C21.404 19.2827 21.2453 20.1787 21.152 21.28C21.0586 22.3627 21.012 23.6693 21.012 25.2ZM45.048 35H35.36V33.796C35.8267 33.5907 36.2933 33.4133 36.76 33.264C37.2453 33.096 37.7307 32.956 38.216 32.844V19.992L38.328 18.34C37.8053 18.508 37.264 18.62 36.704 18.676C36.144 18.732 35.5653 18.7507 34.968 18.732L34.828 17.696C35.8173 17.4347 36.8907 17.08 38.048 16.632C39.224 16.184 40.3067 15.6613 41.296 15.064H42.248V32.844C42.7147 32.956 43.1813 33.096 43.648 33.264C44.1147 33.4133 44.5813 33.5907 45.048 33.796V35ZM62.84 28.98C62.84 29.9507 62.6534 30.828 62.28 31.612C61.9254 32.396 61.44 33.068 60.824 33.628C60.208 34.1693 59.48 34.5893 58.64 34.888C57.8187 35.1867 56.9414 35.336 56.008 35.336C54.8507 35.336 53.824 35.1587 52.928 34.804C52.0507 34.4307 51.3134 33.9173 50.716 33.264C50.1187 32.6107 49.6614 31.836 49.344 30.94C49.0454 30.044 48.896 29.064 48.896 28C48.896 26.2453 49.204 24.64 49.82 23.184C50.436 21.728 51.2667 20.44 52.312 19.32C53.3574 18.2 54.5707 17.2667 55.952 16.52C57.352 15.7733 58.836 15.232 60.404 14.896L60.824 16.1C59.816 16.4173 58.8827 16.8467 58.024 17.388C57.1654 17.9293 56.4 18.592 55.728 19.376C55.0747 20.1413 54.5334 21.0187 54.104 22.008C53.6934 22.9787 53.432 24.052 53.32 25.228C53.4694 24.9853 53.656 24.752 53.88 24.528C54.1227 24.2853 54.412 24.0707 54.748 23.884C55.084 23.6787 55.4667 23.52 55.896 23.408C56.344 23.2773 56.848 23.212 57.408 23.212C58.1734 23.212 58.8827 23.3333 59.536 23.576C60.208 23.8187 60.7867 24.1827 61.272 24.668C61.7574 25.1533 62.14 25.76 62.42 26.488C62.7 27.1973 62.84 28.028 62.84 28.98ZM58.64 29.316C58.64 26.5533 57.716 25.172 55.868 25.172C55.2334 25.172 54.692 25.34 54.244 25.676C53.796 25.9933 53.4694 26.3667 53.264 26.796C53.208 27.0573 53.1614 27.3653 53.124 27.72C53.1054 28.056 53.096 28.3827 53.096 28.7C53.096 29.3347 53.152 29.9507 53.264 30.548C53.376 31.1267 53.5534 31.6493 53.796 32.116C54.0387 32.564 54.3467 32.928 54.72 33.208C55.112 33.488 55.5787 33.628 56.12 33.628C56.5867 33.628 56.9787 33.516 57.296 33.292C57.6134 33.0493 57.8654 32.732 58.052 32.34C58.2574 31.948 58.4067 31.4907 58.5 30.968C58.5934 30.4453 58.64 29.8947 58.64 29.316Z" fill="#EAE440"/>
</svg>
