<svg width="48" height="48" viewBox="0 0 48 48" fill="none" xmlns="http://www.w3.org/2000/svg">
<path d="M30.5 30.988C32.9853 30.988 35 33.0018 35 35.486V38.4887L34.9842 38.7055C34.3627 42.9561 30.543 45 24.1336 45C17.7472 45 13.8666 42.9795 13.0289 38.7778L13 38.4847V35.486C13 33.0018 15.0147 30.988 17.5 30.988H30.5ZM30.5 33.9867H17.5C16.6716 33.9867 16 34.6579 16 35.486V38.3255C16.5596 40.7253 19.1013 42.0013 24.1336 42.0013C29.1657 42.0013 31.5933 40.7392 32 38.3711V35.486C32 34.6579 31.3284 33.9867 30.5 33.9867ZM32.4871 18.9909L43.5 18.9931C45.9853 18.9931 48 21.007 48 23.4912V26.4938L47.9842 26.7107C47.3627 30.9613 43.543 33.0052 37.1336 33.0052L36.5039 32.9984C35.9138 31.5719 34.8302 30.4038 33.4667 29.7035C34.4963 29.9052 35.7162 30.0065 37.1336 30.0065C42.1657 30.0065 44.5933 28.7443 45 26.3762V23.4912C45 22.6631 44.3284 21.9918 43.5 21.9918H33C33 20.9396 32.8193 19.9295 32.4871 18.9909ZM4.5 18.9931L15.5129 18.9909C15.2361 19.7731 15.0645 20.6049 15.0149 21.4693L15 21.9918H4.5C3.67157 21.9918 3 22.6631 3 23.4912V26.3307C3.55958 28.7305 6.10125 30.0065 11.1336 30.0065C12.3777 30.0065 13.4627 29.9293 14.3972 29.7774C13.0957 30.4838 12.0639 31.6225 11.4927 33.0002L11.1336 33.0052C4.74722 33.0052 0.866603 30.9846 0.0289254 26.7829L0 26.4899V23.4912C0 21.007 2.01472 18.9931 4.5 18.9931ZM24 14.9948C27.866 14.9948 31 18.1275 31 21.9918C31 25.8562 27.866 28.9888 24 28.9888C20.134 28.9888 17 25.8562 17 21.9918C17 18.1275 20.134 14.9948 24 14.9948ZM24 17.9935C21.7909 17.9935 20 19.7836 20 21.9918C20 24.2 21.7909 25.9901 24 25.9901C26.2091 25.9901 28 24.2 28 21.9918C28 19.7836 26.2091 17.9935 24 17.9935ZM37 3C40.866 3 44 6.13266 44 9.99699C44 13.8613 40.866 16.994 37 16.994C33.134 16.994 30 13.8613 30 9.99699C30 6.13266 33.134 3 37 3ZM11 3C14.866 3 18 6.13266 18 9.99699C18 13.8613 14.866 16.994 11 16.994C7.13401 16.994 4 13.8613 4 9.99699C4 6.13266 7.13401 3 11 3ZM37 5.99871C34.7909 5.99871 33 7.7888 33 9.99699C33 12.2052 34.7909 13.9953 37 13.9953C39.2091 13.9953 41 12.2052 41 9.99699C41 7.7888 39.2091 5.99871 37 5.99871ZM11 5.99871C8.79086 5.99871 7 7.7888 7 9.99699C7 12.2052 8.79086 13.9953 11 13.9953C13.2091 13.9953 15 12.2052 15 9.99699C15 7.7888 13.2091 5.99871 11 5.99871Z" fill="#EAE440"/>
</svg>
