<svg width="54" height="48" viewBox="0 0 54 48" fill="none" xmlns="http://www.w3.org/2000/svg">
<g clip-path="url(#clip0_34_9915)">
<path d="M40.7363 24.0005H38.0643C36.1382 19.4667 33.1731 15.4492 29.4083 12.2725C27.614 10.8053 25.3681 10.0028 23.0503 10.0005H18.3943L16.9783 4.63049C16.7702 3.84125 16.4086 3.10073 15.9143 2.45121C15.4199 1.8017 14.8025 1.25591 14.0972 0.845015C13.392 0.434116 12.6127 0.166151 11.8039 0.0564217C10.9951 -0.053308 10.1725 -0.00265422 9.3833 0.205491C8.59406 0.413636 7.85354 0.775196 7.20403 1.26953C6.55451 1.76386 6.00872 2.38128 5.59783 3.08654C5.18693 3.7918 4.91896 4.57109 4.80923 5.37991C4.6995 6.18873 4.75016 7.01125 4.9583 7.80049L5.5463 10.0005H2.7583C2.22787 10.0005 1.71916 10.2112 1.34409 10.5863C0.969015 10.9614 0.758301 11.4701 0.758301 12.0005C0.758301 12.5309 0.969015 13.0396 1.34409 13.4147C1.71916 13.7898 2.22787 14.0005 2.7583 14.0005H23.0503C24.4458 14.0041 25.7973 14.4895 26.8763 15.3745C29.7047 17.7556 32.0103 20.6958 33.6483 24.0105H32.0083C30.8062 24.0016 29.6285 24.3496 28.6243 25.0105L24.6563 27.6545C24.3324 27.8756 23.9504 27.996 23.5583 28.0005H2.7583C2.22787 28.0005 1.71916 28.2112 1.34409 28.5863C0.969015 28.9613 0.758301 29.4701 0.758301 30.0005C0.758301 30.5309 0.969015 31.0396 1.34409 31.4147C1.71916 31.7898 2.22787 32.0005 2.7583 32.0005H23.5583C24.7421 32.0037 25.9003 31.6557 26.8863 31.0005L30.8523 28.3565C31.1887 28.1236 31.5914 28.0057 32.0003 28.0205H40.7383C41.4171 28.0181 42.0854 28.1885 42.6802 28.5156C43.2751 28.8427 43.7768 29.3159 44.1383 29.8905C44.5051 30.4527 44.7205 31.1002 44.7636 31.7702C44.8067 32.4401 44.6761 33.1099 44.3843 33.7145C42.9168 36.7918 40.6081 39.3908 37.7254 41.211C34.8427 43.0313 31.5036 43.9984 28.0943 44.0005H2.7583C2.22787 44.0005 1.71916 44.2112 1.34409 44.5863C0.969015 44.9613 0.758301 45.4701 0.758301 46.0005C0.758301 46.5309 0.969015 47.0396 1.34409 47.4147C1.71916 47.7898 2.22787 48.0005 2.7583 48.0005H28.0943C32.2617 47.9919 36.3416 46.8042 39.8624 44.5745C43.3832 42.3448 46.201 39.1643 47.9903 35.4005C48.5632 34.1803 48.8185 32.8351 48.7325 31.4899C48.6464 30.1447 48.2219 28.843 47.4982 27.7057C46.7745 26.5684 45.7752 25.6325 44.5931 24.9847C43.4109 24.3369 42.0843 23.9984 40.7363 24.0005ZM8.8323 6.77649C8.70166 6.2154 8.79486 5.62548 9.09213 5.13199C9.38939 4.63851 9.8673 4.28033 10.4244 4.13351C10.9815 3.98669 11.5738 4.0628 12.0757 4.34567C12.5776 4.62854 12.9494 5.09589 13.1123 5.64849L14.2583 10.0005H9.6823L8.8323 6.77649ZM0.758301 20.0005C0.758301 19.4701 0.969015 18.9613 1.34409 18.5863C1.71916 18.2112 2.22787 18.0005 2.7583 18.0005H20.7583C21.2887 18.0005 21.7974 18.2112 22.1725 18.5863C22.5476 18.9613 22.7583 19.4701 22.7583 20.0005C22.7583 20.5309 22.5476 21.0396 22.1725 21.4147C21.7974 21.7898 21.2887 22.0005 20.7583 22.0005H2.7583C2.22787 22.0005 1.71916 21.7898 1.34409 21.4147C0.969015 21.0396 0.758301 20.5309 0.758301 20.0005ZM8.7583 40.0005C8.36274 40.0005 7.97606 39.8832 7.64716 39.6634C7.31826 39.4437 7.06192 39.1313 6.91054 38.7659C6.75917 38.4004 6.71956 37.9983 6.79673 37.6103C6.8739 37.2223 7.06438 36.866 7.34409 36.5863C7.62379 36.3066 7.98016 36.1161 8.36812 36.0389C8.75608 35.9618 9.15822 36.0014 9.52367 36.1527C9.88912 36.3041 10.2015 36.5605 10.4212 36.8894C10.641 37.2183 10.7583 37.6049 10.7583 38.0005C10.7583 38.5309 10.5476 39.0396 10.1725 39.4147C9.79744 39.7898 9.28873 40.0005 8.7583 40.0005ZM16.7583 40.0005C16.3627 40.0005 15.9761 39.8832 15.6472 39.6634C15.3183 39.4437 15.0619 39.1313 14.9105 38.7659C14.7592 38.4004 14.7196 37.9983 14.7967 37.6103C14.8739 37.2223 15.0644 36.866 15.3441 36.5863C15.6238 36.3066 15.9802 36.1161 16.3681 36.0389C16.7561 35.9618 17.1582 36.0014 17.5237 36.1527C17.8891 36.3041 18.2015 36.5605 18.4212 36.8894C18.641 37.2183 18.7583 37.6049 18.7583 38.0005C18.7583 38.5309 18.5476 39.0396 18.1725 39.4147C17.7974 39.7898 17.2887 40.0005 16.7583 40.0005ZM24.7583 40.0005C24.3627 40.0005 23.9761 39.8832 23.6472 39.6634C23.3183 39.4437 23.0619 39.1313 22.9105 38.7659C22.7592 38.4004 22.7196 37.9983 22.7967 37.6103C22.8739 37.2223 23.0644 36.866 23.3441 36.5863C23.6238 36.3066 23.9802 36.1161 24.3681 36.0389C24.7561 35.9618 25.1582 36.0014 25.5237 36.1527C25.8891 36.3041 26.2015 36.5605 26.4212 36.8894C26.641 37.2183 26.7583 37.6049 26.7583 38.0005C26.7583 38.5309 26.5476 39.0396 26.1725 39.4147C25.7974 39.7898 25.2887 40.0005 24.7583 40.0005Z" fill="#EAE440"/>
</g>
<path d="M53.3978 24.5856C53.0227 24.2106 52.5141 24 51.9838 24C51.4535 24 50.9449 24.2106 50.5698 24.5856L39.3158 35.8416L33.9398 30.5356C33.5685 30.155 33.0612 29.9375 32.5296 29.9309C31.9979 29.9244 31.4854 30.1293 31.1048 30.5006C30.7242 30.8719 30.5067 31.3792 30.5002 31.9108C30.4936 32.4425 30.6985 32.955 31.0698 33.3356L36.5578 38.7356C36.902 39.1067 37.3178 39.4044 37.7801 39.6106C38.2424 39.8168 38.7417 39.9274 39.2478 39.9356H39.3138C39.8099 39.9372 40.3014 39.8403 40.7598 39.6504C41.2181 39.4606 41.6342 39.1815 41.9838 38.8296L53.3978 27.4136C53.7727 27.0385 53.9834 26.5299 53.9834 25.9996C53.9834 25.4692 53.7727 24.9606 53.3978 24.5856Z" fill="#001853"/>
<defs>
<clipPath id="clip0_34_9915">
<rect width="48" height="48" fill="white" transform="translate(0.758301)"/>
</clipPath>
</defs>
</svg>
