<svg width="48" height="48" viewBox="0 0 48 48" fill="none" xmlns="http://www.w3.org/2000/svg">
<path d="M14.025 8H33.975C36.7538 8 39.026 10.1491 39.1905 12.8611L39.2 13.1765L39.201 19.4893C41.284 20.0734 42.8379 21.9052 42.9881 24.1181L43 24.4706V38.5882C43 39.3679 42.362 40 41.575 40C40.8536 40 40.2574 39.4689 40.163 38.7798L40.15 38.5882V34.3529H7.85V38.5882C7.85 39.303 7.31391 39.8936 6.61836 39.9871L6.425 40C5.70358 40 5.10737 39.4689 5.01301 38.7798L5 38.5882V24.4706C5 22.1008 6.60733 20.103 8.80084 19.4887L8.8 13.1765C8.8 10.4235 10.9692 8.17242 13.7067 8.00945L14.025 8ZM37.775 22.1176H10.225C8.9953 22.1176 7.98389 23.0435 7.86226 24.23L7.85 24.4706V31.5294H40.15V24.4706C40.15 23.2523 39.2154 22.2503 38.0178 22.1298L37.775 22.1176ZM33.975 10.8235H14.025C12.7953 10.8235 11.7839 11.7494 11.6623 12.9359L11.65 13.1765V19.2941H14.5C14.5 18.2545 15.3507 17.4118 16.4 17.4118H20.2C21.1744 17.4118 21.9775 18.1384 22.0872 19.0746L22.1 19.2941H25.9C25.9 18.2545 26.7507 17.4118 27.8 17.4118H31.6C32.5744 17.4118 33.3775 18.1384 33.4872 19.0746L33.5 19.2941H36.35V13.1765C36.35 11.9582 35.4154 10.9562 34.2178 10.8357L33.975 10.8235Z" fill="#EAE440"/>
</svg>
