<svg width="210" height="59" viewBox="0 0 210 59" fill="none" xmlns="http://www.w3.org/2000/svg">
<g clip-path="url(#clip0_1320_8532)">
<path d="M228 0H-18V59H228V0Z" fill="#339967"/>
<path d="M100.228 23.3181H87.4061V44.9957H79.234V16.2627H100.228V23.3181ZM183.794 40.2462H174.175L172.827 44.9957H164.168L174.5 16.2726H183.759L194.052 44.9957H185.196L183.794 40.2462ZM182.032 34.0316L179.002 23.7066L176.001 34.0316H182.032ZM115.952 40.2462H106.333L105 44.9957H96.3261L106.658 16.2726H115.918L126.25 44.9957H117.344L115.952 40.2462ZM114.191 34.0365L111.16 23.7115L108.159 34.0365H114.191ZM129.059 16.2627H140.759L145.27 33.7415L149.772 16.2578H161.462V44.9957H154.156V23.0821L148.547 45.0006H141.954L136.345 23.0821V44.9957H129.064V16.2627H129.059Z" fill="white"/>
<path d="M63.1111 37.206C63.6353 35.7971 64.0321 34.3442 64.2968 32.8646C64.9216 29.595 64.2574 25.7895 63.5539 23.3016C61.212 15.0515 53.6794 9.00398 43.254 8.85156L41.3253 8.95973C39.7509 9.18821 38.2011 9.56183 36.6956 10.0758C31.318 12.1359 26.28 16.7182 24.4497 22.2642C23.9922 23.6507 23.7363 25.0225 23.3821 26.5368L23.328 27.9823C22.8802 30.244 23.5838 33.3415 24.0414 35.1016C25.5616 41.1147 30.216 46.4591 35.746 48.4848C37.9994 49.3157 40.4348 50.1565 43.5344 50.1171L44.9071 50.1909C46.6045 49.9402 48.297 49.8369 49.8271 49.3747C55.8 47.59 60.9512 42.8159 63.1111 37.206ZM55.6524 40.9525C55.3894 40.7568 55.1949 40.4832 55.0964 40.1707L54.7422 39.9101L54.6684 39.4676C54.4765 39.2808 54.1764 39.2513 53.955 39.0596L53.9894 38.8727C54.4071 38.8282 54.8291 38.8925 55.2145 39.0596H55.4015C55.6228 38.7596 54.7126 37.8648 54.6585 37.5846C54.5503 37.0093 54.8996 36.3259 54.6241 35.9129C54.4273 35.6179 53.9992 35.7506 53.6401 35.6179C53.4688 35.5222 53.3417 35.3634 53.2858 35.1754C53.3744 34.6837 54.7619 34.5461 55.1407 34.2511H55.367C55.5967 34.8674 55.7101 35.5208 55.7016 36.1784L55.2096 36.5324V37.5157C55.2757 37.6141 55.364 37.6957 55.4674 37.7537C55.5708 37.8118 55.6864 37.8448 55.8049 37.8501C56.0509 38.2778 56.0263 39.9544 56.0263 40.6673L55.6524 40.9525ZM55.308 25.7501C56.6861 24.9986 57.8885 23.9629 58.8356 22.7116L58.9832 22.7461V22.8591C58.8998 22.9366 58.8224 23.0205 58.752 23.1099C58.8105 24.0322 59.1544 24.9136 59.736 25.6321C59.7409 25.7334 59.7101 25.8331 59.649 25.914C59.5878 25.9949 59.5002 26.0517 59.4014 26.0746H59.2145L58.8799 25.5191C58.7665 25.4399 58.6378 25.3856 58.502 25.3595C58.3662 25.3335 58.2264 25.3363 58.0918 25.3678C57.9572 25.3994 57.8307 25.4589 57.7206 25.5426C57.6106 25.6263 57.5194 25.7322 57.4531 25.8534L57.4186 25.9271V25.9616L58.132 25.996C58.319 26.3205 58.1862 26.8662 58.3928 27.2202L59.2833 28.1446C59.8147 29.5704 58.1812 32.2795 57.4678 32.6679L56.9758 32.5253C56.9414 33.2136 56.2083 33.5922 55.677 33.7496C55.4014 33.4644 55.244 31.8468 55.121 31.3404L54.2305 28.4494C54.0189 27.8791 53.6056 27.2891 53.6007 26.5614L55.308 25.7501ZM53.3793 26.3451C52.6216 24.8701 52.0755 23.3951 51.3031 22.0036L50.5208 20.7056C51.0107 20.3915 51.5183 20.1058 52.0411 19.8501C53.0148 19.2353 53.7984 18.362 54.3043 17.3279C54.8258 17.382 55.121 17.8196 55.4556 18.0703C56.4396 18.8226 58.8996 20.6073 58.9438 22.1118C57.7949 23.7423 56.2304 25.0359 54.4125 25.8583C54.1091 26.0941 53.7584 26.2618 53.3842 26.35L53.3793 26.3451ZM60.0607 31.7534H60.3952C60.5379 32.3483 60.3952 32.5597 60.7495 32.9383V33.0465L60.4149 33.3071L60.1197 33.3415L59.859 33.0465C59.8274 32.6065 59.8999 32.1652 60.0705 31.7583L60.0607 31.7534ZM59.9869 25.7747L60.0951 25.6666H60.2821L60.474 26.0599L60.3657 26.2074L60.0312 26.0599L59.9869 25.7747ZM60.5084 37.6042L60.0656 38.0959L60.0312 38.1696L60.3657 38.3171V38.4646C60.3118 38.5482 60.2394 38.6182 60.1541 38.6694C60.0688 38.7205 59.9729 38.7514 59.8737 38.7596H59.8393C59.7409 38.5138 59.9082 38.4401 60.0262 38.2041C59.9306 38.1942 59.84 38.1566 59.7655 38.0959C59.8706 37.5446 60.128 37.0337 60.5084 36.6209L60.7692 36.7684C60.7058 36.9655 60.5818 37.1375 60.4149 37.2601L60.5084 37.6042ZM57.5023 40.6427L58.1714 40.2002L58.4322 40.2346L58.5404 40.2691C58.4617 40.8541 57.271 41.1639 56.6856 40.982V40.7263C56.907 40.4411 57.1284 40.7656 57.5023 40.6575V40.6427ZM56.8381 39.4185L56.907 39.3005L56.9808 39.3742L56.9463 39.4824H56.907L56.8381 39.4185ZM58.1714 39.4185L57.6794 39.3447L57.458 39.0104C57.453 38.8693 57.4805 38.7289 57.5386 38.6002C57.5966 38.4714 57.6835 38.3577 57.7926 38.268C58.2035 37.9719 58.5639 37.6117 58.8602 37.2011C59.1308 36.7487 59.2144 36.2177 59.6031 35.8686L59.8639 35.9768C60.0754 36.3308 59.795 36.3308 59.7163 36.6061L59.8048 37.3682C59.6969 37.807 59.4949 38.217 59.2129 38.5702C58.9309 38.9233 58.5756 39.2111 58.1714 39.4136V39.4185ZM60.1788 39.4529V39.4873C60.1341 39.5503 60.0688 39.5956 59.9942 39.6154C59.9196 39.6351 59.8404 39.6281 59.7704 39.5955L59.736 39.4922L59.8098 39.3841L60.1788 39.4529ZM60.4395 34.1134L60.474 33.7594H60.5822L60.72 33.9266V34.0347L60.533 34.2216H60.4986L60.4395 34.1134ZM59.918 34.7083L59.9918 34.8165L59.9574 34.8902L59.6966 34.964L59.6228 34.9296C59.6094 34.8862 59.6056 34.8405 59.6115 34.7955C59.6174 34.7505 59.633 34.7074 59.6572 34.669H59.8442L59.918 34.7083ZM59.7606 30.4849L59.6523 30.5193L59.5047 30.4456C59.4576 30.3298 59.4397 30.2042 59.4525 30.0799C59.4654 29.9556 59.5087 29.8363 59.5785 29.7326H59.6868C59.7621 29.8414 59.8085 29.9676 59.8214 30.0992C59.8343 30.2308 59.8134 30.3636 59.7606 30.4849ZM57.7188 33.1202V33.5283C57.629 33.5796 57.5269 33.6051 57.4236 33.6021L57.276 33.253L57.4629 33.0317H57.6351L57.7188 33.1202ZM56.3904 33.6119H56.5773C56.8184 33.8725 57.2415 33.9659 57.4678 34.2412C58.1812 35.0918 57.3153 36.4488 56.6856 36.7635C56.4277 36.7467 56.1801 36.6563 55.9722 36.5029L55.5638 34.0937L56.3904 33.6119ZM55.982 38.6908V38.4696H56.169L56.4297 38.8432V38.9661C56.3391 38.9677 56.2497 38.9442 56.1716 38.8982C56.0934 38.8522 56.0295 38.7856 55.9869 38.7056L55.982 38.6908ZM56.292 39.7282H56.4789L56.7741 40.0232V40.2838L56.4396 40.5444H56.292C56.1993 40.2802 56.1993 39.9924 56.292 39.7282ZM56.292 40.8394L56.2182 40.7656C56.2368 40.7723 56.2539 40.7827 56.2683 40.7962C56.2827 40.8097 56.2941 40.8261 56.3018 40.8443L56.292 40.8394ZM56.9217 44.7727C56.78 45.0187 56.5575 45.208 56.292 45.3087C56.3033 45.1868 56.3387 45.0685 56.3961 44.9605C56.4535 44.8524 56.5319 44.7569 56.6265 44.6793H56.9266L56.9611 44.7137V44.7432L56.9217 44.7727ZM62.0385 37.8894L62.2648 37.1765C62.3006 37.1853 62.3332 37.2037 62.3592 37.2297C62.3852 37.2557 62.4036 37.2883 62.4124 37.324L62.4469 37.5501C62.3553 37.7095 62.2134 37.834 62.0434 37.9041L62.0385 37.8894ZM63.18 34.3199C63.2172 34.3229 63.2533 34.3341 63.2857 34.3528C63.318 34.3716 63.3458 34.3973 63.3669 34.4281C63.2989 34.6013 63.2114 34.7662 63.1062 34.9197H62.9192C62.9016 34.8083 62.9175 34.6942 62.9648 34.5918C63.0121 34.4895 63.0887 34.4034 63.1849 34.3445L63.18 34.3199ZM62.8454 35.1016C62.8225 35.0998 62.8005 35.092 62.7816 35.079C62.7626 35.0661 62.7473 35.0485 62.7372 35.0279L62.8454 35.1016ZM62.9192 35.5441L62.9536 35.2836C63.0002 35.2891 63.0448 35.3053 63.084 35.3309C63.1233 35.3565 63.1561 35.3908 63.18 35.4311L62.9291 36.0948C62.8553 36.2079 62.9291 36.1735 62.7421 36.203C62.6865 36.1662 62.6406 36.1166 62.608 36.0585C62.5755 36.0003 62.5574 35.9352 62.5551 35.8686C62.5842 35.7925 62.6319 35.7247 62.6937 35.6715C62.7555 35.6183 62.8297 35.5813 62.9094 35.5638V35.5441H62.9192ZM62.2894 35.2491L62.437 35.2836L62.5108 35.6179C62.3822 35.6987 62.2891 35.8252 62.2501 35.9719L62.0287 36.0456L61.9204 35.7851L62.2894 35.2491ZM61.7975 38.1401C61.9106 38.8531 61.394 39.4332 61.084 39.8856C60.2679 41.218 59.2969 42.4492 58.1911 43.5534C57.8615 43.8582 57.0742 44.0451 56.9316 44.4777C56.8588 44.4855 56.7855 44.4676 56.7245 44.4272C56.6634 44.3869 56.6183 44.3265 56.597 44.2565C57.1329 43.6515 57.7428 43.1162 58.4125 42.6635C59.2095 42.0194 59.6228 41.1442 60.1935 40.2543C60.6412 39.5414 61.2612 38.976 61.64 38.1401H61.7975ZM61.3055 33.7938V34.7771L61.271 34.8509L60.779 34.8853L60.7446 34.7771L61.1529 33.7938H61.2956H61.3055ZM60.72 23.8277C60.8107 24.3086 60.7854 24.8041 60.6462 25.2732C60.6211 25.3271 60.5849 25.3751 60.5399 25.4141C60.495 25.4531 60.4423 25.4821 60.3854 25.4994C60.3113 25.5307 60.228 25.5329 60.1523 25.5055C60.0766 25.4782 60.0141 25.4233 59.9771 25.3519C60.2326 24.7827 60.3473 24.1605 60.3116 23.5376L60.4592 23.5721C60.5185 23.592 60.5727 23.6248 60.6178 23.6682C60.6629 23.7115 60.6978 23.7643 60.72 23.8228V23.8277ZM60.0066 22.1561L60.2673 22.2642L60.4149 22.5248V22.751H60.3067C60.2475 22.7317 60.1928 22.7006 60.1459 22.6597C60.099 22.6188 60.0609 22.5688 60.0338 22.5128C60.0067 22.4568 59.9912 22.3959 59.9882 22.3338C59.9852 22.2716 59.9948 22.2095 60.0164 22.1511L60.0066 22.1561ZM59.2932 20.8581C59.4726 20.9222 59.625 21.045 59.7259 21.2065C59.8268 21.368 59.8702 21.5588 59.8491 21.748L59.6622 21.8561L59.4752 21.7824C59.4353 21.5976 59.4472 21.4053 59.5096 21.2268L59.2145 21.0056L59.2932 20.8581ZM58.998 20.3025V20.5286C58.9083 20.5802 58.8061 20.6057 58.7028 20.6024C58.5851 20.3109 58.3935 20.055 58.1468 19.86H57.7926L57.3006 19.2651C57.2987 19.1831 57.3186 19.1021 57.3584 19.0304C57.3982 18.9587 57.4563 18.8988 57.5269 18.857C58.1763 19.1077 58.4518 19.9239 59.0029 20.2976L58.998 20.3025ZM54.7225 13.5126C55.2932 13.6994 55.5786 14.4467 55.9082 14.8843L58.0976 16.9985L58.1517 17.2099C57.7002 17.0709 57.2857 16.8321 56.9391 16.5112C56.5924 16.1903 56.3225 15.7956 56.1493 15.3563L56.041 15.3219C55.8935 15.8627 56.1739 15.9365 56.3018 16.3052C56.3018 16.3052 56.2674 17.9769 56.228 18.0851V18.1588C55.677 18.09 54.934 17.3672 54.5946 17.0083L54.9488 15.7349C55.1308 14.8401 54.5847 14.1222 54.7225 13.5076V13.5126ZM54.4617 13.0701H54.6487L54.6831 13.3306L54.6093 13.3651H54.4027C54.3881 13.3156 54.3846 13.2636 54.3922 13.2127C54.3999 13.1617 54.4186 13.1131 54.447 13.0701H54.4617ZM52.848 12.1801L52.9956 12.072L54.0632 12.9275L54.0288 13.1143C53.6874 13.1237 53.3492 13.0477 53.0448 12.8931C52.9602 12.797 52.8992 12.6825 52.8668 12.5587C52.8343 12.435 52.8312 12.3053 52.8578 12.1801H52.848ZM53.0349 14.4811L53.463 13.3208C55.1505 13.3208 54.6782 15.5874 54.447 16.733C53.7975 16.8559 53.1186 15.8775 52.4445 15.6956C52.3855 14.8499 52.7053 14.9286 53.0349 14.4811ZM52.2822 15.9561C53.0419 16.1163 53.7152 16.5525 54.1714 17.1804C53.5967 18.2487 52.7476 19.1447 51.7115 19.7764C51.2701 19.9563 50.8481 20.1803 50.4519 20.4451H50.2945C49.7238 19.2926 48.9861 18.2306 48.1051 17.2935C48.1789 16.9788 48.4101 16.9395 48.5135 16.6297C48.8316 16.4607 49.1989 16.4085 49.5516 16.4822L49.8123 17.1116C50.1666 17.0526 50.0682 16.8559 50.3043 16.7576L50.7471 16.6838C51.2391 16.4871 51.3179 16.2266 52.1198 16.2413L52.2822 15.9561ZM51.0965 14.7516L51.2834 14.6041H51.5737L51.6819 14.7516L51.6081 15.0121L51.4212 15.0466C51.2903 14.9745 51.1776 14.8736 51.0915 14.7516H51.0965ZM48.0461 9.70706C49.3794 9.70706 50.9292 10.6904 52.0509 11.1329V11.3394C50.4372 11.5803 49.5565 9.99223 48.0067 10.007C47.928 9.8349 47.928 9.8644 48.0461 9.73165V9.70706ZM47.7115 16.2315H48.0461L48.0805 16.497C48.0056 16.5024 47.9309 16.4839 47.8673 16.4441C47.8036 16.4043 47.7542 16.3454 47.7262 16.2757V16.2659L47.7115 16.2315ZM44.1494 9.40715L44.7447 9.25965L45.4089 9.38256C45.6328 9.28358 45.8791 9.24623 46.1223 9.2744L46.5307 9.53498L47.5688 9.50056L47.6475 9.60381V9.74148C46.4815 10.0119 45.2564 9.12198 44.2035 9.59398L44.1691 9.55956V9.43665L44.1494 9.40715ZM47.1014 16.2315V16.4576C47.0129 16.5806 47.062 16.556 46.9144 16.5314C46.8985 16.4827 46.8933 16.431 46.8992 16.3801C46.9052 16.3292 46.9221 16.2801 46.9489 16.2364H47.0965L47.1014 16.2315ZM39.436 26.7482C39.3008 26.8705 39.1978 27.0242 39.136 27.1957C39.0742 27.3672 39.0556 27.5512 39.0818 27.7316C37.9797 28.0856 36.735 27.2399 36.302 26.6204C36.3228 26.5438 36.3619 26.4734 36.4159 26.4152C36.4699 26.357 36.5371 26.3127 36.612 26.2861V26.0599C36.3 25.9953 35.9756 26.0332 35.687 26.1681L35.6526 26.2418L35.8789 26.5761L35.8444 26.6843L35.5492 26.7581C35.131 26.5171 35.4508 25.9763 35.0277 25.7747C35.0277 24.7914 36.9957 21.6693 37.5517 20.8581C38.0026 20.9466 38.4395 21.0954 38.8506 21.3006C40.409 21.7884 42.0406 22.0013 43.6722 21.9299L43.741 21.9643C43.8427 22.6015 43.8675 23.2486 43.8148 23.8916V28.1249L43.7804 28.1986C42.4813 28.3399 41.1685 28.2902 39.8838 28.0511C39.2294 27.8102 39.7116 27.1514 40.1101 27.0137L40.297 26.7925L39.436 26.7482ZM35.9478 19.5945C35.5689 19.5011 35.4558 19.2159 35.0917 19.0733C35.018 19.0151 34.9595 18.9401 34.9209 18.8545C34.8824 18.7689 34.865 18.6753 34.8703 18.5816C35.4066 18.1883 36.4742 18.3211 37.0597 17.9867C37.9158 17.9523 38.3635 18.2473 38.5062 18.8766C38.1004 19.3392 37.7685 19.8616 37.5222 20.4254L37.3746 20.4598C36.9911 20.2427 36.6199 20.0047 36.2626 19.7469C36.2864 19.6179 36.3521 19.5004 36.4496 19.4126V19.3929C36.3561 19.37 36.2577 19.3771 36.1685 19.4133C36.0793 19.4495 36.0038 19.5129 35.9527 19.5945H35.9478ZM33.3106 20.0861C33.2418 19.8256 33.045 19.8108 33.045 19.4126L33.7584 18.6603C34.644 18.6603 34.9146 19.2356 35.4312 19.6436V19.7469L35.0769 19.8551C34.8654 20.0173 34.9884 20.3811 34.8555 20.6368C34.7227 20.8925 33.8715 21.5267 33.5222 21.453C32.735 21.2858 33.4484 20.5778 33.3156 20.0812L33.3106 20.0861ZM38.2306 16.2216L38.1175 16.1676L38.0437 15.9807C38.1853 15.7145 38.3896 15.4867 38.639 15.317L38.8998 15.3907C38.9889 15.4693 39.0538 15.5716 39.0867 15.6857L39.4951 15.7595L39.6033 15.8086L39.5689 15.9561L39.5345 16.0643C39.1015 16.1479 38.6734 16.143 38.2503 16.2266L38.2306 16.2216ZM39.564 19.9288C39.131 20.1353 38.7177 19.8846 38.3782 19.7813C38.3094 19.4273 38.6046 19.2896 38.7128 18.9651L38.8555 19.0143L39.5197 19.7272L39.564 19.9288ZM37.9305 13.7338C37.5517 13.9846 37.0252 13.6945 36.5037 13.842C35.8346 14.0436 34.6095 14.6631 33.906 14.6581C33.6698 14.4074 33.6501 14.0288 33.3844 13.8026C33.6108 13.0504 36.8629 13.1487 37.8124 12.8193H38.0732C38.0993 13.1355 38.0522 13.4535 37.9354 13.7486L37.9305 13.7338ZM42.1962 21.6349C40.6699 21.5568 39.1701 21.2054 37.7682 20.5975C37.759 20.5189 37.7716 20.4393 37.8046 20.3673C37.8375 20.2954 37.8896 20.2338 37.9551 20.1894C37.9791 20.1644 38.0083 20.1448 38.0406 20.1321C38.0728 20.1194 38.1075 20.1138 38.1421 20.1156L38.2159 20.3762C38.4963 20.5139 39.4508 20.2976 39.81 20.155C39.8716 20.1042 39.92 20.0391 39.9509 19.9655C39.9817 19.8918 39.9942 19.8117 39.9871 19.7321L40.1347 19.6977L40.543 19.9927C41.3756 19.9474 42.2005 19.8106 43.003 19.5846C43.2588 19.5878 43.5101 19.6519 43.7361 19.7715C43.8837 20.2631 43.7361 21.0941 43.8444 21.6251C43.4901 22.0282 42.6242 21.689 42.1765 21.6251L42.1962 21.6349ZM43.8296 17.7802C42.9981 18.3211 42.6439 18.0998 42.4569 19.2552L42.4225 19.329C42.2013 19.25 42.0081 19.1081 41.8665 18.9209C42.019 17.9867 42.9096 17.854 43.6476 17.4951L43.8345 17.5295V17.7704L43.8296 17.7802ZM41.4828 9.4219C41.7663 9.42031 42.0475 9.37043 42.3142 9.2744C42.7614 9.21984 43.215 9.25664 43.6476 9.38256H43.7361C43.5098 9.87423 42.4225 9.38256 41.9551 9.53006L41.6943 9.7169L41.5074 9.5694V9.4219H41.4778H41.4828ZM41.3352 10.1004C41.4582 10.184 41.4434 10.1938 41.4434 10.3954C41.3908 10.4275 41.3316 10.4472 41.2702 10.4532C41.2089 10.4592 41.147 10.4512 41.0892 10.4298L40.9809 10.3561V10.2528L41.2466 10.066L41.3352 10.1004ZM40.1495 9.60873C40.2327 9.56443 40.32 9.52821 40.4102 9.50056L40.9662 9.57431L41.04 9.71198V9.89881C40.7276 9.91597 40.4174 9.83888 40.1495 9.67756V9.63823V9.60873ZM39.1113 9.78081L39.5148 9.8349C39.6574 9.94798 39.5837 9.97256 39.5492 10.1889L39.7362 9.92831H40.056C40.198 10.1642 40.4223 10.3393 40.6857 10.42L40.7202 10.6461C40.345 10.8829 39.9299 11.0495 39.4951 11.1378L39.2737 10.8428C39.4293 10.6686 39.5213 10.4467 39.5345 10.2135C38.9342 10.4101 38.2602 10.7592 37.6452 10.6216L37.596 10.4741C38.1541 10.4089 38.6791 10.1757 39.1015 9.8054L39.1113 9.78081ZM35.8444 10.9313L36.8284 10.597L37.3844 10.7051C37.2762 10.9461 35.9576 11.3296 35.6772 11.5606L35.5689 11.5164L35.4656 11.3099C35.5923 11.2009 35.7108 11.0826 35.8198 10.9559L35.8444 10.9313ZM35.254 12.19C36.3217 11.7819 37.6845 11.3492 38.5898 10.715L38.7768 10.7494L38.8801 10.8182C38.9145 11.1329 38.8801 11.3935 38.9145 11.7426L38.3192 12.5587C36.8088 12.7554 35.013 12.6964 33.8322 13.3749C33.4779 13.134 34.1077 12.3916 34.4619 12.2244H35.2442L35.254 12.19ZM34.029 11.7475H34.2553L34.2799 11.8016L34.2455 11.9097L33.8026 12.2441L33.6944 12.2096L33.6206 12.1752C33.7283 12.0181 33.8632 11.8816 34.0191 11.7721L34.029 11.7475ZM32.5087 13.3405C32.8489 13.233 33.1568 13.042 33.4041 12.7849H33.4779L33.5517 13.1192L32.9958 13.5617L32.5874 13.5961L32.5136 13.5224V13.3749L32.5087 13.3405ZM32.6563 15.3465H32.7645L32.8383 15.494V16.143C32.7486 16.1943 32.6465 16.2198 32.5431 16.2167L32.3955 15.9955C32.3996 15.7574 32.4926 15.5294 32.6563 15.3563V15.3465ZM31.7658 18.6111H31.9527L31.9872 18.8668C31.815 19.1176 31.5542 19.3044 31.3918 19.5355C31.1114 19.9288 31.1606 20.6024 30.7276 20.8335L30.0634 20.9072L29.8765 20.7696V20.5975L30.9933 19.6141L31.7658 18.6111ZM30.6538 18.8324H30.8408L30.9195 19.1274C30.8108 19.2881 30.6641 19.4197 30.4926 19.5106C30.321 19.6015 30.1297 19.6489 29.9355 19.6486L29.8666 19.5355C29.9355 19.1569 30.4669 19.1274 30.6686 18.8226L30.6538 18.8324ZM29.6698 21.0941C29.7747 21.081 29.8811 21.097 29.9774 21.1404C30.0738 21.1838 30.1563 21.2528 30.216 21.3399C30.5165 21.2697 30.7962 21.1299 31.0327 20.9318C31.3181 20.7991 31.81 21.0203 32.1003 21.0793C32.4152 20.8826 32.5923 20.6171 32.8826 20.4156L32.9564 20.4893C32.8432 20.7646 32.8875 21.0154 32.6022 21.158C32.6366 21.5759 33.6403 22.1069 34.1962 21.9741C34.4226 21.8758 34.4127 21.5906 34.6046 21.4825C34.9982 21.2809 35.2688 21.5464 35.4607 21.04C35.6526 20.5336 35.2098 20.4696 35.6083 19.9731C36.2971 19.9731 36.5923 20.3664 37.1286 20.568L37.2762 20.863L35.9674 22.8886C35.3672 23.9556 35.0474 25.4797 34.1126 26.2221L34.0044 26.2566C33.1286 25.7649 31.5444 25.3076 31.2246 24.2899C30.3685 24.2456 29.3845 23.0607 29.0352 22.3626C29.1286 22.22 29.5911 21.1875 29.6797 21.1137L29.6698 21.0941ZM32.5284 26.7482L32.4546 26.7826C32.3892 27.198 32.2905 27.6074 32.1594 28.0069H31.8346C31.5788 27.6234 31.8986 27.1416 31.7264 26.5811C31.6274 26.4432 31.551 26.2906 31.5001 26.1287L31.7953 25.9812C31.7973 25.8017 31.7603 25.6239 31.687 25.4601L31.7608 25.3863C32.5431 25.4896 33.163 26.1926 33.9502 26.4237C34.0016 26.5134 34.0271 26.6155 34.024 26.7187L33.9158 26.7925C33.7879 27.0334 33.8814 27.0039 34.0634 27.2006C34.0634 27.6136 33.7338 28.6264 33.35 28.6756L33.168 28.4346C32.9712 27.943 33.3106 27.3677 33.4287 27.0629V27.0432C33.1512 26.8978 32.8494 26.8045 32.5382 26.7679L32.5284 26.7482ZM32.3365 33.7201C31.6231 33.784 30.8162 33.0366 30.2947 32.7367C28.3885 31.683 26.7453 30.2123 25.4878 28.4346C25.7092 27.0088 26.4718 25.6616 27.0819 24.5013H27.2295L27.3771 24.9094L28.0069 25.0176C28.4054 25.2585 28.612 25.7059 29.1188 25.8731C29.473 26.3647 29.1188 26.8072 29.2664 27.5054C29.3353 27.8299 29.5764 27.7758 29.7092 27.9971C30.0634 28.5477 29.965 29.0345 30.5259 29.3688C30.6794 29.1433 30.8996 28.9714 31.1557 28.8771C31.6972 29.4581 32.3224 29.9553 33.0105 30.3521C32.8137 31.4289 32.2282 32.5401 32.3365 33.725V33.7201ZM29.4189 25.0471L29.6452 24.7865L29.7535 24.8209V25.2634L29.6059 25.3371L29.4189 25.0471ZM30.216 24.2309C30.8506 24.3243 31.3672 25.2683 31.3672 25.9763C31.1114 26.3303 30.6538 26.4434 30.4423 26.7925H30.2947C30.1445 26.6537 30.0413 26.4715 29.9995 26.2713V26.232C30.1004 26.2117 30.2045 26.2144 30.3042 26.24C30.4038 26.2655 30.4965 26.3132 30.5751 26.3795L30.8014 26.0845C30.9835 25.5682 30.216 24.7078 30.216 24.2309ZM28.6219 22.3036C29.0312 22.7238 29.4001 23.1814 29.724 23.6704L29.6895 23.7441C28.9072 23.5376 28.3808 24.0096 27.8347 24.4571H27.6034L27.3525 24.1916C27.5739 23.4786 28.243 23.0755 28.4202 22.3036H28.6071H28.6219ZM28.1299 21.7824L28.248 21.8168L28.3562 22.0774C27.9667 22.5431 27.6362 23.055 27.3722 23.6016L27.264 23.636H27.0819C26.9638 22.8886 27.6822 22.1266 28.12 21.7824H28.1299ZM24.8532 25.5682C25.0942 25.2585 25.5666 25.3126 25.8913 25.0766L26.4128 24.4472H26.5998C26.2609 25.6324 25.8518 26.7965 25.3747 27.9331L25.3402 28.0266H25.1533L24.371 26.7679C24.5048 26.3577 24.6659 25.9569 24.8532 25.5682ZM24.3612 32.9432C23.9823 31.4682 23.6182 28.7247 24.1742 27.2694H24.312C24.6994 27.6594 25.0084 28.1201 25.2222 28.6264C24.6859 29.7572 24.6465 31.4732 24.6268 32.899C24.5911 32.9249 24.55 32.9424 24.5065 32.9501C24.463 32.9578 24.4184 32.9554 24.3759 32.9432H24.3612ZM27.0327 37.4666C26.7572 36.9749 27.1557 36.2472 26.8113 35.7211C26.7424 35.613 25.8273 34.3346 25.8273 34.2953C25.419 33.9856 24.9958 33.9413 24.8433 33.4054C24.5727 32.5499 25.1238 29.3147 25.3993 28.8821C25.8519 29.005 26.6194 30.244 26.9589 30.6275C27.9556 31.6494 29.1205 32.4925 30.4029 33.1202C30.7572 33.312 32.0511 33.8331 32.2184 34.1036C32.3119 34.3936 31.9478 36.0161 31.8642 36.4046L31.6378 40.3821L31.5296 40.4903C30.8014 40.4215 27.3476 37.9779 27.0475 37.4666H27.0327ZM29.8519 43.4698C29.6403 43.1945 28.6268 42.2259 28.553 42.044C28.2627 41.3802 28.6612 40.9279 28.4792 40.2986C28.1645 39.6637 27.818 39.0451 27.4411 38.445L27.5149 38.1844C28.4103 38.7105 29.3353 39.6102 30.2947 40.1855C30.6096 40.3772 31.4017 40.5936 31.5542 40.9279C31.7904 41.4196 31.7608 43.7992 31.7805 44.5957C31.0524 44.9251 30.1864 43.8828 29.8519 43.4649V43.4698ZM31.7412 45.4758C31.4441 45.3036 31.2032 45.0492 31.0474 44.7432C31.363 44.7659 31.6567 44.9127 31.8642 45.1513L31.8986 45.3775L31.7412 45.4758ZM34.521 46.4247C34.467 46.5083 34.3946 46.5783 34.3093 46.6295C34.224 46.6806 34.1281 46.7115 34.029 46.7197C33.3894 46.4444 32.553 46.1641 32.1397 45.6528V45.3922L32.2479 45.2841L34.5111 46.2674V46.41L34.521 46.4247ZM35.7067 44.5711C35.5712 44.707 35.409 44.8134 35.2303 44.8836C35.0517 44.9539 34.8604 44.9864 34.6686 44.9792C34.5794 45.2678 34.5675 45.5746 34.6341 45.8691L34.5603 45.9429C33.5763 45.8446 33.045 45.1562 32.184 44.9596C31.9429 44.6056 31.692 41.5621 31.9626 40.9918C33.0559 41.3897 34.1169 41.8713 35.136 42.4324L35.3918 43.2682C35.5394 43.5583 35.933 44.2516 35.7264 44.6056L35.7067 44.5711ZM38.821 45.8691C38.6046 46.2231 38.3881 46.0658 38.3782 46.7591L37.3942 46.7246C37.1447 46.5729 36.9301 46.3702 36.7645 46.1297C36.806 45.9696 36.8973 45.8267 37.0252 45.7216L36.8776 45.4266C36.9698 45.2506 37.1131 45.1066 37.2888 45.0136C37.4644 44.9205 37.6641 44.8829 37.8616 44.9055L38.2159 44.3106H38.4766C38.6784 44.6449 39.1408 45.3578 38.8309 45.8839L38.821 45.8691ZM43.8296 33.9266C42.8161 34.5756 42.0141 33.8331 41.1236 33.7397C41.1876 34.3002 41.9059 34.5706 41.837 35.1656C41.4556 35.7358 40.9932 36.2476 40.4643 36.6848C40.1642 36.8077 39.8788 36.5816 39.6082 36.6504L38.7177 37.1421L37.901 37.1765C37.3844 37.337 36.8478 37.4247 36.3069 37.4371V37.7911C37.0498 38.2827 38.4422 37.5944 38.944 38.3466C38.944 38.4007 37.9207 40.1265 37.8764 40.1609C37.5653 40.3213 37.2345 40.4403 36.8924 40.5149L36.238 41.1442L35.5246 41.4441L34.9687 41.9653C33.8492 41.6356 32.7725 41.1752 31.7608 40.5936C31.7727 40.1461 31.8221 39.7004 31.9084 39.2611L31.9822 36.7389C32.1961 35.9646 32.3151 35.1671 32.3365 34.3641C32.6415 34.2019 32.8285 34.3986 33.1188 34.5116C33.5173 34.6591 34.3045 34.7624 34.5652 35.0672C35.008 35.5589 35.2442 36.439 35.8641 36.7733L35.9379 36.7389L35.874 35.6179V35.5392C37.2614 35.5884 39.0474 36.6061 40.5873 36.2521H40.6611L40.7349 36.144C39.3868 35.9031 38.2749 35.9817 37.0252 35.6228L36.4102 35.318L35.6968 35.1705C34.8555 34.6346 34.762 33.2038 34.5111 32.1664L33.965 31.8321C33.7977 31.8665 33.8568 31.8321 33.778 31.9402C34.1716 32.5646 33.9798 33.6021 34.703 33.9069L34.8063 34.2068C34.6974 34.3163 34.6311 34.461 34.6194 34.6149C34.2651 34.7624 34.1569 34.5166 33.8764 34.4281C33.4976 34.3101 32.5579 34.2019 32.43 33.8725C32.302 33.5431 33.1434 30.6176 33.3205 30.3472L34.088 30.5685C34.3533 30.4798 34.5796 30.302 34.7285 30.0653C34.8774 29.8287 34.9397 29.5478 34.9047 29.2705L33.8666 28.9165L33.7338 28.7149C33.9945 28.3363 34.088 27.2891 34.5505 27.1219C35.1064 26.999 35.751 27.6136 36.2233 27.7906C36.6956 27.9676 36.9121 27.6185 37.2073 27.6824C37.7829 27.8004 38.3291 28.0069 38.9883 28.0905C39.0554 28.2466 39.1562 28.386 39.2835 28.4986C39.1212 28.9263 38.9293 29.4327 39.3918 29.7966C39.5637 29.8514 39.7501 29.8391 39.9133 29.7621C39.9473 29.75 39.9754 29.7254 39.992 29.6933C40.1642 29.2705 39.8887 28.6264 39.7706 28.3216L39.805 28.2478C40.2065 28.2611 40.6047 28.3239 40.9908 28.4346L43.5885 28.4691H43.623C43.9772 28.9607 43.7853 32.9236 43.7706 33.9413L43.8296 33.9266ZM44.4446 18.7783L44.5184 18.6554H44.7447C44.8332 18.8048 44.8839 18.9736 44.8923 19.1471L45.1186 19.2552L45.3056 18.8471C45.5172 18.7341 46.0436 18.9406 46.2896 18.8127C46.5356 18.6849 46.5159 18.149 46.698 17.8884C46.88 17.6278 47.2392 17.6229 47.4802 17.146H47.6721C48.2478 17.5786 49.9698 19.8108 50.1321 20.5581C48.971 21.2121 45.7533 22.0823 44.0756 21.7431C43.7607 21.0646 44.1888 19.2601 44.4446 18.7783ZM44.11 22.0036L45.6697 21.9692C47.1457 21.6644 48.8775 21.6152 49.9747 20.9023L50.2699 20.9367C50.8603 21.2907 52.1149 24.1424 52.4937 24.9389C52.6462 25.2683 53.2071 26.0402 53.1235 26.3844C52.8972 26.8761 51.7459 27.0678 51.1555 27.2399C50.1321 27.5349 48.9366 27.8791 47.8197 28.0954C47.1358 28.2232 46.4766 28.0954 45.8517 28.1691C45.263 28.2683 44.6628 28.2799 44.0707 28.2036L43.992 22.0774L44.11 22.0036ZM45.6697 35.5736C45.1777 35.3671 44.7595 34.6149 44.0362 34.2756V28.5182L46.7422 28.4101C48.7102 28.0266 51.8344 27.7316 53.1382 26.7384C53.5712 26.9646 53.6696 27.8692 53.8516 28.3707C54.2551 29.536 54.6142 30.7111 54.9685 32.0779C55.0964 32.5696 55.4605 33.2874 55.3227 33.8577C54.6184 34.2973 53.8371 34.5992 53.0202 34.7476C51.6327 33.4349 51.1948 35.2393 50.3486 35.6376C49.5024 36.0358 47.7016 35.9916 46.5651 36.1587C46.201 35.613 46.2699 35.8244 45.6697 35.5736ZM49.3056 39.6889L49.0842 39.9151H48.9366C48.6856 39.4775 48.5085 39.0792 48.9366 38.6908L49.2711 38.8776C49.363 39.142 49.375 39.4276 49.3056 39.6987V39.6889ZM48.971 36.8126V37.7026C48.9207 38.0146 48.8076 38.3132 48.6385 38.5802C48.4693 38.8473 48.2477 39.0773 47.987 39.2562C47.734 39.1487 47.5052 38.9914 47.3141 38.7938C47.1231 38.5962 46.9738 38.3622 46.8751 38.1057L46.8406 37.5846C46.7472 37.4223 46.5258 37.4076 46.4323 37.2306V36.5226L46.5405 36.3357C47.4114 36.3947 48.7644 36.3357 49.4335 36.0014L49.6204 36.0358L49.7287 36.0997C49.5368 36.3849 49.1284 36.4586 48.971 36.8126ZM39.5443 33.371C39.1507 33.0956 39.19 32.2795 38.6193 32.1861L38.4717 32.2942H38.3881L39.4311 33.9266L40.2134 34.0741L40.4397 33.7201C40.1986 33.3513 39.8739 33.607 39.564 33.3906L39.5443 33.371ZM32.7793 40.1511C32.728 40.2407 32.7024 40.3428 32.7055 40.4461L32.9662 40.6329L33.1138 40.4461V40.3182L32.8531 40.1314L32.7793 40.1511Z" fill="white"/>
<path d="M28.4153 11.5823C29.0008 11.5134 30.0143 10.4367 30.4915 10.1073C31.7458 9.30129 33.047 8.57069 34.3882 7.91937C34.2455 6.85245 33.5714 5.73145 33.5321 4.69403L33.5665 4.65962H33.66C34.1028 5.37253 34.703 7.01962 35.3328 7.47687C35.6329 7.62928 36.8088 6.9852 37.1876 6.88195C38.1716 6.58203 40.7989 5.9232 41.8616 6.06578C42.1765 5.49053 42.5898 2.39303 42.6095 1.57687C38.334 1.57687 33.35 3.22395 30.4964 4.87595L28.6072 6.06087C27.8938 6.43945 25.355 8.21928 25.0451 8.83878L25.0106 8.94695C25.9258 10.0286 27.5543 10.4711 28.4153 11.5823ZM48.0953 6.2772C49.2393 6.49671 50.3669 6.79404 51.4704 7.16712C51.7436 7.31255 52.0303 7.43111 52.3265 7.52112C53.094 6.90653 53.5466 5.55445 54.0337 4.67437H54.142L54.2158 4.7727C54.1518 5.40695 53.2908 7.37362 53.3843 7.86528C53.645 8.29303 54.6733 8.55362 55.1309 8.78962L57.9107 10.5694C58.2895 10.8595 58.6438 11.3856 59.1358 11.5528C59.6819 11.2381 62.4764 9.23703 62.6978 8.80928C61.8418 7.74237 60.3904 6.97045 59.2538 6.17395C56.7496 4.42362 53.7976 3.24853 50.5012 2.27995L48.1199 1.82762L46.7866 1.7932C46.2316 1.63483 45.6564 1.55863 45.0793 1.56703L45.6697 5.89862C46.3339 6.2772 47.2933 6.0707 48.1199 6.2772H48.0953ZM62.752 15.4517L64.7938 18.7164L65.4383 19.9996L67.5539 19.5079C67.9038 19.3173 68.2802 19.1797 68.6707 19.0999V19.208C68.2427 19.6997 66.0139 20.5847 65.8516 20.9534L66.2944 22.512C66.6925 23.6458 66.9905 24.8122 67.1849 25.9979C67.2833 26.5339 67.1258 27.2419 67.4112 27.5172C67.7654 27.7778 70.9979 28.1564 71.6867 28.2301H71.7211C71.9425 27.7384 71.3226 23.6035 71.1258 22.9988C69.8663 19.2228 68.7593 16.2974 66.6978 13.3867C66.2058 12.7082 65.1234 10.8939 64.3952 10.6088L61.7975 14.0504C61.704 14.3454 62.6142 15.2403 62.7766 15.4517H62.752ZM20.6614 25.4178C20.9049 23.9142 21.3278 22.4451 21.9209 21.0419C21.6847 20.5896 19.6331 19.5227 19.0722 19.2965V19.1736C19.6036 19.0458 21.6109 19.8865 22.2997 19.9898C22.9325 18.6951 23.6389 17.4377 24.4153 16.2236L25.8913 14.2569C25.7831 13.7653 23.6872 11.1299 23.2542 10.6973H23.1115L20.9959 13.3228C19.0628 16.2572 17.6003 19.4755 16.6614 22.8611C16.44 23.5986 16.3711 24.4836 16.2186 25.1916L16.1842 26.7109C16.0334 27.2035 15.9539 27.715 15.948 28.2301C17.5568 28.2301 18.7967 27.7384 20.3268 27.6745L20.6614 25.4178ZM71.6473 30.6393C70.7519 31.1703 68.3362 30.8163 67.4555 31.3522C67.1012 31.6275 67.239 32.8272 67.1209 33.3582L66.5354 35.9837C66.3632 36.5983 65.9008 37.3309 65.8712 38.0241C66.6807 38.7049 67.6009 39.2421 68.592 39.6122L68.6264 39.6859V39.7597C68.1344 39.8826 66.0434 39.1844 65.4727 38.9779C64.8872 39.4696 64.6609 40.6349 64.2476 41.2789L62.688 43.6193L61.8319 44.6567C61.768 45.0107 62.2845 45.3696 62.4617 45.64L64.3903 48.2754L64.5773 48.2409C65.3645 47.7935 66.5453 45.7482 67.1406 44.9419C68.5515 42.898 69.6585 40.6606 70.4272 38.2994C70.742 37.3161 70.8011 36.4901 71.0963 35.4084C71.53 33.8891 71.7535 32.3176 71.7605 30.7376L71.6473 30.6393ZM22.344 39.0222L22.1964 38.914C21.2192 39.3274 20.1996 39.6324 19.1558 39.8236L19.082 39.7154C19.9466 39.1116 20.8506 38.5663 21.788 38.0831C22.0045 37.675 21.4338 36.6573 21.2665 36.1951C20.7473 34.6695 20.4555 33.0758 20.4006 31.4653L20.2924 31.3915C19.8348 31.2391 19.3084 31.3375 18.6589 31.2047C17.772 30.9678 16.8641 30.8179 15.948 30.7573C15.948 36.5393 18.5605 42.2082 20.9959 45.6597L23.1312 48.295L23.328 48.2606C23.6626 48.0885 25.8667 45.1139 25.9258 44.7009C24.804 43.2653 22.836 40.9151 22.344 39.0222ZM59.244 47.4395L59.057 47.4051C58.4174 48.1869 54.5749 50.8468 53.4187 50.9304C53.2022 51.8252 54.3043 53.6788 54.201 54.2294V54.3032C53.8222 54.1704 52.6315 51.9186 52.3855 51.4564L49.1285 52.4742C48.0608 52.8282 46.8112 52.7446 45.7927 52.9659L45.1285 57.3909C45.4336 57.3909 45.9748 57.4794 46.0535 57.2434L47.9821 57.1352L51.3572 56.4714C55.57 55.2615 59.4471 53.0979 62.688 50.1486L62.6535 50.0011L59.244 47.4395ZM42.024 52.9659C39.8198 52.5774 37.2024 52.4742 35.4952 51.4466C35.2344 51.4958 33.7928 53.8754 33.7486 54.2639H33.601L33.5272 54.1164C33.5272 54.0672 34.2406 51.4269 34.3832 51.1664C34.2504 50.7583 33.2812 50.5321 32.9072 50.3502C31.3279 49.5881 30.1028 48.3442 28.681 47.4592H28.494C27.4123 48.3963 26.2718 49.2634 25.0795 50.0552C25.296 50.8222 27.4706 52.1153 28.1594 52.6069C30.7337 54.4531 33.6457 55.7761 36.7301 56.5009C38.088 56.8304 40.12 57.4351 41.591 57.1696C41.6594 57.2393 41.6981 57.3326 41.6993 57.4302H42.6242C42.6093 56.9169 42.535 56.4071 42.4028 55.9109C42.2011 54.8735 42.3094 53.8509 41.9994 52.9609L42.024 52.9659Z" fill="white"/>
</g>
<defs>
<clipPath id="clip0_1320_8532">
<rect width="246" height="59" fill="white" transform="translate(-18)"/>
</clipPath>
</defs>
</svg>
