<svg width="143" height="78" viewBox="0 0 143 78" fill="none" xmlns="http://www.w3.org/2000/svg">
<path fill-rule="evenodd" clip-rule="evenodd" d="M14.0908 52.1318C43.0618 36.3984 90.8806 21.0651 124.114 15.0651V6.39844C95.2762 10.2651 26.2786 40.7984 14.0908 52.1318Z" fill="#2A528A"/>
<path fill-rule="evenodd" clip-rule="evenodd" d="M110.061 6.73203V0.332031C87.5506 3.3987 26.0122 38.9987 16.4218 47.7987C31.8064 37.2654 52.519 27.732 69.7684 20.6654C79.492 16.732 89.3488 12.9987 99.3388 9.7987C102.935 8.73203 106.465 7.66536 110.061 6.73203Z" fill="#7493CB"/>
<path fill-rule="evenodd" clip-rule="evenodd" d="M0.371216 60.932C25.6792 54.9986 70.501 54.9986 114.857 55.332C121.184 38.932 132.106 24.3986 142.562 16.332C111.926 15.932 25.546 46.7986 0.371216 60.932Z" fill="#0A2A5F"/>
<path fill-rule="evenodd" clip-rule="evenodd" d="M0.37122 76.2651H1.03722C1.50342 75.1984 1.96962 74.1318 2.36922 73.0651C2.90202 71.7984 3.30162 70.7318 3.70122 69.8651C4.10082 68.8651 4.50043 67.7984 4.96663 66.5984C5.03323 66.5984 5.16643 66.5984 5.29963 66.6651C5.43283 66.6651 5.56603 66.7318 5.63263 66.7318C5.69923 66.7318 5.83243 66.7318 5.96563 66.6651C6.09883 66.6651 6.23203 66.5984 6.29863 66.5984C6.83143 68.0651 7.43082 69.7318 8.16342 71.4651C8.76282 72.9984 9.42882 74.5984 10.0948 76.2651H10.8274C10.8274 76.3984 10.7608 76.5984 10.7608 76.7318C10.7608 76.8651 10.7608 76.9984 10.6942 77.1318C10.6942 77.2651 10.6942 77.3984 10.6942 77.5984C10.6942 77.7984 10.7608 77.9318 10.7608 77.9984H10.4944C10.2946 77.7984 9.96162 77.5984 9.49542 77.5318C9.02922 77.4651 8.49642 77.3984 7.89702 77.3984H3.23502C2.50242 77.3984 1.90302 77.3984 1.50342 77.4651C1.03722 77.5318 0.770822 77.6651 0.571022 77.9318H0.304626C0.304626 77.7984 0.37122 77.6651 0.37122 77.5318C0.37122 77.3984 0.37122 77.2651 0.37122 77.0651C0.37122 76.8651 0.37122 76.7318 0.37122 76.5984C0.43782 76.4651 0.37122 76.3318 0.37122 76.2651ZM4.76682 76.3318C5.16642 76.3318 5.63262 76.3318 6.09882 76.3318C6.56502 76.3318 6.96462 76.3318 7.36422 76.2651C7.03122 75.1984 6.63162 74.1318 6.23202 72.9984C5.83242 71.8651 5.36623 70.7318 4.96663 69.5984C4.50043 70.7984 4.03423 71.8651 3.63463 72.9318C3.16843 74.1318 2.76882 75.2651 2.36922 76.2651C2.56902 76.2651 2.96862 76.2651 3.50142 76.3318C4.10082 76.3318 4.50042 76.3318 4.76682 76.3318ZM23.4814 71.9984C23.4814 73.5984 22.9486 74.9318 21.8164 75.9984C20.6842 77.1318 19.1524 77.6651 17.221 77.6651C15.4228 77.6651 14.0242 77.1984 12.9586 76.1984C11.893 75.1984 11.3602 73.7984 11.3602 72.0651C11.3602 70.4651 11.893 69.0651 12.9586 68.0651C14.0908 66.9318 15.6226 66.3984 17.554 66.3984C19.6186 66.3984 21.1504 66.9984 22.1494 68.2651C23.0818 69.2651 23.4814 70.5318 23.4814 71.9984ZM17.4874 67.2651C16.3552 67.2651 15.4894 67.6651 14.9566 68.5318C14.3572 69.3984 14.0242 70.7318 14.0242 72.4651C14.0242 73.5984 14.2906 74.5984 14.7568 75.3318C15.3562 76.1984 16.222 76.6651 17.2876 76.6651C18.4198 76.6651 19.3522 76.1318 19.9516 75.1318C20.551 74.1984 20.8174 72.9984 20.8174 71.5984C20.8174 70.4651 20.551 69.4651 20.0848 68.6651C19.4854 67.7984 18.6196 67.2651 17.4874 67.2651ZM25.3462 77.4651V66.5984C25.4794 66.5984 25.6792 66.5984 25.9456 66.6651C26.212 66.6651 26.4118 66.7318 26.545 66.7318C26.6782 66.7318 26.878 66.7318 27.1444 66.6651C27.4108 66.6651 27.6106 66.5984 27.7438 66.5984V70.8651C28.0768 70.8651 28.543 70.8651 29.1424 70.9318C29.7418 70.9318 30.0748 70.9984 30.208 70.9984C30.6076 70.9984 30.874 70.9984 31.1404 70.9984C32.0728 70.9318 32.539 70.9318 32.6722 70.9318V66.6651C32.8054 66.6651 33.0052 66.6651 33.2716 66.7318C33.538 66.7318 33.7378 66.7984 33.871 66.7984C34.0042 66.7984 34.204 66.7984 34.4704 66.7318C34.7368 66.7318 34.9366 66.6651 35.0698 66.6651V77.5318C34.9366 77.5318 34.7368 77.5318 34.4704 77.4651C34.204 77.4651 34.0042 77.3984 33.871 77.3984C33.7378 77.3984 33.538 77.3984 33.2716 77.4651C33.0052 77.4651 32.8054 77.5318 32.6722 77.5318V72.2651C32.4058 72.2651 31.9396 72.2651 31.2736 72.2651C30.6076 72.2651 30.2746 72.2651 30.2746 72.2651C29.875 72.2651 29.4754 72.2651 29.0092 72.2651C28.543 72.2651 28.1434 72.2651 27.877 72.3318V77.5984C27.7438 77.5984 27.544 77.5984 27.2776 77.5318C27.0112 77.5318 26.8114 77.4651 26.6782 77.4651C26.545 77.4651 26.3452 77.4651 26.0788 77.5318C25.6792 77.4651 25.4794 77.4651 25.3462 77.4651ZM37.6672 77.4651V66.5984C37.8004 66.5984 38.0002 66.5984 38.2666 66.6651C38.533 66.7318 38.7328 66.7318 38.866 66.7318C38.9992 66.7318 39.199 66.7318 39.4654 66.6651C39.7318 66.5984 39.9316 66.5984 40.0648 66.5984V73.9984C40.9306 73.0651 41.9962 71.8651 43.195 70.3318C44.3272 68.8651 45.3262 67.6651 46.0588 66.5984C46.2586 66.5984 46.3918 66.5984 46.4584 66.5984C46.525 66.5984 46.6582 66.5984 46.858 66.5984C47.0578 66.5984 47.191 66.5984 47.2576 66.5984V77.4651C47.1244 77.4651 46.9246 77.4651 46.6582 77.3984C46.3918 77.3984 46.192 77.3318 46.0588 77.3318C45.9256 77.3318 45.7258 77.3318 45.4594 77.3984C45.193 77.3984 44.9932 77.4651 44.86 77.4651V69.9984C43.9276 71.0651 42.9286 72.2651 41.7298 73.7318C40.5976 75.1984 39.5986 76.3984 38.7994 77.5318C38.7328 77.5318 38.6662 77.5318 38.533 77.5318C38.3998 77.5318 38.3998 77.5318 38.3332 77.5318C38.2 77.5318 38.0668 77.5318 37.9336 77.5318C37.867 77.4651 37.8004 77.4651 37.6672 77.4651ZM49.9882 77.4651V66.5984C50.1214 66.5984 50.3212 66.5984 50.5876 66.6651C50.854 66.6651 51.0538 66.7318 51.187 66.7318C51.3202 66.7318 51.52 66.7318 51.7864 66.6651C52.0528 66.6651 52.2526 66.5984 52.3858 66.5984V70.8651C52.7188 70.8651 53.185 70.8651 53.7844 70.9318C54.3838 70.9318 54.7168 70.9984 54.85 70.9984C55.2496 70.9984 55.516 70.9984 55.7824 70.9984C56.7148 70.9318 57.181 70.9318 57.3142 70.9318V66.6651C57.4474 66.6651 57.6472 66.6651 57.9136 66.7318C58.18 66.7318 58.3798 66.7984 58.513 66.7984C58.6462 66.7984 58.846 66.7984 59.1124 66.7318C59.3788 66.7318 59.5786 66.6651 59.7118 66.6651V77.5318C59.5786 77.5318 59.3788 77.5318 59.1124 77.4651C58.846 77.4651 58.6462 77.3984 58.513 77.3984C58.3798 77.3984 58.18 77.3984 57.9136 77.4651C57.6472 77.4651 57.4474 77.5318 57.3142 77.5318V72.2651C57.0478 72.2651 56.5816 72.2651 55.9156 72.2651C55.2496 72.2651 54.9166 72.2651 54.9166 72.2651C54.517 72.2651 54.1174 72.2651 53.6512 72.2651C53.185 72.2651 52.7854 72.2651 52.519 72.3318V77.5984C52.3858 77.5984 52.186 77.5984 51.9196 77.5318C51.6532 77.5318 51.4534 77.4651 51.3202 77.4651C51.187 77.4651 50.9872 77.4651 50.7208 77.5318C50.3212 77.4651 50.1214 77.4651 49.9882 77.4651ZM66.505 67.7318V77.4651C66.3718 77.4651 66.172 77.4651 65.839 77.3984C65.506 77.3984 65.3728 77.3318 65.3728 77.3318C65.2396 77.3318 65.0398 77.3318 64.7734 77.3984C64.507 77.3984 64.3072 77.4651 64.174 77.4651V67.7318C63.6412 67.7318 63.1084 67.7318 62.7088 67.7984C62.3092 67.8651 61.7764 67.8651 61.2436 67.9318C61.2436 67.7984 61.3102 67.6651 61.3102 67.5318C61.3102 67.3984 61.3102 67.3318 61.3102 67.2651C61.3102 67.1318 61.3102 66.9984 61.3102 66.8651C61.3102 66.7318 61.2436 66.6651 61.2436 66.5984H69.3688C69.3688 66.7984 69.3022 67.0651 69.3022 67.2651C69.3022 67.3984 69.3022 67.4651 69.3022 67.5984C69.3022 67.7318 69.3688 67.8651 69.3688 67.9318C68.5696 67.8651 68.1034 67.7984 67.9702 67.7984C67.504 67.7984 66.9712 67.7318 66.505 67.7318ZM73.2316 77.4651C73.4314 77.1318 73.6978 76.5984 74.0974 75.7318C74.2306 75.4651 74.4304 75.0651 74.6302 74.5984C74.2972 73.9318 73.831 73.0651 73.2316 72.0651C73.0984 71.8651 72.499 70.9318 71.4334 69.1984C70.7008 68.0651 70.2346 67.1984 69.9016 66.6651C70.0348 66.6651 70.3012 66.6651 70.6342 66.7318C70.9672 66.7984 71.167 66.7984 71.3668 66.7984C71.5 66.7984 71.7664 66.7984 72.0994 66.7318C72.4324 66.7318 72.6322 66.6651 72.832 66.6651C72.9652 66.9318 73.2316 67.4651 73.6978 68.1984C73.7644 68.3318 74.2306 69.0651 74.9632 70.3318C75.496 71.1984 75.7624 71.7318 75.8956 71.9984C76.162 71.5984 76.5616 70.7984 77.161 69.4651C77.494 68.7984 77.8936 67.8651 78.4264 66.5984L79.2256 66.6651L79.9582 66.5984C79.6252 67.1318 79.0924 68.1984 78.2932 69.7984C77.5606 71.2651 76.828 72.7318 76.162 74.0651C75.3628 75.7318 74.83 76.7984 74.6302 77.3984C74.5636 77.3984 74.4304 77.3984 74.2972 77.3318C74.164 77.3318 74.0308 77.2651 73.9642 77.2651L73.2316 77.4651ZM83.9542 72.7318V77.4651C83.821 77.4651 83.6212 77.4651 83.3548 77.3984C83.0884 77.3984 82.8886 77.3318 82.7554 77.3318C82.6222 77.3318 82.4224 77.3318 82.156 77.3984C81.8896 77.3984 81.6898 77.4651 81.5566 77.4651V66.5984H85.4194C87.6838 66.5984 88.816 67.4651 88.816 69.2651C88.816 70.5984 88.3498 71.4651 87.4174 72.0651C86.6848 72.5318 85.5526 72.7318 83.9542 72.7318ZM83.9542 67.5318V71.8651C84.3538 71.8651 84.6868 71.7984 85.0198 71.7318C85.486 71.5984 85.8856 71.3318 86.0854 70.9318C86.2852 70.5984 86.4184 70.1318 86.4184 69.5984C86.4184 68.9984 86.2852 68.4651 86.0188 68.0651C85.7524 67.6651 85.4194 67.4651 84.9532 67.4651H83.9542V67.5318ZM94.8766 77.4651V76.3318C93.2116 76.3318 91.9462 75.9984 91.0138 75.2651C90.0814 74.5318 89.5486 73.4651 89.5486 71.9984C89.5486 70.7318 90.0148 69.6651 90.8806 68.8651C91.813 68.0651 93.145 67.6651 94.81 67.6651V66.5318C94.9432 66.5318 95.143 66.5318 95.4094 66.5984C95.6758 66.5984 95.8756 66.6651 96.0088 66.6651C96.142 66.6651 96.3418 66.6651 96.6082 66.5984C96.8746 66.5984 97.0744 66.5318 97.2076 66.5318V67.5984C99.0724 67.5984 100.471 68.0651 101.337 68.9318C102.069 69.6651 102.469 70.6651 102.469 71.8651C102.469 73.1318 102.003 74.1984 101.07 74.9984C100.138 75.7984 98.806 76.1984 97.2076 76.1984V77.3984C97.0744 77.3984 96.8746 77.3984 96.6082 77.3318C96.3418 77.3318 96.142 77.2651 96.0088 77.2651C95.8756 77.2651 95.6758 77.2651 95.4094 77.3318C95.2096 77.4651 95.0098 77.4651 94.8766 77.4651ZM99.7384 71.7318C99.7384 70.8651 99.5386 70.1318 99.0724 69.5318C98.6062 68.8651 97.9402 68.5318 97.141 68.5318V75.4651C97.8736 75.4651 98.5396 75.0651 99.0058 74.3318C99.5386 73.5984 99.7384 72.7318 99.7384 71.7318ZM92.3458 72.3318C92.3458 73.1984 92.5456 73.9318 93.0118 74.5318C93.478 75.1984 94.144 75.5318 94.8766 75.5318V68.5318C94.0774 68.5318 93.478 68.8651 93.0118 69.5984C92.5456 70.3318 92.3458 71.1984 92.3458 72.3318ZM107.73 66.5984C107.797 66.5984 107.93 66.5984 108.063 66.6651C108.197 66.6651 108.33 66.7318 108.396 66.7318C108.463 66.7318 108.596 66.7318 108.729 66.6651C108.863 66.6651 108.996 66.5984 109.062 66.5984C109.529 67.7984 109.928 68.9984 110.394 70.2651C110.661 71.0651 111.194 72.2651 111.793 73.8651C112.193 74.9318 112.725 76.1318 113.258 77.4651C113.125 77.4651 112.859 77.4651 112.592 77.3984C112.259 77.3984 112.059 77.3318 111.926 77.3318C111.793 77.3318 111.527 77.3318 111.26 77.3984C110.927 77.3984 110.727 77.4651 110.594 77.4651C110.261 76.3984 109.795 75.0651 109.262 73.5318C108.796 72.1984 108.263 70.9318 107.797 69.5984C107.531 70.2651 107.198 71.1318 106.731 72.1984C106.332 73.2651 105.999 74.1318 105.732 74.7984C105.399 75.7984 105.066 76.6651 104.8 77.3984L104.067 77.3318L103.335 77.3984C103.868 76.1984 104.334 74.9984 104.867 73.7984C105.399 72.5984 105.866 71.3984 106.332 70.1984C106.865 68.9984 107.264 67.7984 107.73 66.5984ZM126.179 71.9984C126.179 73.5984 125.646 74.9318 124.514 75.9984C123.381 77.1318 121.85 77.6651 119.918 77.6651C118.12 77.6651 116.721 77.1984 115.656 76.1984C114.59 75.1984 114.057 73.7984 114.057 72.0651C114.057 70.4651 114.59 69.0651 115.656 68.0651C116.788 66.9318 118.32 66.3984 120.251 66.3984C122.316 66.3984 123.848 66.9984 124.847 68.2651C125.779 69.2651 126.179 70.5318 126.179 71.9984ZM120.251 67.2651C119.119 67.2651 118.253 67.6651 117.72 68.5318C117.121 69.3984 116.788 70.7318 116.788 72.4651C116.788 73.5984 117.054 74.5984 117.521 75.3318C118.12 76.1984 118.986 76.6651 120.051 76.6651C121.184 76.6651 122.116 76.1318 122.715 75.1318C123.315 74.1984 123.581 72.9984 123.581 71.5984C123.581 70.4651 123.315 69.4651 122.849 68.6651C122.249 67.7984 121.383 67.2651 120.251 67.2651ZM132.372 67.7318V77.4651C132.239 77.4651 132.039 77.4651 131.706 77.3984C131.373 77.3984 131.24 77.3318 131.24 77.3318C131.107 77.3318 130.907 77.3318 130.641 77.3984C130.374 77.3984 130.175 77.4651 130.041 77.4651V67.7318C129.509 67.7318 128.976 67.7318 128.576 67.7984C128.177 67.8651 127.644 67.8651 127.111 67.9318C127.111 67.7984 127.178 67.6651 127.178 67.5318C127.178 67.3984 127.178 67.3318 127.178 67.2651C127.178 67.1318 127.178 66.9984 127.178 66.8651C127.178 66.7318 127.111 66.6651 127.111 66.5984H135.236C135.236 66.7984 135.17 67.0651 135.17 67.2651C135.17 67.3984 135.17 67.4651 135.17 67.5984C135.17 67.7318 135.236 67.8651 135.236 67.9318C134.437 67.8651 133.971 67.7984 133.838 67.7984C133.305 67.7984 132.839 67.7318 132.372 67.7318Z" fill="#0A2A5F"/>
</svg>
