<svg width="218" height="130" viewBox="0 0 218 130" fill="none" xmlns="http://www.w3.org/2000/svg">
<g clip-path="url(#clip0_1320_8493)" filter="url(#filter0_d_1320_8493)">
<path fill-rule="evenodd" clip-rule="evenodd" d="M122.228 16.462C121.79 16.987 121.702 17.162 122.14 17.687C122.928 18.4745 123.629 19.087 124.768 19.6995C125.031 19.787 127.046 20.3995 127.308 20.312C127.396 20.312 127.484 20.2245 127.571 20.0495C127.659 19.787 127.571 19.6995 127.308 19.6995C127.046 19.6995 126.695 19.612 126.432 19.5245C125.819 19.262 125.031 18.912 124.418 18.387C123.892 17.9495 123.454 17.2495 123.279 16.7245C123.104 16.1995 122.49 15.937 122.228 16.462Z" fill="#EA4939"/>
<path fill-rule="evenodd" clip-rule="evenodd" d="M121.965 15.2383C122.228 15.4133 122.315 15.7633 122.14 16.1133C121.965 16.3758 121.614 16.4633 121.264 16.2883C120.388 15.6758 119.424 15.2383 118.548 15.0633C117.672 14.8008 116.709 14.7133 115.745 14.8008C114.694 14.8883 113.468 15.3258 112.416 16.0258C111.365 16.7258 110.402 17.6008 109.613 18.7383C108.562 20.4008 107.861 22.3258 107.686 24.5133C107.511 26.6133 107.861 28.8883 108.737 31.3383C109.088 32.4758 109.788 33.5258 110.577 34.5758C111.365 35.6258 112.416 36.7633 113.643 37.8133C113.906 38.0758 113.906 38.4258 113.73 38.6883C113.468 38.9508 113.117 38.9508 112.854 38.7758C111.628 37.6383 110.489 36.5008 109.613 35.3633C108.737 34.2258 108.036 33.0008 107.598 31.7758C106.635 29.1508 106.284 26.7008 106.46 24.4258C106.635 21.9758 107.423 19.8758 108.65 18.0383C109.526 16.7258 110.577 15.6758 111.803 14.9758C113.03 14.1883 114.431 13.6633 115.745 13.5758C116.884 13.4883 117.935 13.5758 118.986 13.8383C119.95 14.1008 121.001 14.5383 121.965 15.2383Z" fill="#728190"/>
<path fill-rule="evenodd" clip-rule="evenodd" d="M105.321 36.3236C105.321 36.6736 105.058 36.9361 104.708 36.9361C104.357 36.9361 104.094 36.6736 104.094 36.3236C104.094 35.0986 104.62 34.2236 105.321 33.1736C105.846 32.2986 106.547 31.2486 106.81 29.7611C106.898 29.3236 107.073 29.2361 107.336 29.1486H107.423C107.774 28.9736 108.124 29.1486 108.212 29.4111C108.387 29.6736 108.212 30.0236 107.949 30.1986C107.598 31.7736 106.898 32.8236 106.372 33.7861C105.759 34.6611 105.321 35.3611 105.321 36.3236Z" fill="#728190"/>
<path fill-rule="evenodd" clip-rule="evenodd" d="M101.817 43.2367C102.08 43.4117 102.255 43.7617 102.08 44.1117C101.904 44.3742 101.554 44.5492 101.204 44.3742C99.2764 43.3242 99.6268 41.8367 100.59 40.0867C100.766 39.7367 101.028 39.3867 101.291 38.9492C101.642 38.4242 101.904 37.8992 102.255 37.3742C103.043 35.8867 104.27 35.8867 104.883 35.8867C104.97 35.8867 104.97 35.8867 104.97 35.8867C105.321 35.8867 105.584 36.0617 105.671 36.4117C105.671 36.7617 105.496 37.0242 105.146 37.1117C105.058 37.1117 104.97 37.1117 104.883 37.1117C104.532 37.1117 103.744 37.1117 103.306 37.8992C102.956 38.5117 102.693 39.0367 102.342 39.5617C102.08 39.9117 101.904 40.2617 101.729 40.6992C101.028 41.7492 100.766 42.6242 101.817 43.2367Z" fill="#728190"/>
<path fill-rule="evenodd" clip-rule="evenodd" d="M100.766 43.5875C101.028 43.325 101.379 43.4125 101.642 43.5875C101.904 43.85 101.817 44.2 101.642 44.4625C101.554 44.55 101.466 44.6375 101.379 44.725C100.24 45.6875 99.6268 46.3 100.766 51.375C100.941 52.075 100.59 52.5125 100.152 53.125C99.6268 53.9125 98.8384 55.1375 98.926 57.675C98.926 57.9375 98.8384 58.375 98.6632 58.8125C98.5756 59.1625 98.3128 59.5125 98.1376 59.6875C97.8748 59.95 97.5244 59.95 97.2616 59.6875C96.9988 59.425 96.9988 59.075 97.2616 58.8125C97.3492 58.725 97.4368 58.55 97.5244 58.375C97.612 58.1125 97.6996 57.85 97.6996 57.675C97.612 54.7875 98.488 53.3875 99.1888 52.425C99.4516 52.075 99.6268 51.725 99.6268 51.55C98.3128 45.775 99.1888 44.9875 100.678 43.675C100.59 43.7625 100.766 43.675 100.766 43.5875Z" fill="#728190"/>
<path fill-rule="evenodd" clip-rule="evenodd" d="M114.168 26.1752C113.818 23.9002 114.431 21.3627 116.796 20.8377C118.811 20.4002 120.213 20.6627 121.439 20.9252C123.279 21.3627 124.505 21.7127 126.345 21.1002C126.783 20.9252 126.783 21.0127 126.695 20.9252C126.608 20.7502 125.381 21.0127 124.418 20.9252C120.388 20.4002 116.621 17.7752 113.818 21.9752C112.416 24.1627 112.592 26.6127 113.555 28.8877C113.993 30.0252 116.446 33.3502 118.023 35.0127C118.373 35.4502 120.125 36.5002 120.651 36.0627C123.016 34.1377 122.841 32.3002 126.17 31.1627C130.637 29.6752 137.032 29.4127 142.2 28.2752C145.442 27.5752 146.405 27.3127 148.42 26.0877C150.435 24.8627 150.96 23.5502 151.398 22.8502C151.836 22.1502 153.326 19.0877 153.588 18.5627C154.464 16.9877 154.202 19.0877 154.202 19.4377C154.026 20.3127 153.851 21.0127 153.501 22.5877C153.15 24.1627 152.975 25.0377 153.238 25.9127C153.326 26.2627 154.552 27.3127 153.501 27.3127C152.8 27.3127 151.836 27.4877 151.311 27.7502C150.698 28.1002 150.26 28.4502 150.172 28.8002C150.084 29.1502 150.26 29.5002 150.61 29.6752C150.96 29.8502 151.749 30.0252 151.924 30.2877C152.712 30.8127 152.362 30.9877 151.486 30.9877C150.522 30.9877 149.822 30.9002 149.033 31.0752C148.42 31.1627 146.055 31.8627 147.281 32.6502C147.456 32.7377 149.822 34.1377 148.77 34.3127C148.245 34.4002 146.493 34.1377 146.318 34.3127C146.142 34.4877 146.58 34.6627 146.318 34.6627C145.88 34.8377 144.39 34.1377 144.566 35.1002C144.741 35.7127 144.828 35.7127 144.653 35.9752C144.478 36.2377 144.04 36.3252 143.777 36.2377C141.237 35.5377 140.361 35.8877 139.835 36.6752C139.397 37.2002 139.134 37.9002 138.258 38.3377C137.295 38.8627 136.506 38.6002 135.192 38.8627C128.447 40.1752 121.264 48.7502 117.059 54.2627C116.096 55.4877 113.468 59.3377 112.767 60.3877C112.066 61.4377 111.54 62.1377 111.102 62.4877C110.664 62.8377 110.752 63.1002 110.489 62.8377C110.226 62.4877 110.051 62.4002 110.139 61.0002C110.226 59.6002 110.402 58.3752 110.664 57.5002C111.19 56.0127 110.577 56.0127 109.964 57.1502C109 58.7252 108.474 62.2252 109.263 63.4502C110.664 65.8127 111.365 64.0627 113.38 61.7877C114.694 60.2127 117.935 55.4002 118.461 54.6127C120.563 51.5502 125.907 45.7752 128.798 43.5877C130.024 42.6252 131.513 41.5752 134.316 40.7877C135.368 40.4377 136.506 40.3502 137.908 40.0877C138.784 39.9127 139.222 39.4752 139.923 38.8627C140.624 38.2502 140.711 37.8127 141.412 37.5502C142.2 37.3752 143.076 37.5502 144.653 37.8127C148.683 38.5127 145.442 36.6752 146.318 35.9752C146.668 35.7127 147.894 35.4502 148.595 35.5377C149.296 35.6252 149.121 35.8002 149.296 35.9752C149.822 36.5002 150.347 35.0127 150.347 34.7502C150.347 34.2252 149.997 33.8752 149.822 33.2627C149.646 32.7377 149.296 32.3877 149.909 32.2127C150.61 31.9502 153.15 32.2127 153.326 32.2127C154.464 32.3877 154.377 30.8127 153.501 30.1127C152.625 29.4127 152.274 29.6752 152.362 29.4127C152.45 29.1502 153.238 28.9752 153.851 28.8877C154.289 28.8002 157.268 28.1877 156.742 27.4002C156.041 26.4377 154.902 26.9627 154.727 25.9127C154.464 24.5127 155.253 21.9752 155.34 20.0502C155.34 19.7002 155.866 15.1502 154.289 16.6377C153.764 17.1627 153.588 16.9877 152.187 19.4377C149.822 23.5502 149.208 25.5627 143.952 26.8752C137.645 28.4502 128.535 28.8002 125.118 30.2877C122.753 31.3377 120.563 35.0127 120.125 35.1002C119.512 35.1877 118.023 33.7002 116.709 31.7752C117.322 31.2502 119.074 29.5877 119.95 28.5377C121.176 27.1377 121.614 25.5627 121.877 23.7252C121.965 23.2002 121.965 22.7627 121.79 23.0252C121.439 23.8127 120.826 24.5127 120.125 25.2127C119.074 26.3502 116.096 27.9252 114.431 26.8752C114.168 26.3502 114.168 26.2627 114.168 26.1752ZM115.833 30.3752C115.482 29.7627 115.132 29.1502 114.869 28.6252C114.782 28.4502 114.694 28.1877 114.606 28.0127C116.096 27.8377 119.249 26.6127 120.476 25.3002C120.038 26.7002 117.234 29.7627 115.833 30.3752ZM119.95 37.7252C117.41 38.6002 115.482 40.1752 114.256 42.2752C112.504 45.1627 112.329 47.6127 111.978 50.7627C111.803 52.0752 111.803 53.3877 111.628 54.0002C111.54 54.2627 111.278 54.3502 110.927 54.3502C110.489 54.3502 110.314 54.1752 110.226 53.8252C109.613 51.9002 111.716 44.5502 112.854 42.5377C114.168 40.2627 116.183 38.2502 119.95 37.5502C120.476 37.4627 120.388 37.5502 119.95 37.7252Z" fill="#728190"/>
<path fill-rule="evenodd" clip-rule="evenodd" d="M82.1068 65.55C81.844 65.375 81.5812 65.375 81.7564 65.1125C81.9316 64.85 82.1944 65.025 82.4572 65.2C89.1148 69.3125 96.9112 67.825 100.941 61C101.554 60.0375 101.817 59.075 101.904 58.4625V58.375C101.379 58.725 100.415 59.1625 99.5392 59.5125C98.8384 59.775 98.1376 59.95 97.612 59.95C97.2616 59.95 96.9988 59.6875 96.9988 59.3375C96.9988 58.9875 97.2616 58.725 97.612 58.725C97.9624 58.725 98.488 58.55 99.0136 58.375C99.802 58.025 100.678 57.5875 101.204 57.325C101.554 57.15 101.904 57.0625 102.167 57.0625C102.518 57.0625 102.78 57.325 102.956 57.675C103.043 57.9375 103.131 58.2 103.043 58.55C103.043 59.3375 102.605 60.5625 101.904 61.6125C97.612 69.05 89.3776 70.0125 82.1068 65.55Z" fill="#728190"/>
<path fill-rule="evenodd" clip-rule="evenodd" d="M125.907 46.4766C126.345 46.8266 126.257 47.1766 126.257 47.7016C126.257 53.6516 126.783 58.2016 122.14 62.5766C120.3 64.3266 117.497 66.6891 116.884 68.8766C116.796 69.3141 115.92 69.6641 115.92 70.1016C115.92 70.4516 115.745 70.7141 115.395 70.8016C115.044 70.8016 114.782 70.6266 114.694 70.2766C114.606 69.7516 113.818 70.2766 113.993 69.7516C114.344 67.5641 114.869 66.8641 116.534 65.2016C117.848 63.8891 119.249 62.9266 120.914 61.3516C125.118 57.4141 125.294 53.7391 125.644 48.0516C125.644 47.7891 125.556 46.4766 125.907 46.4766Z" fill="#728190"/>
<path fill-rule="evenodd" clip-rule="evenodd" d="M80.3548 67.3C83.596 71.5 87.8008 73.25 92.7064 74.825C87.1876 74.9125 82.282 72.375 78.4276 68.525C78.0772 68 78.2524 67.3 78.778 66.95C79.3036 66.6875 80.0044 66.775 80.3548 67.3ZM130.112 76.6625C129.849 76.4875 129.586 76.3125 129.323 76.1375C129.411 76.4875 129.411 76.925 129.411 77.275C129.323 78.325 128.622 79.375 127.484 79.725C126.432 80.075 125.294 79.6375 124.68 78.5875C124.242 77.8875 124.33 77.0125 124.856 76.3125C125.031 76.05 125.294 75.875 125.556 75.7C125.819 75.525 126.17 75.525 126.432 75.525C126.958 75.525 127.396 75.7875 127.746 76.225C127.834 76.3125 127.834 76.4 127.922 76.4875C128.009 76.75 128.097 77.1 128.009 77.45C127.922 77.8 127.746 78.2375 127.308 78.5C126.17 79.2875 125.907 77.7125 126.17 77.625C127.046 77.8 127.046 77.275 127.046 77.275C127.133 76.8375 126.87 76.4875 126.432 76.4875C125.644 76.4875 125.469 77.3625 125.644 78.0625C125.732 78.4125 126.082 78.675 126.432 78.85C126.695 78.9375 127.046 78.9375 127.308 78.85C128.009 78.675 128.447 77.8 128.535 77.1875C128.622 76.575 128.447 75.875 128.184 75.35C124.593 73.5125 120.738 73.1625 116.446 73.1625C121.702 71.4125 127.046 72.375 131.688 74.9125C132.126 75.2625 132.214 75.9625 131.776 76.4875C131.25 76.925 130.55 77.0125 130.112 76.6625ZM79.8292 62.3125C89.5528 72.9 98.488 73.075 106.985 71.325C111.453 70.3625 115.482 68.6125 119.775 68.2625C119.862 68.2625 120.038 68.2625 120.125 68.2625C124.418 64.5 138.959 63.3625 148.946 69.225C135.455 65.55 130.112 66.25 124.943 68.4375C129.411 69.05 133.966 70.975 135.718 74.2125C135.981 74.65 135.543 74.475 135.368 74.3875C129.236 71.0625 125.994 70.1 122.052 70.45C118.636 70.8 115.132 72.375 109.263 73.775C99.364 76.225 83.7712 72.55 79.8292 62.3125ZM144.478 72.375C140.273 69.1375 135.806 68.525 130.725 68.2625C135.981 66.775 141.324 67.9125 145.967 70.7125C146.405 71.15 146.493 71.85 146.055 72.2875C145.617 72.725 144.916 72.725 144.478 72.375Z" fill="#27B3D6"/>
<path fill-rule="evenodd" clip-rule="evenodd" d="M108.036 100.464C108.036 100.552 107.949 100.727 107.774 101.077C107.16 102.039 106.46 102.739 105.759 103.264C105.058 103.789 104.357 104.052 103.744 104.052C103.306 104.052 103.043 103.877 102.868 103.614C102.693 103.352 102.605 103.002 102.693 102.564C102.78 102.214 102.868 101.777 103.131 101.339C103.218 101.077 103.394 100.814 103.481 100.552L105.846 95.2141L106.022 94.6891C106.022 94.6016 106.022 94.5141 105.934 94.4266C105.671 94.2516 105.671 94.3391 105.408 94.5141C105.233 94.6016 105.146 94.7766 104.97 95.0391C103.569 97.8391 101.204 101.514 98.8384 103.439C98.3128 103.877 97.6996 104.052 97.174 104.052C96.6484 104.052 96.298 103.964 96.0352 103.702C95.7724 103.439 95.6848 103.002 95.7724 102.477C95.86 102.039 96.0352 101.689 96.298 101.427C96.5608 101.164 96.9112 101.077 97.2616 101.077C97.612 101.077 97.8748 101.252 97.9624 101.514C98.05 101.689 98.05 101.952 98.05 102.214V102.652C98.05 102.914 97.8748 103.002 97.9624 103.002C99.1012 103.002 103.131 97.4016 103.744 95.7391C103.919 95.3016 104.007 94.9516 104.007 94.7766C104.007 94.6016 104.007 94.5141 104.007 94.4266C103.919 94.2516 103.744 94.1641 103.394 94.1641H102.956C102.693 94.1641 102.605 94.0766 102.605 93.8141C102.693 93.5516 102.78 93.4641 103.043 93.4641H107.774C108.474 93.4641 108.825 93.7266 108.65 94.3391C108.65 94.5141 108.562 94.6891 108.562 94.7766C108.562 94.8641 108.474 95.0391 108.299 95.4766L105.934 100.902C105.846 100.989 105.846 101.164 105.759 101.339C105.671 101.514 105.671 101.689 105.584 101.777C105.584 102.039 105.584 102.127 105.671 102.127C105.846 102.127 106.022 102.039 106.284 101.777C106.547 101.514 106.81 101.252 107.073 100.902L107.423 100.464C107.598 100.202 107.686 100.114 107.861 100.114C108.036 100.202 108.124 100.289 108.036 100.464ZM118.811 95.6516C118.636 96.7016 117.848 97.5766 116.621 98.3641C115.307 99.1516 113.73 99.5016 111.891 99.5016L111.716 100.289C111.54 100.989 111.628 101.602 111.803 101.952C112.066 102.302 112.416 102.564 112.942 102.564C113.643 102.564 114.344 102.302 115.044 101.777C115.22 101.602 115.658 101.339 116.096 100.814L116.271 100.639C116.358 100.552 116.358 100.552 116.446 100.552C116.621 100.552 116.709 100.639 116.621 100.814C116.621 100.902 116.534 100.989 116.446 101.077C116.358 101.164 116.271 101.252 116.183 101.427C115.395 102.302 114.694 102.914 114.081 103.264C113.292 103.789 112.329 103.964 111.453 103.964C110.226 103.964 109.438 103.527 109 102.652C108.65 101.952 108.562 101.164 108.737 100.202C109.088 98.2766 110.051 96.7016 111.716 95.3016C113.38 93.9016 114.957 93.2016 116.621 93.2016C117.497 93.2016 118.198 93.4641 118.548 93.9891C118.811 94.4266 118.899 95.0391 118.811 95.6516ZM116.271 94.9516C116.358 94.6016 116.358 94.3391 116.271 94.2516C116.183 94.0766 116.008 93.9891 115.833 93.9891C115.307 93.9891 114.606 94.5141 113.818 95.4766C113.03 96.4391 112.416 97.5766 112.066 98.8016C113.03 98.8016 113.906 98.4516 114.694 97.7516C115.57 96.9641 116.096 96.0016 116.271 94.9516ZM132.302 89.2641C131.951 89.9641 131.513 90.4891 130.9 90.8391C130.462 91.1016 129.849 91.2766 129.06 91.3641C128.272 91.4516 127.571 91.5391 126.87 91.6266C126.432 91.7141 125.907 91.8016 125.381 91.9766C124.418 92.3266 123.629 92.8516 122.928 93.5516C122.228 94.3391 121.614 95.4766 121.089 96.8766H121.176C121.79 95.9141 122.49 95.2141 123.454 94.6016C124.505 93.9891 125.556 93.6391 126.608 93.6391C127.659 93.6391 128.447 93.9016 128.885 94.5141C129.411 95.1266 129.498 95.9141 129.323 96.9641C128.973 98.7141 128.009 100.377 126.345 101.777C124.68 103.264 123.016 103.964 121.352 103.964C120.3 103.964 119.512 103.527 119.074 102.739C118.636 102.039 118.548 101.077 118.811 99.9391C119.074 98.7141 119.6 97.4016 120.388 95.8266C121.176 94.4266 122.052 93.2016 123.016 92.1516C124.155 90.8391 125.381 89.8766 126.695 89.3516C127.571 89.0016 128.622 88.7391 129.849 88.6516C130.637 88.6516 131.163 88.5641 131.426 88.5641C131.688 88.5641 131.864 88.4766 132.039 88.3891C132.214 88.3016 132.302 88.1266 132.477 88.0391C132.652 88.0391 132.74 88.2141 132.652 88.4766C132.477 88.8266 132.389 89.0016 132.302 89.2641ZM126.432 96.8766C126.783 95.2141 126.52 94.3391 125.732 94.3391C124.943 94.3391 124.242 94.8641 123.454 96.0016C122.578 97.2266 121.965 98.7141 121.614 100.552C121.439 101.689 121.352 102.389 121.439 102.739C121.527 103.089 121.79 103.264 122.052 103.264C122.753 103.264 123.542 102.652 124.418 101.514C125.469 100.289 126.082 98.7141 126.432 96.8766ZM139.66 95.6516C139.485 96.7016 138.696 97.5766 137.47 98.3641C136.156 99.1516 134.579 99.5016 132.74 99.5016L132.564 100.289C132.389 100.989 132.477 101.602 132.652 101.952C132.915 102.302 133.265 102.564 133.791 102.564C134.492 102.564 135.192 102.302 135.893 101.777C136.068 101.602 136.506 101.339 136.944 100.814L137.12 100.639C137.207 100.552 137.207 100.552 137.295 100.552C137.47 100.552 137.558 100.639 137.47 100.814C137.47 100.902 137.382 100.989 137.295 101.077C137.207 101.164 137.12 101.252 137.032 101.427C136.244 102.302 135.543 102.914 134.93 103.264C134.141 103.789 133.178 103.964 132.302 103.964C131.075 103.964 130.287 103.527 129.849 102.652C129.498 101.952 129.411 101.164 129.586 100.202C129.936 98.2766 130.9 96.7016 132.564 95.3016C134.229 93.9016 135.806 93.2016 137.47 93.2016C138.346 93.2016 139.047 93.4641 139.397 93.9891C139.748 94.4266 139.835 95.0391 139.66 95.6516ZM137.12 94.9516C137.207 94.6016 137.207 94.3391 137.12 94.2516C137.032 94.0766 136.857 93.9891 136.682 93.9891C136.156 93.9891 135.455 94.5141 134.667 95.4766C133.878 96.4391 133.265 97.5766 132.915 98.8016C133.878 98.8016 134.754 98.4516 135.543 97.7516C136.419 96.9641 136.944 96.0016 137.12 94.9516ZM159.282 100.027C159.107 100.989 158.494 101.952 157.443 102.739C156.304 103.614 154.99 104.052 153.413 104.052C152.274 104.052 151.486 103.877 150.96 103.527C150.347 103.089 150.084 102.389 150.26 101.427C150.347 101.077 150.435 100.814 150.522 100.464C150.61 100.202 150.873 99.6766 151.311 98.8891L152.8 96.0891C152.888 95.9141 152.975 95.7391 153.063 95.5641C153.15 95.3891 153.238 95.2141 153.238 95.1266C153.238 94.9516 153.238 94.8641 153.063 94.8641C152.888 94.8641 152.712 94.9516 152.45 95.1266C152.187 95.3016 151.836 95.6516 151.311 96.2641C151.223 96.4391 151.048 96.6141 150.785 96.6141C150.435 96.6141 150.61 96.2641 150.698 96.0891C151.136 95.3891 151.836 94.6891 152.712 94.0766C153.588 93.4641 154.464 93.2016 155.253 93.2016C155.603 93.2016 155.954 93.2891 156.041 93.5516C156.216 93.8141 156.216 94.0766 156.216 94.5141C156.216 94.6891 156.129 94.9516 156.041 95.1266C155.954 95.3891 155.866 95.6516 155.691 96.0016L154.727 97.8391C155.516 97.5766 156.304 97.4016 156.917 97.4016C157.881 97.4016 158.582 97.6641 158.932 98.2766C159.282 98.8016 159.37 99.3266 159.282 100.027ZM156.304 100.114C156.392 99.6766 156.392 99.4141 156.304 99.1516C156.216 98.6266 155.866 98.3641 155.34 98.3641C154.99 98.3641 154.727 98.4516 154.377 98.5391C154.114 98.9766 153.851 99.5891 153.588 100.289C153.326 100.989 153.063 101.602 152.975 102.039C152.888 102.564 152.888 102.914 152.975 103.089C153.063 103.264 153.326 103.352 153.676 103.352C154.289 103.352 154.902 103.002 155.428 102.214C155.866 101.602 156.129 100.902 156.304 100.114Z" fill="#27B3D6"/>
<path fill-rule="evenodd" clip-rule="evenodd" d="M78.34 74.6492C77.902 75.4367 77.3764 76.0492 76.6756 76.3992C76.15 76.6617 75.4492 76.8367 74.4856 76.9242C73.522 77.0117 72.646 77.0992 71.77 77.1867C71.2444 77.2742 70.6312 77.3617 70.018 77.5367C68.8792 77.8867 67.828 78.4117 67.1272 79.1992C66.2512 80.0742 65.5504 81.2992 64.9372 82.8742H65.0248C65.7256 81.9117 66.6892 81.0367 67.7404 80.4242C68.9668 79.7242 70.1932 79.3742 71.5948 79.3742C72.8212 79.3742 73.7848 79.7242 74.398 80.3367C75.0112 80.9492 75.1864 81.9117 74.9236 83.0492C74.5732 84.9742 73.3468 86.7242 71.332 88.2992C69.3172 89.8742 67.3024 90.6617 65.2876 90.6617C63.9736 90.6617 63.01 90.2242 62.4844 89.3492C61.9588 88.5617 61.8712 87.5117 62.134 86.3742C62.3968 85.0617 63.01 83.5742 64.0612 81.9117C65.0248 80.4242 65.9884 79.1117 67.2148 77.9742C68.6164 76.5742 70.1056 75.5242 71.5948 74.9117C72.646 74.4742 73.8724 74.2117 75.3616 74.1242C76.3252 74.1242 76.9384 74.0367 77.2012 74.0367C77.464 74.0367 77.7268 73.9492 77.902 73.8617C78.0772 73.7742 78.2524 73.5992 78.4276 73.5117C78.6028 73.5117 78.6904 73.6867 78.6028 73.9492C78.6028 74.2117 78.5152 74.3867 78.34 74.6492ZM71.4196 82.9617C71.77 81.1242 71.5072 80.2492 70.5436 80.2492C69.6676 80.2492 68.704 80.8617 67.7404 81.9992C66.6892 83.3117 65.9884 84.9742 65.5504 86.9867C65.2876 88.2117 65.2876 88.9992 65.3752 89.4367C65.4628 89.8742 65.7256 90.0492 66.1636 90.0492C66.952 90.0492 67.9156 89.4367 68.9668 88.1242C70.1932 86.6367 70.9816 84.8867 71.4196 82.9617ZM87.3628 81.6492C87.1 82.7867 86.224 83.7492 84.7348 84.5367C83.158 85.3242 81.3184 85.7617 79.0408 85.7617L78.778 86.6367C78.6028 87.4242 78.6904 88.0367 78.9532 88.4742C79.216 88.9117 79.654 89.0867 80.3548 89.0867C81.1432 89.0867 82.0192 88.8242 82.8952 88.2117C83.158 88.0367 83.596 87.6867 84.2092 87.1617L84.3844 86.9867C84.472 86.8992 84.5596 86.8992 84.6472 86.8992C84.8224 86.8992 84.91 86.9867 84.91 87.1617C84.91 87.2492 84.8224 87.4242 84.7348 87.5117C84.6472 87.5992 84.5596 87.7742 84.3844 87.8617C83.5084 88.7367 82.6324 89.4367 81.844 89.8742C80.8804 90.3992 79.8292 90.6617 78.6904 90.6617C77.2012 90.6617 76.2376 90.2242 75.712 89.2617C75.274 88.5617 75.1864 87.6867 75.4492 86.6367C75.8872 84.6242 77.026 82.7867 78.9532 81.2992C80.8804 79.8117 82.8952 79.0242 84.91 79.0242C85.9612 79.0242 86.7496 79.2867 87.2752 79.8117C87.3628 80.3367 87.538 80.9492 87.3628 81.6492ZM84.2968 80.8617C84.3844 80.5117 84.3844 80.2492 84.2092 80.0742C84.1216 79.8992 83.9464 79.8117 83.6836 79.8117C83.0704 79.8117 82.282 80.3367 81.3184 81.3867C80.3548 82.4367 79.654 83.6617 79.216 84.9742C80.3548 84.9742 81.406 84.6242 82.4572 83.8367C83.4208 83.0492 84.034 81.9992 84.2968 80.8617ZM98.4004 86.8992C98.4004 86.9867 98.2252 87.2492 98.05 87.5117C97.3492 88.5617 96.5608 89.3492 95.6848 89.8742C94.8088 90.4867 94.0204 90.7492 93.232 90.7492C92.7064 90.7492 92.356 90.5742 92.1808 90.3117C91.918 90.0492 91.918 89.6117 92.0056 89.1742C92.0932 88.8242 92.2684 88.3867 92.5312 87.8617C92.7064 87.5992 92.794 87.2492 92.9692 86.9867L95.7724 81.2117L96.0352 80.5992C96.0352 80.4242 96.0352 80.3367 95.9476 80.3367C95.9476 80.3367 95.422 80.1617 94.8964 80.4242C94.7212 80.5117 94.4584 80.6867 94.2832 81.0367C93.3196 82.7867 92.4436 84.4492 91.3924 86.1992C90.2536 88.0367 88.1512 90.8367 85.6108 90.8367C84.9976 90.8367 84.5596 90.7492 84.2968 90.4867C83.9464 90.2242 83.8588 89.7867 83.9464 89.1742C84.034 88.6492 84.2968 88.2992 84.6472 88.0367C84.9976 87.7742 85.348 87.6867 85.786 87.6867C86.224 87.6867 86.4868 87.8617 86.5744 88.2117C86.662 88.3867 86.662 88.6492 86.662 88.9992V89.4367C86.662 89.6992 86.7496 89.7867 86.9248 89.7867C89.0272 89.7867 92.0932 83.9242 92.8816 81.9117C93.0568 81.4742 93.232 81.1242 93.232 80.8617C93.232 80.6867 93.232 80.5992 93.232 80.5117C93.1444 80.3367 92.8816 80.2492 92.5312 80.2492H92.0056C91.7428 80.2492 91.5676 80.1617 91.6552 79.8992C91.7428 79.6367 91.918 79.4617 92.1808 79.4617H98.3128C99.1888 79.4617 99.5392 79.8117 99.364 80.4242C99.364 80.5992 99.2764 80.7742 99.2764 80.8617C99.2764 80.9492 99.1012 81.2117 98.926 81.5617L96.1228 87.4242C96.0352 87.5117 95.9476 87.6867 95.86 87.8617C95.7724 88.0367 95.6848 88.2117 95.6848 88.2992C95.5972 88.5617 95.6848 88.6492 95.86 88.6492C96.0352 88.6492 96.298 88.5617 96.5608 88.2992C96.8236 88.0367 97.174 87.7742 97.5244 87.3367L97.9624 86.8992C98.1376 86.6367 98.3128 86.5492 98.4004 86.5492C98.4004 86.5492 98.4004 86.6367 98.4004 86.8992ZM116.358 86.8992C116.358 87.0742 116.183 87.3367 115.833 87.7742C115.482 88.2117 115.22 88.4742 115.044 88.7367C114.431 89.4367 113.73 89.9617 113.03 90.3117C112.329 90.6617 111.716 90.8367 111.102 90.8367C110.664 90.8367 110.314 90.7492 110.051 90.4867C109.788 90.2242 109.701 89.7867 109.788 89.2617C109.788 89.0867 109.876 88.8242 110.051 88.6492C110.139 88.3867 110.226 88.2117 110.314 88.0367L114.081 80.1617C114.168 79.9867 114.256 79.8117 114.344 79.7242C114.519 79.5492 114.694 79.4617 114.869 79.4617H116.972C117.147 79.4617 117.234 79.4617 117.322 79.5492C117.41 79.6367 117.41 79.7242 117.41 79.8992C117.41 79.9867 117.322 80.0742 117.322 80.1617L113.818 87.5117C113.73 87.5992 113.643 87.7742 113.555 87.9492C113.468 88.1242 113.38 88.2992 113.38 88.3867C113.292 88.6492 113.38 88.7367 113.555 88.7367C113.818 88.7367 114.168 88.4742 114.694 88.0367C115.132 87.6867 115.395 87.3367 115.658 86.9867C115.745 86.8992 115.833 86.8117 115.833 86.7242C115.92 86.6367 116.008 86.6367 116.096 86.6367C116.358 86.5492 116.446 86.6367 116.358 86.8992ZM110.051 86.3742C109.788 87.5992 109 88.6492 107.686 89.5242C106.372 90.3117 104.795 90.7492 103.131 90.7492C101.817 90.7492 100.853 90.5742 100.24 90.1367C99.4516 89.6992 99.1888 88.9117 99.364 87.9492C99.4516 87.5117 99.6268 87.0742 99.802 86.6367C99.8896 86.4617 99.9772 86.2867 100.065 86.1992C100.152 86.1117 100.328 85.7617 100.59 85.3242L102.43 82.3492C102.518 82.2617 102.605 82.0867 102.693 81.8242C102.78 81.5617 102.868 81.3867 102.868 81.2992C102.868 81.1242 102.868 81.0367 102.693 81.0367C102.518 81.0367 102.255 81.1242 101.904 81.3867C101.554 81.6492 101.116 81.9992 100.59 82.5242C100.328 82.7867 100.152 82.8742 99.9772 82.8742C99.802 82.8742 99.7144 82.7867 99.7144 82.6117L99.802 82.3492C100.152 81.7367 100.853 81.0367 101.904 80.3367C103.131 79.5492 104.27 79.1117 105.233 79.1117C105.671 79.1117 106.022 79.1992 106.197 79.4617C106.372 79.7242 106.46 80.0742 106.372 80.5117C106.284 80.7742 106.197 81.1242 106.109 81.3867C106.022 81.6492 105.846 81.9117 105.671 82.1742L104.532 84.0992C105.496 83.8367 106.372 83.6617 107.16 83.6617C108.299 83.6617 109.088 83.9242 109.526 84.4492C110.139 84.8867 110.226 85.5867 110.051 86.3742ZM106.547 86.4617C106.635 85.8492 106.635 85.4117 106.46 85.0617C106.284 84.7117 105.934 84.5367 105.408 84.5367C105.233 84.5367 105.058 84.5367 104.883 84.6242C104.708 84.6242 104.445 84.7117 104.27 84.7992C103.919 85.4992 103.569 86.1117 103.218 86.8117C102.868 87.5117 102.693 88.1242 102.605 88.6492C102.518 89.1742 102.518 89.6117 102.78 89.7867C102.956 89.9617 103.131 90.0492 103.481 90.0492C104.182 90.0492 104.883 89.6992 105.496 88.9117C106.022 88.1242 106.372 87.3367 106.547 86.4617ZM124.33 88.6492C124.418 88.2992 124.593 87.9492 124.68 87.5117C124.768 87.3367 124.943 86.8992 125.294 86.1992L125.819 85.1492C124.505 86.8992 123.191 88.2117 121.79 89.1742C120.388 90.1367 119.249 90.6617 118.286 90.6617C117.848 90.6617 117.497 90.5742 117.234 90.3117C116.884 89.9617 116.796 89.4367 116.972 88.7367C117.059 88.3867 117.147 88.0367 117.234 87.6867C117.41 87.3367 117.585 86.8992 117.935 86.3742L118.636 85.1492L120.476 81.9992C120.651 81.7367 120.738 81.5617 120.826 81.3867C120.914 81.2992 120.914 81.2117 120.914 81.1242V80.9492V80.7742C120.914 80.6867 120.826 80.5992 120.651 80.5992C120.3 80.5992 119.95 80.7742 119.775 81.2117C119.249 82.0867 118.724 82.5242 117.935 82.5242C117.76 82.5242 117.672 82.4367 117.672 82.2617C117.672 82.1742 117.76 82.1742 117.76 82.0867C117.935 81.7367 118.286 81.3867 118.899 80.8617C119.687 80.1617 120.476 79.6367 121.264 79.2867C122.052 78.9367 122.753 78.7617 123.366 78.7617C123.804 78.7617 124.067 78.9367 124.242 79.1992C124.418 79.4617 124.505 79.8117 124.418 80.2492C124.33 80.5992 124.242 80.8617 124.155 81.1242C124.067 81.3867 123.892 81.6492 123.804 81.9117L121.176 86.6367C121.089 86.8117 120.914 86.9867 120.914 87.1617C120.738 87.4242 120.738 87.5992 120.651 87.7742C120.563 88.0367 120.651 88.2117 120.914 88.2117C121.089 88.2117 121.352 88.1242 121.614 87.9492C121.877 87.7742 122.315 87.4242 122.928 86.9867C124.067 86.0242 125.118 84.8867 125.994 83.6617C126.783 82.6117 127.396 81.4742 127.922 80.3367L128.184 79.8117C128.272 79.6367 128.36 79.5492 128.535 79.3742C128.71 79.2867 128.885 79.1992 129.236 79.1992H131.513C131.688 79.1992 131.688 79.2867 131.601 79.5492L128.885 85.2367C128.535 85.8492 128.272 86.4617 128.097 86.9867C128.009 87.0742 128.009 87.1617 128.009 87.2492C127.133 87.3367 126.17 87.5992 125.381 87.9492C125.031 88.2992 124.68 88.4742 124.33 88.6492Z" fill="#728190"/>
<path fill-rule="evenodd" clip-rule="evenodd" d="M143.514 87.5108C142.463 87.7733 141.412 88.7358 141.85 89.8733C142.2 91.0108 144.916 90.9233 143.339 88.9108C142.551 87.9483 144.128 87.9482 145.179 87.8607C146.142 87.9482 146.843 88.4733 147.369 89.3483C147.982 90.3983 147.807 93.2858 147.456 94.9483H147.369C147.194 94.4233 146.931 94.0733 146.493 93.8108C146.23 93.7233 145.967 93.6358 145.529 93.6358C143.952 93.6358 142.376 94.3357 140.974 95.7357C139.748 97.0482 138.959 98.3608 138.609 99.9358C138.434 100.898 138.521 101.773 138.872 102.473C139.397 103.436 140.273 103.873 141.587 103.873C143.339 103.873 145.004 102.998 146.668 101.161C148.157 99.4983 149.121 97.6607 149.471 95.7357C149.909 93.5482 149.997 90.2233 149.121 88.9983C148.07 87.3358 145.529 86.9858 143.514 87.5108ZM146.493 97.1358C146.668 96.2608 146.668 95.5608 146.58 95.1233C146.493 94.6858 146.23 94.5108 145.88 94.5108C145.179 94.5108 144.39 95.1233 143.514 96.2608C142.551 97.5733 141.938 98.9733 141.587 100.636C141.412 101.598 141.412 102.298 141.587 102.736C141.762 103.086 142.025 103.261 142.288 103.261C142.989 103.261 143.69 102.648 144.566 101.511C145.529 100.286 146.142 98.7983 146.493 97.1358Z" fill="#27B3D6"/>
<path fill-rule="evenodd" clip-rule="evenodd" d="M65.5504 114.024C65.5504 114.112 65.5504 114.112 65.5504 114.199V114.287V114.374C65.5504 114.374 65.5504 114.462 65.4628 114.462C65.4628 114.462 65.3752 114.549 65.2876 114.637C65.2 114.724 65.1124 114.724 65.0248 114.812C64.9372 114.899 64.762 114.899 64.6744 114.899C64.4992 114.899 64.4116 114.899 64.2364 114.899C63.9736 114.899 63.7108 114.812 63.448 114.724C63.1852 114.637 63.01 114.462 62.9224 114.287C62.7472 114.112 62.6596 113.849 62.572 113.587C62.4844 113.324 62.4844 112.974 62.4844 112.624C62.4844 112.187 62.572 111.837 62.6596 111.574C62.7472 111.312 62.9224 111.049 63.0976 110.874C63.2728 110.699 63.448 110.524 63.7108 110.437C63.9736 110.349 64.1488 110.262 64.4992 110.262C64.5868 110.262 64.762 110.262 64.8496 110.262C64.9372 110.262 65.1124 110.349 65.2 110.349C65.2876 110.349 65.3752 110.437 65.4628 110.524C65.5504 110.612 65.638 110.612 65.638 110.612L65.7256 110.699V110.787V110.874C65.7256 110.874 65.7256 110.962 65.7256 111.049C65.7256 111.137 65.7256 111.224 65.7256 111.312C65.7256 111.399 65.638 111.399 65.638 111.399C65.5504 111.399 65.5504 111.399 65.4628 111.312C65.3752 111.224 65.2876 111.224 65.2 111.137C65.1124 111.049 65.0248 111.049 64.8496 110.962C64.762 110.874 64.5868 110.874 64.4116 110.874C64.0612 110.874 63.7984 111.049 63.6232 111.312C63.448 111.574 63.3604 112.012 63.3604 112.537C63.3604 112.799 63.3604 113.062 63.448 113.237C63.5356 113.412 63.5356 113.587 63.6232 113.762C63.7108 113.937 63.7984 114.024 63.9736 114.024C64.1488 114.112 64.2364 114.112 64.4992 114.112C64.6744 114.112 64.8496 114.112 64.9372 114.024C65.0248 113.937 65.2 113.937 65.2876 113.849C65.3752 113.762 65.4628 113.762 65.5504 113.674C65.638 113.587 65.638 113.587 65.7256 113.587C65.7256 113.587 65.7256 113.587 65.8132 113.587C65.8132 113.587 65.8132 113.587 65.8132 113.674V113.762C65.5504 113.937 65.5504 113.937 65.5504 114.024ZM69.142 114.812L68.6164 116.299C68.6164 116.387 68.5288 116.387 68.4412 116.387C68.3536 116.387 68.266 116.387 68.0908 116.387C68.0032 116.387 67.9156 116.387 67.9156 116.387C67.828 116.387 67.828 116.387 67.828 116.387C67.828 116.387 67.828 116.387 67.828 116.299V116.212L68.3536 114.812C68.3536 114.812 68.266 114.812 68.266 114.724C68.266 114.724 68.266 114.637 68.1784 114.637L66.6892 110.787C66.6892 110.699 66.6892 110.699 66.6892 110.612V110.524H66.7768C66.8644 110.524 66.8644 110.524 66.952 110.524C67.0396 110.524 67.1272 110.524 67.1272 110.524C67.2148 110.524 67.2148 110.524 67.2148 110.524C67.2148 110.524 67.3024 110.524 67.3024 110.612V110.699L68.4412 113.937L69.58 110.699C69.58 110.612 69.58 110.612 69.6676 110.612H69.7552C69.8428 110.612 69.8428 110.612 70.018 110.612C70.1056 110.612 70.1932 110.612 70.1932 110.612C70.2808 110.612 70.2808 110.612 70.2808 110.612V110.699C70.2808 110.699 70.2808 110.787 70.2808 110.874L69.142 114.812ZM71.8576 116.124C71.8576 116.124 71.8576 116.212 71.8576 116.124C71.8576 116.212 71.8576 116.212 71.8576 116.124C71.77 116.212 71.77 116.212 71.6824 116.212C71.6824 116.212 71.5948 116.212 71.5072 116.212C71.4196 116.212 71.4196 116.212 71.332 116.212H71.2444H71.1568C71.1568 116.212 71.1568 116.212 71.1568 116.124V114.287C71.1568 114.199 71.1568 114.199 71.1568 114.112C71.1568 114.112 71.2444 114.112 71.332 114.112H71.5948C71.6824 113.937 71.77 113.849 71.9452 113.674C72.0328 113.499 72.1204 113.324 72.208 112.974C72.2956 112.712 72.3832 112.362 72.4708 112.012C72.5584 111.662 72.646 111.224 72.646 110.699V110.612V110.524C72.646 110.524 72.646 110.524 72.7336 110.437H72.8212H75.0988C75.1864 110.437 75.1864 110.437 75.274 110.524C75.274 110.524 75.3616 110.612 75.3616 110.699V114.112H75.8872C75.9748 114.112 75.9748 114.112 76.0624 114.112C76.0624 114.112 76.0624 114.199 76.0624 114.287V116.124C76.0624 116.124 76.0624 116.124 76.0624 116.212C76.0624 116.212 76.0624 116.212 75.9748 116.212H75.8872C75.8872 116.212 75.7996 116.212 75.712 116.212C75.6244 116.212 75.6244 116.212 75.5368 116.212H75.4492C75.4492 116.212 75.4492 116.212 75.3616 116.212C75.3616 116.212 75.3616 116.212 75.3616 116.124V114.724H71.6824V116.124H71.8576ZM74.6608 111.049H73.3468C73.2592 111.574 73.2592 111.924 73.1716 112.274C73.084 112.624 72.9964 112.887 72.9964 113.149C72.9088 113.412 72.8212 113.587 72.7336 113.674C72.646 113.849 72.5584 113.937 72.4708 114.024H74.6608V111.049ZM81.406 112.537C81.406 112.887 81.406 113.149 81.3184 113.412C81.2308 113.674 81.1432 113.937 80.968 114.112C80.7928 114.287 80.6176 114.462 80.3548 114.549C80.092 114.637 79.8292 114.724 79.4788 114.724C79.1284 114.724 78.8656 114.637 78.6028 114.549C78.34 114.462 78.1648 114.287 77.9896 114.112C77.8144 113.937 77.7268 113.674 77.6392 113.412C77.5516 113.149 77.5516 112.799 77.5516 112.449C77.5516 112.099 77.5516 111.837 77.6392 111.574C77.7268 111.312 77.8144 111.049 77.9896 110.874C78.1648 110.699 78.34 110.524 78.6028 110.437C78.8656 110.349 79.1284 110.262 79.4788 110.262C79.8292 110.262 80.092 110.349 80.3548 110.437C80.6176 110.524 80.7928 110.699 80.968 110.874C81.1432 111.049 81.2308 111.312 81.3184 111.574C81.3184 111.924 81.406 112.274 81.406 112.537ZM80.6176 112.624C80.6176 112.362 80.6176 112.187 80.53 112.012C80.53 111.837 80.4424 111.662 80.3548 111.487C80.2672 111.312 80.092 111.224 80.0044 111.137C79.8292 111.049 79.654 111.049 79.3912 111.049C79.1284 111.049 78.9532 111.049 78.8656 111.137C78.6904 111.224 78.6028 111.312 78.5152 111.487C78.4276 111.662 78.34 111.837 78.2524 112.012C78.1648 112.187 78.1648 112.449 78.1648 112.624C78.1648 112.887 78.1648 113.062 78.2524 113.237C78.2524 113.412 78.34 113.587 78.4276 113.762C78.5152 113.937 78.6904 114.024 78.778 114.112C78.9532 114.199 79.1284 114.199 79.3912 114.199C79.5664 114.199 79.8292 114.199 79.9168 114.112C80.092 114.024 80.1796 113.937 80.2672 113.762C80.3548 113.587 80.4424 113.412 80.53 113.237C80.6176 113.062 80.6176 112.887 80.6176 112.624ZM86.1364 114.549V114.637V114.724H86.0488C85.9612 114.724 85.8736 114.724 85.786 114.724C85.6984 114.724 85.6108 114.724 85.6108 114.724C85.5232 114.724 85.5232 114.724 85.5232 114.724H85.4356C85.4356 114.724 85.4356 114.724 85.348 114.637L84.3844 113.062L83.4208 114.637C83.4208 114.637 83.4208 114.637 83.4208 114.724C83.4208 114.724 83.4208 114.724 83.3332 114.724H83.2456C83.158 114.724 83.158 114.724 83.0704 114.724C82.9828 114.724 82.8952 114.724 82.8952 114.724C82.8076 114.724 82.8076 114.724 82.8076 114.724C82.8076 114.724 82.8076 114.724 82.8076 114.637V114.549L84.034 112.537L82.8076 110.612V110.524V110.437H82.8952C82.9828 110.437 83.0704 110.437 83.158 110.437C83.2456 110.437 83.3332 110.437 83.3332 110.437C83.4208 110.437 83.4208 110.437 83.4208 110.437H83.5084C83.5084 110.437 83.5084 110.437 83.5084 110.524L84.472 112.012L85.4356 110.524C85.4356 110.524 85.4356 110.524 85.4356 110.437C85.4356 110.349 85.4356 110.437 85.5232 110.437H85.6108C85.6984 110.437 85.6984 110.437 85.786 110.437C85.8736 110.437 85.9612 110.437 85.9612 110.437C86.0488 110.437 86.0488 110.437 86.0488 110.437C86.0488 110.437 86.0488 110.437 86.0488 110.524C86.0488 110.524 86.0488 110.612 85.9612 110.612L84.7348 112.537L86.1364 114.549ZM91.48 112.537C91.48 112.887 91.48 113.149 91.3048 113.412C91.2172 113.674 91.1296 113.937 90.9544 114.112C90.7792 114.287 90.604 114.462 90.3412 114.549C90.0784 114.637 89.8156 114.724 89.4652 114.724C89.1148 114.724 88.852 114.637 88.5892 114.549C88.3264 114.462 88.1512 114.287 87.976 114.112C87.8008 113.937 87.7132 113.674 87.6256 113.412C87.538 113.149 87.538 112.799 87.538 112.449C87.538 112.099 87.538 111.837 87.6256 111.574C87.7132 111.312 87.8008 111.049 87.976 110.874C88.1512 110.699 88.3264 110.524 88.5892 110.437C88.852 110.349 89.1148 110.262 89.4652 110.262C89.8156 110.262 90.0784 110.349 90.3412 110.437C90.604 110.524 90.7792 110.699 90.9544 110.874C91.1296 111.049 91.2172 111.312 91.3048 111.574C91.3924 111.924 91.48 112.274 91.48 112.537ZM90.6916 112.624C90.6916 112.362 90.6916 112.187 90.604 112.012C90.604 111.837 90.5164 111.662 90.4288 111.487C90.3412 111.312 90.166 111.224 90.0784 111.137C89.9032 111.049 89.728 111.049 89.4652 111.049C89.2024 111.049 89.0272 111.049 88.9396 111.137C88.7644 111.224 88.6768 111.312 88.5892 111.487C88.5016 111.662 88.414 111.837 88.3264 112.012C88.2388 112.187 88.2388 112.449 88.2388 112.624C88.2388 112.887 88.2388 113.062 88.3264 113.237C88.3264 113.412 88.414 113.587 88.5016 113.762C88.5892 113.937 88.7644 114.024 88.852 114.112C89.0272 114.199 89.2024 114.199 89.4652 114.199C89.6404 114.199 89.9032 114.199 89.9908 114.112C90.166 114.024 90.2536 113.937 90.3412 113.762C90.4288 113.587 90.5164 113.412 90.604 113.237C90.604 113.062 90.6916 112.887 90.6916 112.624ZM93.0568 116.124C93.0568 116.124 93.0568 116.212 93.0568 116.124C92.9692 116.212 93.0568 116.212 93.0568 116.124C92.9692 116.212 92.9692 116.212 92.8816 116.212C92.8816 116.212 92.794 116.212 92.7064 116.212C92.6188 116.212 92.6188 116.212 92.5312 116.212H92.4436H92.356C92.356 116.212 92.356 116.212 92.356 116.124V114.287C92.356 114.199 92.356 114.199 92.356 114.112C92.356 114.112 92.4436 114.112 92.5312 114.112H92.794C92.8816 113.937 92.9692 113.849 93.1444 113.674C93.232 113.499 93.3196 113.324 93.4072 112.974C93.4948 112.712 93.5824 112.362 93.67 112.012C93.7576 111.662 93.8452 111.224 93.8452 110.699V110.612V110.524C93.8452 110.524 93.8452 110.524 93.9328 110.437H94.0204H96.298C96.3856 110.437 96.3856 110.437 96.4732 110.524C96.4732 110.524 96.5608 110.612 96.5608 110.699V114.112H97.0864C97.174 114.112 97.174 114.112 97.2616 114.112C97.2616 114.112 97.2616 114.199 97.2616 114.287V116.124C97.2616 116.124 97.2616 116.124 97.2616 116.212C97.2616 116.212 97.2616 116.212 97.174 116.212H97.0864C97.0864 116.212 96.9988 116.212 96.9112 116.212C96.8236 116.212 96.8236 116.212 96.736 116.212H96.6484C96.6484 116.212 96.6484 116.212 96.5608 116.212C96.5608 116.212 96.5608 116.212 96.5608 116.124V114.724H92.8816V116.124H93.0568ZM95.86 111.049H94.546C94.4584 111.574 94.4584 111.924 94.3708 112.274C94.2832 112.624 94.1956 112.887 94.1956 113.149C94.108 113.412 94.0204 113.587 93.9328 113.674C93.8452 113.849 93.7576 113.937 93.67 114.024H95.86V111.049ZM102.43 114.637C102.43 114.724 102.43 114.724 102.43 114.637C102.43 114.724 102.342 114.724 102.342 114.724H102.255C102.167 114.724 102.167 114.724 102.08 114.724C101.992 114.724 101.904 114.724 101.904 114.724C101.817 114.724 101.817 114.724 101.817 114.724H101.729C101.729 114.724 101.729 114.724 101.729 114.637V112.887H99.6268V114.637V114.724C99.6268 114.724 99.6268 114.724 99.5392 114.724H99.4516C99.364 114.724 99.364 114.724 99.2764 114.724C99.1888 114.724 99.1888 114.724 99.1012 114.724C99.0136 114.724 99.0136 114.724 99.0136 114.724H98.926C98.926 114.724 98.926 114.724 98.926 114.637V110.612V110.524C98.926 110.524 98.926 110.524 99.0136 110.437H99.1012C99.1888 110.437 99.1888 110.437 99.2764 110.437C99.364 110.437 99.4516 110.437 99.4516 110.437C99.5392 110.437 99.5392 110.437 99.5392 110.437C99.5392 110.437 99.6268 110.437 99.6268 110.524C99.6268 110.524 99.6268 110.524 99.6268 110.612V112.274H101.729V110.612V110.524C101.729 110.524 101.729 110.524 101.817 110.437H101.904C101.992 110.437 101.992 110.437 102.08 110.437C102.167 110.437 102.167 110.437 102.255 110.437C102.342 110.437 102.342 110.437 102.342 110.437C102.342 110.437 102.43 110.437 102.43 110.524C102.43 110.524 102.43 110.524 102.43 110.612V114.637ZM107.598 114.637C107.598 114.724 107.598 114.724 107.598 114.637C107.511 114.724 107.511 114.724 107.423 114.724C107.423 114.724 107.336 114.724 107.248 114.724C107.16 114.724 107.073 114.724 107.073 114.724C106.985 114.724 106.985 114.724 106.985 114.724V114.637V114.199C106.81 114.374 106.635 114.549 106.372 114.637C106.197 114.724 105.934 114.812 105.671 114.812C105.496 114.812 105.233 114.812 105.058 114.724C104.883 114.637 104.708 114.549 104.62 114.462C104.532 114.374 104.445 114.199 104.357 114.112C104.27 113.937 104.27 113.762 104.27 113.587C104.27 113.324 104.357 113.149 104.445 112.974C104.532 112.799 104.708 112.624 104.883 112.537C105.058 112.449 105.233 112.362 105.496 112.274C105.759 112.187 106.022 112.187 106.372 112.187H106.898V111.837C106.898 111.662 106.898 111.574 106.81 111.399C106.81 111.312 106.722 111.137 106.635 111.137C106.547 111.049 106.46 110.962 106.372 110.962C106.284 110.962 106.109 110.874 105.934 110.874C105.759 110.874 105.584 110.874 105.408 110.962C105.233 111.049 105.146 111.049 105.058 111.137C104.97 111.224 104.883 111.224 104.795 111.312C104.708 111.312 104.708 111.399 104.62 111.399H104.532C104.532 111.399 104.532 111.399 104.445 111.312V111.224V111.137C104.445 111.049 104.445 110.962 104.445 110.962C104.445 110.962 104.445 110.874 104.532 110.874C104.532 110.874 104.62 110.787 104.708 110.699C104.795 110.612 104.883 110.612 105.058 110.524C105.146 110.437 105.321 110.437 105.496 110.437C105.671 110.437 105.846 110.437 105.934 110.437C106.197 110.437 106.46 110.437 106.635 110.524C106.81 110.612 106.985 110.699 107.16 110.787C107.248 110.874 107.423 111.049 107.423 111.224C107.511 111.399 107.511 111.662 107.511 111.924V114.637H107.598ZM106.81 112.799H106.197C106.022 112.799 105.846 112.799 105.671 112.887C105.496 112.887 105.408 112.974 105.321 113.062C105.233 113.149 105.146 113.237 105.058 113.324C104.97 113.412 104.97 113.499 104.97 113.674C104.97 113.849 105.058 114.024 105.146 114.199C105.321 114.287 105.496 114.374 105.671 114.374C105.846 114.374 106.022 114.287 106.197 114.199C106.372 114.112 106.547 113.937 106.722 113.762V112.799H106.81ZM112.679 114.637C112.679 114.724 112.679 114.724 112.679 114.637C112.679 114.724 112.592 114.724 112.592 114.724H112.504C112.416 114.724 112.416 114.724 112.329 114.724C112.241 114.724 112.154 114.724 112.154 114.724C112.066 114.724 112.066 114.724 112.066 114.724H111.978C111.978 114.724 111.978 114.724 111.978 114.637V112.887H111.54C111.365 112.887 111.19 112.887 111.102 112.974C111.015 112.974 110.927 113.062 110.84 113.149C110.752 113.237 110.664 113.324 110.577 113.412C110.489 113.499 110.489 113.674 110.402 113.849L110.051 114.637C110.051 114.637 110.051 114.724 109.964 114.724C109.964 114.724 109.876 114.724 109.876 114.812H109.788C109.701 114.812 109.701 114.812 109.613 114.812C109.526 114.812 109.526 114.812 109.438 114.812H109.35H109.263C109.263 114.812 109.263 114.812 109.263 114.724V114.637C109.263 114.549 109.35 114.549 109.35 114.374L109.701 113.587C109.788 113.412 109.876 113.237 110.051 113.062C110.139 112.887 110.314 112.799 110.489 112.712C110.226 112.624 109.964 112.537 109.788 112.362C109.613 112.187 109.526 111.924 109.526 111.662C109.526 111.487 109.526 111.312 109.613 111.137C109.701 110.962 109.788 110.874 109.964 110.699C110.139 110.612 110.314 110.524 110.577 110.437C110.84 110.349 111.102 110.349 111.365 110.349C111.453 110.349 111.54 110.349 111.628 110.349C111.716 110.349 111.803 110.349 111.891 110.349C111.978 110.349 112.066 110.349 112.154 110.349C112.241 110.349 112.329 110.349 112.416 110.349C112.504 110.349 112.592 110.349 112.592 110.437C112.592 110.524 112.679 110.524 112.679 110.612V114.637ZM111.891 111.049C111.803 111.049 111.628 111.049 111.54 111.049C111.453 111.049 111.278 111.049 111.19 111.049C111.015 111.049 110.84 111.049 110.664 111.137C110.489 111.137 110.402 111.224 110.314 111.312C110.226 111.399 110.139 111.487 110.139 111.574C110.139 111.662 110.051 111.749 110.051 111.837C110.051 111.924 110.051 112.012 110.139 112.099C110.139 112.187 110.226 112.274 110.314 112.274C110.402 112.362 110.489 112.362 110.664 112.449C110.752 112.449 111.015 112.537 111.19 112.537H111.803V111.049H111.891ZM120.213 114.724C120.125 114.724 120.125 114.724 120.213 114.724C120.125 114.812 120.038 114.812 120.038 114.812C119.95 114.812 119.95 114.812 119.862 114.812C119.775 114.812 119.687 114.812 119.687 114.812C119.6 114.812 119.6 114.812 119.6 114.812H119.512C119.512 114.812 119.512 114.812 119.512 114.724L119.074 113.674C118.986 113.499 118.986 113.412 118.899 113.324C118.811 113.237 118.724 113.149 118.724 113.062C118.636 112.974 118.548 112.974 118.461 112.974C118.373 112.974 118.198 112.974 118.11 112.974H117.76V114.812C117.76 114.812 117.76 114.812 117.76 114.899C117.76 114.899 117.76 114.899 117.672 114.899H117.585C117.497 114.899 117.497 114.899 117.41 114.899C117.322 114.899 117.322 114.899 117.234 114.899C117.147 114.899 117.147 114.899 117.147 114.899H117.059C117.059 114.899 117.059 114.899 117.059 114.812V110.699C117.059 110.699 117.059 110.699 117.147 110.699H117.234C117.322 110.699 117.322 110.699 117.41 110.699C117.497 110.699 117.497 110.699 117.585 110.699C117.672 110.699 117.672 110.699 117.672 110.699H117.76V112.362H118.11C118.198 112.362 118.373 112.362 118.461 112.362C118.548 112.362 118.636 112.274 118.724 112.274C118.811 112.187 118.899 112.099 118.899 112.012C118.986 111.924 118.986 111.837 119.074 111.662L119.424 110.699V110.612C119.424 110.612 119.424 110.612 119.512 110.524H119.6C119.687 110.524 119.687 110.524 119.775 110.524C119.862 110.524 119.862 110.524 119.95 110.524C120.038 110.524 120.038 110.524 120.038 110.524C120.038 110.524 120.038 110.524 120.125 110.524V110.612V110.699L119.775 111.574C119.687 111.749 119.687 111.837 119.6 111.924C119.512 112.012 119.424 112.099 119.424 112.187C119.337 112.274 119.249 112.274 119.162 112.362C119.074 112.362 118.986 112.449 118.986 112.449C119.074 112.449 119.162 112.537 119.249 112.624C119.337 112.712 119.424 112.712 119.512 112.799C119.6 112.887 119.687 112.974 119.687 113.062C119.775 113.149 119.775 113.324 119.862 113.412L120.3 114.462C120.3 114.462 120.3 114.462 120.3 114.549C120.125 114.549 120.213 114.637 120.213 114.724C120.213 114.637 120.213 114.637 120.213 114.724C120.213 114.637 120.213 114.637 120.213 114.724ZM125.556 112.537C125.556 112.887 125.556 113.149 125.469 113.412C125.381 113.674 125.294 113.937 125.118 114.112C124.943 114.287 124.768 114.462 124.505 114.549C124.242 114.637 123.98 114.724 123.629 114.724C123.279 114.724 123.016 114.637 122.753 114.549C122.49 114.462 122.315 114.287 122.14 114.112C121.965 113.937 121.877 113.674 121.79 113.412C121.702 113.149 121.702 112.799 121.702 112.449C121.702 112.099 121.702 111.837 121.79 111.574C121.877 111.312 121.965 111.049 122.14 110.874C122.315 110.699 122.49 110.524 122.753 110.437C123.016 110.349 123.279 110.262 123.629 110.262C123.98 110.262 124.242 110.349 124.505 110.437C124.768 110.524 124.943 110.699 125.118 110.874C125.294 111.049 125.381 111.312 125.469 111.574C125.469 111.924 125.556 112.274 125.556 112.537ZM124.768 112.624C124.768 112.362 124.768 112.187 124.68 112.012C124.68 111.837 124.593 111.662 124.505 111.487C124.418 111.312 124.242 111.224 124.155 111.137C123.98 111.049 123.804 111.049 123.542 111.049C123.279 111.049 123.104 111.049 123.016 111.137C122.841 111.224 122.753 111.312 122.666 111.487C122.578 111.662 122.49 111.837 122.403 112.012C122.315 112.187 122.315 112.449 122.315 112.624C122.315 112.887 122.315 113.062 122.403 113.237C122.403 113.412 122.49 113.587 122.578 113.762C122.666 113.937 122.841 114.024 122.928 114.112C123.104 114.199 123.279 114.199 123.542 114.199C123.717 114.199 123.98 114.199 124.067 114.112C124.242 114.024 124.33 113.937 124.418 113.762C124.505 113.587 124.593 113.412 124.68 113.237C124.68 113.062 124.768 112.887 124.768 112.624Z" fill="#728190"/>
<path fill-rule="evenodd" clip-rule="evenodd" d="M132.477 114.637C132.477 114.724 132.477 114.724 132.389 114.812C132.302 114.812 132.214 114.812 132.126 114.812C132.039 114.812 131.951 114.812 131.951 114.812C131.864 114.812 131.864 114.812 131.864 114.812H131.776C131.776 114.812 131.776 114.812 131.776 114.724L131.513 112.362C131.513 112.274 131.513 112.187 131.513 112.099C131.513 112.012 131.513 111.924 131.513 111.837C131.513 111.749 131.513 111.662 131.513 111.574C131.513 111.487 131.513 111.399 131.513 111.312V111.224C131.513 111.312 131.426 111.399 131.426 111.487C131.426 111.574 131.338 111.662 131.338 111.749C131.338 111.837 131.25 111.924 131.25 112.012C131.25 112.099 131.163 112.187 131.163 112.274L130.287 114.724V114.812C130.287 114.812 130.287 114.812 130.199 114.899H130.112C130.024 114.899 130.024 114.899 129.936 114.899C129.849 114.899 129.849 114.899 129.761 114.899H129.674C129.674 114.899 129.586 114.899 129.586 114.812C129.586 114.812 129.586 114.724 129.498 114.724L128.71 112.274C128.71 112.187 128.622 112.099 128.622 112.012C128.622 111.924 128.535 111.837 128.535 111.749C128.535 111.662 128.447 111.574 128.447 111.487C128.447 111.399 128.36 111.312 128.36 111.224V111.312C128.36 111.399 128.36 111.487 128.36 111.574C128.36 111.662 128.36 111.749 128.36 111.837C128.36 111.924 128.36 112.012 128.36 112.099C128.36 112.187 128.36 112.274 128.36 112.362L128.097 114.724V114.812C128.097 114.812 128.097 114.812 128.009 114.899H127.922C127.834 114.899 127.834 114.899 127.746 114.899C127.659 114.899 127.571 114.899 127.571 114.899H127.484C127.484 114.899 127.484 114.899 127.484 114.812V114.724L127.922 110.874C127.922 110.787 128.009 110.699 128.009 110.699C128.097 110.612 128.184 110.612 128.272 110.612H128.622C128.71 110.612 128.798 110.612 128.885 110.612C128.973 110.612 128.973 110.612 129.06 110.699C129.06 110.699 129.148 110.787 129.148 110.874C129.148 110.962 129.236 110.962 129.236 111.049L129.849 112.799C129.849 112.887 129.936 112.974 129.936 113.149C129.936 113.237 130.024 113.324 130.024 113.499C130.024 113.587 130.112 113.674 130.112 113.849C130.112 113.937 130.199 114.024 130.199 114.112C130.199 114.024 130.287 113.937 130.287 113.849C130.287 113.762 130.374 113.674 130.374 113.499C130.374 113.412 130.462 113.324 130.462 113.149C130.462 113.062 130.55 112.974 130.55 112.887L131.163 111.137C131.163 111.049 131.25 110.962 131.25 110.962C131.25 110.874 131.338 110.874 131.338 110.787C131.338 110.787 131.426 110.699 131.513 110.699C131.601 110.699 131.601 110.699 131.688 110.699H132.039C132.126 110.699 132.214 110.699 132.302 110.787C132.389 110.787 132.389 110.874 132.389 110.962L132.477 114.637ZM137.733 114.637C137.733 114.724 137.733 114.724 137.733 114.637C137.733 114.724 137.645 114.724 137.645 114.724H137.558C137.47 114.724 137.47 114.724 137.382 114.724C137.295 114.724 137.207 114.724 137.207 114.724C137.12 114.724 137.12 114.724 137.12 114.724H137.032C137.032 114.724 137.032 114.724 137.032 114.637V111.049H135.105V114.637V114.724C135.105 114.724 135.105 114.724 135.017 114.724H134.93C134.842 114.724 134.842 114.724 134.754 114.724C134.667 114.724 134.667 114.724 134.579 114.724C134.492 114.724 134.492 114.724 134.492 114.724H134.404C134.404 114.724 134.404 114.724 134.404 114.637V110.699C134.404 110.612 134.404 110.524 134.492 110.524C134.492 110.437 134.579 110.437 134.667 110.437H137.645C137.733 110.437 137.733 110.437 137.82 110.524C137.82 110.524 137.908 110.612 137.908 110.699V114.637H137.733ZM142.901 114.637C142.901 114.724 142.901 114.724 142.901 114.637C142.814 114.724 142.814 114.724 142.726 114.724C142.726 114.724 142.638 114.724 142.551 114.724C142.463 114.724 142.376 114.724 142.376 114.724C142.288 114.724 142.288 114.724 142.288 114.724V114.637V114.199C142.113 114.374 141.938 114.549 141.675 114.637C141.5 114.724 141.237 114.812 140.974 114.812C140.799 114.812 140.536 114.812 140.361 114.724C140.186 114.637 140.01 114.549 139.923 114.462C139.835 114.374 139.748 114.199 139.66 114.112C139.572 113.937 139.572 113.762 139.572 113.587C139.572 113.324 139.66 113.149 139.748 112.974C139.835 112.799 140.01 112.624 140.186 112.537C140.361 112.449 140.536 112.362 140.799 112.274C141.062 112.187 141.324 112.187 141.675 112.187H142.2V111.837C142.2 111.662 142.2 111.574 142.113 111.399C142.113 111.312 142.025 111.137 141.938 111.137C141.85 111.049 141.762 110.962 141.675 110.962C141.587 110.962 141.412 110.874 141.237 110.874C141.062 110.874 140.886 110.874 140.711 110.962C140.536 111.049 140.448 111.049 140.361 111.137C140.273 111.224 140.186 111.224 140.098 111.312C140.01 111.312 140.01 111.399 139.923 111.399H139.835C139.835 111.399 139.835 111.399 139.748 111.312V111.224V111.137C139.748 111.049 139.748 110.962 139.748 110.962C139.748 110.962 139.748 110.874 139.835 110.874C139.835 110.874 139.923 110.787 140.01 110.699C140.098 110.612 140.186 110.612 140.361 110.524C140.448 110.437 140.624 110.437 140.799 110.437C140.974 110.437 141.149 110.437 141.237 110.437C141.5 110.437 141.762 110.437 142.025 110.524C142.2 110.612 142.376 110.699 142.551 110.787C142.638 110.874 142.814 111.049 142.814 111.224C142.901 111.399 142.901 111.662 142.901 111.924V114.637ZM142.113 112.799H141.5C141.324 112.799 141.149 112.799 140.974 112.887C140.799 112.887 140.711 112.974 140.624 113.062C140.536 113.149 140.448 113.237 140.361 113.324C140.273 113.412 140.273 113.499 140.273 113.674C140.273 113.849 140.361 114.024 140.448 114.199C140.624 114.287 140.799 114.374 140.974 114.374C141.149 114.374 141.324 114.287 141.5 114.199C141.675 114.112 141.85 113.937 142.025 113.762V112.799H142.113ZM148.508 114.637C148.508 114.724 148.508 114.724 148.508 114.637C148.508 114.724 148.42 114.724 148.42 114.724H148.332C148.245 114.724 148.245 114.724 148.157 114.724C148.07 114.724 147.982 114.724 147.982 114.724C147.894 114.724 147.894 114.724 147.894 114.724H147.807C147.807 114.724 147.807 114.724 147.807 114.637V112.887H145.704V114.637V114.724C145.704 114.724 145.704 114.724 145.617 114.724H145.529C145.442 114.724 145.442 114.724 145.354 114.724C145.266 114.724 145.266 114.724 145.179 114.724C145.091 114.724 145.091 114.724 145.091 114.724H145.004C145.004 114.724 145.004 114.724 145.004 114.637V110.612V110.524C145.004 110.524 145.004 110.524 145.091 110.437H145.179C145.266 110.437 145.266 110.437 145.354 110.437C145.442 110.437 145.529 110.437 145.529 110.437C145.617 110.437 145.617 110.437 145.617 110.437C145.617 110.437 145.704 110.437 145.704 110.524C145.704 110.524 145.704 110.524 145.704 110.612V112.274H147.807V110.612V110.524C147.807 110.524 147.807 110.524 147.894 110.437H147.982C148.07 110.437 148.07 110.437 148.157 110.437C148.245 110.437 148.332 110.437 148.332 110.437C148.42 110.437 148.42 110.437 148.42 110.437C148.42 110.437 148.508 110.437 148.508 110.524C148.508 110.524 148.508 110.524 148.508 110.612V114.637ZM154.202 114.637C154.202 114.724 154.202 114.724 154.202 114.637C154.202 114.724 154.114 114.724 154.114 114.724H154.026C153.939 114.724 153.939 114.724 153.851 114.724C153.764 114.724 153.676 114.724 153.676 114.724C153.588 114.724 153.588 114.724 153.588 114.724H153.501C153.501 114.724 153.501 114.724 153.501 114.637V112.274C153.501 112.187 153.501 112.012 153.501 111.924C153.501 111.837 153.501 111.662 153.501 111.574C153.413 111.662 153.326 111.837 153.238 111.924C153.15 112.012 153.063 112.187 152.975 112.274L151.223 114.637C151.223 114.637 151.223 114.724 151.136 114.724C151.136 114.724 151.136 114.724 151.048 114.724H150.96C150.96 114.724 150.873 114.724 150.785 114.724C150.698 114.724 150.698 114.724 150.61 114.724H150.522H150.435C150.435 114.724 150.435 114.724 150.435 114.637V110.524C150.435 110.524 150.435 110.524 150.435 110.437C150.435 110.437 150.435 110.437 150.522 110.349H150.61C150.698 110.349 150.698 110.349 150.785 110.349C150.96 110.349 151.048 110.349 151.048 110.349C151.136 110.349 151.136 110.437 151.136 110.437V112.799C151.136 112.887 151.136 113.062 151.136 113.149C151.136 113.237 151.136 113.412 151.136 113.499C151.223 113.412 151.311 113.237 151.311 113.149C151.398 113.062 151.486 112.974 151.574 112.799L153.326 110.437C153.326 110.437 153.326 110.437 153.413 110.349C153.413 110.349 153.501 110.349 153.501 110.262H153.588C153.588 110.262 153.676 110.262 153.764 110.262C153.851 110.262 153.851 110.262 153.939 110.262H154.026C154.026 110.262 154.026 110.262 154.114 110.349C154.114 110.349 154.114 110.349 154.114 110.437V114.637H154.202ZM159.37 114.637C159.37 114.724 159.37 114.724 159.37 114.637C159.37 114.724 159.37 114.724 159.282 114.724H159.195C159.107 114.724 159.107 114.724 159.02 114.724C158.932 114.724 158.844 114.724 158.844 114.724C158.757 114.724 158.757 114.724 158.757 114.724H158.669C158.669 114.724 158.669 114.724 158.669 114.637V112.887H158.231C158.056 112.887 157.881 112.887 157.793 112.974C157.706 112.974 157.618 113.062 157.53 113.149C157.443 113.237 157.355 113.324 157.268 113.412C157.18 113.499 157.18 113.674 157.092 113.849L156.742 114.637C156.742 114.637 156.742 114.724 156.654 114.724C156.654 114.724 156.567 114.724 156.567 114.812C156.567 114.812 156.479 114.812 156.392 114.812C156.304 114.812 156.304 114.812 156.216 114.812C156.129 114.812 156.129 114.812 156.041 114.812C155.954 114.812 155.954 114.812 155.954 114.812H155.866C155.866 114.812 155.866 114.812 155.866 114.724V114.637C155.866 114.549 155.954 114.549 155.954 114.374L156.304 113.587C156.392 113.412 156.479 113.237 156.654 113.062C156.742 112.887 156.917 112.799 157.092 112.712C156.83 112.624 156.567 112.537 156.392 112.362C156.216 112.187 156.129 111.924 156.129 111.662C156.129 111.487 156.129 111.312 156.216 111.137C156.304 110.962 156.392 110.874 156.567 110.699C156.742 110.612 156.917 110.524 157.18 110.437C157.443 110.349 157.706 110.349 157.968 110.349C158.056 110.349 158.144 110.349 158.231 110.349C158.319 110.349 158.406 110.349 158.494 110.349C158.582 110.349 158.669 110.349 158.757 110.349C158.844 110.349 158.932 110.349 159.02 110.349C159.107 110.349 159.195 110.349 159.195 110.437C159.282 110.524 159.282 110.524 159.282 110.612V114.637H159.37ZM158.582 111.049C158.494 111.049 158.319 111.049 158.231 111.049C158.144 111.049 157.968 111.049 157.881 111.049C157.706 111.049 157.53 111.049 157.355 111.137C157.18 111.137 157.092 111.224 157.005 111.312C156.917 111.399 156.83 111.487 156.83 111.574C156.83 111.662 156.742 111.749 156.742 111.837C156.742 111.924 156.742 112.012 156.83 112.099C156.83 112.187 156.917 112.274 157.005 112.274C157.092 112.362 157.18 112.362 157.355 112.449C157.443 112.449 157.706 112.537 157.881 112.537H158.494V111.049H158.582Z" fill="#728190"/>
</g>
<defs>
<filter id="filter0_d_1320_8493" x="0" y="0" width="218" height="138" filterUnits="userSpaceOnUse" color-interpolation-filters="sRGB">
<feFlood flood-opacity="0" result="BackgroundImageFix"/>
<feColorMatrix in="SourceAlpha" type="matrix" values="0 0 0 0 0 0 0 0 0 0 0 0 0 0 0 0 0 0 127 0" result="hardAlpha"/>
<feOffset dy="4"/>
<feGaussianBlur stdDeviation="2"/>
<feComposite in2="hardAlpha" operator="out"/>
<feColorMatrix type="matrix" values="0 0 0 0 0 0 0 0 0 0 0 0 0 0 0 0 0 0 0.25 0"/>
<feBlend mode="normal" in2="BackgroundImageFix" result="effect1_dropShadow_1320_8493"/>
<feBlend mode="normal" in="SourceGraphic" in2="effect1_dropShadow_1320_8493" result="shape"/>
</filter>
<clipPath id="clip0_1320_8493">
<rect width="210" height="130" fill="white" transform="translate(4)"/>
</clipPath>
</defs>
</svg>
