<svg width="210" height="58" viewBox="0 0 210 58" fill="none" xmlns="http://www.w3.org/2000/svg">
<path d="M65.8928 21.3164V38.1847H68.1192V45.4347H65.2636V40.9881H52.5828V45.4347H49.7272V38.1847C51.1308 38.2331 52.244 37.0247 52.8732 35.5264C53.2604 34.5597 53.5992 33.0614 53.5992 30.3547V21.3164H65.8928ZM56.6 30.3547C56.6 33.3997 56.2612 34.8981 55.9224 35.8164C55.4868 36.9281 54.9544 37.6047 54.3736 38.1364H62.8436V24.1681H56.6V30.3547Z" fill="#333333"/>
<path d="M73.9272 29.0014H82.3488V21.3164H85.3496V40.9881H82.3488V31.8047H73.9272V40.9881H70.9264V21.3164H73.9272V29.0014Z" fill="#333333"/>
<path d="M100.934 24.1681H93.0936V28.8564H100.692V31.7081H93.0936V38.1847H100.934V41.0364H90.0928V21.3164H100.934V24.1681Z" fill="#333333"/>
<path d="M119.326 21.3164V40.9881H116.326V24.1681H107.904V40.9881H104.903V21.3164H119.326Z" fill="#333333"/>
<path d="M128.377 21.3164C129.587 21.3164 131.281 21.4131 132.685 22.3797C134.33 23.4914 135.153 25.3764 135.153 27.1647C135.153 28.3247 134.863 30.0647 133.217 31.4664C131.668 32.7714 129.829 33.0131 128.426 33.0131H127.07V40.9881H124.07V21.3164H128.377ZM127.07 30.2581H128.426C131.039 30.2581 132.249 29.0014 132.249 27.1647C132.249 26.0531 131.814 24.1197 128.377 24.1197H127.07V30.2581Z" fill="#333333"/>
<path d="M157.756 31.1749C157.756 36.9749 153.4 41.3732 147.495 41.3732C141.59 41.3732 137.234 36.9266 137.234 31.1749C137.234 25.4232 141.59 20.9766 147.495 20.9766C153.4 20.9766 157.756 25.4232 157.756 31.1749ZM154.755 31.1749C154.755 26.8249 151.754 23.7316 147.544 23.7316C143.333 23.7316 140.332 26.7766 140.332 31.1749C140.332 35.5249 143.333 38.6182 147.544 38.6182C151.754 38.6182 154.755 35.5249 154.755 31.1749Z" fill="#333333"/>
<path d="M161.531 21.3164H171.405V24.1681H164.532V29.2914H166.468C167.872 29.2914 169.904 29.5331 171.405 30.8381C172.518 31.8047 173.244 33.3514 173.244 35.1881C173.244 36.9764 172.47 38.8614 170.776 39.9731C169.372 40.9397 167.678 41.0364 166.468 41.0364H161.483V21.3164H161.531ZM164.532 38.1847H166.371C167.146 38.1847 170.34 38.1847 170.34 35.1881C170.34 33.7864 169.614 32.0947 166.42 32.0947H164.532V38.1847Z" fill="#333333"/>
<path d="M178.52 21.3164L183.698 31.5147L188.2 21.3164H191.346L182.44 40.9881H179.294L181.956 35.1397L174.841 21.3164H178.52Z" fill="#333333"/>
<path d="M193.911 21.3164H203.736V24.1681H196.863V40.9881H193.862V21.3164H193.911Z" fill="#333333"/>
<path d="M41.9832 43.6466C42.1768 43.7916 42.2736 43.9849 42.2736 44.1783C42.2736 44.3716 42.2252 44.5649 41.9832 44.6616C41.7896 44.7583 41.596 44.7583 41.4024 44.6133C41.2088 44.4683 41.0636 44.3716 40.9668 44.2749C40.7248 44.0816 40.4344 43.9849 40.0472 43.8883C39.66 43.7916 39.2728 43.8399 38.8856 43.8883C38.0144 44.0816 37.24 44.3716 36.5624 44.8066C35.8848 45.2416 35.062 45.5316 34.1908 45.7249C33.6584 45.8216 33.126 45.7733 32.642 45.6283C32.158 45.4833 31.7224 45.3383 31.3836 45.1933C30.706 44.9033 30.0284 44.6133 29.4476 44.2749C28.8184 43.9366 28.0924 43.6949 27.318 43.5983H26.7372C26.1564 43.5983 25.6724 43.6949 25.3336 43.8883C24.9948 44.0816 24.656 44.2749 24.2688 44.5166C24.0752 44.6133 23.8332 44.7099 23.5912 44.8066C23.3492 44.9033 23.0588 44.9516 22.7684 44.9999C22.4296 45.0483 22.0424 44.9999 21.5584 44.8549C21.1228 44.6616 20.8324 44.5166 20.6388 44.3716C20.3 43.9849 19.9128 43.7433 19.5256 43.5016C19.1384 43.2599 18.606 43.1149 17.9768 43.0666C17.638 43.0183 17.2508 43.0666 16.8636 43.2116C16.4764 43.3566 16.186 43.5016 15.944 43.6466L14.3468 44.5166C14.1048 44.6616 13.9112 44.8066 13.6208 44.9516C13.3788 45.0966 13.0884 45.1933 12.8464 45.2899C12.4108 45.3866 11.9752 45.3866 11.5396 45.2899C11.104 45.1933 10.7168 45.0483 10.4264 44.9516C9.70038 44.7099 9.02278 44.4199 8.34518 44.1299C7.71598 43.8399 6.98998 43.5983 6.21558 43.4049C5.92518 43.3083 5.63478 43.3083 5.29598 43.3566C4.95718 43.4049 4.71518 43.5016 4.52158 43.5983C4.42478 43.6466 4.32798 43.7433 4.23118 43.7916C4.13438 43.8883 4.03758 43.9366 3.94078 43.9849C3.79558 44.0333 3.65038 43.9849 3.50518 43.8883C3.35998 43.7433 3.31158 43.5983 3.31158 43.4533C3.40838 43.0183 3.79558 42.7283 4.52158 42.4866C5.24758 42.2449 5.92518 42.2449 6.50598 42.3416C7.47398 42.5833 8.34518 42.8733 9.11958 43.2599C9.89398 43.6466 10.7652 43.9849 11.6848 44.1783C12.1204 44.2749 12.4592 44.2749 12.798 44.1299C13.1368 43.9849 13.4272 43.8399 13.6692 43.6949C13.766 43.6466 13.8628 43.5983 13.9596 43.5499C14.0564 43.5016 14.1532 43.4533 14.1532 43.3566C14.1532 43.3083 14.1532 43.1633 14.0564 42.9699C13.9596 42.7766 13.9112 42.6799 13.9112 42.5833C13.766 42.2449 13.6208 41.8583 13.4272 41.5199C13.282 41.1816 13.1368 40.7949 12.9916 40.4566C12.5076 39.4416 12.072 38.3783 11.588 37.3633C11.104 36.3483 10.5716 35.3816 9.99078 34.5116C9.94238 34.4149 9.84558 34.3183 9.79718 34.2699C9.70038 34.1733 9.65198 34.1249 9.55518 34.0283C9.36158 33.8833 9.11958 33.7383 8.82918 33.5933C8.53878 33.4483 8.49038 33.1583 8.68398 32.7716C8.87758 32.3366 9.36158 32.0466 10.0392 31.9016C10.7652 31.7566 11.3944 31.6116 11.9268 31.4666C12.072 31.4666 12.2172 31.4183 12.4108 31.4666C12.556 31.4666 12.7012 31.4666 12.8464 31.4183C12.8948 31.2733 12.9432 30.9349 12.8948 30.4033C12.8948 29.8716 12.8464 29.4849 12.8464 29.1949V24.0716C12.8464 23.7333 12.8464 23.2983 12.8464 22.7183C12.8464 22.1383 12.8948 21.7999 13.04 21.6066C13.1368 21.4133 13.3304 21.3649 13.6692 21.4133C13.9596 21.4616 14.2016 21.4616 14.3952 21.4133C14.4436 21.3649 14.4436 21.2199 14.4436 21.1233C14.4436 20.9783 14.4436 20.8333 14.4436 20.6883V20.1566C14.4436 20.0599 14.3468 19.9633 14.25 19.8666C14.1048 19.7699 14.008 19.6733 13.9596 19.6249L13.282 18.9483C13.1368 18.8033 13.04 18.6583 12.9916 18.4649C12.9432 18.2716 12.9916 18.1266 13.1852 17.9333C13.3304 17.8849 13.524 17.8366 13.8144 17.8366C14.1048 17.8366 14.2984 17.8366 14.492 17.8366H17.7348C17.88 17.8366 18.122 17.8366 18.5576 17.8366C18.9448 17.8366 19.1868 17.8366 19.1868 17.7399C19.2352 17.6916 19.2352 17.5466 19.2352 17.4499C19.2352 17.3049 19.2352 17.2083 19.2352 17.1116V15.4683L19.2836 14.7916C19.2836 14.7433 19.332 14.6466 19.4288 14.5983C19.4772 14.5499 19.574 14.5016 19.6708 14.5016C20.2516 14.4049 20.4936 14.8399 20.3484 15.8066C20.2032 16.7733 20.2032 17.4499 20.3484 17.8366C20.4452 17.8849 20.6872 17.8849 21.026 17.8849C21.3648 17.8849 21.6068 17.8849 21.752 17.8366C21.8004 17.7883 21.8488 17.5466 21.8488 17.2083C21.8488 16.8216 21.8488 16.5799 21.8488 16.4349V13.4383C21.8488 13.1966 21.8488 12.9066 21.8488 12.6166C21.8488 12.3266 21.8972 12.1333 22.0908 12.0366L22.3328 11.9883C22.6716 11.9883 22.8168 12.1333 22.8652 12.3749C22.8652 12.6166 22.9136 12.9066 22.9136 13.1966V16.4833C22.9136 16.6283 22.9136 16.8699 22.9136 17.2083C22.9136 17.5949 22.9136 17.7883 22.962 17.8366C23.0588 17.8849 23.3008 17.8849 23.7848 17.8849C24.2204 17.8849 24.5592 17.8849 24.7044 17.8849H29.012C29.3992 17.8849 29.7864 17.8849 30.222 17.8366C30.6576 17.8366 30.948 17.9333 31.0448 18.2233C31.0932 18.4166 31.0932 18.6099 30.948 18.7066C30.8028 18.8516 30.706 18.9483 30.6092 19.0449C30.5124 19.1416 30.3188 19.3349 30.0284 19.6249C29.738 19.8666 29.5928 20.0599 29.5444 20.2049V21.2683C29.5928 21.3649 29.738 21.4133 30.0284 21.3649C30.3188 21.3166 30.5124 21.3166 30.6576 21.3649C30.7544 21.3649 30.8512 21.4133 30.948 21.5099C31.0448 21.6066 31.0932 21.6549 31.0932 21.7516L31.1416 26.7783V30.3066C31.1416 30.4516 31.1416 30.6449 31.1416 30.9833C31.1416 31.2733 31.1416 31.4666 31.2384 31.4666C31.3836 31.5149 31.5772 31.5633 31.8192 31.5633C32.0612 31.5633 32.3032 31.5633 32.4484 31.6116C32.9324 31.7083 33.5132 31.8533 34.094 31.9983C34.6748 32.1433 35.062 32.4333 35.304 32.8199C35.3524 32.8683 35.3524 32.9166 35.4008 33.0133C35.4008 33.1099 35.4008 33.2066 35.4008 33.2549C35.3524 33.5449 35.2556 33.6899 35.062 33.7866C34.8684 33.8349 34.6748 33.9316 34.4812 34.0766C34.336 34.1733 34.2392 34.2699 34.1424 34.4149C34.0456 34.5599 33.9488 34.6566 33.9004 34.8016C33.5616 35.2849 33.2712 35.8166 33.0292 36.2999C32.7872 36.7833 32.4968 37.3633 32.2548 37.8949C32.0128 38.4266 31.7708 38.9583 31.4804 39.4899C31.19 40.0216 30.9964 40.5533 30.7544 41.1333C30.6576 41.3749 30.5608 41.6649 30.464 41.9066C30.3188 42.1483 30.222 42.4383 30.1252 42.6799C30.1252 42.7283 30.0768 42.8249 30.0284 42.9216C29.98 43.0183 29.98 43.1149 29.98 43.2116C30.0284 43.2599 30.0768 43.3083 30.1736 43.3083C30.2704 43.3083 30.3672 43.3566 30.4156 43.4049C30.6092 43.5016 30.8028 43.5983 30.9964 43.6949C31.19 43.7916 31.3836 43.8883 31.5772 43.9366C31.8192 44.0333 32.0612 44.1783 32.3516 44.2749C32.5936 44.4199 32.884 44.4683 33.1744 44.5649C33.6584 44.6616 34.094 44.6133 34.5296 44.4683C34.9652 44.3233 35.304 44.1783 35.5944 44.0816C36.2236 43.8399 36.8528 43.5499 37.4336 43.3083C38.0144 43.0666 38.692 42.8249 39.4664 42.7283C39.9504 42.6799 40.4344 42.7283 40.9668 42.9699C41.354 43.2599 41.7412 43.5016 41.9832 43.6466ZM21.4616 31.0799C21.4616 30.9349 21.4616 30.7416 21.4616 30.4999C21.4616 30.2583 21.4616 30.1133 21.3648 30.0166H21.268C21.1712 30.0649 21.0744 30.1133 20.9776 30.1616C20.8808 30.2099 20.7356 30.2099 20.6388 30.2583C20.3968 30.3549 20.2032 30.4516 19.9612 30.4999C19.7192 30.5966 19.5256 30.6933 19.2836 30.7416C18.364 31.0799 17.4928 31.3699 16.6216 31.6599C15.7504 31.9499 14.8308 32.1916 13.766 32.4333L12.3624 32.4816C11.9268 32.5299 11.4912 32.6266 11.0556 32.6266C10.62 32.6749 10.2328 32.7716 9.94238 33.0133L9.89398 33.0616C9.94238 33.2066 10.0392 33.3033 10.136 33.3516C10.2328 33.3999 10.3296 33.4966 10.378 33.5933C11.0072 34.3666 11.4428 35.0433 11.7816 35.5749C12.072 36.1549 11.9752 35.9616 11.3944 34.9949C11.8784 35.7683 12.314 36.6383 12.7496 37.5083C13.1852 38.3783 13.5724 39.2966 13.9596 40.1666C14.1048 40.4566 14.2016 40.7949 14.3468 41.0849C14.492 41.4233 14.5888 41.7133 14.734 42.0516C14.7824 42.1483 14.8308 42.2449 14.8308 42.4383C14.8792 42.5833 14.9276 42.6799 15.0244 42.7283C15.1212 42.7766 15.218 42.7283 15.3632 42.6316C15.5084 42.5349 15.6052 42.4866 15.702 42.4383C15.9924 42.2933 16.2828 42.1483 16.5732 42.0999C16.8636 42.0033 17.2024 41.9549 17.5896 41.9066C18.2672 41.8099 18.9448 41.9549 19.6708 42.3416C20.3968 42.7283 20.9292 43.0666 21.2196 43.3566H21.268H21.3164L21.3648 33.4966V31.0799H21.4616ZM21.8972 28.6633C22.0908 28.6149 22.3812 28.7116 22.7684 28.9049C23.1556 29.0983 23.446 29.2433 23.5912 29.2916C23.8332 29.3883 24.0752 29.4849 24.3172 29.5816C24.5592 29.6783 24.8496 29.7749 25.0916 29.8233C25.14 29.8233 25.2368 29.8716 25.3336 29.9683C25.4304 30.0166 25.5272 30.0649 25.5756 30.1133C25.8176 30.2099 26.0596 30.3066 26.3016 30.3549C26.5436 30.4516 26.7856 30.5483 27.0276 30.6449L27.2696 30.6933L27.4148 30.7899L27.6568 30.8383C27.8988 30.9349 28.1892 31.0316 28.4796 31.1283C28.77 31.2249 29.1088 31.2733 29.3508 31.3216C29.3992 31.3699 29.496 31.3699 29.6412 31.3699C29.7864 31.3699 29.8832 31.3699 29.8832 31.3216V22.5249L29.98 22.4766H14.008H13.9596L13.9112 22.5249L13.8628 29.2916V30.7899C13.8628 30.8866 13.8628 30.9833 13.8628 31.0799C13.8628 31.2249 13.8628 31.2733 13.9112 31.3216C14.008 31.3216 14.1532 31.3216 14.2984 31.2733C14.4436 31.2249 14.5404 31.1766 14.6372 31.1766L15.0244 31.1283C15.218 31.0799 15.4116 31.0316 15.6052 30.9833C15.7988 30.9349 15.9924 30.8383 16.186 30.7899H16.428L16.6216 30.6449L16.8636 30.5966L17.0088 30.4999L17.2508 30.4516C17.4444 30.4033 17.638 30.3066 17.8316 30.2583C18.0252 30.2099 18.2188 30.1133 18.4124 30.0649L18.5576 29.9683H18.848L18.8964 29.9199L18.9448 29.8716H19.1384C19.4288 29.7266 19.7676 29.5816 20.1064 29.4366C20.4452 29.2916 20.784 29.1466 21.1228 29.0016C21.268 28.9533 21.3648 28.9049 21.51 28.8083C21.6068 28.7599 21.752 28.7116 21.8972 28.6633ZM17.6864 22.9116C17.7832 22.9599 17.88 23.0566 17.9284 23.2016C18.0252 23.3466 18.0252 23.4916 17.9284 23.6366C17.8316 23.8783 17.4928 24.0233 16.912 24.0233C16.3312 24.0233 15.8472 23.9749 15.5084 23.9749C15.4116 23.9749 15.2664 23.9749 15.0728 24.0233C14.8792 24.0233 14.7824 24.0233 14.6856 23.9749C14.3952 23.8299 14.2984 23.6366 14.2984 23.3949C14.3468 23.1533 14.492 23.0083 14.7824 22.9116H16.8152C16.912 22.9116 17.0572 22.9116 17.2508 22.9116C17.4928 22.8633 17.5896 22.8633 17.6864 22.9116ZM14.9276 18.8516L14.8792 18.8999C14.8792 18.8999 14.8308 18.9483 14.8308 18.9966C14.8792 19.0449 14.9276 19.0933 14.976 19.1416C15.0244 19.1899 15.0728 19.2383 15.1696 19.2383L18.0252 19.2866H28.1408C28.2376 19.2866 28.3828 19.2866 28.5764 19.2866C28.7216 19.2866 28.8668 19.2866 28.9152 19.2383L29.254 18.8999V18.8516H29.1572H14.9276ZM28.528 21.2683C28.528 21.2199 28.5764 21.0749 28.5764 20.8333C28.5764 20.6399 28.5764 20.4949 28.528 20.4466C28.4796 20.3983 28.3344 20.3983 28.1408 20.3983C27.9472 20.3983 27.802 20.3983 27.7052 20.3983H15.5568L15.46 20.4466L15.3632 20.4949C15.3632 20.5916 15.3632 20.7366 15.3632 20.9299C15.3632 21.1233 15.3632 21.2683 15.46 21.2683C15.5568 21.3166 15.702 21.3649 15.8956 21.3649C16.0892 21.3649 16.2344 21.3649 16.3796 21.3649H27.4148C27.6084 21.3649 27.7536 21.3649 27.9472 21.3649C28.1408 21.3649 28.286 21.3649 28.4796 21.3166L28.528 21.2683ZM25.0916 23.5399C25.0432 23.7816 24.8496 23.9266 24.6076 23.9266C24.3656 23.9266 24.0752 23.9749 23.7848 23.9749H20.542H19.2352C18.9448 23.8299 18.848 23.6366 18.848 23.3949C18.8964 23.1533 19.0416 22.9599 19.332 22.8633H23.7364C24.0268 22.8633 24.2688 22.8633 24.4624 22.8633C24.656 22.8633 24.8496 22.9599 24.9464 23.1533C24.9464 23.2016 24.9948 23.2499 24.9948 23.2983C25.0432 23.3949 25.0916 23.4433 25.0916 23.5399ZM28.9152 42.8733C29.012 42.5349 29.1572 42.1966 29.3024 41.8583C29.4476 41.5199 29.5928 41.1816 29.738 40.8433C29.8348 40.6499 29.9316 40.4566 29.98 40.2633C30.0284 40.0699 30.1252 39.8766 30.1736 39.6833C30.5608 38.8616 30.948 38.0399 31.3352 37.2183C31.7224 36.3966 32.1096 35.6233 32.5936 34.8983C32.7388 34.6566 32.884 34.4149 33.0292 34.2216C33.1744 34.0283 33.368 33.7866 33.5616 33.5933L34.0456 33.2066L33.9972 33.1583C33.6584 32.9649 33.2712 32.8683 32.8356 32.7716C32.4 32.6749 31.9644 32.6266 31.4804 32.5783L30.2704 32.5299C30.0284 32.4816 29.8348 32.4333 29.5928 32.4333C29.3508 32.3849 29.1572 32.3366 28.9152 32.2883C28.8184 32.2883 28.6732 32.2399 28.528 32.1916C28.3828 32.1433 28.286 32.0949 28.1408 32.0466C27.4632 31.8533 26.834 31.6599 26.2532 31.4666C25.624 31.2733 25.0432 31.0316 24.3656 30.7899C24.172 30.6933 23.93 30.5966 23.688 30.5483C23.446 30.4516 23.204 30.3549 23.0104 30.3066C22.962 30.2583 22.8652 30.2099 22.7684 30.1616C22.6716 30.1133 22.5748 30.0649 22.5264 30.0649L22.478 30.1133V42.8249C22.478 42.9699 22.478 43.1633 22.4296 43.4049C22.4296 43.6466 22.4296 43.7916 22.478 43.9366C22.72 43.9849 22.9136 43.9849 23.1556 43.8883C23.3976 43.7916 23.5428 43.7433 23.688 43.6949C23.9784 43.5499 24.2688 43.3566 24.5592 43.1633C24.8496 42.9699 25.14 42.8249 25.4788 42.7283C25.8176 42.6316 26.2532 42.5833 26.7372 42.5833C27.2212 42.5833 27.6568 42.6316 28.044 42.7283C28.1408 42.7766 28.2376 42.8249 28.3344 42.8733C28.4796 42.9216 28.5764 42.9699 28.6732 42.9699L28.9152 42.8733ZM26.3016 23.9266C26.108 23.7816 26.0112 23.6366 26.0112 23.3949C26.0112 23.1533 26.108 23.0083 26.3016 22.9116L26.4468 22.8633H28.4796L29.3024 22.9116C29.3508 22.9599 29.4476 23.0566 29.5444 23.1533C29.6412 23.2983 29.6412 23.3949 29.5928 23.4916C29.5928 23.5883 29.5444 23.6849 29.4476 23.7333C29.3992 23.8299 29.3024 23.8783 29.2056 23.9266H27.1728C27.0276 23.9266 26.8824 23.9266 26.6888 23.9266C26.5436 23.9749 26.3984 23.9749 26.3016 23.9266Z" fill="#2A5EBC"/>
</svg>
